<?xml version="1.0" ?>
<!--Created by PyChart 1.38 Copyright 1999-2005 Yasushi Saito-->
<svg viewBox="267.492 -464 230.015 203.5" xmlns="http://www.w3.org/2000/svg" xmlns:xlink="http://www.w3.org/1999/xlink">
  <defs>
    <clipPath id="clip0">
      <path d="M 297 -297 L 297 -423 L 453 -423 L 453 -297 Z"/>
    </clipPath>
    <clipPath id="clip1">
      <path d="M 300 -300 L 300 -420 L 450 -420 L 450 -300 Z"/>
    </clipPath>
    <clipPath id="clip2">
      <path d="M 297.5 -300.0 L 297.5 -328.23529411764707 L 302.5 -328.23529411764707 L 302.5 -300.0 Z"/>
    </clipPath>
    <clipPath id="clip3">
      <path d="M 324.77272727272725 -300.0 L 324.77272727272725 -391.76470588235293 L 329.77272727272725 -391.76470588235293 L 329.77272727272725 -300.0 Z"/>
    </clipPath>
    <clipPath id="clip4">
      <path d="M 352.04545454545456 -300.0 L 352.04545454545456 -377.64705882352939 L 357.04545454545456 -377.64705882352939 L 357.04545454545456 -300.0 Z"/>
    </clipPath>
    <clipPath id="clip5">
      <path d="M 379.31818181818181 -300.0 L 379.31818181818181 -363.52941176470586 L 384.31818181818181 -363.52941176470586 L 384.31818181818181 -300.0 Z"/>
    </clipPath>
    <clipPath id="clip6">
      <path d="M 406.59090909090912 -300.0 L 406.59090909090912 -335.29411764705884 L 411.59090909090912 -335.29411764705884 L 411.59090909090912 -300.0 Z"/>
    </clipPath>
    <clipPath id="clip7">
      <path d="M 433.86363636363637 -300.0 L 433.86363636363637 -405.88235294117646 L 438.86363636363637 -405.88235294117646 L 438.86363636363637 -300.0 Z"/>
    </clipPath>
    <clipPath id="clip8">
      <path d="M 297 -297 L 297 -423 L 453 -423 L 453 -297 Z"/>
    </clipPath>
    <clipPath id="clip9">
      <path d="M 290 -290 L 290 -430 L 460 -430 L 460 -290 Z"/>
    </clipPath>
    <clipPath id="clip10">
      <path d="M 460.0 -297 L 460.0 -318 L 494.50700000000001 -318 L 494.50700000000001 -297 Z"/>
    </clipPath>
    <clipPath id="clip11">
      <path d="M 465.0 -308.85000000000002 L 465.0 -315.14999999999998 L 471.30000000000001 -315.14999999999998 L 471.30000000000001 -308.85000000000002 Z"/>
    </clipPath>
  </defs>
  <g style="stroke-linejoin:miter;font-size:9;font-family:Helvetica;fill:none;stroke-linecap:butt;stroke:rgb(0,0,0);font-stretch:normal;stroke-dasharray:none;font-weight:normal;font-style:normal;stroke-width:0.4;">
    <path d="M 300 -300 L 450 -300"/>
    <path d="M 300 -300 L 450 -300"/>
    <path d="M 300.0 -300 L 300.0 -294"/>
    <text style="stroke:none;fill:rgb(0,0,0);" x="294.99599999999998" y="-285.0">
      10
    </text>
    <path d="M 327.27272727272725 -300 L 327.27272727272725 -294"/>
    <text style="stroke:none;fill:rgb(0,0,0);" x="318.5157272727273" y="-285.0">
      20.0
    </text>
    <path d="M 354.54545454545456 -300 L 354.54545454545456 -294"/>
    <text style="stroke:none;fill:rgb(0,0,0);" x="345.78845454545456" y="-285.0">
      30.0
    </text>
    <path d="M 381.81818181818181 -300 L 381.81818181818181 -294"/>
    <text style="stroke:none;fill:rgb(0,0,0);" x="373.06118181818181" y="-285.0">
      40.0
    </text>
    <path d="M 409.09090909090912 -300 L 409.09090909090912 -294"/>
    <text style="stroke:none;fill:rgb(0,0,0);" x="400.33390909090906" y="-285.0">
      50.0
    </text>
    <path d="M 436.36363636363637 -300 L 436.36363636363637 -294"/>
    <text style="stroke:none;fill:rgb(0,0,0);" x="427.60663636363637" y="-285.0">
      60.0
    </text>
    <text style="stroke:none;fill:rgb(0,0,0);" x="361.24349999999998" y="-263.5">
      X label
    </text>
    <path d="M 300 -420 L 450 -420"/>
    <path d="M 300 -420 L 450 -420"/>
    <path d="M 300.0 -420 L 300.0 -426"/>
    <text style="stroke:none;fill:rgb(0,0,0);" x="294.99599999999998" y="-426.0">
      10
    </text>
    <path d="M 327.27272727272725 -420 L 327.27272727272725 -426"/>
    <text style="stroke:none;fill:rgb(0,0,0);" x="318.5157272727273" y="-426.0">
      20.0
    </text>
    <path d="M 354.54545454545456 -420 L 354.54545454545456 -426"/>
    <text style="stroke:none;fill:rgb(0,0,0);" x="345.78845454545456" y="-426.0">
      30.0
    </text>
    <path d="M 381.81818181818181 -420 L 381.81818181818181 -426"/>
    <text style="stroke:none;fill:rgb(0,0,0);" x="373.06118181818181" y="-426.0">
      40.0
    </text>
    <path d="M 409.09090909090912 -420 L 409.09090909090912 -426"/>
    <text style="stroke:none;fill:rgb(0,0,0);" x="400.33390909090906" y="-426.0">
      50.0
    </text>
    <path d="M 436.36363636363637 -420 L 436.36363636363637 -426"/>
    <text style="stroke:none;fill:rgb(0,0,0);" x="427.60663636363637" y="-426.0">
      60.0
    </text>
    <text style="stroke:none;fill:rgb(0,0,0);" x="355.74450000000002" y="-447.5">
      X label(2)
    </text>
    <path d="M 300 -314.11764705882354 L 450 -314.11764705882354" style="stroke:rgb(179,179,179);stroke-dasharray:1,1;"/>
    <path d="M 300 -328.23529411764707 L 450 -328.23529411764707" style="stroke:rgb(179,179,179);stroke-dasharray:1,1;"/>
    <path d="M 300 -342.35294117647061 L 450 -342.35294117647061" style="stroke:rgb(179,179,179);stroke-dasharray:1,1;"/>
    <path d="M 300 -356.47058823529414 L 450 -356.47058823529414" style="stroke:rgb(179,179,179);stroke-dasharray:1,1;"/>
    <path d="M 300 -370.58823529411768 L 450 -370.58823529411768" style="stroke:rgb(179,179,179);stroke-dasharray:1,1;"/>
    <path d="M 300 -384.70588235294116 L 450 -384.70588235294116" style="stroke:rgb(179,179,179);stroke-dasharray:1,1;"/>
    <path d="M 300 -398.8235294117647 L 450 -398.8235294117647" style="stroke:rgb(179,179,179);stroke-dasharray:1,1;"/>
    <path d="M 300 -412.94117647058823 L 450 -412.94117647058823" style="stroke:rgb(179,179,179);stroke-dasharray:1,1;"/>
    <path d="M 300 -300 L 300 -420"/>
    <path d="M 300 -300.0 L 294 -300.0"/>
    <text style="stroke:none;fill:rgb(0,0,0);" x="288.99599999999998" y="-295.5">
      0
    </text>
    <path d="M 300 -314.11764705882354 L 294 -314.11764705882354"/>
    <text style="stroke:none;fill:rgb(0,0,0);" x="283.99200000000002" y="-309.61764705882354">
      10
    </text>
    <path d="M 300 -328.23529411764707 L 294 -328.23529411764707"/>
    <text style="stroke:none;fill:rgb(0,0,0);" x="283.99200000000002" y="-323.73529411764707">
      20
    </text>
    <path d="M 300 -342.35294117647061 L 294 -342.35294117647061"/>
    <text style="stroke:none;fill:rgb(0,0,0);" x="283.99200000000002" y="-337.85294117647061">
      30
    </text>
    <path d="M 300 -356.47058823529414 L 294 -356.47058823529414"/>
    <text style="stroke:none;fill:rgb(0,0,0);" x="283.99200000000002" y="-351.97058823529414">
      40
    </text>
    <path d="M 300 -370.58823529411768 L 294 -370.58823529411768"/>
    <text style="stroke:none;fill:rgb(0,0,0);" x="283.99200000000002" y="-366.08823529411768">
      50
    </text>
    <path d="M 300 -384.70588235294116 L 294 -384.70588235294116"/>
    <text style="stroke:none;fill:rgb(0,0,0);" x="283.99200000000002" y="-380.20588235294116">
      60
    </text>
    <path d="M 300 -398.8235294117647 L 294 -398.8235294117647"/>
    <text style="stroke:none;fill:rgb(0,0,0);" x="283.99200000000002" y="-394.3235294117647">
      70
    </text>
    <path d="M 300 -412.94117647058823 L 294 -412.94117647058823"/>
    <text style="stroke:none;fill:rgb(0,0,0);" x="283.99200000000002" y="-408.44117647058823">
      80
    </text>
    <text style="stroke:none;fill:rgb(0,0,0);" transform="rotate(-90,279.492,-346.243)" x="279.49200000000002" y="-346.24349999999998">
      Y label
    </text>
    <g style="clip-path:url(#clip0);">
      <g style="clip-path:url(#clip1);">
        <g style="fill:rgb(0,0,0);clip-path:url(#clip2);">
          <path d="M 297.5 -300.0 L 297.5 -328.23529411764707 L 302.5 -328.23529411764707 L 302.5 -300.0 Z" style="stroke:none;"/>
        </g>
        <g>
          <path d="M 297.5 -300.0 L 297.5 -328.23529411764707 L 302.5 -328.23529411764707 L 302.5 -300.0 Z"/>
          <g style="fill:rgb(0,0,0);clip-path:url(#clip3);">
            <path d="M 324.77272727272725 -300.0 L 324.77272727272725 -391.76470588235293 L 329.77272727272725 -391.76470588235293 L 329.77272727272725 -300.0 Z" style="stroke:none;"/>
          </g>
          <g>
            <path d="M 324.77272727272725 -300.0 L 324.77272727272725 -391.76470588235293 L 329.77272727272725 -391.76470588235293 L 329.77272727272725 -300.0 Z"/>
            <g style="fill:rgb(0,0,0);clip-path:url(#clip4);">
              <path d="M 352.04545454545456 -300.0 L 352.04545454545456 -377.64705882352939 L 357.04545454545456 -377.64705882352939 L 357.04545454545456 -300.0 Z" style="stroke:none;"/>
            </g>
            <g>
              <path d="M 352.04545454545456 -300.0 L 352.04545454545456 -377.64705882352939 L 357.04545454545456 -377.64705882352939 L 357.04545454545456 -300.0 Z"/>
              <g style="fill:rgb(0,0,0);clip-path:url(#clip5);">
                <path d="M 379.31818181818181 -300.0 L 379.31818181818181 -363.52941176470586 L 384.31818181818181 -363.52941176470586 L 384.31818181818181 -300.0 Z" style="stroke:none;"/>
              </g>
              <g>
                <path d="M 379.31818181818181 -300.0 L 379.31818181818181 -363.52941176470586 L 384.31818181818181 -363.52941176470586 L 384.31818181818181 -300.0 Z"/>
                <g style="fill:rgb(0,0,0);clip-path:url(#clip6);">
                  <path d="M 406.59090909090912 -300.0 L 406.59090909090912 -335.29411764705884 L 411.59090909090912 -335.29411764705884 L 411.59090909090912 -300.0 Z" style="stroke:none;"/>
                </g>
                <g>
                  <path d="M 406.59090909090912 -300.0 L 406.59090909090912 -335.29411764705884 L 411.59090909090912 -335.29411764705884 L 411.59090909090912 -300.0 Z"/>
                  <g style="fill:rgb(0,0,0);clip-path:url(#clip7);">
                    <path d="M 433.86363636363637 -300.0 L 433.86363636363637 -405.88235294117646 L 438.86363636363637 -405.88235294117646 L 438.86363636363637 -300.0 Z" style="stroke:none;"/>
                  </g>
                  <g>
                    <path d="M 433.86363636363637 -300.0 L 433.86363636363637 -405.88235294117646 L 438.86363636363637 -405.88235294117646 L 438.86363636363637 -300.0 Z"/>
                  </g>
                </g>
              </g>
            </g>
          </g>
        </g>
      </g>
      <g style="clip-path:url(#clip8);">
        <path d="M 300.0 -342.35294117647061 L 327.27272727272725 -346.58823529411762 L 354.54545454545456 -342.35294117647061 L 381.81818181818181 -372.0 L 409.09090909090912 -338.11764705882354 L 436.36363636363637 -342.35294117647061" style="stroke-width:1.2;"/>
      </g>
      <g style="clip-path:url(#clip9);"/>
    </g>
    <g style="fill:rgb(255,255,255);clip-path:url(#clip10);">
      <path d="M 460.0 -297 L 460.0 -318 L 494.50700000000001 -318 L 494.50700000000001 -297 Z" style="stroke:none;"/>
    </g>
    <g>
      <path d="M 460.0 -297 L 460.0 -318 L 494.50700000000001 -318 L 494.50700000000001 -297 Z"/>
      <g style="fill:rgb(0,0,0);clip-path:url(#clip11);">
        <path d="M 465.0 -308.85000000000002 L 465.0 -315.14999999999998 L 471.30000000000001 -315.14999999999998 L 471.30000000000001 -308.85000000000002 Z" style="stroke:none;"/>
      </g>
      <g>
        <path d="M 465.0 -308.85000000000002 L 465.0 -315.14999999999998 L 471.30000000000001 -315.14999999999998 L 471.30000000000001 -308.85000000000002 Z"/>
        <text style="stroke:none;fill:rgb(0,0,0);" x="474.0" y="-309.0">
          foo
        </text>
        <path d="M 465.0 -303.0 L 474.0 -303.0" style="stroke-width:1.2;"/>
        <text style="stroke:none;fill:rgb(0,0,0);" x="474.0" y="-300.0">
          bar
        </text>
      </g>
    </g>
  </g>
</svg>
