<?xml version="1.0" ?>
<!--Created by PyChart 1.38 Copyright 1999-2005 Yasushi Saito-->
<svg viewBox="267.492 -431.283 481.518 167.581" xmlns="http://www.w3.org/2000/svg" xmlns:xlink="http://www.w3.org/1999/xlink">
  <defs>
    <clipPath id="clip0">
      <path d="M 297 -297 L 297 -423 L 453 -423 L 453 -297 Z"/>
    </clipPath>
    <clipPath id="clip1">
      <path d="M 300 -300 L 300 -420 L 450 -420 L 450 -300 Z"/>
    </clipPath>
    <clipPath id="clip2">
      <path d="M 307.5 -300.0 L 307.5 -332.0 L 312.5 -332.0 L 312.5 -300.0 Z"/>
    </clipPath>
    <clipPath id="clip3">
      <path d="M 337.5 -300.0 L 337.5 -404.0 L 342.5 -404.0 L 342.5 -300.0 Z"/>
    </clipPath>
    <clipPath id="clip4">
      <path d="M 367.5 -300.0 L 367.5 -388.0 L 372.5 -388.0 L 372.5 -300.0 Z"/>
    </clipPath>
    <clipPath id="clip5">
      <path d="M 397.5 -300.0 L 397.5 -372.0 L 402.5 -372.0 L 402.5 -300.0 Z"/>
    </clipPath>
    <clipPath id="clip6">
      <path d="M 427.5 -300.0 L 427.5 -340.0 L 432.5 -340.0 L 432.5 -300.0 Z"/>
    </clipPath>
    <clipPath id="clip7">
      <path d="M 300 -300 L 300 -420 L 450 -420 L 450 -300 Z"/>
    </clipPath>
    <clipPath id="clip8">
      <path d="M 312.5 -300.0 L 312.5 -348.0 L 317.5 -348.0 L 317.5 -300.0 Z"/>
    </clipPath>
    <clipPath id="clip9">
      <path d="M 342.5 -300.0 L 342.5 -352.80000000000001 L 347.5 -352.80000000000001 L 347.5 -300.0 Z"/>
    </clipPath>
    <clipPath id="clip10">
      <path d="M 372.5 -300.0 L 372.5 -348.0 L 377.5 -348.0 L 377.5 -300.0 Z"/>
    </clipPath>
    <clipPath id="clip11">
      <path d="M 402.5 -300.0 L 402.5 -381.60000000000002 L 407.5 -381.60000000000002 L 407.5 -300.0 Z"/>
    </clipPath>
    <clipPath id="clip12">
      <path d="M 432.5 -300.0 L 432.5 -343.19999999999999 L 437.5 -343.19999999999999 L 437.5 -300.0 Z"/>
    </clipPath>
    <clipPath id="clip13">
      <path d="M 300 -300 L 300 -420 L 450 -420 L 450 -300 Z"/>
    </clipPath>
    <clipPath id="clip14">
      <path d="M 317.5 -300.0 L 317.5 -308.0 L 322.5 -308.0 L 322.5 -300.0 Z"/>
    </clipPath>
    <clipPath id="clip15">
      <path d="M 347.5 -300.0 L 347.5 -308.0 L 352.5 -308.0 L 352.5 -300.0 Z"/>
    </clipPath>
    <clipPath id="clip16">
      <path d="M 377.5 -300.0 L 377.5 -308.0 L 382.5 -308.0 L 382.5 -300.0 Z"/>
    </clipPath>
    <clipPath id="clip17">
      <path d="M 407.5 -300.0 L 407.5 -311.19999999999999 L 412.5 -311.19999999999999 L 412.5 -300.0 Z"/>
    </clipPath>
    <clipPath id="clip18">
      <path d="M 437.5 -300.0 L 437.5 -304.80000000000001 L 442.5 -304.80000000000001 L 442.5 -300.0 Z"/>
    </clipPath>
    <clipPath id="clip19">
      <path d="M 460.0 -297 L 460.0 -327 L 496.00999999999999 -327 L 496.00999999999999 -297 Z"/>
    </clipPath>
    <clipPath id="clip20">
      <path d="M 465.0 -317.85000000000002 L 465.0 -324.14999999999998 L 471.30000000000001 -324.14999999999998 L 471.30000000000001 -317.85000000000002 Z"/>
    </clipPath>
    <clipPath id="clip21">
      <path d="M 465.0 -308.85000000000002 L 465.0 -315.14999999999998 L 471.30000000000001 -315.14999999999998 L 471.30000000000001 -308.85000000000002 Z"/>
    </clipPath>
    <clipPath id="clip22">
      <path d="M 465.0 -299.85000000000002 L 465.0 -306.14999999999998 L 471.30000000000001 -306.14999999999998 L 471.30000000000001 -299.85000000000002 Z"/>
    </clipPath>
    <clipPath id="clip23">
      <path d="M 547 -297 L 547 -423 L 703 -423 L 703 -297 Z"/>
    </clipPath>
    <clipPath id="clip24">
      <path d="M 550 -300 L 550 -420 L 700 -420 L 700 -300 Z"/>
    </clipPath>
    <clipPath id="clip25">
      <path d="M 562.5 -300.0 L 562.5 -320.86956521739131 L 567.5 -320.86956521739131 L 567.5 -300.0 Z"/>
    </clipPath>
    <clipPath id="clip26">
      <path d="M 592.5 -300.0 L 592.5 -367.82608695652175 L 597.5 -367.82608695652175 L 597.5 -300.0 Z"/>
    </clipPath>
    <clipPath id="clip27">
      <path d="M 622.5 -300.0 L 622.5 -357.39130434782606 L 627.5 -357.39130434782606 L 627.5 -300.0 Z"/>
    </clipPath>
    <clipPath id="clip28">
      <path d="M 652.5 -300.0 L 652.5 -346.95652173913044 L 657.5 -346.95652173913044 L 657.5 -300.0 Z"/>
    </clipPath>
    <clipPath id="clip29">
      <path d="M 682.5 -300.0 L 682.5 -326.08695652173913 L 687.5 -326.08695652173913 L 687.5 -300.0 Z"/>
    </clipPath>
    <clipPath id="clip30">
      <path d="M 550 -300 L 550 -420 L 700 -420 L 700 -300 Z"/>
    </clipPath>
    <clipPath id="clip31">
      <path d="M 562.5 -320.86956521739131 L 562.5 -352.17391304347825 L 567.5 -352.17391304347825 L 567.5 -320.86956521739131 Z"/>
    </clipPath>
    <clipPath id="clip32">
      <path d="M 592.5 -367.82608695652175 L 592.5 -402.26086956521738 L 597.5 -402.26086956521738 L 597.5 -367.82608695652175 Z"/>
    </clipPath>
    <clipPath id="clip33">
      <path d="M 622.5 -357.39130434782606 L 622.5 -388.69565217391306 L 627.5 -388.69565217391306 L 627.5 -357.39130434782606 Z"/>
    </clipPath>
    <clipPath id="clip34">
      <path d="M 652.5 -346.95652173913044 L 652.5 -400.17391304347825 L 657.5 -400.17391304347825 L 657.5 -346.95652173913044 Z"/>
    </clipPath>
    <clipPath id="clip35">
      <path d="M 682.5 -326.08695652173913 L 682.5 -354.26086956521738 L 687.5 -354.26086956521738 L 687.5 -326.08695652173913 Z"/>
    </clipPath>
    <clipPath id="clip36">
      <path d="M 550 -300 L 550 -420 L 700 -420 L 700 -300 Z"/>
    </clipPath>
    <clipPath id="clip37">
      <path d="M 562.5 -352.17391304347825 L 562.5 -357.39130434782606 L 567.5 -357.39130434782606 L 567.5 -352.17391304347825 Z"/>
    </clipPath>
    <clipPath id="clip38">
      <path d="M 592.5 -402.26086956521738 L 592.5 -407.47826086956525 L 597.5 -407.47826086956525 L 597.5 -402.26086956521738 Z"/>
    </clipPath>
    <clipPath id="clip39">
      <path d="M 622.5 -388.69565217391306 L 622.5 -393.91304347826087 L 627.5 -393.91304347826087 L 627.5 -388.69565217391306 Z"/>
    </clipPath>
    <clipPath id="clip40">
      <path d="M 652.5 -400.17391304347825 L 652.5 -407.47826086956525 L 657.5 -407.47826086956525 L 657.5 -400.17391304347825 Z"/>
    </clipPath>
    <clipPath id="clip41">
      <path d="M 682.5 -354.26086956521738 L 682.5 -357.39130434782606 L 687.5 -357.39130434782606 L 687.5 -354.26086956521738 Z"/>
    </clipPath>
    <clipPath id="clip42">
      <path d="M 710.0 -297 L 710.0 -327 L 746.00999999999999 -327 L 746.00999999999999 -297 Z"/>
    </clipPath>
    <clipPath id="clip43">
      <path d="M 715.0 -317.85000000000002 L 715.0 -324.14999999999998 L 721.29999999999995 -324.14999999999998 L 721.29999999999995 -317.85000000000002 Z"/>
    </clipPath>
    <clipPath id="clip44">
      <path d="M 715.0 -308.85000000000002 L 715.0 -315.14999999999998 L 721.29999999999995 -315.14999999999998 L 721.29999999999995 -308.85000000000002 Z"/>
    </clipPath>
    <clipPath id="clip45">
      <path d="M 715.0 -299.85000000000002 L 715.0 -306.14999999999998 L 721.29999999999995 -306.14999999999998 L 721.29999999999995 -299.85000000000002 Z"/>
    </clipPath>
  </defs>
  <g style="stroke-linejoin:miter;font-size:9;font-family:Helvetica;fill:none;stroke-linecap:butt;stroke:rgb(0,0,0);font-stretch:normal;stroke-dasharray:none;font-weight:normal;font-style:normal;stroke-width:0.4;">
    <path d="M 300 -300 L 450 -300"/>
    <path d="M 300 -300 L 450 -300"/>
    <path d="M 315.0 -300 L 315.0 -294"/>
    <text style="stroke:none;fill:rgb(0,0,0);" transform="rotate(30,310.666,-286.206)" x="310.66640887946267" y="-286.20577136594005">
      10
    </text>
    <path d="M 345.0 -300 L 345.0 -294"/>
    <text style="stroke:none;fill:rgb(0,0,0);" transform="rotate(30,340.666,-286.206)" x="340.66640887946267" y="-286.20577136594005">
      20
    </text>
    <path d="M 375.0 -300 L 375.0 -294"/>
    <text style="stroke:none;fill:rgb(0,0,0);" transform="rotate(30,370.666,-286.206)" x="370.66640887946267" y="-286.20577136594005">
      30
    </text>
    <path d="M 405.0 -300 L 405.0 -294"/>
    <text style="stroke:none;fill:rgb(0,0,0);" transform="rotate(30,400.666,-286.206)" x="400.66640887946267" y="-286.20577136594005">
      40
    </text>
    <path d="M 435.0 -300 L 435.0 -294"/>
    <text style="stroke:none;fill:rgb(0,0,0);" transform="rotate(30,430.666,-286.206)" x="430.66640887946267" y="-286.20577136594005">
      50
    </text>
    <text style="stroke:none;fill:rgb(0,0,0);" x="361.24349999999998" y="-266.70177136594003">
      X label
    </text>
    <path d="M 300 -316.0 L 450 -316.0" style="stroke:rgb(179,179,179);stroke-dasharray:1,1;"/>
    <path d="M 300 -332.0 L 450 -332.0" style="stroke:rgb(179,179,179);stroke-dasharray:1,1;"/>
    <path d="M 300 -348.0 L 450 -348.0" style="stroke:rgb(179,179,179);stroke-dasharray:1,1;"/>
    <path d="M 300 -364.0 L 450 -364.0" style="stroke:rgb(179,179,179);stroke-dasharray:1,1;"/>
    <path d="M 300 -380.0 L 450 -380.0" style="stroke:rgb(179,179,179);stroke-dasharray:1,1;"/>
    <path d="M 300 -396.0 L 450 -396.0" style="stroke:rgb(179,179,179);stroke-dasharray:1,1;"/>
    <path d="M 300 -412.0 L 450 -412.0" style="stroke:rgb(179,179,179);stroke-dasharray:1,1;"/>
    <path d="M 300 -300 L 300 -420"/>
    <path d="M 300 -300.0 L 294 -300.0"/>
    <text style="stroke:none;fill:rgb(0,0,0);" x="288.99599999999998" y="-295.5">
      0
    </text>
    <path d="M 300 -316.0 L 294 -316.0"/>
    <text style="stroke:none;fill:rgb(0,0,0);" x="283.99200000000002" y="-311.5">
      10
    </text>
    <path d="M 300 -332.0 L 294 -332.0"/>
    <text style="stroke:none;fill:rgb(0,0,0);" x="283.99200000000002" y="-327.5">
      20
    </text>
    <path d="M 300 -348.0 L 294 -348.0"/>
    <text style="stroke:none;fill:rgb(0,0,0);" x="283.99200000000002" y="-343.5">
      30
    </text>
    <path d="M 300 -364.0 L 294 -364.0"/>
    <text style="stroke:none;fill:rgb(0,0,0);" x="283.99200000000002" y="-359.5">
      40
    </text>
    <path d="M 300 -380.0 L 294 -380.0"/>
    <text style="stroke:none;fill:rgb(0,0,0);" x="283.99200000000002" y="-375.5">
      50
    </text>
    <path d="M 300 -396.0 L 294 -396.0"/>
    <text style="stroke:none;fill:rgb(0,0,0);" x="283.99200000000002" y="-391.5">
      60
    </text>
    <path d="M 300 -412.0 L 294 -412.0"/>
    <text style="stroke:none;fill:rgb(0,0,0);" x="283.99200000000002" y="-407.5">
      70
    </text>
    <text style="stroke:none;fill:rgb(0,0,0);" transform="rotate(-90,279.492,-346.243)" x="279.49200000000002" y="-346.24349999999998">
      Y label
    </text>
    <g style="clip-path:url(#clip0);">
      <g style="clip-path:url(#clip1);">
        <g style="fill:rgb(0,0,0);clip-path:url(#clip2);">
          <path d="M 307.5 -300.0 L 307.5 -332.0 L 312.5 -332.0 L 312.5 -300.0 Z" style="stroke:none;"/>
        </g>
        <g>
          <path d="M 307.5 -300.0 L 307.5 -332.0 L 312.5 -332.0 L 312.5 -300.0 Z"/>
          <g style="fill:rgb(0,0,0);clip-path:url(#clip3);">
            <path d="M 337.5 -300.0 L 337.5 -404.0 L 342.5 -404.0 L 342.5 -300.0 Z" style="stroke:none;"/>
          </g>
          <g>
            <path d="M 337.5 -300.0 L 337.5 -404.0 L 342.5 -404.0 L 342.5 -300.0 Z"/>
            <g style="fill:rgb(0,0,0);clip-path:url(#clip4);">
              <path d="M 367.5 -300.0 L 367.5 -388.0 L 372.5 -388.0 L 372.5 -300.0 Z" style="stroke:none;"/>
            </g>
            <g>
              <path d="M 367.5 -300.0 L 367.5 -388.0 L 372.5 -388.0 L 372.5 -300.0 Z"/>
              <g style="fill:rgb(0,0,0);clip-path:url(#clip5);">
                <path d="M 397.5 -300.0 L 397.5 -372.0 L 402.5 -372.0 L 402.5 -300.0 Z" style="stroke:none;"/>
              </g>
              <g>
                <path d="M 397.5 -300.0 L 397.5 -372.0 L 402.5 -372.0 L 402.5 -300.0 Z"/>
                <g style="fill:rgb(0,0,0);clip-path:url(#clip6);">
                  <path d="M 427.5 -300.0 L 427.5 -340.0 L 432.5 -340.0 L 432.5 -300.0 Z" style="stroke:none;"/>
                </g>
                <g>
                  <path d="M 427.5 -300.0 L 427.5 -340.0 L 432.5 -340.0 L 432.5 -300.0 Z"/>
                </g>
              </g>
            </g>
          </g>
        </g>
      </g>
      <g style="clip-path:url(#clip7);">
        <g style="fill:rgb(179,179,179);clip-path:url(#clip8);">
          <path d="M 312.5 -300.0 L 312.5 -348.0 L 317.5 -348.0 L 317.5 -300.0 Z" style="stroke:none;"/>
        </g>
        <g>
          <path d="M 312.5 -300.0 L 312.5 -348.0 L 317.5 -348.0 L 317.5 -300.0 Z"/>
          <g style="fill:rgb(179,179,179);clip-path:url(#clip9);">
            <path d="M 342.5 -300.0 L 342.5 -352.80000000000001 L 347.5 -352.80000000000001 L 347.5 -300.0 Z" style="stroke:none;"/>
          </g>
          <g>
            <path d="M 342.5 -300.0 L 342.5 -352.80000000000001 L 347.5 -352.80000000000001 L 347.5 -300.0 Z"/>
            <g style="fill:rgb(179,179,179);clip-path:url(#clip10);">
              <path d="M 372.5 -300.0 L 372.5 -348.0 L 377.5 -348.0 L 377.5 -300.0 Z" style="stroke:none;"/>
            </g>
            <g>
              <path d="M 372.5 -300.0 L 372.5 -348.0 L 377.5 -348.0 L 377.5 -300.0 Z"/>
              <g style="fill:rgb(179,179,179);clip-path:url(#clip11);">
                <path d="M 402.5 -300.0 L 402.5 -381.60000000000002 L 407.5 -381.60000000000002 L 407.5 -300.0 Z" style="stroke:none;"/>
              </g>
              <g>
                <path d="M 402.5 -300.0 L 402.5 -381.60000000000002 L 407.5 -381.60000000000002 L 407.5 -300.0 Z"/>
                <g style="fill:rgb(179,179,179);clip-path:url(#clip12);">
                  <path d="M 432.5 -300.0 L 432.5 -343.19999999999999 L 437.5 -343.19999999999999 L 437.5 -300.0 Z" style="stroke:none;"/>
                </g>
                <g>
                  <path d="M 432.5 -300.0 L 432.5 -343.19999999999999 L 437.5 -343.19999999999999 L 437.5 -300.0 Z"/>
                </g>
              </g>
            </g>
          </g>
        </g>
      </g>
      <g style="clip-path:url(#clip13);">
        <g style="fill:rgb(255,255,255);clip-path:url(#clip14);">
          <path d="M 317.5 -300.0 L 317.5 -308.0 L 322.5 -308.0 L 322.5 -300.0 Z" style="stroke:none;"/>
          <path d="M 308.30000000000001 -299.60000000000002 L 317.10000000000002 -308.39999999999998" style="stroke-linecap:square;fill:none;"/>
          <path d="M 312.54200000000003 -299.60000000000002 L 321.34199999999998 -308.39999999999998" style="stroke-linecap:square;fill:none;"/>
          <path d="M 316.78399999999999 -299.60000000000002 L 325.584 -308.39999999999998" style="stroke-linecap:square;fill:none;"/>
          <path d="M 321.02600000000001 -299.60000000000002 L 329.82600000000002 -308.39999999999998" style="stroke-linecap:square;fill:none;"/>
        </g>
        <g>
          <path d="M 317.5 -300.0 L 317.5 -308.0 L 322.5 -308.0 L 322.5 -300.0 Z"/>
          <g style="fill:rgb(255,255,255);clip-path:url(#clip15);">
            <path d="M 347.5 -300.0 L 347.5 -308.0 L 352.5 -308.0 L 352.5 -300.0 Z" style="stroke:none;"/>
            <path d="M 338.30000000000001 -299.60000000000002 L 347.10000000000002 -308.39999999999998" style="stroke-linecap:square;fill:none;"/>
            <path d="M 342.54199999999997 -299.60000000000002 L 351.34199999999998 -308.39999999999998" style="stroke-linecap:square;fill:none;"/>
            <path d="M 346.78399999999999 -299.60000000000002 L 355.584 -308.39999999999998" style="stroke-linecap:square;fill:none;"/>
            <path d="M 351.02600000000001 -299.60000000000002 L 359.82600000000002 -308.39999999999998" style="stroke-linecap:square;fill:none;"/>
          </g>
          <g>
            <path d="M 347.5 -300.0 L 347.5 -308.0 L 352.5 -308.0 L 352.5 -300.0 Z"/>
            <g style="fill:rgb(255,255,255);clip-path:url(#clip16);">
              <path d="M 377.5 -300.0 L 377.5 -308.0 L 382.5 -308.0 L 382.5 -300.0 Z" style="stroke:none;"/>
              <path d="M 368.30000000000001 -299.60000000000002 L 377.10000000000002 -308.39999999999998" style="stroke-linecap:square;fill:none;"/>
              <path d="M 372.54200000000003 -299.60000000000002 L 381.34199999999998 -308.39999999999998" style="stroke-linecap:square;fill:none;"/>
              <path d="M 376.78399999999999 -299.60000000000002 L 385.584 -308.39999999999998" style="stroke-linecap:square;fill:none;"/>
              <path d="M 381.02600000000001 -299.60000000000002 L 389.82600000000002 -308.39999999999998" style="stroke-linecap:square;fill:none;"/>
            </g>
            <g>
              <path d="M 377.5 -300.0 L 377.5 -308.0 L 382.5 -308.0 L 382.5 -300.0 Z"/>
              <g style="fill:rgb(255,255,255);clip-path:url(#clip17);">
                <path d="M 407.5 -300.0 L 407.5 -311.19999999999999 L 412.5 -311.19999999999999 L 412.5 -300.0 Z" style="stroke:none;"/>
                <path d="M 395.10000000000002 -299.60000000000002 L 407.10000000000002 -311.60000000000002" style="stroke-linecap:square;fill:none;"/>
                <path d="M 399.34199999999998 -299.60000000000002 L 411.34199999999998 -311.60000000000002" style="stroke-linecap:square;fill:none;"/>
                <path d="M 403.584 -299.60000000000002 L 415.584 -311.60000000000002" style="stroke-linecap:square;fill:none;"/>
                <path d="M 407.82600000000002 -299.60000000000002 L 419.82600000000002 -311.60000000000002" style="stroke-linecap:square;fill:none;"/>
                <path d="M 412.06799999999998 -299.60000000000002 L 424.06799999999998 -311.60000000000002" style="stroke-linecap:square;fill:none;"/>
              </g>
              <g>
                <path d="M 407.5 -300.0 L 407.5 -311.19999999999999 L 412.5 -311.19999999999999 L 412.5 -300.0 Z"/>
                <g style="fill:rgb(255,255,255);clip-path:url(#clip18);">
                  <path d="M 437.5 -300.0 L 437.5 -304.80000000000001 L 442.5 -304.80000000000001 L 442.5 -300.0 Z" style="stroke:none;"/>
                  <path d="M 431.29999999999995 -299.60000000000002 L 437.10000000000002 -305.40000000000003" style="stroke-linecap:square;fill:none;"/>
                  <path d="M 435.54199999999997 -299.60000000000002 L 441.34199999999998 -305.40000000000003" style="stroke-linecap:square;fill:none;"/>
                  <path d="M 439.78399999999999 -299.60000000000002 L 445.58399999999995 -305.40000000000003" style="stroke-linecap:square;fill:none;"/>
                </g>
                <g>
                  <path d="M 437.5 -300.0 L 437.5 -304.80000000000001 L 442.5 -304.80000000000001 L 442.5 -300.0 Z"/>
                </g>
              </g>
            </g>
          </g>
        </g>
      </g>
    </g>
    <g style="fill:rgb(255,255,255);clip-path:url(#clip19);">
      <path d="M 460.0 -297 L 460.0 -327 L 496.00999999999999 -327 L 496.00999999999999 -297 Z" style="stroke:none;"/>
    </g>
    <g>
      <path d="M 460.0 -297 L 460.0 -327 L 496.00999999999999 -327 L 496.00999999999999 -297 Z"/>
      <g style="fill:rgb(0,0,0);clip-path:url(#clip20);">
        <path d="M 465.0 -317.85000000000002 L 465.0 -324.14999999999998 L 471.30000000000001 -324.14999999999998 L 471.30000000000001 -317.85000000000002 Z" style="stroke:none;"/>
      </g>
      <g>
        <path d="M 465.0 -317.85000000000002 L 465.0 -324.14999999999998 L 471.30000000000001 -324.14999999999998 L 471.30000000000001 -317.85000000000002 Z"/>
        <text style="stroke:none;fill:rgb(0,0,0);" x="474.0" y="-318.0">
          foo
        </text>
        <g style="fill:rgb(179,179,179);clip-path:url(#clip21);">
          <path d="M 465.0 -308.85000000000002 L 465.0 -315.14999999999998 L 471.30000000000001 -315.14999999999998 L 471.30000000000001 -308.85000000000002 Z" style="stroke:none;"/>
        </g>
        <g>
          <path d="M 465.0 -308.85000000000002 L 465.0 -315.14999999999998 L 471.30000000000001 -315.14999999999998 L 471.30000000000001 -308.85000000000002 Z"/>
          <text style="stroke:none;fill:rgb(0,0,0);" x="474.0" y="-309.0">
            bar
          </text>
          <g style="fill:rgb(255,255,255);clip-path:url(#clip22);">
            <path d="M 465.0 -299.85000000000002 L 465.0 -306.14999999999998 L 471.30000000000001 -306.14999999999998 L 471.30000000000001 -299.85000000000002 Z" style="stroke:none;"/>
            <path d="M 457.5 -299.44999999999999 L 464.60000000000002 -306.55000000000001" style="stroke-linecap:square;fill:none;"/>
            <path d="M 461.74199999999996 -299.44999999999999 L 468.84199999999998 -306.55000000000001" style="stroke-linecap:square;fill:none;"/>
            <path d="M 465.98399999999992 -299.44999999999999 L 473.08399999999995 -306.55000000000001" style="stroke-linecap:square;fill:none;"/>
            <path d="M 470.22599999999994 -299.44999999999999 L 477.32599999999996 -306.55000000000001" style="stroke-linecap:square;fill:none;"/>
          </g>
          <g>
            <path d="M 465.0 -299.85000000000002 L 465.0 -306.14999999999998 L 471.30000000000001 -306.14999999999998 L 471.30000000000001 -299.85000000000002 Z"/>
            <text style="stroke:none;fill:rgb(0,0,0);" x="474.0" y="-300.0">
              baz
            </text>
            <path d="M 550 -300 L 700 -300"/>
            <path d="M 550 -300 L 700 -300"/>
            <path d="M 565.0 -300 L 565.0 -294"/>
            <text style="stroke:none;fill:rgb(0,0,0);" transform="rotate(30,560.666,-286.206)" x="560.66640887946267" y="-286.20577136594005">
              10
            </text>
            <path d="M 595.0 -300 L 595.0 -294"/>
            <text style="stroke:none;fill:rgb(0,0,0);" transform="rotate(30,590.666,-286.206)" x="590.66640887946267" y="-286.20577136594005">
              20
            </text>
            <path d="M 625.0 -300 L 625.0 -294"/>
            <text style="stroke:none;fill:rgb(0,0,0);" transform="rotate(30,620.666,-286.206)" x="620.66640887946267" y="-286.20577136594005">
              30
            </text>
            <path d="M 655.0 -300 L 655.0 -294"/>
            <text style="stroke:none;fill:rgb(0,0,0);" transform="rotate(30,650.666,-286.206)" x="650.66640887946267" y="-286.20577136594005">
              40
            </text>
            <path d="M 685.0 -300 L 685.0 -294"/>
            <text style="stroke:none;fill:rgb(0,0,0);" transform="rotate(30,680.666,-286.206)" x="680.66640887946267" y="-286.20577136594005">
              50
            </text>
            <text style="stroke:none;fill:rgb(0,0,0);" x="611.24350000000004" y="-266.70177136594003">
              X label
            </text>
            <path d="M 550 -310.43478260869563 L 700 -310.43478260869563" style="stroke:rgb(179,179,179);stroke-dasharray:1,1;"/>
            <path d="M 550 -320.86956521739131 L 700 -320.86956521739131" style="stroke:rgb(179,179,179);stroke-dasharray:1,1;"/>
            <path d="M 550 -331.30434782608694 L 700 -331.30434782608694" style="stroke:rgb(179,179,179);stroke-dasharray:1,1;"/>
            <path d="M 550 -341.73913043478262 L 700 -341.73913043478262" style="stroke:rgb(179,179,179);stroke-dasharray:1,1;"/>
            <path d="M 550 -352.17391304347825 L 700 -352.17391304347825" style="stroke:rgb(179,179,179);stroke-dasharray:1,1;"/>
            <path d="M 550 -362.60869565217394 L 700 -362.60869565217394" style="stroke:rgb(179,179,179);stroke-dasharray:1,1;"/>
            <path d="M 550 -373.04347826086956 L 700 -373.04347826086956" style="stroke:rgb(179,179,179);stroke-dasharray:1,1;"/>
            <path d="M 550 -383.47826086956525 L 700 -383.47826086956525" style="stroke:rgb(179,179,179);stroke-dasharray:1,1;"/>
            <path d="M 550 -393.91304347826087 L 700 -393.91304347826087" style="stroke:rgb(179,179,179);stroke-dasharray:1,1;"/>
            <path d="M 550 -404.3478260869565 L 700 -404.3478260869565" style="stroke:rgb(179,179,179);stroke-dasharray:1,1;"/>
            <path d="M 550 -414.78260869565219 L 700 -414.78260869565219" style="stroke:rgb(179,179,179);stroke-dasharray:1,1;"/>
            <path d="M 550 -300 L 550 -420"/>
            <path d="M 550 -300.0 L 544 -300.0"/>
            <text style="stroke:none;fill:rgb(0,0,0);" x="538.99599999999998" y="-295.5">
              0
            </text>
            <path d="M 550 -310.43478260869563 L 544 -310.43478260869563"/>
            <text style="stroke:none;fill:rgb(0,0,0);" x="533.99199999999996" y="-305.93478260869563">
              10
            </text>
            <path d="M 550 -320.86956521739131 L 544 -320.86956521739131"/>
            <text style="stroke:none;fill:rgb(0,0,0);" x="533.99199999999996" y="-316.36956521739131">
              20
            </text>
            <path d="M 550 -331.30434782608694 L 544 -331.30434782608694"/>
            <text style="stroke:none;fill:rgb(0,0,0);" x="533.99199999999996" y="-326.80434782608694">
              30
            </text>
            <path d="M 550 -341.73913043478262 L 544 -341.73913043478262"/>
            <text style="stroke:none;fill:rgb(0,0,0);" x="533.99199999999996" y="-337.23913043478262">
              40
            </text>
            <path d="M 550 -352.17391304347825 L 544 -352.17391304347825"/>
            <text style="stroke:none;fill:rgb(0,0,0);" x="533.99199999999996" y="-347.67391304347825">
              50
            </text>
            <path d="M 550 -362.60869565217394 L 544 -362.60869565217394"/>
            <text style="stroke:none;fill:rgb(0,0,0);" x="533.99199999999996" y="-358.10869565217394">
              60
            </text>
            <path d="M 550 -373.04347826086956 L 544 -373.04347826086956"/>
            <text style="stroke:none;fill:rgb(0,0,0);" x="533.99199999999996" y="-368.54347826086956">
              70
            </text>
            <path d="M 550 -383.47826086956525 L 544 -383.47826086956525"/>
            <text style="stroke:none;fill:rgb(0,0,0);" x="533.99199999999996" y="-378.97826086956525">
              80
            </text>
            <path d="M 550 -393.91304347826087 L 544 -393.91304347826087"/>
            <text style="stroke:none;fill:rgb(0,0,0);" x="533.99199999999996" y="-389.41304347826087">
              90
            </text>
            <path d="M 550 -404.3478260869565 L 544 -404.3478260869565"/>
            <text style="stroke:none;fill:rgb(0,0,0);" x="528.98800000000006" y="-399.8478260869565">
              100
            </text>
            <path d="M 550 -414.78260869565219 L 544 -414.78260869565219"/>
            <text style="stroke:none;fill:rgb(0,0,0);" x="528.98800000000006" y="-410.28260869565219">
              110
            </text>
            <text style="stroke:none;fill:rgb(0,0,0);" transform="rotate(-90,524.488,-346.243)" x="524.48800000000006" y="-346.24349999999998">
              Y label
            </text>
            <g style="clip-path:url(#clip23);">
              <g style="clip-path:url(#clip24);">
                <g style="fill:rgb(0,0,0);clip-path:url(#clip25);">
                  <path d="M 562.5 -300.0 L 562.5 -320.86956521739131 L 567.5 -320.86956521739131 L 567.5 -300.0 Z" style="stroke:none;"/>
                </g>
                <g>
                  <path d="M 562.5 -300.0 L 562.5 -320.86956521739131 L 567.5 -320.86956521739131 L 567.5 -300.0 Z"/>
                  <g style="fill:rgb(0,0,0);clip-path:url(#clip26);">
                    <path d="M 592.5 -300.0 L 592.5 -367.82608695652175 L 597.5 -367.82608695652175 L 597.5 -300.0 Z" style="stroke:none;"/>
                  </g>
                  <g>
                    <path d="M 592.5 -300.0 L 592.5 -367.82608695652175 L 597.5 -367.82608695652175 L 597.5 -300.0 Z"/>
                    <g style="fill:rgb(0,0,0);clip-path:url(#clip27);">
                      <path d="M 622.5 -300.0 L 622.5 -357.39130434782606 L 627.5 -357.39130434782606 L 627.5 -300.0 Z" style="stroke:none;"/>
                    </g>
                    <g>
                      <path d="M 622.5 -300.0 L 622.5 -357.39130434782606 L 627.5 -357.39130434782606 L 627.5 -300.0 Z"/>
                      <g style="fill:rgb(0,0,0);clip-path:url(#clip28);">
                        <path d="M 652.5 -300.0 L 652.5 -346.95652173913044 L 657.5 -346.95652173913044 L 657.5 -300.0 Z" style="stroke:none;"/>
                      </g>
                      <g>
                        <path d="M 652.5 -300.0 L 652.5 -346.95652173913044 L 657.5 -346.95652173913044 L 657.5 -300.0 Z"/>
                        <g style="fill:rgb(0,0,0);clip-path:url(#clip29);">
                          <path d="M 682.5 -300.0 L 682.5 -326.08695652173913 L 687.5 -326.08695652173913 L 687.5 -300.0 Z" style="stroke:none;"/>
                        </g>
                        <g>
                          <path d="M 682.5 -300.0 L 682.5 -326.08695652173913 L 687.5 -326.08695652173913 L 687.5 -300.0 Z"/>
                        </g>
                      </g>
                    </g>
                  </g>
                </g>
              </g>
              <g style="clip-path:url(#clip30);">
                <g style="fill:rgb(179,179,179);clip-path:url(#clip31);">
                  <path d="M 562.5 -320.86956521739131 L 562.5 -352.17391304347825 L 567.5 -352.17391304347825 L 567.5 -320.86956521739131 Z" style="stroke:none;"/>
                </g>
                <g>
                  <path d="M 562.5 -320.86956521739131 L 562.5 -352.17391304347825 L 567.5 -352.17391304347825 L 567.5 -320.86956521739131 Z"/>
                  <g style="fill:rgb(179,179,179);clip-path:url(#clip32);">
                    <path d="M 592.5 -367.82608695652175 L 592.5 -402.26086956521738 L 597.5 -402.26086956521738 L 597.5 -367.82608695652175 Z" style="stroke:none;"/>
                  </g>
                  <g>
                    <path d="M 592.5 -367.82608695652175 L 592.5 -402.26086956521738 L 597.5 -402.26086956521738 L 597.5 -367.82608695652175 Z"/>
                    <g style="fill:rgb(179,179,179);clip-path:url(#clip33);">
                      <path d="M 622.5 -357.39130434782606 L 622.5 -388.69565217391306 L 627.5 -388.69565217391306 L 627.5 -357.39130434782606 Z" style="stroke:none;"/>
                    </g>
                    <g>
                      <path d="M 622.5 -357.39130434782606 L 622.5 -388.69565217391306 L 627.5 -388.69565217391306 L 627.5 -357.39130434782606 Z"/>
                      <g style="fill:rgb(179,179,179);clip-path:url(#clip34);">
                        <path d="M 652.5 -346.95652173913044 L 652.5 -400.17391304347825 L 657.5 -400.17391304347825 L 657.5 -346.95652173913044 Z" style="stroke:none;"/>
                      </g>
                      <g>
                        <path d="M 652.5 -346.95652173913044 L 652.5 -400.17391304347825 L 657.5 -400.17391304347825 L 657.5 -346.95652173913044 Z"/>
                        <g style="fill:rgb(179,179,179);clip-path:url(#clip35);">
                          <path d="M 682.5 -326.08695652173913 L 682.5 -354.26086956521738 L 687.5 -354.26086956521738 L 687.5 -326.08695652173913 Z" style="stroke:none;"/>
                        </g>
                        <g>
                          <path d="M 682.5 -326.08695652173913 L 682.5 -354.26086956521738 L 687.5 -354.26086956521738 L 687.5 -326.08695652173913 Z"/>
                        </g>
                      </g>
                    </g>
                  </g>
                </g>
              </g>
              <g style="clip-path:url(#clip36);">
                <g style="fill:rgb(255,255,255);clip-path:url(#clip37);">
                  <path d="M 562.5 -352.17391304347825 L 562.5 -357.39130434782606 L 567.5 -357.39130434782606 L 567.5 -352.17391304347825 Z" style="stroke:none;"/>
                  <path d="M 556.0826086956522 -351.77391304347827 L 562.10000000000002 -357.7913043478261" style="stroke-linecap:square;fill:none;"/>
                  <path d="M 560.32460869565216 -351.77391304347827 L 566.3420000000001 -357.7913043478261" style="stroke-linecap:square;fill:none;"/>
                  <path d="M 564.56660869565223 -351.77391304347827 L 570.58400000000006 -357.7913043478261" style="stroke-linecap:square;fill:none;"/>
                </g>
                <g>
                  <path d="M 562.5 -352.17391304347825 L 562.5 -357.39130434782606 L 567.5 -357.39130434782606 L 567.5 -352.17391304347825 Z"/>
                  <g style="fill:rgb(255,255,255);clip-path:url(#clip38);">
                    <path d="M 592.5 -402.26086956521738 L 592.5 -407.47826086956525 L 597.5 -407.47826086956525 L 597.5 -402.26086956521738 Z" style="stroke:none;"/>
                    <path d="M 586.0826086956522 -401.8608695652174 L 592.10000000000002 -407.87826086956522" style="stroke-linecap:square;fill:none;"/>
                    <path d="M 590.32460869565216 -401.8608695652174 L 596.3420000000001 -407.87826086956522" style="stroke-linecap:square;fill:none;"/>
                    <path d="M 594.56660869565223 -401.8608695652174 L 600.58400000000006 -407.87826086956522" style="stroke-linecap:square;fill:none;"/>
                  </g>
                  <g>
                    <path d="M 592.5 -402.26086956521738 L 592.5 -407.47826086956525 L 597.5 -407.47826086956525 L 597.5 -402.26086956521738 Z"/>
                    <g style="fill:rgb(255,255,255);clip-path:url(#clip39);">
                      <path d="M 622.5 -388.69565217391306 L 622.5 -393.91304347826087 L 627.5 -393.91304347826087 L 627.5 -388.69565217391306 Z" style="stroke:none;"/>
                      <path d="M 616.0826086956522 -388.29565217391303 L 622.10000000000002 -394.31304347826085" style="stroke-linecap:square;fill:none;"/>
                      <path d="M 620.32460869565216 -388.29565217391303 L 626.3420000000001 -394.31304347826085" style="stroke-linecap:square;fill:none;"/>
                      <path d="M 624.56660869565223 -388.29565217391303 L 630.58400000000006 -394.31304347826085" style="stroke-linecap:square;fill:none;"/>
                    </g>
                    <g>
                      <path d="M 622.5 -388.69565217391306 L 622.5 -393.91304347826087 L 627.5 -393.91304347826087 L 627.5 -388.69565217391306 Z"/>
                      <g style="fill:rgb(255,255,255);clip-path:url(#clip40);">
                        <path d="M 652.5 -400.17391304347825 L 652.5 -407.47826086956525 L 657.5 -407.47826086956525 L 657.5 -400.17391304347825 Z" style="stroke:none;"/>
                        <path d="M 643.99565217391307 -399.77391304347827 L 652.10000000000002 -407.87826086956522" style="stroke-linecap:square;fill:none;"/>
                        <path d="M 648.23765217391315 -399.77391304347827 L 656.3420000000001 -407.87826086956522" style="stroke-linecap:square;fill:none;"/>
                        <path d="M 652.47965217391311 -399.77391304347827 L 660.58400000000006 -407.87826086956522" style="stroke-linecap:square;fill:none;"/>
                        <path d="M 656.72165217391307 -399.77391304347827 L 664.82600000000002 -407.87826086956522" style="stroke-linecap:square;fill:none;"/>
                      </g>
                      <g>
                        <path d="M 652.5 -400.17391304347825 L 652.5 -407.47826086956525 L 657.5 -407.47826086956525 L 657.5 -400.17391304347825 Z"/>
                        <g style="fill:rgb(255,255,255);clip-path:url(#clip41);">
                          <path d="M 682.5 -354.26086956521738 L 682.5 -357.39130434782606 L 687.5 -357.39130434782606 L 687.5 -354.26086956521738 Z" style="stroke:none;"/>
                          <path d="M 676.30000000000007 -353.8608695652174 L 682.10000000000002 -359.66086956521735" style="stroke-linecap:square;fill:none;"/>
                          <path d="M 680.54200000000014 -353.8608695652174 L 686.3420000000001 -359.66086956521735" style="stroke-linecap:square;fill:none;"/>
                          <path d="M 684.78400000000011 -353.8608695652174 L 690.58400000000006 -359.66086956521735" style="stroke-linecap:square;fill:none;"/>
                        </g>
                        <g>
                          <path d="M 682.5 -354.26086956521738 L 682.5 -357.39130434782606 L 687.5 -357.39130434782606 L 687.5 -354.26086956521738 Z"/>
                        </g>
                      </g>
                    </g>
                  </g>
                </g>
              </g>
            </g>
            <g style="fill:rgb(255,255,255);clip-path:url(#clip42);">
              <path d="M 710.0 -297 L 710.0 -327 L 746.00999999999999 -327 L 746.00999999999999 -297 Z" style="stroke:none;"/>
            </g>
            <g>
              <path d="M 710.0 -297 L 710.0 -327 L 746.00999999999999 -327 L 746.00999999999999 -297 Z"/>
              <g style="fill:rgb(0,0,0);clip-path:url(#clip43);">
                <path d="M 715.0 -317.85000000000002 L 715.0 -324.14999999999998 L 721.29999999999995 -324.14999999999998 L 721.29999999999995 -317.85000000000002 Z" style="stroke:none;"/>
              </g>
              <g>
                <path d="M 715.0 -317.85000000000002 L 715.0 -324.14999999999998 L 721.29999999999995 -324.14999999999998 L 721.29999999999995 -317.85000000000002 Z"/>
                <text style="stroke:none;fill:rgb(0,0,0);" x="724.0" y="-318.0">
                  foo
                </text>
                <g style="fill:rgb(179,179,179);clip-path:url(#clip44);">
                  <path d="M 715.0 -308.85000000000002 L 715.0 -315.14999999999998 L 721.29999999999995 -315.14999999999998 L 721.29999999999995 -308.85000000000002 Z" style="stroke:none;"/>
                </g>
                <g>
                  <path d="M 715.0 -308.85000000000002 L 715.0 -315.14999999999998 L 721.29999999999995 -315.14999999999998 L 721.29999999999995 -308.85000000000002 Z"/>
                  <text style="stroke:none;fill:rgb(0,0,0);" x="724.0" y="-309.0">
                    bar
                  </text>
                  <g style="fill:rgb(255,255,255);clip-path:url(#clip45);">
                    <path d="M 715.0 -299.85000000000002 L 715.0 -306.14999999999998 L 721.29999999999995 -306.14999999999998 L 721.29999999999995 -299.85000000000002 Z" style="stroke:none;"/>
                    <path d="M 707.5 -299.44999999999999 L 714.60000000000002 -306.55000000000001" style="stroke-linecap:square;fill:none;"/>
                    <path d="M 711.74199999999996 -299.44999999999999 L 718.8420000000001 -306.55000000000001" style="stroke-linecap:square;fill:none;"/>
                    <path d="M 715.98400000000004 -299.44999999999999 L 723.08400000000006 -306.55000000000001" style="stroke-linecap:square;fill:none;"/>
                    <path d="M 720.22600000000011 -299.44999999999999 L 727.32600000000002 -306.55000000000001" style="stroke-linecap:square;fill:none;"/>
                  </g>
                  <g>
                    <path d="M 715.0 -299.85000000000002 L 715.0 -306.14999999999998 L 721.29999999999995 -306.14999999999998 L 721.29999999999995 -299.85000000000002 Z"/>
                    <text style="stroke:none;fill:rgb(0,0,0);" x="724.0" y="-300.0">
                      baz
                    </text>
                  </g>
                </g>
              </g>
            </g>
          </g>
        </g>
      </g>
    </g>
  </g>
</svg>
