<?xml version="1.0" ?>
<!--Created by PyChart 1.38 Copyright 1999-2005 Yasushi Saito-->
<svg viewBox="259.5 -499 322.022 223.3" xmlns="http://www.w3.org/2000/svg" xmlns:xlink="http://www.w3.org/1999/xlink">
  <defs>
    <clipPath id="clip0">
      <path d="M 297 -297 L 297 -413 L 483 -413 L 483 -297 Z"/>
    </clipPath>
    <clipPath id="clip1">
      <path d="M 297 -297 L 297 -413 L 483 -413 L 483 -297 Z"/>
    </clipPath>
    <clipPath id="clip2">
      <path d="M 290 -290 L 290 -420 L 490 -420 L 490 -290 Z"/>
    </clipPath>
    <clipPath id="clip3">
      <path d="M 297 -297 L 297 -413 L 483 -413 L 483 -297 Z"/>
    </clipPath>
    <clipPath id="clip4">
      <path d="M 290 -290 L 290 -420 L 490 -420 L 490 -290 Z"/>
    </clipPath>
    <clipPath id="clip5">
      <path d="M 297 -297 L 297 -413 L 483 -413 L 483 -297 Z"/>
    </clipPath>
    <clipPath id="clip6">
      <path d="M 290 -290 L 290 -420 L 490 -420 L 490 -290 Z"/>
    </clipPath>
    <clipPath id="clip7">
      <path d="M 505 -352 L 505 -382 L 578.52199999999993 -382 L 578.52199999999993 -352 Z"/>
    </clipPath>
    <clipPath id="clip8">
      <path d="M 264.5 -453 L 300.50999999999999 -453 L 300.51 -453 L 300.50999999999999 -476 L 300.51 -476 L 264.5 -476 L 264.5 -476 L 264.5 -453 L 264.5 -453 Z"/>
    </clipPath>
    <clipPath id="clip9">
      <path d="M 262.5 -455 L 298.50999999999999 -455 L 298.51 -455 L 298.50999999999999 -478 L 298.51 -478 L 262.5 -478 L 262.5 -478 L 262.5 -455 L 262.5 -455 Z"/>
    </clipPath>
    <clipPath id="clip10">
      <path d="M 319.0 -453 L 399.01099999999997 -453 L 399.011 -453 L 399.01099999999997 -476 L 399.011 -476 L 319.0 -476 L 319 -476 L 319.0 -453 L 319 -453 Z"/>
    </clipPath>
    <clipPath id="clip11">
      <path d="M 317.0 -455 L 397.01099999999997 -455 L 397.011 -455 L 397.01099999999997 -478 L 397.011 -478 L 317.0 -478 L 317 -478 L 317.0 -455 L 317 -455 Z"/>
    </clipPath>
    <clipPath id="clip12">
      <path d="M 432.0 -453 L 472.00599999999997 -453 L 472.006 -453 L 472.00599999999997 -476 L 472.006 -476 L 432.0 -476 L 432 -476 L 432.0 -453 L 432 -453 Z"/>
    </clipPath>
    <clipPath id="clip13">
      <path d="M 430.0 -455 L 470.00599999999997 -455 L 470.006 -455 L 470.00599999999997 -478 L 470.006 -478 L 430.0 -478 L 430 -478 L 430.0 -455 L 430 -455 Z"/>
    </clipPath>
    <clipPath id="clip14">
      <path d="M 486.5 -453 L 566.51099999999997 -453 L 566.511 -453 L 566.51099999999997 -476 L 566.511 -476 L 486.5 -476 L 486.5 -476 L 486.5 -453 L 486.5 -453 Z"/>
    </clipPath>
    <clipPath id="clip15">
      <path d="M 484.5 -455 L 564.51099999999997 -455 L 564.511 -455 L 564.51099999999997 -478 L 564.511 -478 L 484.5 -478 L 484.5 -478 L 484.5 -455 L 484.5 -455 Z"/>
    </clipPath>
  </defs>
  <g style="stroke-linejoin:miter;font-size:9;font-family:Helvetica;fill:none;stroke-linecap:butt;stroke:rgb(0,0,0);font-stretch:normal;stroke-dasharray:none;font-weight:normal;font-style:normal;stroke-width:0.4;">
    <path d="M 300 -300 L 480 -300"/>
    <path d="M 300 -300 L 480 -300"/>
    <path d="M 300.0 -300 L 300.0 -294"/>
    <text style="stroke:none;fill:rgb(0,0,0);" transform="rotate(30,297.833,-286.206)" x="297.83320443973133" y="-286.20577136594005">
      0
    </text>
    <path d="M 322.5 -300 L 322.5 -294"/>
    <text style="stroke:none;fill:rgb(0,0,0);" transform="rotate(30,316,-286.206)" x="315.999613319194" y="-286.20577136594005">
      100
    </text>
    <path d="M 345.0 -300 L 345.0 -294"/>
    <text style="stroke:none;fill:rgb(0,0,0);" transform="rotate(30,338.5,-286.206)" x="338.499613319194" y="-286.20577136594005">
      200
    </text>
    <path d="M 367.5 -300 L 367.5 -294"/>
    <text style="stroke:none;fill:rgb(0,0,0);" transform="rotate(30,361,-286.206)" x="360.999613319194" y="-286.20577136594005">
      300
    </text>
    <path d="M 390.0 -300 L 390.0 -294"/>
    <text style="stroke:none;fill:rgb(0,0,0);" transform="rotate(30,383.5,-286.206)" x="383.499613319194" y="-286.20577136594005">
      400
    </text>
    <path d="M 412.5 -300 L 412.5 -294"/>
    <text style="stroke:none;fill:rgb(0,0,0);" transform="rotate(30,406,-286.206)" x="405.999613319194" y="-286.20577136594005">
      500
    </text>
    <path d="M 435.0 -300 L 435.0 -294"/>
    <text style="stroke:none;fill:rgb(0,0,0);" transform="rotate(30,428.5,-286.206)" x="428.499613319194" y="-286.20577136594005">
      600
    </text>
    <path d="M 457.5 -300 L 457.5 -294"/>
    <text style="stroke:none;fill:rgb(0,0,0);" transform="rotate(30,451,-286.206)" x="450.999613319194" y="-286.20577136594005">
      700
    </text>
    <path d="M 480.0 -300 L 480.0 -294"/>
    <text style="stroke:none;fill:rgb(0,0,0);" transform="rotate(30,473.5,-286.206)" x="473.499613319194" y="-286.20577136594005">
      800
    </text>
    <text style="stroke:none;fill:rgb(0,0,0);" x="492.99900000000002" y="-298.69977136594002">
      Timeline
    </text>
    <text style="stroke:none;fill:rgb(0,0,0);" x="490.245" y="-289.69977136594002">
      (seconds)
    </text>
    <path d="M 300 -336.66666666666669 L 480 -336.66666666666669" style="stroke:rgb(179,179,179);stroke-dasharray:1,1;"/>
    <path d="M 300 -373.33333333333331 L 480 -373.33333333333331" style="stroke:rgb(179,179,179);stroke-dasharray:1,1;"/>
    <path d="M 300 -410.0 L 480 -410.0" style="stroke:rgb(179,179,179);stroke-dasharray:1,1;"/>
    <path d="M 300 -300 L 300 -410"/>
    <path d="M 300 -300.0 L 294 -300.0"/>
    <text style="stroke:none;fill:rgb(0,0,0);" x="278.988" y="-295.5">
      400
    </text>
    <path d="M 300 -336.66666666666669 L 294 -336.66666666666669"/>
    <text style="stroke:none;fill:rgb(0,0,0);" x="278.988" y="-332.16666666666669">
      500
    </text>
    <path d="M 300 -373.33333333333331 L 294 -373.33333333333331"/>
    <text style="stroke:none;fill:rgb(0,0,0);" x="278.988" y="-368.83333333333331">
      600
    </text>
    <path d="M 300 -410.0 L 294 -410.0"/>
    <text style="stroke:none;fill:rgb(0,0,0);" x="278.988" y="-405.5">
      700
    </text>
    <text style="stroke:none;fill:rgb(0,0,0);" transform="rotate(-90,274.488,-318.735)" x="274.488" y="-318.73450000000003">
      Messages/second
    </text>
    <g style="clip-path:url(#clip0);">
      <g style="clip-path:url(#clip1);">
        <path d="M 297.75 -355.21047135999999 L 300.0 -355.09503967000001 L 302.25 -366.63403519666667 L 304.5 -366.88480751333339 L 306.75 -366.53580196999997 L 309.0 -364.81298435333332 L 311.25 -362.45677247333333 L 313.5 -360.42066598333332 L 315.75 -357.28293827666664 L 318.0 -354.6046137633333 L 320.25 -356.38299854000002 L 322.5 -360.15876258333333 L 324.75 -354.00073671666667 L 327.0 -358.21608056000002 L 329.25 -358.82343907000001 L 331.5 -363.55172779999998 L 333.75 -353.77723497666665 L 336.0 -353.00060172000002 L 338.25 -351.71823294000001 L 340.5 -358.94103797999998 L 342.75 -364.32836164333332 L 345.0 -369.90982086000002 L 347.25 -353.92163923666669 L 349.5 -353.28717716666665 L 351.75 -350.86072845333331 L 354.0 -357.82937269999996 L 356.25 -349.60866430666664 L 358.5 -347.5854413466667 L 360.97500000000002 -345.88995121333335 L 363.22500000000002 -350.85358186333332 L 365.25 -347.93256207666667 L 367.5 -345.52013081000001 L 372.67500000000001 -358.29045882000003 L 372.67500000000001 -356.02552347333335 L 374.25 -348.77574027333333 L 376.94999999999999 -352.20950276666667 L 378.75 -354.7218552833333 L 381.0 -359.35853340999995 L 383.25 -360.13862000666666 L 385.5 -353.35612344333333 L 387.75 -359.86131525000002 L 390.0 -361.03195131000001 L 392.25 -358.67583732999998 L 394.5 -353.94402430999997 L 396.75 -356.14408711999999 L 399.0 -351.07345385999997 L 401.25 -353.74995402333332 L 403.5 -364.46084307666666 L 405.75 -362.10228724333331 L 408.0 -358.87635497333332 L 410.25 -361.24156841000001 L 412.5 -363.55640595333335 L 414.75 -357.45658405666666 L 417.0 -361.29248579666665 L 419.25 -367.71752738666669 L 421.5 -352.71496409666668 L 423.75 -359.19921443333334 L 426.0 -354.45434874 L 428.25 -352.91814814000003 L 430.5 -351.73564715000003 L 432.75 -352.1738459733333 L 435.0 -361.15539624333331 L 437.25 -363.21197549333328 L 439.5 -368.89841812333333 L 441.75 -369.13841282333334 L 444.0 -366.88861171666667 L 446.25 -364.53328027666669 L 448.5 -349.95757110666665 L 450.75 -352.36439772666665 L 453.0 -351.40378826 L 455.25 -352.91312836333333 L 457.5 -359.18600699000001 L 459.75 -359.22119221333332 L 462.0 -352.90995504666665 L 464.25 -357.27228184333336 L 466.5 -368.4179742033333 L 468.75 -364.5333333333333 L 471.0 -358.30000000000001 L 473.25 -360.13333333333333 L 475.5 -359.76666666666665 L 477.75 -365.26666666666665 L 480.0 -357.56666666666666 L 482.25 -348.39999999999998 L 484.5 -359.76666666666665" style="stroke:rgb(126,126,126);"/>
      </g>
      <g style="clip-path:url(#clip2);"/>
      <g style="clip-path:url(#clip3);">
        <path d="M 297.75 -354.75159873333331 L 300.0 -355.06193762666669 L 302.25 -355.38279607666669 L 304.5 -355.48290982666668 L 306.75 -355.53124265333332 L 309.0 -355.39045291999997 L 311.25 -355.88269709000002 L 313.5 -356.32674659333333 L 315.75 -356.32968110000002 L 318.0 -356.18755413333332 L 320.25 -355.59561029000002 L 322.5 -356.21160207666662 L 324.75 -357.02894160333335 L 327.0 -358.00389745333337 L 329.25 -358.36639647666664 L 331.5 -357.79472119666667 L 333.75 -357.91241345999998 L 336.0 -357.59594140666667 L 338.25 -358.01967347000004 L 340.5 -359.59504507000003 L 342.75 -359.64609408999996 L 345.0 -357.59069855000001 L 347.25 -357.37570050666665 L 349.5 -357.68093484999997 L 351.75 -357.5458964666667 L 354.0 -358.51499001333332 L 356.25 -360.70229685666669 L 358.5 -360.25629214000003 L 360.97500000000002 -359.04708700000003 L 363.22500000000002 -357.68582823666668 L 365.25 -357.56028285333332 L 367.5 -357.23722312000001 L 372.67500000000001 -340.07293524666665 L 372.67500000000001 -340.07293524666665 L 374.25 -338.71176298 L 376.94999999999999 -340.93142295000001 L 378.75 -343.59775995666666 L 381.0 -343.26666666666665 L 383.25 -352.83596835000003 L 385.5 -351.63532227333332 L 387.75 -352.35456545 L 390.0 -354.26836653333334 L 392.25 -352.02577918999998 L 394.5 -350.28796336666665 L 396.75 -353.36393813666666 L 399.0 -355.79935460000002 L 401.25 -358.18582275 L 403.5 -353.98600691000001 L 405.75 -354.64768562 L 408.0 -354.47232904666669 L 410.25 -355.25817117333332 L 412.5 -355.59756576000001 L 414.75 -354.71545042333332 L 417.0 -354.83914557000003 L 419.25 -353.98702078000002 L 421.5 -351.07618428000001 L 423.75 -351.46531899666667 L 426.0 -351.96000164666668 L 428.25 -353.57088146666666 L 430.5 -354.53441022333334 L 432.75 -352.82830028666666 L 435.0 -354.26716456333332 L 437.25 -350.81772674000001 L 439.5 -351.24459417000003 L 441.75 -346.04524822333332 L 444.0 -356.38117851666669 L 446.25 -359.57420538666668 L 448.5 -359.84239635 L 450.75 -364.22297746333334 L 453.0 -360.31397482 L 455.25 -360.28168553 L 457.5 -365.08420695333336 L 459.75 -358.80023614666663 L 462.0 -364.29095959 L 464.25 -363.73681878666667 L 466.5 -361.80080173666664 L 468.75 -359.31855797999998 L 471.0 -358.41702815666667 L 473.25 -352.82633315666669 L 475.5 -356.56615084999999 L 477.75 -354.59965837333334 L 480.0 -355.64452259666666 L 482.25 -355.28979863000001 L 484.5 -354.07012918999999" style="stroke-width:1.2;stroke-dasharray:1.5,1.5;"/>
      </g>
      <g style="clip-path:url(#clip4);"/>
      <g style="clip-path:url(#clip5);">
        <path d="M 297.75 -356.49496695333335 L 300.0 -357.93383123000001 L 302.25 -354.4843934066667 L 304.5 -354.91126083666666 L 306.75 -349.71191489 L 309.0 -356.38117851666669 L 311.25 -359.57420538666668 L 313.5 -356.17572968333332 L 315.75 -356.88964412999997 L 318.0 -360.31397482 L 320.25 -360.28168553 L 322.5 -365.08420695333336 L 324.75 -362.46690281333332 L 327.0 -367.95762625666669 L 329.25 -367.40348545333336 L 331.5 -365.46746840333333 L 333.75 -362.98522464666667 L 336.0 -362.0836948233333 L 338.25 -356.49299982333332 L 340.5 -356.56615084999999 L 342.75 -354.59965837333334 L 345.0 -359.31118926333335 L 347.25 -362.62313196333332 L 349.5 -361.4034625233333 L 351.75 -361.61410287999996 L 354.0 -358.73588955666668 L 356.25 -357.78577482333333 L 358.5 -356.91893709333334 L 360.97500000000002 -360.18557497333336 L 363.22500000000002 -361.64517054666669 L 365.25 -362.29219589999997 L 367.5 -349.36757389666667 L 372.67500000000001 -346.2997642433333 L 372.67500000000001 -346.58796189666663 L 374.25 -344.40200105000002 L 376.94999999999999 -332.19331918 L 378.75 -331.80866424999999 L 381.0 -327.8936171433333 L 383.25 -335.16044631 L 385.5 -342.79920986000002 L 387.75 -346.57503873000002 L 390.0 -336.40641264333334 L 392.25 -339.92884155333331 L 394.5 -344.69732186333334 L 396.75 -349.43919339333337 L 399.0 -343.65819355333338 L 401.25 -337.1202881866667 L 403.5 -338.08281205666668 L 405.75 -336.0793520266667 L 408.0 -342.01289550333331 L 410.25 -340.71430421666668 L 412.5 -338.48931742333332 L 414.75 -327.56221783333336 L 417.0 -327.6874438866667 L 419.25 -333.54015334999997 L 421.5 -336.85879281333337 L 423.75 -340.20527496333335 L 426.0 -339.43303323666669 L 428.25 -334.51294858 L 430.5 -338.38410803333329 L 432.75 -333.68487360333336 L 435.0 -332.30646855333333 L 437.25 -330.79708125999997 L 439.5 -335.09561428999996 L 441.75 -349.37849462333332 L 444.0 -355.9563661433333 L 446.25 -348.65518892666665 L 448.5 -353.80302697000002 L 450.75 -353.84722574 L 453.0 -356.67688788666663 L 455.25 -352.51171288 L 457.5 -358.08729197333332 L 459.75 -356.91664216333334 L 462.0 -356.60037361000002 L 464.25 -348.96640199000001 L 466.5 -346.64164208 L 468.75 -350.57561633666666 L 471.0 -353.93388601333334 L 473.25 -359.29700553333333 L 475.5 -355.32291126999996 L 477.75 -349.97811840999998 L 480.0 -348.19038396333332 L 482.25 -350.60692559999995 L 484.5 -355.23691052000004" style="stroke-dasharray:5,2,5,2;"/>
      </g>
      <g style="clip-path:url(#clip6);"/>
    </g>
    <g style="fill:rgb(255,255,255);clip-path:url(#clip7);">
      <path d="M 505 -352 L 505 -382 L 578.52199999999993 -382 L 578.52199999999993 -352 Z" style="stroke:none;"/>
    </g>
    <g>
      <path d="M 505 -352 L 505 -382 L 578.52199999999993 -382 L 578.52199999999993 -352 Z"/>
      <path d="M 510 -376.0 L 519 -376.0" style="stroke:rgb(126,126,126);"/>
      <text style="stroke:none;fill:rgb(0,0,0);" x="519.0" y="-373.0">
        no failure
      </text>
      <path d="M 510 -367.0 L 519 -367.0" style="stroke-width:1.2;stroke-dasharray:1.5,1.5;"/>
      <text style="stroke:none;fill:rgb(0,0,0);" x="519.0" y="-364.0">
        one failure
      </text>
      <path d="M 510 -358.0 L 519 -358.0" style="stroke-dasharray:5,2,5,2;"/>
      <text style="stroke:none;fill:rgb(0,0,0);" x="519.0" y="-355.0">
        three failures
      </text>
      <path d="M 367.5 -300 L 367.5 -410" style="stroke-dasharray:1.5,1.5;"/>
      <g style="fill:rgb(179,179,179);clip-path:url(#clip8);">
        <path d="M 264.5 -453 L 264.5 -476 L 300.50999999999999 -476 L 300.50999999999999 -453 Z" style="stroke:none;"/>
      </g>
      <g style="fill:rgb(255,255,255);clip-path:url(#clip9);">
        <path d="M 262.5 -455 L 262.5 -478 L 298.50999999999999 -478 L 298.50999999999999 -455 Z" style="stroke:none;"/>
      </g>
      <g>
        <path d="M 262.5 -455 L 298.50999999999999 -455 L 298.51 -455 L 298.50999999999999 -478 L 298.51 -478 L 262.5 -478 L 262.5 -478 L 262.5 -455 L 262.5 -455 Z"/>
        <text style="stroke:none;fill:rgb(0,0,0);" x="267.5" y="-469.0">
          Nodes
        </text>
        <text style="stroke:none;fill:rgb(0,0,0);" x="267.5" y="-460.0">
          fail
        </text>
        <g transform="translate(298.51,-455) rotate(33.1151)">
          <path d="M 0 0 L 75.168805381649193 0"/>
        </g>
        <g style="fill:rgb(0,0,0);">
          <g transform="translate(298.51,-455) rotate(33.1151)">
            <path d="M 71.168805381649193 2.0 L 74.368805381649196 0 L 71.168805381649193 -2.0 L 82.368805381649196 0 Z" style="stroke:none;"/>
          </g>
          <path d="M 372.0 -300 L 372.0 -410" style="stroke-dasharray:1.5,1.5;fill:none;"/>
          <g style="fill:rgb(179,179,179);clip-path:url(#clip10);">
            <path d="M 319.0 -453 L 319.0 -476 L 399.01099999999997 -476 L 399.01099999999997 -453 Z" style="stroke:none;"/>
          </g>
          <g style="fill:rgb(255,255,255);clip-path:url(#clip11);">
            <path d="M 317.0 -455 L 317.0 -478 L 397.01099999999997 -478 L 397.01099999999997 -455 Z" style="stroke:none;"/>
          </g>
          <g>
            <path d="M 317.0 -455 L 397.01099999999997 -455 L 397.011 -455 L 397.01099999999997 -478 L 397.011 -478 L 317.0 -478 L 317 -478 L 317.0 -455 L 317 -455 Z" style="fill:none;"/>
            <text style="stroke:none;" x="322.0" y="-469.0">
              New membership
            </text>
            <text style="stroke:none;" x="322.0" y="-460.0">
              determined
            </text>
            <g transform="translate(372,-455) rotate(90)">
              <path d="M 0 0 L 37.799999999999997 0" style="fill:none;"/>
            </g>
            <g>
              <g transform="translate(372,-455) rotate(90)">
                <path d="M 33.799999999999997 2.0 L 37.0 0 L 33.799999999999997 -2.0 L 45.0 0 Z" style="stroke:none;"/>
              </g>
              <path d="M 435.0 -300 L 435.0 -410" style="stroke-dasharray:1.5,1.5;fill:none;"/>
              <g style="fill:rgb(179,179,179);clip-path:url(#clip12);">
                <path d="M 432.0 -453 L 432.0 -476 L 472.00599999999997 -476 L 472.00599999999997 -453 Z" style="stroke:none;"/>
              </g>
              <g style="fill:rgb(255,255,255);clip-path:url(#clip13);">
                <path d="M 430.0 -455 L 430.0 -478 L 470.00599999999997 -478 L 470.00599999999997 -455 Z" style="stroke:none;"/>
              </g>
              <g>
                <path d="M 430.0 -455 L 470.00599999999997 -455 L 470.006 -455 L 470.00599999999997 -478 L 470.006 -478 L 430.0 -478 L 430 -478 L 430.0 -455 L 430 -455 Z" style="fill:none;"/>
                <text style="stroke:none;" x="435.0" y="-469.0">
                  Nodes
                </text>
                <text style="stroke:none;" x="435.0" y="-460.0">
                  recover
                </text>
                <g transform="translate(435,-455) rotate(90)">
                  <path d="M 0 0 L 37.799999999999997 0" style="fill:none;"/>
                </g>
                <g>
                  <g transform="translate(435,-455) rotate(90)">
                    <path d="M 33.799999999999997 2.0 L 37.0 0 L 33.799999999999997 -2.0 L 45.0 0 Z" style="stroke:none;"/>
                  </g>
                  <path d="M 439.5 -300 L 439.5 -410" style="stroke-dasharray:1.5,1.5;fill:none;"/>
                  <g style="fill:rgb(179,179,179);clip-path:url(#clip14);">
                    <path d="M 486.5 -453 L 486.5 -476 L 566.51099999999997 -476 L 566.51099999999997 -453 Z" style="stroke:none;"/>
                  </g>
                  <g style="fill:rgb(255,255,255);clip-path:url(#clip15);">
                    <path d="M 484.5 -455 L 484.5 -478 L 564.51099999999997 -478 L 564.51099999999997 -455 Z" style="stroke:none;"/>
                  </g>
                  <g>
                    <path d="M 484.5 -455 L 564.51099999999997 -455 L 564.511 -455 L 564.51099999999997 -478 L 564.511 -478 L 484.5 -478 L 484.5 -478 L 484.5 -455 L 484.5 -455 Z" style="fill:none;"/>
                    <text style="stroke:none;" x="489.5" y="-469.0">
                      New membership
                    </text>
                    <text style="stroke:none;" x="489.5" y="-460.0">
                      determined
                    </text>
                    <g transform="translate(484.5,-455) rotate(135)">
                      <path d="M 0 0 L 56.439610306789277 0" style="fill:none;"/>
                    </g>
                    <g>
                      <g transform="translate(484.5,-455) rotate(135)">
                        <path d="M 52.439610306789277 2.0 L 55.63961030678928 0 L 52.439610306789277 -2.0 L 63.63961030678928 0 Z" style="stroke:none;"/>
                      </g>
                    </g>
                  </g>
                </g>
              </g>
            </g>
          </g>
        </g>
      </g>
    </g>
  </g>
</svg>
