<?xml version="1.0" ?>
<!--Created by PyChart 1.38 Copyright 1999-2005 Yasushi Saito-->
<svg viewBox="261.993 -413 168.513 145.5" xmlns="http://www.w3.org/2000/svg" xmlns:xlink="http://www.w3.org/1999/xlink">
  <defs>
    <clipPath id="clip0">
      <path d="M 297 -297 L 297 -413 L 423 -413 L 423 -297 Z"/>
    </clipPath>
    <clipPath id="clip1">
      <path d="M 300 -300 L 300 -410 L 420 -410 L 420 -300 Z"/>
    </clipPath>
    <clipPath id="clip2">
      <path d="M 312.0 -317.0 L 312.0 -320.0 L 320.39999999999998 -320.0 L 320.39999999999998 -317.0 Z"/>
    </clipPath>
    <clipPath id="clip3">
      <path d="M 332.39999999999998 -317.0 L 332.39999999999998 -320.0 L 338.39999999999998 -320.0 L 338.39999999999998 -317.0 Z"/>
    </clipPath>
    <clipPath id="clip4">
      <path d="M 344.39999999999998 -317.0 L 344.39999999999998 -320.0 L 358.80000000000001 -320.0 L 358.80000000000001 -317.0 Z"/>
    </clipPath>
    <clipPath id="clip5">
      <path d="M 374.39999999999998 -317.0 L 374.39999999999998 -320.0 L 380.39999999999998 -320.0 L 380.39999999999998 -317.0 Z"/>
    </clipPath>
    <clipPath id="clip6">
      <path d="M 392.39999999999998 -317.0 L 392.39999999999998 -320.0 L 396.0 -320.0 L 396.0 -317.0 Z"/>
    </clipPath>
    <clipPath id="clip7">
      <path d="M 306.0 -372.0 L 306.0 -375.0 L 318.0 -375.0 L 318.0 -372.0 Z"/>
    </clipPath>
    <clipPath id="clip8">
      <path d="M 332.39999999999998 -372.0 L 332.39999999999998 -375.0 L 344.39999999999998 -375.0 L 344.39999999999998 -372.0 Z"/>
    </clipPath>
    <clipPath id="clip9">
      <path d="M 355.19999999999999 -372.0 L 355.19999999999999 -375.0 L 358.80000000000001 -375.0 L 358.80000000000001 -372.0 Z"/>
    </clipPath>
    <clipPath id="clip10">
      <path d="M 300 -300 L 300 -410 L 420 -410 L 420 -300 Z"/>
    </clipPath>
    <clipPath id="clip11">
      <path d="M 308.39999999999998 -325.0 L 308.39999999999998 -328.0 L 320.39999999999998 -328.0 L 320.39999999999998 -325.0 Z"/>
    </clipPath>
    <clipPath id="clip12">
      <path d="M 330.0 -325.0 L 330.0 -328.0 L 349.19999999999999 -328.0 L 349.19999999999999 -325.0 Z"/>
    </clipPath>
    <clipPath id="clip13">
      <path d="M 360.0 -325.0 L 360.0 -328.0 L 363.60000000000002 -328.0 L 363.60000000000002 -325.0 Z"/>
    </clipPath>
    <clipPath id="clip14">
      <path d="M 312.0 -380.0 L 312.0 -383.0 L 324.0 -383.0 L 324.0 -380.0 Z"/>
    </clipPath>
    <clipPath id="clip15">
      <path d="M 339.60000000000002 -380.0 L 339.60000000000002 -383.0 L 346.80000000000001 -383.0 L 346.80000000000001 -380.0 Z"/>
    </clipPath>
    <clipPath id="clip16">
      <path d="M 357.60000000000002 -380.0 L 357.60000000000002 -383.0 L 373.19999999999999 -383.0 L 373.19999999999999 -380.0 Z"/>
    </clipPath>
    <clipPath id="clip17">
      <path d="M 375 -337 L 375 -358 L 409.50700000000001 -358 L 409.50700000000001 -337 Z"/>
    </clipPath>
    <clipPath id="clip18">
      <path d="M 380 -348.85000000000002 L 380 -355.14999999999998 L 386.30000000000001 -355.14999999999998 L 386.30000000000001 -348.85000000000002 Z"/>
    </clipPath>
    <clipPath id="clip19">
      <path d="M 380 -339.85000000000002 L 380 -346.14999999999998 L 386.30000000000001 -346.14999999999998 L 386.30000000000001 -339.85000000000002 Z"/>
    </clipPath>
  </defs>
  <g style="stroke-linejoin:miter;font-size:9;font-family:Helvetica;fill:none;stroke-linecap:butt;stroke:rgb(0,0,0);font-stretch:normal;stroke-dasharray:none;font-weight:normal;font-style:normal;stroke-width:0.4;">
    <path d="M 324.0 -300 L 324.0 -410" style="stroke:rgb(126,126,126);stroke-dasharray:1.5,1.5;"/>
    <path d="M 348.0 -300 L 348.0 -410" style="stroke:rgb(126,126,126);stroke-dasharray:1.5,1.5;"/>
    <path d="M 372.0 -300 L 372.0 -410" style="stroke:rgb(126,126,126);stroke-dasharray:1.5,1.5;"/>
    <path d="M 396.0 -300 L 396.0 -410" style="stroke:rgb(126,126,126);stroke-dasharray:1.5,1.5;"/>
    <path d="M 420.0 -300 L 420.0 -410" style="stroke:rgb(126,126,126);stroke-dasharray:1.5,1.5;"/>
    <path d="M 300 -300 L 420 -300"/>
    <path d="M 300 -300 L 420 -300"/>
    <path d="M 300.0 -300 L 300.0 -294"/>
    <text style="stroke:none;fill:rgb(0,0,0);" x="297.49799999999999" y="-285.0">
      0
    </text>
    <path d="M 324.0 -300 L 324.0 -294"/>
    <text style="stroke:none;fill:rgb(0,0,0);" x="318.99599999999998" y="-285.0">
      20
    </text>
    <path d="M 348.0 -300 L 348.0 -294"/>
    <text style="stroke:none;fill:rgb(0,0,0);" x="342.99599999999998" y="-285.0">
      40
    </text>
    <path d="M 372.0 -300 L 372.0 -294"/>
    <text style="stroke:none;fill:rgb(0,0,0);" x="366.99599999999998" y="-285.0">
      60
    </text>
    <path d="M 396.0 -300 L 396.0 -294"/>
    <text style="stroke:none;fill:rgb(0,0,0);" x="390.99599999999998" y="-285.0">
      80
    </text>
    <path d="M 420.0 -300 L 420.0 -294"/>
    <text style="stroke:none;fill:rgb(0,0,0);" x="412.49400000000003" y="-285.0">
      100
    </text>
    <text style="stroke:none;fill:rgb(0,0,0);" x="346.24349999999998" y="-270.5">
      X label
    </text>
    <path d="M 300 -327.5 L 420 -327.5" style="stroke:rgb(179,179,179);stroke-dasharray:1,1;"/>
    <path d="M 300 -382.5 L 420 -382.5" style="stroke:rgb(179,179,179);stroke-dasharray:1,1;"/>
    <path d="M 300 -300 L 300 -410"/>
    <path d="M 300 -327.5 L 294 -327.5"/>
    <text style="stroke:none;fill:rgb(0,0,0);" x="278.49299999999999" y="-323.0">
      Foo
    </text>
    <path d="M 300 -382.5 L 294 -382.5"/>
    <text style="stroke:none;fill:rgb(0,0,0);" x="279.99599999999998" y="-378.0">
      Bar
    </text>
    <text style="stroke:none;fill:rgb(0,0,0);" transform="rotate(-90,273.993,-341.243)" x="273.99299999999999" y="-341.24349999999998">
      Y label
    </text>
    <g style="clip-path:url(#clip0);">
      <g style="clip-path:url(#clip1);">
        <g style="fill:rgb(255,0,0);clip-path:url(#clip2);">
          <path d="M 312.0 -317.0 L 312.0 -320.0 L 320.39999999999998 -320.0 L 320.39999999999998 -317.0 Z" style="stroke:none;"/>
        </g>
        <g>
          <path d="M 312.0 -317.0 L 312.0 -320.0 L 320.39999999999998 -320.0 L 320.39999999999998 -317.0 Z"/>
          <g style="fill:rgb(255,0,0);clip-path:url(#clip3);">
            <path d="M 332.39999999999998 -317.0 L 332.39999999999998 -320.0 L 338.39999999999998 -320.0 L 338.39999999999998 -317.0 Z" style="stroke:none;"/>
          </g>
          <g>
            <path d="M 332.39999999999998 -317.0 L 332.39999999999998 -320.0 L 338.39999999999998 -320.0 L 338.39999999999998 -317.0 Z"/>
            <g style="fill:rgb(255,0,0);clip-path:url(#clip4);">
              <path d="M 344.39999999999998 -317.0 L 344.39999999999998 -320.0 L 358.80000000000001 -320.0 L 358.80000000000001 -317.0 Z" style="stroke:none;"/>
            </g>
            <g>
              <path d="M 344.39999999999998 -317.0 L 344.39999999999998 -320.0 L 358.80000000000001 -320.0 L 358.80000000000001 -317.0 Z"/>
              <g style="fill:rgb(255,0,0);clip-path:url(#clip5);">
                <path d="M 374.39999999999998 -317.0 L 374.39999999999998 -320.0 L 380.39999999999998 -320.0 L 380.39999999999998 -317.0 Z" style="stroke:none;"/>
              </g>
              <g>
                <path d="M 374.39999999999998 -317.0 L 374.39999999999998 -320.0 L 380.39999999999998 -320.0 L 380.39999999999998 -317.0 Z"/>
                <g style="fill:rgb(255,0,0);clip-path:url(#clip6);">
                  <path d="M 392.39999999999998 -317.0 L 392.39999999999998 -320.0 L 396.0 -320.0 L 396.0 -317.0 Z" style="stroke:none;"/>
                </g>
                <g>
                  <path d="M 392.39999999999998 -317.0 L 392.39999999999998 -320.0 L 396.0 -320.0 L 396.0 -317.0 Z"/>
                  <g style="fill:rgb(255,0,0);clip-path:url(#clip7);">
                    <path d="M 306.0 -372.0 L 306.0 -375.0 L 318.0 -375.0 L 318.0 -372.0 Z" style="stroke:none;"/>
                  </g>
                  <g>
                    <path d="M 306.0 -372.0 L 306.0 -375.0 L 318.0 -375.0 L 318.0 -372.0 Z"/>
                    <g style="fill:rgb(255,0,0);clip-path:url(#clip8);">
                      <path d="M 332.39999999999998 -372.0 L 332.39999999999998 -375.0 L 344.39999999999998 -375.0 L 344.39999999999998 -372.0 Z" style="stroke:none;"/>
                    </g>
                    <g>
                      <path d="M 332.39999999999998 -372.0 L 332.39999999999998 -375.0 L 344.39999999999998 -375.0 L 344.39999999999998 -372.0 Z"/>
                      <g style="fill:rgb(255,0,0);clip-path:url(#clip9);">
                        <path d="M 355.19999999999999 -372.0 L 355.19999999999999 -375.0 L 358.80000000000001 -375.0 L 358.80000000000001 -372.0 Z" style="stroke:none;"/>
                      </g>
                      <g>
                        <path d="M 355.19999999999999 -372.0 L 355.19999999999999 -375.0 L 358.80000000000001 -375.0 L 358.80000000000001 -372.0 Z"/>
                      </g>
                    </g>
                  </g>
                </g>
              </g>
            </g>
          </g>
        </g>
      </g>
      <g style="clip-path:url(#clip10);">
        <g style="fill:rgb(0,0,255);clip-path:url(#clip11);">
          <path d="M 308.39999999999998 -325.0 L 308.39999999999998 -328.0 L 320.39999999999998 -328.0 L 320.39999999999998 -325.0 Z" style="stroke:none;"/>
        </g>
        <g>
          <path d="M 308.39999999999998 -325.0 L 308.39999999999998 -328.0 L 320.39999999999998 -328.0 L 320.39999999999998 -325.0 Z"/>
          <g style="fill:rgb(0,0,255);clip-path:url(#clip12);">
            <path d="M 330.0 -325.0 L 330.0 -328.0 L 349.19999999999999 -328.0 L 349.19999999999999 -325.0 Z" style="stroke:none;"/>
          </g>
          <g>
            <path d="M 330.0 -325.0 L 330.0 -328.0 L 349.19999999999999 -328.0 L 349.19999999999999 -325.0 Z"/>
            <g style="fill:rgb(0,0,255);clip-path:url(#clip13);">
              <path d="M 360.0 -325.0 L 360.0 -328.0 L 363.60000000000002 -328.0 L 363.60000000000002 -325.0 Z" style="stroke:none;"/>
            </g>
            <g>
              <path d="M 360.0 -325.0 L 360.0 -328.0 L 363.60000000000002 -328.0 L 363.60000000000002 -325.0 Z"/>
              <g style="fill:rgb(0,0,255);clip-path:url(#clip14);">
                <path d="M 312.0 -380.0 L 312.0 -383.0 L 324.0 -383.0 L 324.0 -380.0 Z" style="stroke:none;"/>
              </g>
              <g>
                <path d="M 312.0 -380.0 L 312.0 -383.0 L 324.0 -383.0 L 324.0 -380.0 Z"/>
                <g style="fill:rgb(0,0,255);clip-path:url(#clip15);">
                  <path d="M 339.60000000000002 -380.0 L 339.60000000000002 -383.0 L 346.80000000000001 -383.0 L 346.80000000000001 -380.0 Z" style="stroke:none;"/>
                </g>
                <g>
                  <path d="M 339.60000000000002 -380.0 L 339.60000000000002 -383.0 L 346.80000000000001 -383.0 L 346.80000000000001 -380.0 Z"/>
                  <g style="fill:rgb(0,0,255);clip-path:url(#clip16);">
                    <path d="M 357.60000000000002 -380.0 L 357.60000000000002 -383.0 L 373.19999999999999 -383.0 L 373.19999999999999 -380.0 Z" style="stroke:none;"/>
                  </g>
                  <g>
                    <path d="M 357.60000000000002 -380.0 L 357.60000000000002 -383.0 L 373.19999999999999 -383.0 L 373.19999999999999 -380.0 Z"/>
                  </g>
                </g>
              </g>
            </g>
          </g>
        </g>
      </g>
    </g>
    <g style="fill:rgb(255,255,255);clip-path:url(#clip17);">
      <path d="M 375 -337 L 375 -358 L 409.50700000000001 -358 L 409.50700000000001 -337 Z" style="stroke:none;"/>
    </g>
    <g>
      <path d="M 375 -337 L 375 -358 L 409.50700000000001 -358 L 409.50700000000001 -337 Z"/>
      <g style="fill:rgb(255,0,0);clip-path:url(#clip18);">
        <path d="M 380 -348.85000000000002 L 380 -355.14999999999998 L 386.30000000000001 -355.14999999999998 L 386.30000000000001 -348.85000000000002 Z" style="stroke:none;"/>
      </g>
      <g>
        <path d="M 380 -348.85000000000002 L 380 -355.14999999999998 L 386.30000000000001 -355.14999999999998 L 386.30000000000001 -348.85000000000002 Z"/>
        <text style="stroke:none;fill:rgb(0,0,0);" x="389.0" y="-349.0">
          foo
        </text>
        <g style="fill:rgb(0,0,255);clip-path:url(#clip19);">
          <path d="M 380 -339.85000000000002 L 380 -346.14999999999998 L 386.30000000000001 -346.14999999999998 L 386.30000000000001 -339.85000000000002 Z" style="stroke:none;"/>
        </g>
        <g>
          <path d="M 380 -339.85000000000002 L 380 -346.14999999999998 L 386.30000000000001 -346.14999999999998 L 386.30000000000001 -339.85000000000002 Z"/>
          <text style="stroke:none;fill:rgb(0,0,0);" x="389.0" y="-340.0">
            bar
          </text>
        </g>
      </g>
    </g>
  </g>
</svg>
