<?xml version="1.0" ?>
<!--Created by PyChart 1.38 Copyright 1999-2005 Yasushi Saito-->
<svg viewBox="267.492 -420.029 197.015 156.697" xmlns="http://www.w3.org/2000/svg" xmlns:xlink="http://www.w3.org/1999/xlink">
  <defs>
    <clipPath id="clip0">
      <path d="M 297 -297 L 297 -413 L 423 -413 L 423 -297 Z"/>
    </clipPath>
    <clipPath id="clip1">
      <path d="M 297 -297 L 297 -413 L 423 -413 L 423 -297 Z"/>
    </clipPath>
    <clipPath id="clip2">
      <path d="M 290 -290 L 290 -420 L 430 -420 L 430 -290 Z"/>
    </clipPath>
    <clipPath id="clip3">
      <path d="M 297 -297 L 297 -413 L 423 -413 L 423 -297 Z"/>
    </clipPath>
    <clipPath id="clip4">
      <path d="M 290 -290 L 290 -420 L 430 -420 L 430 -290 Z"/>
    </clipPath>
    <clipPath id="clip5">
      <path d="M 297.5 -336.3235294117647 L 297.5 -341.3235294117647 L 302.5 -341.3235294117647 L 302.5 -336.3235294117647 Z"/>
    </clipPath>
    <clipPath id="clip6">
      <path d="M 310.13157894736844 -340.20588235294116 L 310.13157894736844 -345.20588235294116 L 315.13157894736844 -345.20588235294116 L 315.13157894736844 -340.20588235294116 Z"/>
    </clipPath>
    <clipPath id="clip7">
      <path d="M 322.76315789473682 -336.3235294117647 L 322.76315789473682 -341.3235294117647 L 327.76315789473682 -341.3235294117647 L 327.76315789473682 -336.3235294117647 Z"/>
    </clipPath>
    <clipPath id="clip8">
      <path d="M 335.39473684210526 -363.5 L 335.39473684210526 -368.5 L 340.39473684210526 -368.5 L 340.39473684210526 -363.5 Z"/>
    </clipPath>
    <clipPath id="clip9">
      <path d="M 348.0263157894737 -332.44117647058823 L 348.0263157894737 -337.44117647058823 L 353.0263157894737 -337.44117647058823 L 353.0263157894737 -332.44117647058823 Z"/>
    </clipPath>
    <clipPath id="clip10">
      <path d="M 360.65789473684208 -336.3235294117647 L 360.65789473684208 -341.3235294117647 L 365.65789473684208 -341.3235294117647 L 365.65789473684208 -336.3235294117647 Z"/>
    </clipPath>
    <clipPath id="clip11">
      <path d="M 373.28947368421052 -351.85294117647061 L 373.28947368421052 -356.85294117647061 L 378.28947368421052 -356.85294117647061 L 378.28947368421052 -351.85294117647061 Z"/>
    </clipPath>
    <clipPath id="clip12">
      <path d="M 385.92105263157896 -338.91176470588238 L 385.92105263157896 -343.91176470588238 L 390.92105263157896 -343.91176470588238 L 390.92105263157896 -338.91176470588238 Z"/>
    </clipPath>
    <clipPath id="clip13">
      <path d="M 398.5526315789474 -347.97058823529414 L 398.5526315789474 -352.97058823529414 L 403.5526315789474 -352.97058823529414 L 403.5526315789474 -347.97058823529414 Z"/>
    </clipPath>
    <clipPath id="clip14">
      <path d="M 411.18421052631578 -347.97058823529414 L 411.18421052631578 -352.97058823529414 L 416.18421052631578 -352.97058823529414 L 416.18421052631578 -347.97058823529414 Z"/>
    </clipPath>
    <clipPath id="clip15">
      <path d="M 427.0 -297 L 427.0 -318 L 461.50700000000001 -318 L 461.50700000000001 -297 Z"/>
    </clipPath>
    <clipPath id="clip16">
      <path d="M 434.0 -300.5 L 434.0 -305.5 L 439.0 -305.5 L 439.0 -300.5 Z"/>
    </clipPath>
  </defs>
  <g style="stroke-linejoin:miter;font-size:9;font-family:Helvetica;fill:none;stroke-linecap:butt;stroke:rgb(0,0,0);font-stretch:normal;stroke-dasharray:none;font-weight:normal;font-style:normal;stroke-width:0.4;">
    <path d="M 300 -300 L 420 -300"/>
    <path d="M 300 -300 L 420 -300"/>
    <path d="M 300.0 -300 L 300.0 -294"/>
    <text style="stroke:none;fill:rgb(0,0,0);" transform="rotate(60,300,-289.5)" x="300.0" y="-289.5">
      10
    </text>
    <path d="M 325.26315789473682 -300 L 325.26315789473682 -294"/>
    <text style="stroke:none;fill:rgb(0,0,0);" transform="rotate(60,325.263,-289.5)" x="325.26315789473682" y="-289.5">
      30
    </text>
    <path d="M 350.5263157894737 -300 L 350.5263157894737 -294"/>
    <text style="stroke:none;fill:rgb(0,0,0);" transform="rotate(60,350.526,-289.5)" x="350.5263157894737" y="-289.5">
      50
    </text>
    <path d="M 375.78947368421052 -300 L 375.78947368421052 -294"/>
    <text style="stroke:none;fill:rgb(0,0,0);" transform="rotate(60,375.789,-289.5)" x="375.78947368421052" y="-289.5">
      70
    </text>
    <path d="M 401.0526315789474 -300 L 401.0526315789474 -294"/>
    <text style="stroke:none;fill:rgb(0,0,0);" transform="rotate(60,401.053,-289.5)" x="401.0526315789474" y="-289.5">
      90
    </text>
    <text style="stroke:none;fill:rgb(0,0,0);" x="350.74349999999998" y="-266.33281775892533">
      Stuff
    </text>
    <path d="M 300 -312.94117647058823 L 420 -312.94117647058823" style="stroke:rgb(179,179,179);stroke-dasharray:1,1;"/>
    <path d="M 300 -325.88235294117646 L 420 -325.88235294117646" style="stroke:rgb(179,179,179);stroke-dasharray:1,1;"/>
    <path d="M 300 -338.8235294117647 L 420 -338.8235294117647" style="stroke:rgb(179,179,179);stroke-dasharray:1,1;"/>
    <path d="M 300 -351.76470588235293 L 420 -351.76470588235293" style="stroke:rgb(179,179,179);stroke-dasharray:1,1;"/>
    <path d="M 300 -364.70588235294116 L 420 -364.70588235294116" style="stroke:rgb(179,179,179);stroke-dasharray:1,1;"/>
    <path d="M 300 -377.64705882352939 L 420 -377.64705882352939" style="stroke:rgb(179,179,179);stroke-dasharray:1,1;"/>
    <path d="M 300 -390.58823529411768 L 420 -390.58823529411768" style="stroke:rgb(179,179,179);stroke-dasharray:1,1;"/>
    <path d="M 300 -403.52941176470586 L 420 -403.52941176470586" style="stroke:rgb(179,179,179);stroke-dasharray:1,1;"/>
    <path d="M 300 -300 L 300 -410"/>
    <path d="M 300 -300.0 L 294 -300.0"/>
    <text style="stroke:none;fill:rgb(0,0,0);" x="288.99599999999998" y="-295.5">
      0
    </text>
    <path d="M 300 -325.88235294117646 L 294 -325.88235294117646"/>
    <text style="stroke:none;fill:rgb(0,0,0);" x="283.99200000000002" y="-321.38235294117646">
      20
    </text>
    <path d="M 300 -351.76470588235293 L 294 -351.76470588235293"/>
    <text style="stroke:none;fill:rgb(0,0,0);" x="283.99200000000002" y="-347.26470588235293">
      40
    </text>
    <path d="M 300 -377.64705882352939 L 294 -377.64705882352939"/>
    <text style="stroke:none;fill:rgb(0,0,0);" x="283.99200000000002" y="-373.14705882352939">
      60
    </text>
    <path d="M 300 -403.52941176470586 L 294 -403.52941176470586"/>
    <text style="stroke:none;fill:rgb(0,0,0);" x="283.99200000000002" y="-399.02941176470586">
      80
    </text>
    <text style="stroke:none;fill:rgb(0,0,0);" transform="rotate(-90,279.492,-343.493)" x="279.49200000000002" y="-343.49349999999998">
      Value
    </text>
    <g style="clip-path:url(#clip0);">
      <g style="clip-path:url(#clip1);">
        <path d="M 300.0 -325.88235294117646 L 312.63157894736844 -384.11764705882354 L 325.26315789473682 -371.1764705882353 L 337.89473684210526 -358.23529411764707 L 350.5263157894737 -332.35294117647061 L 363.15789473684208 -397.05882352941177 L 375.78947368421052 -403.52941176470586 L 388.42105263157896 -380.23529411764707 L 401.0526315789474 -354.35294117647061 L 413.68421052631578 -341.41176470588238" style="stroke-width:1.2;"/>
      </g>
      <g style="clip-path:url(#clip2);">
        <path d="M 297.5 -323.38235294117646 L 302.5 -328.38235294117646" style="stroke-width:1;"/>
        <path d="M 302.5 -323.38235294117646 L 297.5 -328.38235294117646" style="stroke-width:1;"/>
        <path d="M 300.0 -322.3473529411765 L 300.0 -329.41735294117649" style="stroke-width:1;"/>
        <path d="M 296.46499999999997 -325.88235294117646 L 303.53500000000003 -325.88235294117646" style="stroke-width:1;"/>
        <path d="M 310.13157894736844 -381.61764705882354 L 315.13157894736844 -386.61764705882354" style="stroke-width:1;"/>
        <path d="M 315.13157894736844 -381.61764705882354 L 310.13157894736844 -386.61764705882354" style="stroke-width:1;"/>
        <path d="M 312.63157894736844 -380.58264705882357 L 312.63157894736844 -387.6526470588235" style="stroke-width:1;"/>
        <path d="M 309.09657894736841 -384.11764705882354 L 316.16657894736841 -384.11764705882354" style="stroke-width:1;"/>
        <path d="M 322.76315789473682 -368.6764705882353 L 327.76315789473682 -373.6764705882353" style="stroke-width:1;"/>
        <path d="M 327.76315789473682 -368.6764705882353 L 322.76315789473682 -373.6764705882353" style="stroke-width:1;"/>
        <path d="M 325.26315789473682 -367.64147058823528 L 325.26315789473682 -374.71147058823527" style="stroke-width:1;"/>
        <path d="M 321.72815789473685 -371.1764705882353 L 328.79815789473685 -371.1764705882353" style="stroke-width:1;"/>
        <path d="M 335.39473684210526 -355.73529411764707 L 340.39473684210526 -360.73529411764707" style="stroke-width:1;"/>
        <path d="M 340.39473684210526 -355.73529411764707 L 335.39473684210526 -360.73529411764707" style="stroke-width:1;"/>
        <path d="M 337.89473684210526 -354.70029411764705 L 337.89473684210526 -361.77029411764704" style="stroke-width:1;"/>
        <path d="M 334.35973684210524 -358.23529411764707 L 341.42973684210529 -358.23529411764707" style="stroke-width:1;"/>
        <path d="M 348.0263157894737 -329.85294117647061 L 353.0263157894737 -334.85294117647061" style="stroke-width:1;"/>
        <path d="M 353.0263157894737 -329.85294117647061 L 348.0263157894737 -334.85294117647061" style="stroke-width:1;"/>
        <path d="M 350.5263157894737 -328.81794117647058 L 350.5263157894737 -335.88794117647058" style="stroke-width:1;"/>
        <path d="M 346.99131578947367 -332.35294117647061 L 354.06131578947367 -332.35294117647061" style="stroke-width:1;"/>
        <path d="M 360.65789473684208 -394.55882352941177 L 365.65789473684208 -399.55882352941177" style="stroke-width:1;"/>
        <path d="M 365.65789473684208 -394.55882352941177 L 360.65789473684208 -399.55882352941177" style="stroke-width:1;"/>
        <path d="M 363.15789473684208 -393.52382352941174 L 363.15789473684208 -400.59382352941179" style="stroke-width:1;"/>
        <path d="M 359.62289473684211 -397.05882352941177 L 366.69289473684211 -397.05882352941177" style="stroke-width:1;"/>
        <path d="M 373.28947368421052 -401.02941176470586 L 378.28947368421052 -406.02941176470586" style="stroke-width:1;"/>
        <path d="M 378.28947368421052 -401.02941176470586 L 373.28947368421052 -406.02941176470586" style="stroke-width:1;"/>
        <path d="M 375.78947368421052 -399.99441176470589 L 375.78947368421052 -407.06441176470588" style="stroke-width:1;"/>
        <path d="M 372.25447368421055 -403.52941176470586 L 379.32447368421049 -403.52941176470586" style="stroke-width:1;"/>
        <path d="M 385.92105263157896 -377.73529411764707 L 390.92105263157896 -382.73529411764707" style="stroke-width:1;"/>
        <path d="M 390.92105263157896 -377.73529411764707 L 385.92105263157896 -382.73529411764707" style="stroke-width:1;"/>
        <path d="M 388.42105263157896 -376.70029411764705 L 388.42105263157896 -383.77029411764704" style="stroke-width:1;"/>
        <path d="M 384.88605263157893 -380.23529411764707 L 391.95605263157893 -380.23529411764707" style="stroke-width:1;"/>
        <path d="M 398.5526315789474 -351.85294117647061 L 403.5526315789474 -356.85294117647061" style="stroke-width:1;"/>
        <path d="M 403.5526315789474 -351.85294117647061 L 398.5526315789474 -356.85294117647061" style="stroke-width:1;"/>
        <path d="M 401.0526315789474 -350.81794117647058 L 401.0526315789474 -357.88794117647058" style="stroke-width:1;"/>
        <path d="M 397.51763157894737 -354.35294117647061 L 404.58763157894737 -354.35294117647061" style="stroke-width:1;"/>
        <path d="M 411.18421052631578 -338.91176470588238 L 416.18421052631578 -343.91176470588238" style="stroke-width:1;"/>
        <path d="M 416.18421052631578 -338.91176470588238 L 411.18421052631578 -343.91176470588238" style="stroke-width:1;"/>
        <path d="M 413.68421052631578 -337.87676470588235 L 413.68421052631578 -344.94676470588234" style="stroke-width:1;"/>
        <path d="M 410.14921052631581 -341.41176470588238 L 417.21921052631581 -341.41176470588238" style="stroke-width:1;"/>
      </g>
      <g style="clip-path:url(#clip3);">
        <path d="M 300.0 -338.8235294117647 L 312.63157894736844 -342.70588235294116 L 325.26315789473682 -338.8235294117647 L 337.89473684210526 -366.0 L 350.5263157894737 -334.94117647058823 L 363.15789473684208 -338.8235294117647 L 375.78947368421052 -354.35294117647061 L 388.42105263157896 -341.41176470588238 L 401.0526315789474 -350.47058823529414 L 413.68421052631578 -350.47058823529414" style="stroke-width:1.2;stroke-dasharray:1.5,1.5;"/>
      </g>
      <g style="clip-path:url(#clip4);">
        <g style="fill:rgb(255,255,255);clip-path:url(#clip5);">
          <path d="M 297.5 -336.3235294117647 L 297.5 -341.3235294117647 L 302.5 -341.3235294117647 L 302.5 -336.3235294117647 Z" style="stroke:none;"/>
        </g>
        <g>
          <path d="M 297.5 -336.3235294117647 L 297.5 -341.3235294117647 L 302.5 -341.3235294117647 L 302.5 -336.3235294117647 Z"/>
          <g style="fill:rgb(255,255,255);clip-path:url(#clip6);">
            <path d="M 310.13157894736844 -340.20588235294116 L 310.13157894736844 -345.20588235294116 L 315.13157894736844 -345.20588235294116 L 315.13157894736844 -340.20588235294116 Z" style="stroke:none;"/>
          </g>
          <g>
            <path d="M 310.13157894736844 -340.20588235294116 L 310.13157894736844 -345.20588235294116 L 315.13157894736844 -345.20588235294116 L 315.13157894736844 -340.20588235294116 Z"/>
            <g style="fill:rgb(255,255,255);clip-path:url(#clip7);">
              <path d="M 322.76315789473682 -336.3235294117647 L 322.76315789473682 -341.3235294117647 L 327.76315789473682 -341.3235294117647 L 327.76315789473682 -336.3235294117647 Z" style="stroke:none;"/>
            </g>
            <g>
              <path d="M 322.76315789473682 -336.3235294117647 L 322.76315789473682 -341.3235294117647 L 327.76315789473682 -341.3235294117647 L 327.76315789473682 -336.3235294117647 Z"/>
              <g style="fill:rgb(255,255,255);clip-path:url(#clip8);">
                <path d="M 335.39473684210526 -363.5 L 335.39473684210526 -368.5 L 340.39473684210526 -368.5 L 340.39473684210526 -363.5 Z" style="stroke:none;"/>
              </g>
              <g>
                <path d="M 335.39473684210526 -363.5 L 335.39473684210526 -368.5 L 340.39473684210526 -368.5 L 340.39473684210526 -363.5 Z"/>
                <g style="fill:rgb(255,255,255);clip-path:url(#clip9);">
                  <path d="M 348.0263157894737 -332.44117647058823 L 348.0263157894737 -337.44117647058823 L 353.0263157894737 -337.44117647058823 L 353.0263157894737 -332.44117647058823 Z" style="stroke:none;"/>
                </g>
                <g>
                  <path d="M 348.0263157894737 -332.44117647058823 L 348.0263157894737 -337.44117647058823 L 353.0263157894737 -337.44117647058823 L 353.0263157894737 -332.44117647058823 Z"/>
                  <g style="fill:rgb(255,255,255);clip-path:url(#clip10);">
                    <path d="M 360.65789473684208 -336.3235294117647 L 360.65789473684208 -341.3235294117647 L 365.65789473684208 -341.3235294117647 L 365.65789473684208 -336.3235294117647 Z" style="stroke:none;"/>
                  </g>
                  <g>
                    <path d="M 360.65789473684208 -336.3235294117647 L 360.65789473684208 -341.3235294117647 L 365.65789473684208 -341.3235294117647 L 365.65789473684208 -336.3235294117647 Z"/>
                    <g style="fill:rgb(255,255,255);clip-path:url(#clip11);">
                      <path d="M 373.28947368421052 -351.85294117647061 L 373.28947368421052 -356.85294117647061 L 378.28947368421052 -356.85294117647061 L 378.28947368421052 -351.85294117647061 Z" style="stroke:none;"/>
                    </g>
                    <g>
                      <path d="M 373.28947368421052 -351.85294117647061 L 373.28947368421052 -356.85294117647061 L 378.28947368421052 -356.85294117647061 L 378.28947368421052 -351.85294117647061 Z"/>
                      <g style="fill:rgb(255,255,255);clip-path:url(#clip12);">
                        <path d="M 385.92105263157896 -338.91176470588238 L 385.92105263157896 -343.91176470588238 L 390.92105263157896 -343.91176470588238 L 390.92105263157896 -338.91176470588238 Z" style="stroke:none;"/>
                      </g>
                      <g>
                        <path d="M 385.92105263157896 -338.91176470588238 L 385.92105263157896 -343.91176470588238 L 390.92105263157896 -343.91176470588238 L 390.92105263157896 -338.91176470588238 Z"/>
                        <g style="fill:rgb(255,255,255);clip-path:url(#clip13);">
                          <path d="M 398.5526315789474 -347.97058823529414 L 398.5526315789474 -352.97058823529414 L 403.5526315789474 -352.97058823529414 L 403.5526315789474 -347.97058823529414 Z" style="stroke:none;"/>
                        </g>
                        <g>
                          <path d="M 398.5526315789474 -347.97058823529414 L 398.5526315789474 -352.97058823529414 L 403.5526315789474 -352.97058823529414 L 403.5526315789474 -347.97058823529414 Z"/>
                          <g style="fill:rgb(255,255,255);clip-path:url(#clip14);">
                            <path d="M 411.18421052631578 -347.97058823529414 L 411.18421052631578 -352.97058823529414 L 416.18421052631578 -352.97058823529414 L 416.18421052631578 -347.97058823529414 Z" style="stroke:none;"/>
                          </g>
                          <g>
                            <path d="M 411.18421052631578 -347.97058823529414 L 411.18421052631578 -352.97058823529414 L 416.18421052631578 -352.97058823529414 L 416.18421052631578 -347.97058823529414 Z"/>
                          </g>
                        </g>
                      </g>
                    </g>
                  </g>
                </g>
              </g>
            </g>
          </g>
        </g>
      </g>
    </g>
    <g style="fill:rgb(255,255,255);clip-path:url(#clip15);">
      <path d="M 427.0 -297 L 427.0 -318 L 461.50700000000001 -318 L 461.50700000000001 -297 Z" style="stroke:none;"/>
    </g>
    <g>
      <path d="M 427.0 -297 L 427.0 -318 L 461.50700000000001 -318 L 461.50700000000001 -297 Z"/>
      <path d="M 432.0 -312.0 L 441.0 -312.0" style="stroke-width:1.2;"/>
      <path d="M 434.0 -309.5 L 439.0 -314.5" style="stroke-width:1;"/>
      <path d="M 439.0 -309.5 L 434.0 -314.5" style="stroke-width:1;"/>
      <path d="M 436.5 -308.46499999999997 L 436.5 -315.53500000000003" style="stroke-width:1;"/>
      <path d="M 432.96500000000003 -312.0 L 440.03499999999997 -312.0" style="stroke-width:1;"/>
      <text style="stroke:none;fill:rgb(0,0,0);" x="441.0" y="-309.0">
        foo
      </text>
      <path d="M 432.0 -303.0 L 441.0 -303.0" style="stroke-width:1.2;stroke-dasharray:1.5,1.5;"/>
      <g style="fill:rgb(255,255,255);clip-path:url(#clip16);">
        <path d="M 434.0 -300.5 L 434.0 -305.5 L 439.0 -305.5 L 439.0 -300.5 Z" style="stroke:none;"/>
      </g>
      <g>
        <path d="M 434.0 -300.5 L 434.0 -305.5 L 439.0 -305.5 L 439.0 -300.5 Z"/>
        <text style="stroke:none;fill:rgb(0,0,0);" x="441.0" y="-300.0">
          bar
        </text>
      </g>
    </g>
  </g>
</svg>
