<?xml version="1.0" ?>
<!--Created by PyChart 1.38 Copyright 1999-2005 Yasushi Saito-->
<svg viewBox="294 -456 205.01 162" xmlns="http://www.w3.org/2000/svg" xmlns:xlink="http://www.w3.org/1999/xlink">
  <defs>
    <clipPath id="clip0">
      <path d="M 297 -297 L 297 -453 L 453 -453 L 453 -297 Z"/>
    </clipPath>
    <clipPath id="clip1">
      <path d="M 377.0 -373.0 M 377.0 -373.0 L 399.04194696096772 -403.33813728906051 L 399.042 -403.338 A 37.5 37.5 0 0 0 377 -410.5 Z"/>
    </clipPath>
    <clipPath id="clip2">
      <path d="M 375.0 -375.0 M 375.0 -375.0 L 397.04194696096772 -405.33813728906051 L 397.042 -405.338 A 37.5 37.5 0 0 0 375 -412.5 Z"/>
    </clipPath>
    <clipPath id="clip3">
      <path d="M 389.31356214843424 -429.44103226844709 L 411.82356214843423 -429.44103226844709 L 411.824 -429.441 L 411.82356214843423 -443.44103226844709 L 411.824 -443.441 L 389.31356214843424 -443.44103226844709 L 389.314 -443.441 L 389.31356214843424 -429.44103226844709 L 389.314 -429.441 Z"/>
    </clipPath>
    <clipPath id="clip4">
      <path d="M 386.51056516295154 -376.09016994374946 M 386.51056516295154 -376.09016994374946 L 422.17518452401981 -364.50203265468895 L 422.175 -364.502 A 37.5 37.5 0 0 0 408.553 -406.428 Z"/>
    </clipPath>
    <clipPath id="clip5">
      <path d="M 384.51056516295154 -378.09016994374946 M 384.51056516295154 -378.09016994374946 L 420.17518452401981 -366.50203265468895 L 420.175 -366.502 A 37.5 37.5 0 0 0 406.553 -408.428 Z"/>
    </clipPath>
    <clipPath id="clip6">
      <path d="M 438.95159743139862 -392.4037320921837 L 461.95659743139862 -392.4037320921837 L 461.957 -392.404 L 461.95659743139862 -406.4037320921837 L 461.957 -406.404 L 438.95159743139862 -406.4037320921837 L 438.952 -406.404 L 438.95159743139862 -392.4037320921837 L 438.952 -392.404 Z"/>
    </clipPath>
    <clipPath id="clip7">
      <path d="M 377.0 -373.0 M 377.0 -373.0 L 354.95805303903228 -342.66186271093949 L 354.958 -342.662 A 37.5 37.5 0 0 0 412.665 -361.412 Z"/>
    </clipPath>
    <clipPath id="clip8">
      <path d="M 375.0 -375.0 M 375.0 -375.0 L 352.95805303903228 -344.66186271093949 L 352.958 -344.662 A 37.5 37.5 0 0 0 410.665 -363.412 Z"/>
    </clipPath>
    <clipPath id="clip9">
      <path d="M 389.31356214843419 -310.55896773155291 L 413.82156214843417 -310.55896773155291 L 413.822 -310.559 L 413.82156214843417 -324.55896773155291 L 413.822 -324.559 L 389.31356214843419 -324.55896773155291 L 389.314 -324.559 L 389.31356214843419 -310.55896773155291 L 389.314 -310.559 Z"/>
    </clipPath>
    <clipPath id="clip10">
      <path d="M 367.48943483704846 -376.09016994374946 M 367.48943483704846 -376.09016994374946 L 367.48943483704846 -413.59016994374946 L 367.489 -413.59 A 37.5 37.5 0 0 0 345.447 -345.752 Z"/>
    </clipPath>
    <clipPath id="clip11">
      <path d="M 365.48943483704846 -378.09016994374946 M 365.48943483704846 -378.09016994374946 L 365.48943483704846 -415.59016994374946 L 365.489 -415.59 A 37.5 37.5 0 0 0 343.447 -347.752 Z"/>
    </clipPath>
    <clipPath id="clip12">
      <path d="M 291.04040256860139 -392.4037320921837 L 311.04840256860138 -392.4037320921837 L 311.048 -392.404 L 311.04840256860138 -406.4037320921837 L 311.048 -406.404 L 291.04040256860139 -406.4037320921837 L 291.04 -406.404 L 291.04040256860139 -392.4037320921837 L 291.04 -392.404 Z"/>
    </clipPath>
    <clipPath id="clip13">
      <path d="M 460.0 -297 L 460.0 -336 L 496.00999999999999 -336 L 496.00999999999999 -297 Z"/>
    </clipPath>
    <clipPath id="clip14">
      <path d="M 465.0 -326.85000000000002 L 465.0 -333.14999999999998 L 471.30000000000001 -333.14999999999998 L 471.30000000000001 -326.85000000000002 Z"/>
    </clipPath>
    <clipPath id="clip15">
      <path d="M 465.0 -317.85000000000002 L 465.0 -324.14999999999998 L 471.30000000000001 -324.14999999999998 L 471.30000000000001 -317.85000000000002 Z"/>
    </clipPath>
    <clipPath id="clip16">
      <path d="M 465.0 -308.85000000000002 L 465.0 -315.14999999999998 L 471.30000000000001 -315.14999999999998 L 471.30000000000001 -308.85000000000002 Z"/>
    </clipPath>
    <clipPath id="clip17">
      <path d="M 465.0 -299.85000000000002 L 465.0 -306.14999999999998 L 471.30000000000001 -306.14999999999998 L 471.30000000000001 -299.85000000000002 Z"/>
    </clipPath>
  </defs>
  <g style="stroke-linejoin:miter;font-size:9;font-family:Helvetica;fill:none;stroke-linecap:butt;stroke:rgb(0,0,0);font-stretch:normal;stroke-dasharray:none;font-weight:normal;font-style:normal;stroke-width:0.4;">
    <g style="clip-path:url(#clip0);">
      <g style="fill:rgb(126,126,126);clip-path:url(#clip1);">
        <path d="M 302.0 -298.0 L 302.0 -448.0 L 452.0 -448.0 L 452.0 -298.0 Z" style="stroke:none;"/>
      </g>
      <g style="fill:rgb(0,0,0);clip-path:url(#clip2);">
        <path d="M 300.0 -300.0 L 300.0 -450.0 L 450.0 -450.0 L 450.0 -300.0 Z" style="stroke:none;"/>
      </g>
      <g>
        <path d="M 375.0 -375.0 M 375.0 -375.0 L 397.04194696096772 -405.33813728906051 L 397.042 -405.338 A 37.5 37.5 0 0 0 375 -412.5 Z"/>
        <g style="fill:rgb(255,255,255);clip-path:url(#clip3);">
          <path d="M 389.31356214843424 -429.44103226844709 L 389.31356214843424 -443.44103226844709 L 411.82356214843423 -443.44103226844709 L 411.82356214843423 -429.44103226844709 Z" style="stroke:none;"/>
        </g>
        <text style="stroke:none;fill:rgb(0,0,0);" x="394.31356214843424" y="-434.44103226844709">
          foo
        </text>
        <g transform="translate(389.314,-429.441) rotate(98.2589)">
          <path d="M 0 0 L 11.773181660767232 0"/>
        </g>
        <g style="fill:rgb(0,0,0);">
          <g transform="translate(389.314,-429.441) rotate(98.2589)">
            <path d="M 10.973181660767231 0 L 14.973181660767231 2.0 L 18.973181660767231 0 L 14.973181660767231 -2.0 Z" style="stroke:none;"/>
          </g>
          <g style="fill:rgb(126,126,126);clip-path:url(#clip4);">
            <path d="M 311.51056516295154 -301.09016994374946 L 311.51056516295154 -451.09016994374946 L 461.51056516295154 -451.09016994374946 L 461.51056516295154 -301.09016994374946 Z" style="stroke:none;"/>
          </g>
          <g style="fill:rgb(179,179,179);clip-path:url(#clip5);">
            <path d="M 309.51056516295154 -303.09016994374946 L 309.51056516295154 -453.09016994374946 L 459.51056516295154 -453.09016994374946 L 459.51056516295154 -303.09016994374946 Z" style="stroke:none;"/>
          </g>
          <g>
            <path d="M 384.51056516295154 -378.09016994374946 M 384.51056516295154 -378.09016994374946 L 420.17518452401981 -366.50203265468895 L 420.175 -366.502 A 37.5 37.5 0 0 0 406.553 -408.428 Z" style="fill:none;"/>
            <g style="fill:rgb(255,255,255);clip-path:url(#clip6);">
              <path d="M 438.95159743139862 -392.4037320921837 L 438.95159743139862 -406.4037320921837 L 461.95659743139862 -406.4037320921837 L 461.95659743139862 -392.4037320921837 Z" style="stroke:none;"/>
            </g>
            <text style="stroke:none;" x="443.95159743139862" y="-397.4037320921837">
              bar
            </text>
            <g transform="translate(438.952,-392.404) rotate(171.741)">
              <path d="M 0 0 L 11.773181660767289 0" style="fill:none;"/>
            </g>
            <g>
              <g transform="translate(438.952,-392.404) rotate(171.741)">
                <path d="M 10.973181660767288 0 L 14.973181660767288 2.0 L 18.973181660767288 0 L 14.973181660767288 -2.0 Z" style="stroke:none;"/>
              </g>
              <g style="fill:rgb(126,126,126);clip-path:url(#clip7);">
                <path d="M 302.0 -298.0 L 302.0 -448.0 L 452.0 -448.0 L 452.0 -298.0 Z" style="stroke:none;"/>
              </g>
              <g style="fill:rgb(255,255,255);clip-path:url(#clip8);">
                <path d="M 300.0 -300.0 L 300.0 -450.0 L 450.0 -450.0 L 450.0 -300.0 Z" style="stroke:none;"/>
                <path d="M 148.79999999999998 -299.60000000000002 L 299.60000000000002 -450.39999999999998" style="stroke-linecap:square;fill:none;"/>
                <path d="M 153.04199999999997 -299.60000000000002 L 303.84199999999998 -450.39999999999998" style="stroke-linecap:square;fill:none;"/>
                <path d="M 157.28399999999996 -299.60000000000002 L 308.08399999999995 -450.39999999999998" style="stroke-linecap:square;fill:none;"/>
                <path d="M 161.52599999999995 -299.60000000000002 L 312.32599999999996 -450.39999999999998" style="stroke-linecap:square;fill:none;"/>
                <path d="M 165.76799999999994 -299.60000000000002 L 316.56799999999998 -450.39999999999998" style="stroke-linecap:square;fill:none;"/>
                <path d="M 170.00999999999993 -299.60000000000002 L 320.80999999999995 -450.39999999999998" style="stroke-linecap:square;fill:none;"/>
                <path d="M 174.25199999999995 -299.60000000000002 L 325.05199999999996 -450.39999999999998" style="stroke-linecap:square;fill:none;"/>
                <path d="M 178.49399999999994 -299.60000000000002 L 329.29399999999998 -450.39999999999998" style="stroke-linecap:square;fill:none;"/>
                <path d="M 182.73599999999993 -299.60000000000002 L 333.53599999999994 -450.39999999999998" style="stroke-linecap:square;fill:none;"/>
                <path d="M 186.97799999999995 -299.60000000000002 L 337.77799999999996 -450.39999999999998" style="stroke-linecap:square;fill:none;"/>
                <path d="M 191.21999999999997 -299.60000000000002 L 342.01999999999998 -450.39999999999998" style="stroke-linecap:square;fill:none;"/>
                <path d="M 195.46199999999996 -299.60000000000002 L 346.26199999999994 -450.39999999999998" style="stroke-linecap:square;fill:none;"/>
                <path d="M 199.70399999999995 -299.60000000000002 L 350.50399999999996 -450.39999999999998" style="stroke-linecap:square;fill:none;"/>
                <path d="M 203.94599999999997 -299.60000000000002 L 354.74599999999998 -450.39999999999998" style="stroke-linecap:square;fill:none;"/>
                <path d="M 208.18799999999999 -299.60000000000002 L 358.988 -450.39999999999998" style="stroke-linecap:square;fill:none;"/>
                <path d="M 212.42999999999998 -299.60000000000002 L 363.23000000000002 -450.39999999999998" style="stroke-linecap:square;fill:none;"/>
                <path d="M 216.67199999999997 -299.60000000000002 L 367.47199999999998 -450.39999999999998" style="stroke-linecap:square;fill:none;"/>
                <path d="M 220.91399999999999 -299.60000000000002 L 371.714 -450.39999999999998" style="stroke-linecap:square;fill:none;"/>
                <path d="M 225.15600000000001 -299.60000000000002 L 375.95600000000002 -450.39999999999998" style="stroke-linecap:square;fill:none;"/>
                <path d="M 229.398 -299.60000000000002 L 380.19799999999998 -450.39999999999998" style="stroke-linecap:square;fill:none;"/>
                <path d="M 233.63999999999999 -299.60000000000002 L 384.44 -450.39999999999998" style="stroke-linecap:square;fill:none;"/>
                <path d="M 237.88200000000001 -299.60000000000002 L 388.68200000000002 -450.39999999999998" style="stroke-linecap:square;fill:none;"/>
                <path d="M 242.124 -299.60000000000002 L 392.92399999999998 -450.39999999999998" style="stroke-linecap:square;fill:none;"/>
                <path d="M 246.36599999999999 -299.60000000000002 L 397.166 -450.39999999999998" style="stroke-linecap:square;fill:none;"/>
                <path d="M 250.608 -299.60000000000002 L 401.40800000000002 -450.39999999999998" style="stroke-linecap:square;fill:none;"/>
                <path d="M 254.84999999999999 -299.60000000000002 L 405.64999999999998 -450.39999999999998" style="stroke-linecap:square;fill:none;"/>
                <path d="M 259.09199999999998 -299.60000000000002 L 409.892 -450.39999999999998" style="stroke-linecap:square;fill:none;"/>
                <path d="M 263.334 -299.60000000000002 L 414.13400000000001 -450.39999999999998" style="stroke-linecap:square;fill:none;"/>
                <path d="M 267.57599999999996 -299.60000000000002 L 418.37599999999998 -450.39999999999998" style="stroke-linecap:square;fill:none;"/>
                <path d="M 271.81799999999998 -299.60000000000002 L 422.61799999999999 -450.39999999999998" style="stroke-linecap:square;fill:none;"/>
                <path d="M 276.06 -299.60000000000002 L 426.86000000000001 -450.39999999999998" style="stroke-linecap:square;fill:none;"/>
                <path d="M 280.30199999999996 -299.60000000000002 L 431.10199999999998 -450.39999999999998" style="stroke-linecap:square;fill:none;"/>
                <path d="M 284.54399999999998 -299.60000000000002 L 435.34399999999999 -450.39999999999998" style="stroke-linecap:square;fill:none;"/>
                <path d="M 288.786 -299.60000000000002 L 439.58600000000001 -450.39999999999998" style="stroke-linecap:square;fill:none;"/>
                <path d="M 293.02799999999996 -299.60000000000002 L 443.82799999999997 -450.39999999999998" style="stroke-linecap:square;fill:none;"/>
                <path d="M 297.26999999999998 -299.60000000000002 L 448.06999999999999 -450.39999999999998" style="stroke-linecap:square;fill:none;"/>
                <path d="M 301.512 -299.60000000000002 L 452.31200000000001 -450.39999999999998" style="stroke-linecap:square;fill:none;"/>
                <path d="M 305.75399999999996 -299.60000000000002 L 456.55399999999997 -450.39999999999998" style="stroke-linecap:square;fill:none;"/>
                <path d="M 309.99599999999998 -299.60000000000002 L 460.79599999999999 -450.39999999999998" style="stroke-linecap:square;fill:none;"/>
                <path d="M 314.238 -299.60000000000002 L 465.03800000000001 -450.39999999999998" style="stroke-linecap:square;fill:none;"/>
                <path d="M 318.47999999999996 -299.60000000000002 L 469.27999999999997 -450.39999999999998" style="stroke-linecap:square;fill:none;"/>
                <path d="M 322.72199999999998 -299.60000000000002 L 473.52199999999999 -450.39999999999998" style="stroke-linecap:square;fill:none;"/>
                <path d="M 326.964 -299.60000000000002 L 477.76400000000001 -450.39999999999998" style="stroke-linecap:square;fill:none;"/>
                <path d="M 331.20600000000002 -299.60000000000002 L 482.00599999999997 -450.39999999999998" style="stroke-linecap:square;fill:none;"/>
                <path d="M 335.44799999999998 -299.60000000000002 L 486.24799999999999 -450.39999999999998" style="stroke-linecap:square;fill:none;"/>
                <path d="M 339.69 -299.60000000000002 L 490.49000000000001 -450.39999999999998" style="stroke-linecap:square;fill:none;"/>
                <path d="M 343.93199999999996 -299.60000000000002 L 494.73199999999997 -450.39999999999998" style="stroke-linecap:square;fill:none;"/>
                <path d="M 348.17399999999998 -299.60000000000002 L 498.97399999999999 -450.39999999999998" style="stroke-linecap:square;fill:none;"/>
                <path d="M 352.416 -299.60000000000002 L 503.21600000000001 -450.39999999999998" style="stroke-linecap:square;fill:none;"/>
                <path d="M 356.65799999999996 -299.60000000000002 L 507.45799999999997 -450.39999999999998" style="stroke-linecap:square;fill:none;"/>
                <path d="M 360.89999999999998 -299.60000000000002 L 511.69999999999999 -450.39999999999998" style="stroke-linecap:square;fill:none;"/>
                <path d="M 365.14199999999994 -299.60000000000002 L 515.94200000000001 -450.39999999999998" style="stroke-linecap:square;fill:none;"/>
                <path d="M 369.38399999999996 -299.60000000000002 L 520.18399999999997 -450.39999999999998" style="stroke-linecap:square;fill:none;"/>
                <path d="M 373.62599999999998 -299.60000000000002 L 524.42599999999993 -450.39999999999998" style="stroke-linecap:square;fill:none;"/>
                <path d="M 377.86799999999999 -299.60000000000002 L 528.66800000000001 -450.39999999999998" style="stroke-linecap:square;fill:none;"/>
                <path d="M 382.11000000000001 -299.60000000000002 L 532.90999999999997 -450.39999999999998" style="stroke-linecap:square;fill:none;"/>
                <path d="M 386.35199999999998 -299.60000000000002 L 537.15200000000004 -450.39999999999998" style="stroke-linecap:square;fill:none;"/>
                <path d="M 390.59399999999999 -299.60000000000002 L 541.39400000000001 -450.39999999999998" style="stroke-linecap:square;fill:none;"/>
                <path d="M 394.83600000000001 -299.60000000000002 L 545.63599999999997 -450.39999999999998" style="stroke-linecap:square;fill:none;"/>
                <path d="M 399.07799999999997 -299.60000000000002 L 549.87800000000004 -450.39999999999998" style="stroke-linecap:square;fill:none;"/>
                <path d="M 403.31999999999999 -299.60000000000002 L 554.12 -450.39999999999998" style="stroke-linecap:square;fill:none;"/>
                <path d="M 407.56200000000001 -299.60000000000002 L 558.36200000000008 -450.39999999999998" style="stroke-linecap:square;fill:none;"/>
                <path d="M 411.80400000000003 -299.60000000000002 L 562.60400000000004 -450.39999999999998" style="stroke-linecap:square;fill:none;"/>
                <path d="M 416.04600000000005 -299.60000000000002 L 566.846 -450.39999999999998" style="stroke-linecap:square;fill:none;"/>
                <path d="M 420.28800000000001 -299.60000000000002 L 571.08799999999997 -450.39999999999998" style="stroke-linecap:square;fill:none;"/>
                <path d="M 424.53000000000003 -299.60000000000002 L 575.33000000000004 -450.39999999999998" style="stroke-linecap:square;fill:none;"/>
                <path d="M 428.77200000000005 -299.60000000000002 L 579.572 -450.39999999999998" style="stroke-linecap:square;fill:none;"/>
                <path d="M 433.01400000000001 -299.60000000000002 L 583.81400000000008 -450.39999999999998" style="stroke-linecap:square;fill:none;"/>
                <path d="M 437.25599999999997 -299.60000000000002 L 588.05600000000004 -450.39999999999998" style="stroke-linecap:square;fill:none;"/>
                <path d="M 441.49799999999999 -299.60000000000002 L 592.298 -450.39999999999998" style="stroke-linecap:square;fill:none;"/>
                <path d="M 445.74000000000001 -299.60000000000002 L 596.53999999999996 -450.39999999999998" style="stroke-linecap:square;fill:none;"/>
                <path d="M 449.98199999999997 -299.60000000000002 L 600.78199999999993 -450.39999999999998" style="stroke-linecap:square;fill:none;"/>
              </g>
              <g>
                <path d="M 375.0 -375.0 M 375.0 -375.0 L 352.95805303903228 -344.66186271093949 L 352.958 -344.662 A 37.5 37.5 0 0 0 410.665 -363.412 Z" style="fill:none;"/>
                <g style="fill:rgb(255,255,255);clip-path:url(#clip9);">
                  <path d="M 389.31356214843419 -310.55896773155291 L 389.31356214843419 -324.55896773155291 L 413.82156214843417 -324.55896773155291 L 413.82156214843417 -310.55896773155291 Z" style="stroke:none;"/>
                </g>
                <text style="stroke:none;" x="394.31356214843419" y="-315.55896773155291">
                  baz
                </text>
                <g transform="translate(389.314,-324.559) rotate(-100.45)">
                  <path d="M 0 0 L 7.8256553625272263 0" style="fill:none;"/>
                </g>
                <g>
                  <g transform="translate(389.314,-324.559) rotate(-100.45)">
                    <path d="M 7.0256553625272264 0 L 11.025655362527226 2.0 L 15.025655362527226 0 L 11.025655362527226 -2.0 Z" style="stroke:none;"/>
                  </g>
                  <g style="fill:rgb(126,126,126);clip-path:url(#clip10);">
                    <path d="M 292.48943483704846 -301.09016994374946 L 292.48943483704846 -451.09016994374946 L 442.48943483704846 -451.09016994374946 L 442.48943483704846 -301.09016994374946 Z" style="stroke:none;"/>
                  </g>
                  <g style="fill:rgb(126,126,126);clip-path:url(#clip11);">
                    <path d="M 290.48943483704846 -303.09016994374946 L 290.48943483704846 -453.09016994374946 L 440.48943483704846 -453.09016994374946 L 440.48943483704846 -303.09016994374946 Z" style="stroke:none;"/>
                  </g>
                  <g>
                    <path d="M 365.48943483704846 -378.09016994374946 M 365.48943483704846 -378.09016994374946 L 365.48943483704846 -415.59016994374946 L 365.489 -415.59 A 37.5 37.5 0 0 0 343.447 -347.752 Z" style="fill:none;"/>
                    <g style="fill:rgb(255,255,255);clip-path:url(#clip12);">
                      <path d="M 291.04040256860139 -392.4037320921837 L 291.04040256860139 -406.4037320921837 L 311.04840256860138 -406.4037320921837 L 311.04840256860138 -392.4037320921837 Z" style="stroke:none;"/>
                    </g>
                    <text style="stroke:none;" x="296.04040256860139" y="-397.4037320921837">
                      ao
                    </text>
                    <g transform="translate(311.048,-392.404) rotate(8.25889)">
                      <path d="M 0 0 L 11.773181660767232 0" style="fill:none;"/>
                    </g>
                    <g>
                      <g transform="translate(311.048,-392.404) rotate(8.25889)">
                        <path d="M 10.973181660767231 0 L 14.973181660767231 2.0 L 18.973181660767231 0 L 14.973181660767231 -2.0 Z" style="stroke:none;"/>
                      </g>
                    </g>
                  </g>
                </g>
              </g>
            </g>
          </g>
        </g>
      </g>
    </g>
    <g style="fill:rgb(255,255,255);clip-path:url(#clip13);">
      <path d="M 460.0 -297 L 460.0 -336 L 496.00999999999999 -336 L 496.00999999999999 -297 Z" style="stroke:none;"/>
    </g>
    <g>
      <path d="M 460.0 -297 L 460.0 -336 L 496.00999999999999 -336 L 496.00999999999999 -297 Z"/>
      <g style="fill:rgb(0,0,0);clip-path:url(#clip14);">
        <path d="M 465.0 -326.85000000000002 L 465.0 -333.14999999999998 L 471.30000000000001 -333.14999999999998 L 471.30000000000001 -326.85000000000002 Z" style="stroke:none;"/>
      </g>
      <g>
        <path d="M 465.0 -326.85000000000002 L 465.0 -333.14999999999998 L 471.30000000000001 -333.14999999999998 L 471.30000000000001 -326.85000000000002 Z"/>
        <text style="stroke:none;fill:rgb(0,0,0);" x="474.0" y="-327.0">
          foo
        </text>
        <g style="fill:rgb(179,179,179);clip-path:url(#clip15);">
          <path d="M 465.0 -317.85000000000002 L 465.0 -324.14999999999998 L 471.30000000000001 -324.14999999999998 L 471.30000000000001 -317.85000000000002 Z" style="stroke:none;"/>
        </g>
        <g>
          <path d="M 465.0 -317.85000000000002 L 465.0 -324.14999999999998 L 471.30000000000001 -324.14999999999998 L 471.30000000000001 -317.85000000000002 Z"/>
          <text style="stroke:none;fill:rgb(0,0,0);" x="474.0" y="-318.0">
            bar
          </text>
          <g style="fill:rgb(255,255,255);clip-path:url(#clip16);">
            <path d="M 465.0 -308.85000000000002 L 465.0 -315.14999999999998 L 471.30000000000001 -315.14999999999998 L 471.30000000000001 -308.85000000000002 Z" style="stroke:none;"/>
            <path d="M 457.5 -308.44999999999999 L 464.60000000000002 -315.55000000000001" style="stroke-linecap:square;fill:none;"/>
            <path d="M 461.74199999999996 -308.44999999999999 L 468.84199999999998 -315.55000000000001" style="stroke-linecap:square;fill:none;"/>
            <path d="M 465.98399999999992 -308.44999999999999 L 473.08399999999995 -315.55000000000001" style="stroke-linecap:square;fill:none;"/>
            <path d="M 470.22599999999994 -308.44999999999999 L 477.32599999999996 -315.55000000000001" style="stroke-linecap:square;fill:none;"/>
          </g>
          <g>
            <path d="M 465.0 -308.85000000000002 L 465.0 -315.14999999999998 L 471.30000000000001 -315.14999999999998 L 471.30000000000001 -308.85000000000002 Z"/>
            <text style="stroke:none;fill:rgb(0,0,0);" x="474.0" y="-309.0">
              baz
            </text>
            <g style="fill:rgb(126,126,126);clip-path:url(#clip17);">
              <path d="M 465.0 -299.85000000000002 L 465.0 -306.14999999999998 L 471.30000000000001 -306.14999999999998 L 471.30000000000001 -299.85000000000002 Z" style="stroke:none;"/>
            </g>
            <g>
              <path d="M 465.0 -299.85000000000002 L 465.0 -306.14999999999998 L 471.30000000000001 -306.14999999999998 L 471.30000000000001 -299.85000000000002 Z"/>
              <text style="stroke:none;fill:rgb(0,0,0);" x="474.0" y="-300.0">
                ao
              </text>
            </g>
          </g>
        </g>
      </g>
    </g>
  </g>
</svg>
