<?xml version="1.0" ?>
<!--Created by PyChart 1.39 Copyright 1999-2006 Yasushi Saito-->
<svg viewBox="267.492 -418.038 198.518 150.538" xmlns="http://www.w3.org/2000/svg" xmlns:xlink="http://www.w3.org/1999/xlink">
  <defs>
    <clipPath id="clip0">
      <path d="M 297 -297 L 297 -413 L 423 -413 L 423 -297 Z"/>
    </clipPath>
    <clipPath id="clip1">
      <path d="M 300.0 -350.76923076923077 L 326.66666666666669 -367.69230769230768 L 353.33333333333331 -359.23076923076923 L 380.0 -350.76923076923077 L 406.66666666666669 -333.84615384615387 L 406.66666666666669 -313.53846153846155 L 380.0 -313.53846153846155 L 353.33333333333331 -316.92307692307691 L 326.66666666666669 -333.84615384615387 L 300.0 -316.92307692307691 Z"/>
    </clipPath>
    <clipPath id="clip2">
      <path d="M 300.0 -367.69230769230768 L 326.66666666666669 -384.61538461538464 L 353.33333333333331 -364.30769230769232 L 380.0 -359.23076923076923 L 406.66666666666669 -347.38461538461536 L 406.66666666666669 -333.84615384615387 L 380.0 -350.76923076923077 L 353.33333333333331 -359.23076923076923 L 326.66666666666669 -367.69230769230768 L 300.0 -350.76923076923077 Z"/>
    </clipPath>
    <clipPath id="clip3">
      <path d="M 300.0 -401.53846153846155 L 326.66666666666669 -393.07692307692309 L 353.33333333333331 -372.76923076923077 L 380.0 -366.0 L 406.66666666666669 -366.0 L 406.66666666666669 -347.38461538461536 L 380.0 -359.23076923076923 L 353.33333333333331 -364.30769230769232 L 326.66666666666669 -384.61538461538464 L 300.0 -367.69230769230768 Z"/>
    </clipPath>
    <clipPath id="clip4">
      <path d="M 427.0 -297 L 427.0 -327 L 463.00999999999999 -327 L 463.00999999999999 -297 Z"/>
    </clipPath>
    <clipPath id="clip5">
      <path d="M 432.0 -317.85000000000002 L 432.0 -324.14999999999998 L 438.30000000000001 -324.14999999999998 L 438.30000000000001 -317.85000000000002 Z"/>
    </clipPath>
    <clipPath id="clip6">
      <path d="M 432.0 -308.85000000000002 L 432.0 -315.14999999999998 L 438.30000000000001 -315.14999999999998 L 438.30000000000001 -308.85000000000002 Z"/>
    </clipPath>
    <clipPath id="clip7">
      <path d="M 432.0 -299.85000000000002 L 432.0 -306.14999999999998 L 438.30000000000001 -306.14999999999998 L 438.30000000000001 -299.85000000000002 Z"/>
    </clipPath>
  </defs>
  <g style="stroke-linejoin:miter;font-size:9;font-family:Helvetica;fill:none;stroke-linecap:butt;stroke:rgb(0,0,0);font-stretch:normal;stroke-dasharray:none;font-weight:normal;font-style:normal;stroke-width:0.4;">
    <path d="M 300 -300 L 420 -300"/>
    <path d="M 300 -300 L 420 -300"/>
    <path d="M 300.0 -300 L 300.0 -294"/>
    <text style="stroke:none;fill:rgb(0,0,0);" x="297.49799999999999" y="-285.0">
      0
    </text>
    <path d="M 326.66666666666669 -300 L 326.66666666666669 -294"/>
    <text style="stroke:none;fill:rgb(0,0,0);" x="317.90966666666668" y="-285.0">
      10.0
    </text>
    <path d="M 353.33333333333331 -300 L 353.33333333333331 -294"/>
    <text style="stroke:none;fill:rgb(0,0,0);" x="344.57633333333331" y="-285.0">
      20.0
    </text>
    <path d="M 380.0 -300 L 380.0 -294"/>
    <text style="stroke:none;fill:rgb(0,0,0);" x="371.24299999999999" y="-285.0">
      30.0
    </text>
    <path d="M 406.66666666666669 -300 L 406.66666666666669 -294"/>
    <text style="stroke:none;fill:rgb(0,0,0);" x="397.90966666666668" y="-285.0">
      40.0
    </text>
    <text style="stroke:none;fill:rgb(0,0,0);" x="347.74649999999997" y="-270.5">
      X axis
    </text>
    <g style="clip-path:url(#clip0);">
      <g style="fill:rgb(228,228,228);clip-path:url(#clip1);">
        <path d="M 300.0 -313.53846153846155 L 300.0 -367.69230769230768 L 406.66666666666669 -367.69230769230768 L 406.66666666666669 -313.53846153846155 Z" style="stroke:none;"/>
      </g>
      <path d="M 300.0 -316.92307692307691 L 326.66666666666669 -333.84615384615387 L 353.33333333333331 -316.92307692307691 L 380.0 -313.53846153846155 L 406.66666666666669 -313.53846153846155"/>
      <path d="M 300.0 -350.76923076923077 L 326.66666666666669 -367.69230769230768 L 353.33333333333331 -359.23076923076923 L 380.0 -350.76923076923077 L 406.66666666666669 -333.84615384615387"/>
      <g style="fill:rgb(255,255,255);clip-path:url(#clip2);">
        <path d="M 300.0 -333.84615384615387 L 300.0 -384.61538461538464 L 406.66666666666669 -384.61538461538464 L 406.66666666666669 -333.84615384615387 Z" style="stroke:none;"/>
      </g>
      <path d="M 300.0 -350.76923076923077 L 326.66666666666669 -367.69230769230768 L 353.33333333333331 -359.23076923076923 L 380.0 -350.76923076923077 L 406.66666666666669 -333.84615384615387"/>
      <path d="M 300.0 -367.69230769230768 L 326.66666666666669 -384.61538461538464 L 353.33333333333331 -364.30769230769232 L 380.0 -359.23076923076923 L 406.66666666666669 -347.38461538461536"/>
      <g style="fill:rgb(126,126,126);clip-path:url(#clip3);">
        <path d="M 300.0 -347.38461538461536 L 300.0 -401.53846153846155 L 406.66666666666669 -401.53846153846155 L 406.66666666666669 -347.38461538461536 Z" style="stroke:none;"/>
      </g>
      <path d="M 300.0 -367.69230769230768 L 326.66666666666669 -384.61538461538464 L 353.33333333333331 -364.30769230769232 L 380.0 -359.23076923076923 L 406.66666666666669 -347.38461538461536"/>
      <path d="M 300.0 -401.53846153846155 L 326.66666666666669 -393.07692307692309 L 353.33333333333331 -372.76923076923077 L 380.0 -366.0 L 406.66666666666669 -366.0"/>
    </g>
    <path d="M 300 -316.92307692307691 L 420 -316.92307692307691" style="stroke:rgb(255,255,255);"/>
    <path d="M 300 -333.84615384615387 L 420 -333.84615384615387" style="stroke:rgb(255,255,255);"/>
    <path d="M 300 -350.76923076923077 L 420 -350.76923076923077" style="stroke:rgb(255,255,255);"/>
    <path d="M 300 -367.69230769230768 L 420 -367.69230769230768" style="stroke:rgb(255,255,255);"/>
    <path d="M 300 -384.61538461538464 L 420 -384.61538461538464" style="stroke:rgb(255,255,255);"/>
    <path d="M 300 -401.53846153846155 L 420 -401.53846153846155" style="stroke:rgb(255,255,255);"/>
    <path d="M 300 -300 L 300 -410"/>
    <path d="M 300 -300.0 L 294 -300.0"/>
    <text style="stroke:none;fill:rgb(0,0,0);" x="288.99599999999998" y="-295.5">
      0
    </text>
    <path d="M 300 -316.92307692307691 L 294 -316.92307692307691"/>
    <text style="stroke:none;fill:rgb(0,0,0);" x="283.99200000000002" y="-312.42307692307691">
      10
    </text>
    <path d="M 300 -333.84615384615387 L 294 -333.84615384615387"/>
    <text style="stroke:none;fill:rgb(0,0,0);" x="283.99200000000002" y="-329.34615384615387">
      20
    </text>
    <path d="M 300 -350.76923076923077 L 294 -350.76923076923077"/>
    <text style="stroke:none;fill:rgb(0,0,0);" x="283.99200000000002" y="-346.26923076923077">
      30
    </text>
    <path d="M 300 -367.69230769230768 L 294 -367.69230769230768"/>
    <text style="stroke:none;fill:rgb(0,0,0);" x="283.99200000000002" y="-363.19230769230768">
      40
    </text>
    <path d="M 300 -384.61538461538464 L 294 -384.61538461538464"/>
    <text style="stroke:none;fill:rgb(0,0,0);" x="283.99200000000002" y="-380.11538461538464">
      50
    </text>
    <path d="M 300 -401.53846153846155 L 294 -401.53846153846155"/>
    <text style="stroke:none;fill:rgb(0,0,0);" x="283.99200000000002" y="-397.03846153846155">
      60
    </text>
    <text style="stroke:none;fill:rgb(0,0,0);" transform="rotate(-90,279.492,-342.746)" x="279.49200000000002" y="-342.74649999999997">
      Y axis
    </text>
    <g style="fill:rgb(255,255,255);clip-path:url(#clip4);">
      <path d="M 427.0 -297 L 427.0 -327 L 463.00999999999999 -327 L 463.00999999999999 -297 Z" style="stroke:none;"/>
    </g>
    <g>
      <path d="M 427.0 -297 L 427.0 -327 L 463.00999999999999 -327 L 463.00999999999999 -297 Z"/>
      <g style="fill:rgb(228,228,228);clip-path:url(#clip5);">
        <path d="M 432.0 -317.85000000000002 L 432.0 -324.14999999999998 L 438.30000000000001 -324.14999999999998 L 438.30000000000001 -317.85000000000002 Z" style="stroke:none;"/>
      </g>
      <g>
        <path d="M 432.0 -317.85000000000002 L 432.0 -324.14999999999998 L 438.30000000000001 -324.14999999999998 L 438.30000000000001 -317.85000000000002 Z"/>
        <text style="stroke:none;fill:rgb(0,0,0);" x="441.0" y="-318.0">
          foo
        </text>
        <g style="fill:rgb(255,255,255);clip-path:url(#clip6);">
          <path d="M 432.0 -308.85000000000002 L 432.0 -315.14999999999998 L 438.30000000000001 -315.14999999999998 L 438.30000000000001 -308.85000000000002 Z" style="stroke:none;"/>
        </g>
        <g>
          <path d="M 432.0 -308.85000000000002 L 432.0 -315.14999999999998 L 438.30000000000001 -315.14999999999998 L 438.30000000000001 -308.85000000000002 Z"/>
          <text style="stroke:none;fill:rgb(0,0,0);" x="441.0" y="-309.0">
            bar
          </text>
          <g style="fill:rgb(126,126,126);clip-path:url(#clip7);">
            <path d="M 432.0 -299.85000000000002 L 432.0 -306.14999999999998 L 438.30000000000001 -306.14999999999998 L 438.30000000000001 -299.85000000000002 Z" style="stroke:none;"/>
          </g>
          <g>
            <path d="M 432.0 -299.85000000000002 L 432.0 -306.14999999999998 L 438.30000000000001 -306.14999999999998 L 438.30000000000001 -299.85000000000002 Z"/>
            <text style="stroke:none;fill:rgb(0,0,0);" x="441.0" y="-300.0">
              baz
            </text>
          </g>
        </g>
      </g>
    </g>
  </g>
</svg>
