<?xml version="1.0" ?>
<!--Created by PyChart 1.38 Copyright 1999-2005 Yasushi Saito-->
<svg viewBox="294 -416 142.293 127" xmlns="http://www.w3.org/2000/svg" xmlns:xlink="http://www.w3.org/1999/xlink">
  <defs>
    <clipPath id="clip0">
      <path d="M 297 -297 L 297 -413 L 423 -413 L 423 -297 Z"/>
    </clipPath>
    <clipPath id="clip1">
      <path d="M 360.0 -355.0 M 360.0 -355.0 L 370.51104673685654 -365.51104673685654 L 370.511 -365.511 A 14.8649 14.8649 0 0 0 363.847 -369.358 Z"/>
    </clipPath>
    <clipPath id="clip2">
      <path d="M 360.0 -355.0 M 360.0 -355.0 L 399.48548124019203 -365.58010281106368 L 399.485 -365.58 A 40.8784 40.8784 0 0 0 388.905 -383.905 Z"/>
    </clipPath>
    <clipPath id="clip3">
      <path d="M 360.0 -355.0 M 360.0 -355.0 L 360.0 -355.0 L 360 -355 Z"/>
    </clipPath>
    <clipPath id="clip4">
      <path d="M 360.0 -355.0 M 360.0 -355.0 L 373.40158442420591 -341.59841557579409 L 373.402 -341.598 A 18.9527 18.9527 0 0 0 378.307 -350.095 Z"/>
    </clipPath>
    <clipPath id="clip5">
      <path d="M 360.0 -355.0 M 360.0 -355.0 L 366.73279268500869 -329.87287562271956 L 366.733 -329.873 A 26.0135 26.0135 0 0 0 378.394 -336.606 Z"/>
    </clipPath>
    <clipPath id="clip6">
      <path d="M 360.0 -355.0 M 360.0 -355.0 L 359.03817243289865 -351.41041065145731 L 359.038 -351.41 A 3.71622 3.71622 0 0 0 360.962 -351.41 Z"/>
    </clipPath>
    <clipPath id="clip7">
      <path d="M 360.0 -355.0 M 360.0 -355.0 L 324.78799321763074 -319.78799321763074 L 324.788 -319.788 A 49.7973 49.7973 0 0 0 347.112 -306.9 Z"/>
    </clipPath>
    <clipPath id="clip8">
      <path d="M 360.0 -355.0 M 360.0 -355.0 L 306.87407955410123 -340.76495251936137 L 306.874 -340.765 A 55 55 0 0 0 321.109 -316.109 Z"/>
    </clipPath>
    <clipPath id="clip9">
      <path d="M 360.0 -355.0 M 360.0 -355.0 L 338.46246444000303 -360.77096526025775 L 338.462 -360.771 A 22.2973 22.2973 0 0 0 338.462 -349.229 Z"/>
    </clipPath>
    <clipPath id="clip10">
      <path d="M 360.0 -355.0 M 360.0 -355.0 L 346.86119148170212 -368.13880851829788 L 346.861 -368.139 A 18.5811 18.5811 0 0 0 342.052 -359.809 Z"/>
    </clipPath>
    <clipPath id="clip11">
      <path d="M 360.0 -355.0 M 360.0 -355.0 L 355.1908623068436 -372.94794621145428 L 355.191 -372.948 A 18.5811 18.5811 0 0 0 346.861 -368.139 Z"/>
    </clipPath>
    <clipPath id="clip12">
      <path d="M 360.0 -355.0 M 360.0 -355.0 L 362.30838604716291 -363.61501401149508 L 362.308 -363.615 A 8.91892 8.91892 0 0 0 357.692 -363.615 Z"/>
    </clipPath>
    <clipPath id="clip13">
      <path d="M 360.0 -355.0 M 360.0 -355.0 L 391.24975324417471 -395.72547132283529 L 391.25 -395.725 A 51.3333 51.3333 0 0 0 379.644 -402.426 Z"/>
    </clipPath>
    <clipPath id="clip14">
      <path d="M 360.0 -355.0 M 360.0 -355.0 L 383.71290817050095 -364.82220816752925 L 383.713 -364.822 A 25.6667 25.6667 0 0 0 380.363 -370.625 Z"/>
    </clipPath>
    <clipPath id="clip15">
      <path d="M 360.0 -355.0 M 360.0 -355.0 L 374.5411914819141 -353.08561582350944 L 374.541 -353.086 A 14.6667 14.6667 0 0 0 374.541 -356.914 Z"/>
    </clipPath>
    <clipPath id="clip16">
      <path d="M 360.0 -355.0 M 360.0 -355.0 L 386.4715565998323 -334.6876602071361 L 386.472 -334.688 A 33.3667 33.3667 0 0 0 390.827 -342.231 Z"/>
    </clipPath>
    <clipPath id="clip17">
      <path d="M 360.0 -355.0 M 360.0 -355.0 L 372.62855326804799 -324.51197542712754 L 372.629 -324.512 A 33 33 0 0 0 380.089 -328.819 Z"/>
    </clipPath>
    <clipPath id="clip18">
      <path d="M 360.0 -355.0 M 360.0 -355.0 L 354.73544360438774 -315.01172410635456 L 354.735 -315.012 A 40.3333 40.3333 0 0 0 365.265 -315.012 Z"/>
    </clipPath>
    <clipPath id="clip19">
      <path d="M 360.0 -355.0 M 360.0 -355.0 L 352.41077407341834 -345.10952821225447 L 352.411 -345.11 A 12.4667 12.4667 0 0 0 355.229 -343.482 Z"/>
    </clipPath>
    <clipPath id="clip20">
      <path d="M 360.0 -355.0 M 360.0 -355.0 L 323.41437051255303 -339.84573607834244 L 323.414 -339.846 A 39.6 39.6 0 0 0 328.583 -330.893 Z"/>
    </clipPath>
    <clipPath id="clip21">
      <path d="M 360.0 -355.0 M 360.0 -355.0 L 352.72940453169031 -355.95719205235059 L 352.729 -355.957 A 7.33333 7.33333 0 0 0 352.729 -354.043 Z"/>
    </clipPath>
    <clipPath id="clip22">
      <path d="M 360.0 -355.0 M 360.0 -355.0 L 339.63726412041018 -370.62487678949674 L 339.637 -370.625 A 25.6667 25.6667 0 0 0 336.287 -364.822 Z"/>
    </clipPath>
    <clipPath id="clip23">
      <path d="M 360.0 -355.0 M 360.0 -355.0 L 338.95241121992007 -405.81337428812077 L 338.952 -405.813 A 55 55 0 0 0 326.518 -398.634 Z"/>
    </clipPath>
    <clipPath id="clip24">
      <path d="M 360.0 -355.0 M 360.0 -355.0 L 362.10582254388703 -370.99531024839922 L 362.106 -370.995 A 16.1333 16.1333 0 0 0 357.894 -370.995 Z"/>
    </clipPath>
    <clipPath id="clip25">
      <path d="M 397 -292 L 397 -309 L 433.29300000000001 -309 L 433.29300000000001 -292 Z"/>
    </clipPath>
    <clipPath id="clip26">
      <path d="M 400 -301.18333333333334 L 400 -307.48333333333335 L 406.30000000000001 -307.48333333333335 L 406.30000000000001 -301.18333333333334 Z"/>
    </clipPath>
    <clipPath id="clip27">
      <path d="M 400 -294.18333333333334 L 400 -300.48333333333335 L 406.30000000000001 -300.48333333333335 L 406.30000000000001 -294.18333333333334 Z"/>
    </clipPath>
  </defs>
  <g style="stroke-linejoin:miter;font-size:9;font-family:Helvetica;fill:none;stroke-linecap:butt;stroke:rgb(0,0,0);font-stretch:normal;stroke-dasharray:none;font-weight:normal;font-style:normal;stroke-width:0.4;">
    <path d="M 300 -373.33333333333331 L 420 -373.33333333333331" style="stroke:rgb(179,179,179);stroke-dasharray:1,1;"/>
    <g style="stroke-width:0.3;stroke-dasharray:1.5,1.5;clip-path:url(#clip0);">
      <path d="M 360.0 -355.0 M 415.0 -355.0 L 415 -355 M 415 -355 A 55 55 0 1 0 305 -355 A 55 55 0 1 0 415 -355 Z"/>
      <text style="stroke:none;fill:rgb(0,0,0);" x="357.0" y="-412.19999999999999">
        N
      </text>
      <text style="stroke:none;fill:rgb(0,0,0);" x="417.19999999999999" y="-352.0">
        E
      </text>
      <text style="stroke:none;fill:rgb(0,0,0);" x="357.0" y="-290.60000000000002">
        S
      </text>
      <text style="stroke:none;fill:rgb(0,0,0);" x="294.30399999999997" y="-352.0">
        W
      </text>
      <g style="fill:rgb(255,0,0);clip-path:url(#clip1);">
        <path d="M 330.27027029999999 -325.27027029999999 L 330.27027029999999 -384.72972970000001 L 389.72972970000001 -384.72972970000001 L 389.72972970000001 -325.27027029999999 Z" style="stroke:none;"/>
      </g>
      <g style="stroke-dasharray:none;">
        <path d="M 360.0 -355.0 M 360.0 -355.0 L 370.51104673685654 -365.51104673685654 L 370.511 -365.511 A 14.8649 14.8649 0 0 0 363.847 -369.358 Z"/>
        <g style="fill:rgb(255,0,0);clip-path:url(#clip2);">
          <path d="M 278.24324360000003 -273.24324360000003 L 278.24324360000003 -436.75675639999997 L 441.75675639999997 -436.75675639999997 L 441.75675639999997 -273.24324360000003 Z" style="stroke:none;"/>
        </g>
        <g>
          <path d="M 360.0 -355.0 M 360.0 -355.0 L 399.48548124019203 -365.58010281106368 L 399.485 -365.58 A 40.8784 40.8784 0 0 0 388.905 -383.905 Z"/>
          <g style="fill:rgb(255,0,0);clip-path:url(#clip3);">
            <path d="M 360.0 -355.0 L 360.0 -355.0 L 360.0 -355.0 L 360.0 -355.0 Z" style="stroke:none;"/>
          </g>
          <g>
            <path d="M 360.0 -355.0 M 360.0 -355.0 L 360.0 -355.0 L 360 -355 Z"/>
            <g style="fill:rgb(255,0,0);clip-path:url(#clip4);">
              <path d="M 322.09459509999999 -317.09459509999999 L 322.09459509999999 -392.90540490000001 L 397.90540490000001 -392.90540490000001 L 397.90540490000001 -317.09459509999999 Z" style="stroke:none;"/>
            </g>
            <g>
              <path d="M 360.0 -355.0 M 360.0 -355.0 L 373.40158442420591 -341.59841557579409 L 373.402 -341.598 A 18.9527 18.9527 0 0 0 378.307 -350.095 Z"/>
              <g style="fill:rgb(255,0,0);clip-path:url(#clip5);">
                <path d="M 307.97297329999998 -302.97297329999998 L 307.97297329999998 -407.02702669999996 L 412.02702669999996 -407.02702669999996 L 412.02702669999996 -302.97297329999998 Z" style="stroke:none;"/>
              </g>
              <g>
                <path d="M 360.0 -355.0 M 360.0 -355.0 L 366.73279268500869 -329.87287562271956 L 366.733 -329.873 A 26.0135 26.0135 0 0 0 378.394 -336.606 Z"/>
                <g style="fill:rgb(255,0,0);clip-path:url(#clip6);">
                  <path d="M 352.56756730000001 -347.56756730000001 L 352.56756730000001 -362.43243269999999 L 367.43243269999999 -362.43243269999999 L 367.43243269999999 -347.56756730000001 Z" style="stroke:none;"/>
                </g>
                <g>
                  <path d="M 360.0 -355.0 M 360.0 -355.0 L 359.03817243289865 -351.41041065145731 L 359.038 -351.41 A 3.71622 3.71622 0 0 0 360.962 -351.41 Z"/>
                  <g style="fill:rgb(255,0,0);clip-path:url(#clip7);">
                    <path d="M 260.40540490000001 -255.40540490000001 L 260.40540490000001 -454.59459509999999 L 459.59459509999999 -454.59459509999999 L 459.59459509999999 -255.40540490000001 Z" style="stroke:none;"/>
                  </g>
                  <g>
                    <path d="M 360.0 -355.0 M 360.0 -355.0 L 324.78799321763074 -319.78799321763074 L 324.788 -319.788 A 49.7973 49.7973 0 0 0 347.112 -306.9 Z"/>
                    <g style="fill:rgb(255,0,0);clip-path:url(#clip8);">
                      <path d="M 250.0 -245.0 L 250.0 -465.0 L 470.0 -465.0 L 470.0 -245.0 Z" style="stroke:none;"/>
                    </g>
                    <g>
                      <path d="M 360.0 -355.0 M 360.0 -355.0 L 306.87407955410123 -340.76495251936137 L 306.874 -340.765 A 55 55 0 0 0 321.109 -316.109 Z"/>
                      <g style="fill:rgb(255,0,0);clip-path:url(#clip9);">
                        <path d="M 315.40540490000001 -310.40540490000001 L 315.40540490000001 -399.59459509999999 L 404.59459509999999 -399.59459509999999 L 404.59459509999999 -310.40540490000001 Z" style="stroke:none;"/>
                      </g>
                      <g>
                        <path d="M 360.0 -355.0 M 360.0 -355.0 L 338.46246444000303 -360.77096526025775 L 338.462 -360.771 A 22.2973 22.2973 0 0 0 338.462 -349.229 Z"/>
                        <g style="fill:rgb(255,0,0);clip-path:url(#clip10);">
                          <path d="M 322.8378376 -317.8378376 L 322.8378376 -392.1621624 L 397.1621624 -392.1621624 L 397.1621624 -317.8378376 Z" style="stroke:none;"/>
                        </g>
                        <g>
                          <path d="M 360.0 -355.0 M 360.0 -355.0 L 346.86119148170212 -368.13880851829788 L 346.861 -368.139 A 18.5811 18.5811 0 0 0 342.052 -359.809 Z"/>
                          <g style="fill:rgb(255,0,0);clip-path:url(#clip11);">
                            <path d="M 322.8378376 -317.8378376 L 322.8378376 -392.1621624 L 397.1621624 -392.1621624 L 397.1621624 -317.8378376 Z" style="stroke:none;"/>
                          </g>
                          <g>
                            <path d="M 360.0 -355.0 M 360.0 -355.0 L 355.1908623068436 -372.94794621145428 L 355.191 -372.948 A 18.5811 18.5811 0 0 0 346.861 -368.139 Z"/>
                            <g style="fill:rgb(255,0,0);clip-path:url(#clip12);">
                              <path d="M 342.1621624 -337.1621624 L 342.1621624 -372.8378376 L 377.8378376 -372.8378376 L 377.8378376 -337.1621624 Z" style="stroke:none;"/>
                            </g>
                            <g>
                              <path d="M 360.0 -355.0 M 360.0 -355.0 L 362.30838604716291 -363.61501401149508 L 362.308 -363.615 A 8.91892 8.91892 0 0 0 357.692 -363.615 Z"/>
                              <g style="fill:rgb(0,255,0);clip-path:url(#clip13);">
                                <path d="M 257.33333370000003 -252.3333337 L 257.33333370000003 -457.66666629999997 L 462.66666629999997 -457.66666629999997 L 462.66666629999997 -252.3333337 Z" style="stroke:none;"/>
                              </g>
                              <g>
                                <path d="M 360.0 -355.0 M 360.0 -355.0 L 391.24975324417471 -395.72547132283529 L 391.25 -395.725 A 51.3333 51.3333 0 0 0 379.644 -402.426 Z"/>
                                <g style="fill:rgb(0,255,0);clip-path:url(#clip14);">
                                  <path d="M 308.66666629999997 -303.66666629999997 L 308.66666629999997 -406.33333370000003 L 411.33333370000003 -406.33333370000003 L 411.33333370000003 -303.66666629999997 Z" style="stroke:none;"/>
                                </g>
                                <g>
                                  <path d="M 360.0 -355.0 M 360.0 -355.0 L 383.71290817050095 -364.82220816752925 L 383.713 -364.822 A 25.6667 25.6667 0 0 0 380.363 -370.625 Z"/>
                                  <g style="fill:rgb(0,255,0);clip-path:url(#clip15);">
                                    <path d="M 330.66666629999997 -325.66666629999997 L 330.66666629999997 -384.33333370000003 L 389.33333370000003 -384.33333370000003 L 389.33333370000003 -325.66666629999997 Z" style="stroke:none;"/>
                                  </g>
                                  <g>
                                    <path d="M 360.0 -355.0 M 360.0 -355.0 L 374.5411914819141 -353.08561582350944 L 374.541 -353.086 A 14.6667 14.6667 0 0 0 374.541 -356.914 Z"/>
                                    <g style="fill:rgb(0,255,0);clip-path:url(#clip16);">
                                      <path d="M 293.2666663 -288.2666663 L 293.2666663 -421.7333337 L 426.7333337 -421.7333337 L 426.7333337 -288.2666663 Z" style="stroke:none;"/>
                                    </g>
                                    <g>
                                      <path d="M 360.0 -355.0 M 360.0 -355.0 L 386.4715565998323 -334.6876602071361 L 386.472 -334.688 A 33.3667 33.3667 0 0 0 390.827 -342.231 Z"/>
                                      <g style="fill:rgb(0,255,0);clip-path:url(#clip17);">
                                        <path d="M 294.0 -289.0 L 294.0 -421.0 L 426.0 -421.0 L 426.0 -289.0 Z" style="stroke:none;"/>
                                      </g>
                                      <g>
                                        <path d="M 360.0 -355.0 M 360.0 -355.0 L 372.62855326804799 -324.51197542712754 L 372.629 -324.512 A 33 33 0 0 0 380.089 -328.819 Z"/>
                                        <g style="fill:rgb(0,255,0);clip-path:url(#clip18);">
                                          <path d="M 279.33333370000003 -274.33333370000003 L 279.33333370000003 -435.66666629999997 L 440.66666629999997 -435.66666629999997 L 440.66666629999997 -274.33333370000003 Z" style="stroke:none;"/>
                                        </g>
                                        <g>
                                          <path d="M 360.0 -355.0 M 360.0 -355.0 L 354.73544360438774 -315.01172410635456 L 354.735 -315.012 A 40.3333 40.3333 0 0 0 365.265 -315.012 Z"/>
                                          <g style="fill:rgb(0,255,0);clip-path:url(#clip19);">
                                            <path d="M 335.06666630000001 -330.06666630000001 L 335.06666630000001 -379.93333369999999 L 384.93333369999999 -379.93333369999999 L 384.93333369999999 -330.06666630000001 Z" style="stroke:none;"/>
                                          </g>
                                          <g>
                                            <path d="M 360.0 -355.0 M 360.0 -355.0 L 352.41077407341834 -345.10952821225447 L 352.411 -345.11 A 12.4667 12.4667 0 0 0 355.229 -343.482 Z"/>
                                            <g style="fill:rgb(0,255,0);clip-path:url(#clip20);">
                                              <path d="M 280.80000000000001 -275.80000000000001 L 280.80000000000001 -434.19999999999999 L 439.19999999999999 -434.19999999999999 L 439.19999999999999 -275.80000000000001 Z" style="stroke:none;"/>
                                            </g>
                                            <g>
                                              <path d="M 360.0 -355.0 M 360.0 -355.0 L 323.41437051255303 -339.84573607834244 L 323.414 -339.846 A 39.6 39.6 0 0 0 328.583 -330.893 Z"/>
                                              <g style="fill:rgb(0,255,0);clip-path:url(#clip21);">
                                                <path d="M 345.33333370000003 -340.33333370000003 L 345.33333370000003 -369.66666629999997 L 374.66666629999997 -369.66666629999997 L 374.66666629999997 -340.33333370000003 Z" style="stroke:none;"/>
                                              </g>
                                              <g>
                                                <path d="M 360.0 -355.0 M 360.0 -355.0 L 352.72940453169031 -355.95719205235059 L 352.729 -355.957 A 7.33333 7.33333 0 0 0 352.729 -354.043 Z"/>
                                                <g style="fill:rgb(0,255,0);clip-path:url(#clip22);">
                                                  <path d="M 308.66666629999997 -303.66666629999997 L 308.66666629999997 -406.33333370000003 L 411.33333370000003 -406.33333370000003 L 411.33333370000003 -303.66666629999997 Z" style="stroke:none;"/>
                                                </g>
                                                <g>
                                                  <path d="M 360.0 -355.0 M 360.0 -355.0 L 339.63726412041018 -370.62487678949674 L 339.637 -370.625 A 25.6667 25.6667 0 0 0 336.287 -364.822 Z"/>
                                                  <g style="fill:rgb(0,255,0);clip-path:url(#clip23);">
                                                    <path d="M 250.0 -245.0 L 250.0 -465.0 L 470.0 -465.0 L 470.0 -245.0 Z" style="stroke:none;"/>
                                                  </g>
                                                  <g>
                                                    <path d="M 360.0 -355.0 M 360.0 -355.0 L 338.95241121992007 -405.81337428812077 L 338.952 -405.813 A 55 55 0 0 0 326.518 -398.634 Z"/>
                                                    <g style="fill:rgb(0,255,0);clip-path:url(#clip24);">
                                                      <path d="M 327.7333337 -322.7333337 L 327.7333337 -387.2666663 L 392.2666663 -387.2666663 L 392.2666663 -322.7333337 Z" style="stroke:none;"/>
                                                    </g>
                                                    <g>
                                                      <path d="M 360.0 -355.0 M 360.0 -355.0 L 362.10582254388703 -370.99531024839922 L 362.106 -370.995 A 16.1333 16.1333 0 0 0 357.894 -370.995 Z"/>
                                                    </g>
                                                  </g>
                                                </g>
                                              </g>
                                            </g>
                                          </g>
                                        </g>
                                      </g>
                                    </g>
                                  </g>
                                </g>
                              </g>
                            </g>
                          </g>
                        </g>
                      </g>
                    </g>
                  </g>
                </g>
              </g>
            </g>
          </g>
        </g>
      </g>
    </g>
    <g style="fill:rgb(255,255,255);clip-path:url(#clip25);">
      <path d="M 397 -292 L 397 -309 L 433.29300000000001 -309 L 433.29300000000001 -292 Z" style="stroke:none;"/>
    </g>
    <g>
      <path d="M 397 -292 L 397 -309 L 433.29300000000001 -309 L 433.29300000000001 -292 Z"/>
      <g style="fill:rgb(255,0,0);clip-path:url(#clip26);">
        <path d="M 400 -301.18333333333334 L 400 -307.48333333333335 L 406.30000000000001 -307.48333333333335 L 406.30000000000001 -301.18333333333334 Z" style="stroke:none;"/>
      </g>
      <g style="stroke-width:0.3;">
        <path d="M 400 -301.18333333333334 L 400 -307.48333333333335 L 406.30000000000001 -307.48333333333335 L 406.30000000000001 -301.18333333333334 Z"/>
        <text style="font-size:7;stroke:none;fill:rgb(0,0,0);" x="409.0" y="-302.0">
          Model
        </text>
        <g style="fill:rgb(0,255,0);clip-path:url(#clip27);">
          <path d="M 400 -294.18333333333334 L 400 -300.48333333333335 L 406.30000000000001 -300.48333333333335 L 406.30000000000001 -294.18333333333334 Z" style="stroke:none;"/>
        </g>
        <g>
          <path d="M 400 -294.18333333333334 L 400 -300.48333333333335 L 406.30000000000001 -300.48333333333335 L 406.30000000000001 -294.18333333333334 Z"/>
          <text style="font-size:7;stroke:none;fill:rgb(0,0,0);" x="409.0" y="-295.0">
            Station
          </text>
        </g>
      </g>
    </g>
  </g>
</svg>
