<?xml version="1.0" ?>
<!--Created by PyChart 1.38 Copyright 1999-2005 Yasushi Saito-->
<svg viewBox="264.99 -426.5 218.516 159" xmlns="http://www.w3.org/2000/svg" xmlns:xlink="http://www.w3.org/1999/xlink">
  <defs>
    <clipPath id="clip0">
      <path d="M 297 -297 L 297 -413 L 423 -413 L 423 -297 Z"/>
    </clipPath>
    <clipPath id="clip1">
      <path d="M 297 -297 L 297 -413 L 423 -413 L 423 -297 Z"/>
    </clipPath>
    <clipPath id="clip2">
      <path d="M 290 -290 L 290 -420 L 430 -420 L 430 -290 Z"/>
    </clipPath>
    <clipPath id="clip3">
      <path d="M 297 -297 L 297 -413 L 423 -413 L 423 -297 Z"/>
    </clipPath>
    <clipPath id="clip4">
      <path d="M 290 -290 L 290 -420 L 430 -420 L 430 -290 Z"/>
    </clipPath>
    <clipPath id="clip5">
      <path d="M 297 -297 L 297 -413 L 423 -413 L 423 -297 Z"/>
    </clipPath>
    <clipPath id="clip6">
      <path d="M 290 -290 L 290 -420 L 430 -420 L 430 -290 Z"/>
    </clipPath>
    <clipPath id="clip7">
      <path d="M 297 -297 L 297 -413 L 423 -413 L 423 -297 Z"/>
    </clipPath>
    <clipPath id="clip8">
      <path d="M 290 -290 L 290 -420 L 430 -420 L 430 -290 Z"/>
    </clipPath>
    <clipPath id="clip9">
      <path d="M 427.0 -297 L 427.0 -336 L 480.50599999999997 -336 L 480.50599999999997 -297 Z"/>
    </clipPath>
  </defs>
  <g style="stroke-linejoin:miter;font-size:9;font-family:Helvetica;fill:none;stroke-linecap:butt;stroke:rgb(0,0,0);font-stretch:normal;stroke-dasharray:none;font-weight:normal;font-style:normal;stroke-width:0.4;">
    <path d="M 300 -300 L 420 -300"/>
    <path d="M 300 -300 L 420 -300"/>
    <path d="M 300.0 -300 L 300.0 -294"/>
    <text style="stroke:none;fill:rgb(0,0,0);" x="293.745" y="-285.0">
      0/2
    </text>
    <path d="M 315.0 -300 L 315.0 -294"/>
    <text style="stroke:none;fill:rgb(0,0,0);" x="308.745" y="-285.0">
      1/2
    </text>
    <path d="M 330.0 -300 L 330.0 -294"/>
    <text style="stroke:none;fill:rgb(0,0,0);" x="323.745" y="-285.0">
      2/2
    </text>
    <path d="M 345.0 -300 L 345.0 -294"/>
    <text style="stroke:none;fill:rgb(0,0,0);" x="338.745" y="-285.0">
      3/2
    </text>
    <path d="M 360.0 -300 L 360.0 -294"/>
    <text style="stroke:none;fill:rgb(0,0,0);" x="353.745" y="-285.0">
      4/2
    </text>
    <path d="M 375.0 -300 L 375.0 -294"/>
    <text style="stroke:none;fill:rgb(0,0,0);" x="368.745" y="-285.0">
      5/2
    </text>
    <path d="M 390.0 -300 L 390.0 -294"/>
    <text style="stroke:none;fill:rgb(0,0,0);" x="383.745" y="-285.0">
      6/2
    </text>
    <path d="M 405.0 -300 L 405.0 -294"/>
    <text style="stroke:none;fill:rgb(0,0,0);" x="398.745" y="-285.0">
      7/2
    </text>
    <path d="M 420.0 -300 L 420.0 -294"/>
    <text style="stroke:none;fill:rgb(0,0,0);" x="413.745" y="-285.0">
      8/2
    </text>
    <text style="stroke:none;fill:rgb(0,0,0);" x="335.745" y="-270.5">
      X (unit is Pi)
    </text>
    <path d="M 300 -355.0 L 420 -355.0" style="stroke:rgb(179,179,179);stroke-dasharray:1,1;"/>
    <path d="M 300 -410.0 L 420 -410.0" style="stroke:rgb(179,179,179);stroke-dasharray:1,1;"/>
    <path d="M 300 -300 L 300 -410"/>
    <path d="M 300 -300.0 L 294 -300.0"/>
    <text style="stroke:none;fill:rgb(0,0,0);" x="285.99900000000002" y="-295.5">
      -1
    </text>
    <path d="M 300 -355.0 L 294 -355.0"/>
    <text style="stroke:none;fill:rgb(0,0,0);" x="281.49000000000001" y="-350.5">
      0.0
    </text>
    <path d="M 300 -410.0 L 294 -410.0"/>
    <text style="stroke:none;fill:rgb(0,0,0);" x="281.49000000000001" y="-405.5">
      1.0
    </text>
    <text style="stroke:none;fill:rgb(0,0,0);" transform="rotate(-90,276.99,-351.998)" x="276.99000000000001" y="-351.99849999999998">
      Y
    </text>
    <g style="clip-path:url(#clip0);">
      <g style="clip-path:url(#clip1);">
        <path d="M 300.0 -355.0 L 300.95492965855135 -360.49083791557553 L 301.90985931710276 -365.92681319372838 L 302.86478897565411 -371.25361136637366 L 303.81971863420551 -376.41800882697578 L 304.77464829275686 -381.36840462323119 L 305.72957795130822 -386.05533603672694 L 306.68450760985962 -390.43197279807299 L 307.63943726841097 -394.45458499947375 L 308.59436692696232 -398.08298002951159 L 309.54929658551373 -401.28090416443428 L 310.50422624406508 -404.01640480337892 L 311.45915590261649 -406.26214972819741 L 312.41408556116784 -407.99570019794561 L 313.36901521971919 -409.19973514936532 L 314.32394487827059 -409.86222426322297 L 315.27887453682195 -409.97654816728277 L 316.23380419537335 -409.5415645748858 L 317.1887338539247 -408.56161969830072 L 318.14366351247605 -407.04650482280778 L 319.09859317102746 -405.01135847541246 L 320.05352282957881 -402.47651516568806 L 321.00845248813016 -399.46730221007743 L 321.96338214668157 -396.01378666971959 L 322.91831180523292 -392.15047493031329 L 323.87324146378432 -387.91596792571755 L 324.82817112233568 -383.3525754501805 L 325.78310078088703 -378.50589341286059 L 326.73803043943843 -373.4243482585747 L 327.69296009798978 -368.15871310676897 L 328.64788975654119 -362.76160044329265 L 329.60281941509254 -357.28693643383087 L 330.55774907364389 -351.78942211148302 L 331.5126787321953 -346.32398682212124 L 332.46760839074665 -340.94523938852421 L 333.42253804929805 -335.7069224770708 L 334.37746770784941 -330.66137561878304 L 335.33239736640076 -325.85901225003278 L 336.28732702495216 -321.34781599815034 L 337.24225668350351 -317.17286124488135 L 338.19718634205492 -313.37586275806387 L 339.15211600060627 -309.99475889145737 L 340.10704565915762 -307.0633325172526 L 341.06197531770903 -304.61087347877998 L 342.01690497626038 -302.6618859360766 L 342.97183463481173 -301.23584352841965 L 343.92676429336314 -300.34699480015945 L 344.88169395191449 -300.00422083397444 L 345.83662361046584 -300.21094651402876 L 346.79155326901719 -300.96510630566172 L 347.74648292756859 -302.25916489352733 L 348.70141258611994 -304.08019247197467 L 349.65634224467135 -306.40999393539153 L 350.6112719032227 -309.22529067768534 L 351.56620156177405 -312.49795318442057 L 352.5211312203254 -316.19528209362829 L 353.47606087887681 -320.28033491702217 L 354.43099053742816 -324.71229515712974 L 355.38592019597957 -329.44688013224311 L 356.34084985453092 -334.43678343433675 L 357.29577951308227 -339.63214759905878 L 358.25070917163362 -344.98106226503444 L 359.20563883018502 -350.43008284503736 L 360.16056848873637 -355.92476452663891 L 361.11549814728772 -361.41020626677675 L 362.07042780583913 -366.83159934482944 L 363.02535746439048 -372.1347749932354 L 363.98028712294183 -377.26674563391248 L 364.93521678149324 -382.17623431262308 L 365.89014644004459 -386.81418704135058 L 366.845076098596 -391.13426292953307 L 367.80000575714735 -395.09329720692284 L 368.7549354156987 -398.65173251170313 L 369.70986507425005 -401.77401413457073 L 370.6647947328014 -404.42894526963926 L 371.6197243913528 -406.5899987226104 L 372.57465404990415 -408.23558196173161 L 373.52958370845556 -409.34925286323494 L 374.48451336700691 -409.91988399560324 L 375.43944302555826 -409.94177380118748 L 376.39437268410961 -409.41470356428613 L 377.34930234266102 -408.34393959647991 L 378.30423200121237 -406.74018061738775 L 379.25916165976378 -404.61945085659647 L 380.21409131831513 -402.00293994485583 L 381.16902097686648 -398.91679119429244 L 382.12395063541783 -395.39184038307678 L 383.07888029396923 -391.46330765452069 L 384.03380995252058 -387.17044560904759 L 384.98873961107199 -382.55614710518444 L 385.94366926962334 -377.66651668829741 L 386.89859892817469 -372.55040992921522 L 387.85352858672604 -367.25894527551446 L 388.80845824527745 -361.84499329288934 L 389.7633879038288 -356.36264839993567 L 390.71831756238021 -350.86668837460144 L 391.67324722093156 -345.41202703273711 L 392.62817687948291 -340.05316554739909 L 393.58310653803426 -334.84364789114494 L 394.53803619658567 -329.83552584235827 L 395.49296585513702 -325.07883890108553 L 396.44789551368842 -320.62111431089232 L 397.40282517223977 -316.50689218235595 L 398.35775483079112 -312.77728046300371 L 399.31268448934247 -309.4695442002897 L 400.26761414789388 -306.6167332015587 L 401.22254380644523 -304.24735181129608 L 402.17747346499658 -302.38507410514001 L 403.13240312354799 -301.04850734634323 L 404.08733278209934 -300.25100606814937 L 405.04226244065069 -300.00053863971129 L 405.9971920992021 -300.29960764878047 L 406.95212175775345 -301.14522489667729 L 407.9070514163048 -302.52894125538472 L 408.8619810748562 -304.43693108844229 L 409.81691073340755 -306.85013039213578 L 410.7718403919589 -309.74442727672022 L 411.72677005051025 -313.0909028844523 L 412.68169970906166 -316.85612033725721 L 413.63662936761301 -321.00245882696203 L 414.59155902616442 -325.48848950997484 L 415.54648868471577 -330.26938945059561 L 416.50141834326712 -335.29738947697308 L 417.45634800181847 -340.52225147487945 L 418.41127766036988 -345.89177035034146 L 419.36620731892123 -351.35229564568237" style="stroke-width:1.2;"/>
      </g>
      <g style="clip-path:url(#clip2);"/>
      <g style="clip-path:url(#clip3);">
        <path d="M 300.0 -355.0 L 300.95492965855135 -357.74541895778776 L 301.90985931710276 -360.46340659686416 L 302.86478897565411 -363.12680568318683 L 303.81971863420551 -365.70900441348789 L 304.77464829275686 -368.18420231161559 L 305.72957795130822 -370.52766801836344 L 306.68450760985962 -372.71598639903652 L 307.63943726841097 -374.7272924997369 L 308.59436692696232 -376.54149001475582 L 309.54929658551373 -378.14045208221717 L 310.50422624406508 -379.50820240168946 L 311.45915590261649 -380.63107486409871 L 312.41408556116784 -381.49785009897278 L 313.36901521971919 -382.09986757468266 L 314.32394487827059 -382.43111213161148 L 315.27887453682195 -382.48827408364139 L 316.23380419537335 -382.2707822874429 L 317.1887338539247 -381.78080984915039 L 318.14366351247605 -381.02325241140386 L 319.09859317102746 -380.00567923770626 L 320.05352282957881 -378.73825758284403 L 321.00845248813016 -377.23365110503875 L 321.96338214668157 -375.5068933348598 L 322.91831180523292 -373.57523746515665 L 323.87324146378432 -371.45798396285875 L 324.82817112233568 -369.17628772509022 L 325.78310078088703 -366.75294670643029 L 326.73803043943843 -364.21217412928735 L 327.69296009798978 -361.57935655338446 L 328.64788975654119 -358.88080022164633 L 329.60281941509254 -356.14346821691544 L 330.55774907364389 -353.39471105574148 L 331.5126787321953 -350.66199341106062 L 332.46760839074665 -347.97261969426211 L 333.42253804929805 -345.35346123853543 L 334.37746770784941 -342.83068780939152 L 335.33239736640076 -340.42950612501636 L 336.28732702495216 -338.1739079990752 L 337.24225668350351 -336.08643062244067 L 338.19718634205492 -334.18793137903197 L 339.15211600060627 -332.49737944572871 L 340.10704565915762 -331.03166625862633 L 341.06197531770903 -329.80543673938996 L 342.01690497626038 -328.8309429680383 L 342.97183463481173 -328.11792176420983 L 343.92676429336314 -327.67349740007973 L 344.88169395191449 -327.50211041698725 L 345.83662361046584 -327.60547325701441 L 346.79155326901719 -327.98255315283086 L 347.74648292756859 -328.62958244676366 L 348.70141258611994 -329.54009623598733 L 349.65634224467135 -330.70499696769576 L 350.6112719032227 -332.1126453388427 L 351.56620156177405 -333.74897659221028 L 352.5211312203254 -335.59764104681415 L 353.47606087887681 -337.64016745851109 L 354.43099053742816 -339.85614757856484 L 355.38592019597957 -342.22344006612155 L 356.34084985453092 -344.7183917171684 L 357.29577951308227 -347.31607379952942 L 358.25070917163362 -349.99053113251722 L 359.20563883018502 -352.71504142251865 L 360.16056848873637 -355.46238226331945 L 361.11549814728772 -358.20510313338838 L 362.07042780583913 -360.91579967241472 L 363.02535746439048 -363.5673874966177 L 363.98028712294183 -366.13337281695624 L 364.93521678149324 -368.58811715631157 L 365.89014644004459 -370.90709352067529 L 366.845076098596 -373.06713146476653 L 367.80000575714735 -375.04664860346145 L 368.7549354156987 -376.82586625585157 L 369.70986507425005 -378.38700706728537 L 370.6647947328014 -379.71447263481963 L 371.6197243913528 -380.7949993613052 L 372.57465404990415 -381.61779098086578 L 373.52958370845556 -382.17462643161747 L 374.48451336700691 -382.45994199780159 L 375.43944302555826 -382.47088690059377 L 376.39437268410961 -382.20735178214306 L 377.34930234266102 -381.67196979823996 L 378.30423200121237 -380.87009030869388 L 379.25916165976378 -379.80972542829824 L 380.21409131831513 -378.50146997242791 L 381.16902097686648 -376.95839559714619 L 382.12395063541783 -375.19592019153839 L 383.07888029396923 -373.23165382726035 L 384.03380995252058 -371.08522280452382 L 384.98873961107199 -368.77807355259222 L 385.94366926962334 -366.3332583441487 L 386.89859892817469 -363.77520496460761 L 387.85352858672604 -361.12947263775726 L 388.80845824527745 -358.4224966464447 L 389.7633879038288 -355.68132419996783 L 390.71831756238021 -352.93334418730075 L 391.67324722093156 -350.20601351636856 L 392.62817687948291 -347.52658277369954 L 393.58310653803426 -344.92182394557244 L 394.53803619658567 -342.41776292117913 L 395.49296585513702 -340.03941945054277 L 396.44789551368842 -337.81055715544619 L 397.40282517223977 -335.75344609117798 L 398.35775483079112 -333.88864023150188 L 399.31268448934247 -332.23477210014482 L 400.26761414789388 -330.80836660077932 L 401.22254380644523 -329.62367590564804 L 402.17747346499658 -328.69253705257 L 403.13240312354799 -328.02425367317159 L 404.08733278209934 -327.62550303407465 L 405.04226244065069 -327.50026931985565 L 405.9971920992021 -327.64980382439023 L 406.95212175775345 -328.07261244833865 L 407.9070514163048 -328.76447062769233 L 408.8619810748562 -329.71846554422115 L 409.81691073340755 -330.92506519606786 L 410.7718403919589 -332.37221363836011 L 411.72677005051025 -334.04545144222612 L 412.68169970906166 -335.92806016862863 L 413.63662936761301 -338.00122941348098 L 414.59155902616442 -340.24424475498745 L 415.54648868471577 -342.63469472529778 L 416.50141834326712 -345.14869473848654 L 417.45634800181847 -347.76112573743973 L 418.41127766036988 -350.4458851751707 L 419.36620731892123 -353.17614782284119" style="stroke-width:1.2;stroke-dasharray:1.5,1.5;"/>
      </g>
      <g style="clip-path:url(#clip4);"/>
      <g style="clip-path:url(#clip5);">
        <path d="M 300.0 -410.0 L 300.95492965855135 -409.72522909029141 L 301.90985931710276 -408.90366178126828 L 302.86478897565411 -407.54350690190836 L 303.81971863420551 -405.6583546701587 L 304.77464829275686 -403.2670409039705 L 305.72957795130822 -400.39345882003232 L 306.68450760985962 -397.06632030064691 L 307.63943726841097 -393.3188690140941 L 308.59436692696232 -389.18854825488654 L 309.54929658551373 -384.71662682274768 L 310.50422624406508 -379.94778667840677 L 311.45915590261649 -374.92967649621704 L 312.41408556116784 -369.7124355743523 L 313.36901521971919 -364.34819285951323 L 314.32394487827059 -358.89054609172365 L 315.27887453682195 -353.39402627342912 L 316.23380419537335 -347.91355281374609 L 317.1887338539247 -342.50388479188018 L 318.14366351247605 -337.21907382250731 L 319.09859317102746 -332.11192398990715 L 320.05352282957881 -327.23346424700782 L 321.00845248813016 -322.63243855095595 L 321.96338214668157 -318.35481882960966 L 322.91831180523292 -314.44334564523149 L 323.87324146378432 -310.93710114491864 L 324.82817112233568 -307.8711185647079 L 325.78310078088703 -305.2760321890616 L 326.73803043943843 -303.1777712632238 L 327.69296009798978 -301.5973009167725 L 328.64788975654119 -300.55041268697551 L 329.60281941509254 -300.04756673496962 L 330.55774907364389 -300.09378733128858 L 331.5126787321953 -300.68861265501243 L 332.46760839074665 -301.82609940812966 L 333.42253804929805 -303.49488219900621 L 334.37746770784941 -305.67828710162195 L 335.33239736640076 -308.35449825592758 L 336.28732702495216 -311.49677584470714 L 337.24225668350351 -315.07372326899235 L 338.19718634205492 -319.04960085250144 L 339.15211600060627 -323.38468294067025 L 340.10704565915762 -328.03565482626158 L 341.06197531770903 -332.95604553560139 L 342.01690497626038 -338.09669215118691 L 342.97183463481173 -343.40623103130713 L 343.92676429336314 -348.831611018572 L 344.88169395191449 -354.318623509541 L 345.83662361046584 -359.8124440891695 L 346.79155326901719 -365.25818031824156 L 347.74648292756859 -370.60142020047738 L 348.70141258611994 -375.78877584921383 L 349.65634224467135 -380.76841692152061 L 350.6112719032227 -385.49058848985374 L 351.56620156177405 -389.90810817684473 L 352.5211312203254 -393.97683758601914 L 353.47606087887681 -397.65612331806358 L 354.43099053742816 -400.90920316615365 L 355.38592019597957 -403.70357343177244 L 356.34084985453092 -406.01131369092184 L 357.29577951308227 -407.80936576577005 L 358.25070917163362 -409.07976411434208 L 359.20563883018502 -409.80981533627693 L 360.16056848873637 -409.99222500108783 L 361.11549814728772 -409.62517053170063 L 362.07042780583913 -408.71231941504141 L 363.02535746439048 -407.26279255771925 L 363.98028712294183 -405.29107315294277 L 364.93521678149324 -402.81686196924062 L 365.89014644004459 -399.86488050689491 L 366.845076098596 -396.46462398888207 L 367.80000575714735 -392.6500666543547 L 368.7549354156987 -388.45932229927445 L 369.70986507425005 -383.93426345596123 L 370.6647947328014 -379.120103016592 L 371.6197243913528 -374.06494248092696 L 372.57465404990415 -368.81929134202466 L 373.52958370845556 -363.43556241208319 L 374.48451336700691 -357.9675481309464 L 375.43944302555826 -352.46988308982617 L 376.39437268410961 -346.99749814052694 L 377.34930234266102 -341.60507154453217 L 378.30423200121237 -336.34648264588975 L 379.25916165976378 -331.27427352661658 L 380.21409131831513 -326.43912402358296 L 381.16902097686648 -321.88934535233534 L 382.12395063541783 -317.67039739739988 L 383.07888029396923 -313.82443449214361 L 384.03380995252058 -310.38988422660941 L 384.98873961107199 -307.40106349173925 L 385.94366926962334 -304.88783559634311 L 386.89859892817469 -302.87531188278911 L 387.85352858672604 -301.3836008227712 L 388.80845824527745 -300.42760710010691 L 389.7633879038288 -300.01688268806367 L 390.71831756238021 -300.15553140919911 L 391.67324722093156 -300.84216793132282 L 392.62817687948291 -302.06993160927766 L 393.58310653803426 -303.8265550342382 L 394.53803619658567 -306.09448660560463 L 395.49296585513702 -308.85106590079454 L 396.44789551368842 -312.06875009069421 L 397.40282517223977 -315.71538913850321 L 398.35775483079112 -319.75454703227444 L 399.31268448934247 -324.14586584150146 L 400.26761414789388 -328.84546896021936 L 401.22254380644523 -333.80639950754829 L 402.17747346499658 -338.97908950532485 L 403.13240312354799 -344.31185514495536 L 404.08733278209934 -349.75141319494645 L 405.04226244065069 -355.24341338934153 L 405.9971920992021 -360.73298147761204 L 406.95212175775345 -366.16526751003005 L 407.9070514163048 -371.4859938802345 L 408.8619810748562 -376.64199764913275 L 409.81691073340755 -381.58176173141413 L 410.7718403919589 -386.25592963723744 L 411.72677005051025 -390.61779862596211 L 412.68169970906166 -394.6237863444951 L 413.63662936761301 -398.23386628775626 L 414.59155902616442 -401.41196773028628 L 415.54648868471577 -404.12633613301205 L 416.50141834326712 -406.34985042410455 L 417.45634800181847 -408.06029398376313 L 418.41127766036988 -409.24057662533721 L 419.36620731892123 -409.87890535482182" style="stroke-width:1.2;stroke-dasharray:5,2,5,2;"/>
      </g>
      <g style="clip-path:url(#clip6);"/>
      <g style="clip-path:url(#clip7);">
        <path d="M 300.0 -382.5 L 300.95492965855135 -382.36261454514568 L 301.90985931710276 -381.95183089063414 L 302.86478897565411 -381.27175345095418 L 303.81971863420551 -380.32917733507935 L 304.77464829275686 -379.13352045198525 L 305.72957795130822 -377.69672941001613 L 306.68450760985962 -376.03316015032345 L 307.63943726841097 -374.15943450704708 L 308.59436692696232 -372.09427412744327 L 309.54929658551373 -369.85831341137384 L 310.50422624406508 -367.47389333920336 L 311.45915590261649 -364.96483824810855 L 312.41408556116784 -362.35621778717615 L 313.36901521971919 -359.67409642975662 L 314.32394487827059 -356.94527304586182 L 315.27887453682195 -354.19701313671453 L 316.23380419537335 -351.45677640687308 L 317.1887338539247 -348.75194239594009 L 318.14366351247605 -346.10953691125366 L 319.09859317102746 -343.55596199495358 L 320.05352282957881 -341.11673212350388 L 321.00845248813016 -338.81621927547798 L 321.96338214668157 -336.6774094148048 L 322.91831180523292 -334.72167282261574 L 323.87324146378432 -332.96855057245932 L 324.82817112233568 -331.43555928235395 L 325.78310078088703 -330.13801609453083 L 326.73803043943843 -329.0888856316119 L 327.69296009798978 -328.29865045838625 L 328.64788975654119 -327.77520634348775 L 329.60281941509254 -327.52378336748484 L 330.55774907364389 -327.54689366564429 L 331.5126787321953 -327.84430632750622 L 332.46760839074665 -328.41304970406486 L 333.42253804929805 -329.24744109950313 L 334.37746770784941 -330.339143550811 L 335.33239736640076 -331.67724912796382 L 336.28732702495216 -333.24838792235357 L 337.24225668350351 -335.03686163449618 L 338.19718634205492 -337.02480042625069 L 339.15211600060627 -339.19234147033512 L 340.10704565915762 -341.51782741313082 L 341.06197531770903 -343.97802276780067 L 342.01690497626038 -346.54834607559349 L 342.97183463481173 -349.20311551565356 L 343.92676429336314 -351.91580550928597 L 344.88169395191449 -354.6593117547705 L 345.83662361046584 -357.40622204458475 L 346.79155326901719 -360.12909015912078 L 347.74648292756859 -362.80071010023869 L 348.70141258611994 -365.39438792460692 L 349.65634224467135 -367.88420846076031 L 350.6112719032227 -370.24529424492687 L 351.56620156177405 -372.45405408842237 L 352.5211312203254 -374.4884187930096 L 353.47606087887681 -376.32806165903179 L 354.43099053742816 -377.95460158307685 L 355.38592019597957 -379.35178671588619 L 356.34084985453092 -380.50565684546092 L 357.29577951308227 -381.40468288288503 L 358.25070917163362 -382.03988205717104 L 359.20563883018502 -382.40490766813843 L 360.16056848873637 -382.49611250054392 L 361.11549814728772 -382.31258526585032 L 362.07042780583913 -381.8561597075207 L 363.02535746439048 -381.1313962788596 L 363.98028712294183 -380.14553657647139 L 364.93521678149324 -378.90843098462028 L 365.89014644004459 -377.43244025344745 L 366.845076098596 -375.73231199444103 L 367.80000575714735 -373.82503332717738 L 368.7549354156987 -371.7296611496372 L 369.70986507425005 -369.46713172798064 L 370.6647947328014 -367.060051508296 L 371.6197243913528 -364.53247124046345 L 372.57465404990415 -361.9096456710123 L 373.52958370845556 -359.21778120604159 L 374.48451336700691 -356.4837740654732 L 375.43944302555826 -353.73494154491306 L 376.39437268410961 -350.99874907026344 L 377.34930234266102 -348.30253577226608 L 378.30423200121237 -345.67324132294488 L 379.25916165976378 -343.13713676330826 L 380.21409131831513 -340.71956201179148 L 381.16902097686648 -338.44467267616767 L 382.12395063541783 -336.33519869869997 L 383.07888029396923 -334.4122172460718 L 384.03380995252058 -332.69494211330471 L 384.98873961107199 -331.20053174586963 L 385.94366926962334 -329.94391779817158 L 386.89859892817469 -328.93765594139455 L 387.85352858672604 -328.1918004113856 L 388.80845824527745 -327.71380355005346 L 389.7633879038288 -327.50844134403184 L 390.71831756238021 -327.57776570459953 L 391.67324722093156 -327.92108396566141 L 392.62817687948291 -328.53496580463883 L 393.58310653803426 -329.41327751711907 L 394.53803619658567 -330.54724330280231 L 395.49296585513702 -331.92553295039727 L 396.44789551368842 -333.53437504534713 L 397.40282517223977 -335.35769456925163 L 398.35775483079112 -337.37727351613722 L 399.31268448934247 -339.5729329207507 L 400.26761414789388 -341.92273448010968 L 401.22254380644523 -344.40319975377412 L 402.17747346499658 -346.98954475266243 L 403.13240312354799 -349.65592757247765 L 404.08733278209934 -352.3757065974732 L 405.04226244065069 -355.12170669467076 L 405.9971920992021 -357.86649073880602 L 406.95212175775345 -360.58263375501502 L 407.9070514163048 -363.24299694011728 L 408.8619810748562 -365.82099882456635 L 409.81691073340755 -368.29088086570704 L 410.7718403919589 -370.62796481861869 L 411.72677005051025 -372.80889931298105 L 412.68169970906166 -374.81189317224755 L 413.63662936761301 -376.6169331438781 L 414.59155902616442 -378.20598386514314 L 415.54648868471577 -379.56316806650602 L 416.50141834326712 -380.67492521205224 L 417.45634800181847 -381.53014699188157 L 418.41127766036988 -382.12028831266861 L 419.36620731892123 -382.43945267741094" style="stroke:rgb(179,179,179);stroke-width:1.2;"/>
      </g>
      <g style="clip-path:url(#clip8);"/>
    </g>
    <g style="fill:rgb(255,255,255);clip-path:url(#clip9);">
      <path d="M 427.0 -297 L 427.0 -336 L 480.50599999999997 -336 L 480.50599999999997 -297 Z" style="stroke:none;"/>
    </g>
    <g>
      <path d="M 427.0 -297 L 427.0 -336 L 480.50599999999997 -336 L 480.50599999999997 -297 Z"/>
      <path d="M 432.0 -330.0 L 441.0 -330.0" style="stroke-width:1.2;"/>
      <text style="stroke:none;fill:rgb(0,0,0);" x="441.0" y="-327.0">
        sin(x)
      </text>
      <path d="M 432.0 -321.0 L 441.0 -321.0" style="stroke-width:1.2;stroke-dasharray:1.5,1.5;"/>
      <text style="stroke:none;fill:rgb(0,0,0);" x="441.0" y="-318.0">
        sin(x)/2
      </text>
      <path d="M 432.0 -312.0 L 441.0 -312.0" style="stroke-width:1.2;stroke-dasharray:5,2,5,2;"/>
      <text style="stroke:none;fill:rgb(0,0,0);" x="441.0" y="-309.0">
        cos(x)
      </text>
      <path d="M 432.0 -303.0 L 441.0 -303.0" style="stroke:rgb(179,179,179);stroke-width:1.2;"/>
      <text style="stroke:none;fill:rgb(0,0,0);" x="441.0" y="-300.0">
        cos(x)/2
      </text>
    </g>
  </g>
</svg>
