<?xml version="1.0" ?>
<!--Created by PyChart 1.38 Copyright 1999-2005 Yasushi Saito-->
<svg viewBox="297 -693 513.692 396" xmlns="http://www.w3.org/2000/svg" xmlns:xlink="http://www.w3.org/1999/xlink">
  <defs>
    <clipPath id="clip0">
      <path d="M 397.5 -399.5 L 397.5 -404.5 L 402.5 -404.5 L 402.5 -399.5 Z"/>
    </clipPath>
    <clipPath id="clip1">
      <path d="M 395 -376 L 441.68399999999997 -376 L 441.684 -376 L 441.68399999999997 -393 L 441.684 -393 L 395 -393 L 395 -393 L 395 -376 L 395 -376 Z"/>
    </clipPath>
    <clipPath id="clip2">
      <path d="M 468.5 -399.5 L 468.5 -402.5 L 471.5 -402.5 L 471.5 -399.5 Z"/>
    </clipPath>
    <clipPath id="clip3">
      <path d="M 465 -376 L 518.35599999999999 -376 L 518.356 -376 L 518.35599999999999 -393 L 518.356 -393 L 465 -393 L 465 -393 L 465 -376 L 465 -376 Z"/>
    </clipPath>
    <clipPath id="clip4">
      <path d="M 535 -376 L 557.67200000000003 -376 L 557.672 -376 L 557.67200000000003 -393 L 557.672 -393 L 535 -393 L 535 -393 L 535 -376 L 535 -376 Z"/>
    </clipPath>
    <clipPath id="clip5">
      <path d="M 605 -376 L 627.67200000000003 -376 L 627.672 -376 L 627.67200000000003 -393 L 627.672 -393 L 605 -393 L 605 -393 L 605 -376 L 605 -376 Z"/>
    </clipPath>
    <clipPath id="clip6">
      <path d="M 675 -376 L 705.00400000000002 -376 L 705.004 -376 L 705.00400000000002 -393 L 705.004 -393 L 675 -393 L 675 -393 L 675 -376 L 675 -376 Z"/>
    </clipPath>
    <clipPath id="clip7">
      <path d="M 745 -376 L 781.67599999999993 -376 L 781.676 -376 L 781.67599999999993 -393 L 781.676 -393 L 745 -393 L 745 -393 L 745 -376 L 745 -376 Z"/>
    </clipPath>
    <clipPath id="clip8">
      <path d="M 395 -421 L 433.68000000000001 -421 L 433.68 -421 L 433.68000000000001 -438 L 433.68 -438 L 395 -438 L 395 -438 L 395 -421 L 395 -421 Z"/>
    </clipPath>
    <clipPath id="clip9">
      <path d="M 465 -421 L 503.68000000000001 -421 L 503.68 -421 L 503.68000000000001 -438 L 503.68 -438 L 465 -438 L 465 -438 L 465 -421 L 465 -421 Z"/>
    </clipPath>
    <clipPath id="clip10">
      <path d="M 536.42857142857144 -447 L 540 -450.57142857142856 L 543.57142857142856 -447 L 540 -443.42857142857144 Z"/>
    </clipPath>
    <clipPath id="clip11">
      <path d="M 535 -421 L 561.00800000000004 -421 L 561.008 -421 L 561.00800000000004 -438 L 561.008 -438 L 535 -438 L 535 -438 L 535 -421 L 535 -421 Z"/>
    </clipPath>
    <clipPath id="clip12">
      <path d="M 607.85714285714289 -446 L 610 -448.14285714285711 L 612.14285714285711 -446 L 610 -443.85714285714289 Z"/>
    </clipPath>
    <clipPath id="clip13">
      <path d="M 605 -421 L 637.68000000000006 -421 L 637.68 -421 L 637.68000000000006 -438 L 637.68 -438 L 605 -438 L 605 -438 L 605 -421 L 605 -421 Z"/>
    </clipPath>
    <clipPath id="clip14">
      <path d="M 676.875 -444.5 L 683.125 -444.5 L 680 -449.5 Z"/>
    </clipPath>
    <clipPath id="clip15">
      <path d="M 675 -421 L 694.99599999999998 -421 L 694.996 -421 L 694.99599999999998 -438 L 694.996 -438 L 675 -438 L 675 -438 L 675 -421 L 675 -421 Z"/>
    </clipPath>
    <clipPath id="clip16">
      <path d="M 748.125 -444.5 L 751.875 -444.5 L 750 -447.5 Z"/>
    </clipPath>
    <clipPath id="clip17">
      <path d="M 745 -421 L 771.66800000000001 -421 L 771.668 -421 L 771.66800000000001 -438 L 771.668 -438 L 745 -438 L 745 -438 L 745 -421 L 745 -421 Z"/>
    </clipPath>
    <clipPath id="clip18">
      <path d="M 400 -489.5 L 396.875 -494.5 L 403.125 -494.5 Z"/>
    </clipPath>
    <clipPath id="clip19">
      <path d="M 395 -466 L 421.66800000000001 -466 L 421.668 -466 L 421.66800000000001 -483 L 421.668 -483 L 395 -483 L 395 -483 L 395 -466 L 395 -466 Z"/>
    </clipPath>
    <clipPath id="clip20">
      <path d="M 470 -489.5 L 468.125 -492.5 L 471.875 -492.5 Z"/>
    </clipPath>
    <clipPath id="clip21">
      <path d="M 465 -466 L 498.34000000000003 -466 L 498.34 -466 L 498.34000000000003 -483 L 498.34 -483 L 465 -483 L 465 -483 L 465 -466 L 465 -466 Z"/>
    </clipPath>
    <clipPath id="clip22">
      <path d="M 540 -490 M 540.5 -490.0 L 540.5 -490 M 540.5 -490 A 0.5 0.5 0 1 0 539.5 -490 A 0.5 0.5 0 1 0 540.5 -490 Z"/>
    </clipPath>
    <clipPath id="clip23">
      <path d="M 535 -466 L 579.66800000000001 -466 L 579.668 -466 L 579.66800000000001 -483 L 579.668 -483 L 535 -483 L 535 -483 L 535 -466 L 535 -466 Z"/>
    </clipPath>
    <clipPath id="clip24">
      <path d="M 610 -491 M 611.5 -491.0 L 611.5 -491 M 611.5 -491 A 1.5 1.5 0 1 0 608.5 -491 A 1.5 1.5 0 1 0 611.5 -491 Z"/>
    </clipPath>
    <clipPath id="clip25">
      <path d="M 605 -466 L 649.66800000000001 -466 L 649.668 -466 L 649.66800000000001 -483 L 649.668 -483 L 605 -483 L 605 -483 L 605 -466 L 605 -466 Z"/>
    </clipPath>
    <clipPath id="clip26">
      <path d="M 680 -492 M 682.5 -492.0 L 682.5 -492 M 682.5 -492 A 2.5 2.5 0 1 0 677.5 -492 A 2.5 2.5 0 1 0 682.5 -492 Z"/>
    </clipPath>
    <clipPath id="clip27">
      <path d="M 675 -466 L 719.66800000000001 -466 L 719.668 -466 L 719.66800000000001 -483 L 719.668 -483 L 675 -483 L 675 -483 L 675 -466 L 675 -466 Z"/>
    </clipPath>
    <clipPath id="clip28">
      <path d="M 747.5 -489.5 L 747.5 -494.5 L 752.5 -494.5 L 752.5 -489.5 Z"/>
    </clipPath>
    <clipPath id="clip29">
      <path d="M 745 -457 L 791.68399999999997 -457 L 791.684 -457 L 791.68399999999997 -486 L 791.684 -486 L 745 -486 L 745 -486 L 745 -457 L 745 -457 Z"/>
    </clipPath>
    <clipPath id="clip30">
      <path d="M 398.5 -534.5 L 398.5 -537.5 L 401.5 -537.5 L 401.5 -534.5 Z"/>
    </clipPath>
    <clipPath id="clip31">
      <path d="M 395 -502 L 448.35599999999999 -502 L 448.356 -502 L 448.35599999999999 -531 L 448.356 -531 L 395 -531 L 395 -531 L 395 -502 L 395 -502 Z"/>
    </clipPath>
    <clipPath id="clip32">
      <path d="M 466.42857142857144 -537 L 470 -540.57142857142856 L 473.57142857142856 -537 L 470 -533.42857142857144 Z"/>
    </clipPath>
    <clipPath id="clip33">
      <path d="M 465 -511 L 519.01599999999996 -511 L 519.016 -511 L 519.01599999999996 -528 L 519.016 -528 L 465 -528 L 465 -528 L 465 -511 L 465 -511 Z"/>
    </clipPath>
    <clipPath id="clip34">
      <path d="M 537.85714285714289 -536 L 540 -538.14285714285711 L 542.14285714285711 -536 L 540 -533.85714285714289 Z"/>
    </clipPath>
    <clipPath id="clip35">
      <path d="M 535 -511 L 595.68799999999999 -511 L 595.688 -511 L 595.68799999999999 -528 L 595.688 -528 L 535 -528 L 535 -528 L 535 -511 L 535 -511 Z"/>
    </clipPath>
    <clipPath id="clip36">
      <path d="M 606.875 -534.5 L 613.125 -534.5 L 610 -539.5 Z"/>
    </clipPath>
    <clipPath id="clip37">
      <path d="M 605 -511 L 653.00400000000002 -511 L 653.004 -511 L 653.00400000000002 -528 L 653.004 -528 L 605 -528 L 605 -528 L 605 -511 L 605 -511 Z"/>
    </clipPath>
    <clipPath id="clip38">
      <path d="M 678.125 -534.5 L 681.875 -534.5 L 680 -537.5 Z"/>
    </clipPath>
    <clipPath id="clip39">
      <path d="M 675 -511 L 729.67599999999993 -511 L 729.676 -511 L 729.67599999999993 -528 L 729.676 -528 L 675 -528 L 675 -528 L 675 -511 L 675 -511 Z"/>
    </clipPath>
    <clipPath id="clip40">
      <path d="M 750 -534.5 L 746.875 -539.5 L 753.125 -539.5 Z"/>
    </clipPath>
    <clipPath id="clip41">
      <path d="M 745 -511 L 799.67599999999993 -511 L 799.676 -511 L 799.67599999999993 -528 L 799.676 -528 L 745 -528 L 745 -528 L 745 -511 L 745 -511 Z"/>
    </clipPath>
    <clipPath id="clip42">
      <path d="M 400 -579.5 L 398.125 -582.5 L 401.875 -582.5 Z"/>
    </clipPath>
    <clipPath id="clip43">
      <path d="M 395 -547 L 437.00400000000002 -547 L 437.004 -547 L 437.00400000000002 -576 L 437.004 -576 L 395 -576 L 395 -576 L 395 -547 L 395 -547 Z"/>
    </clipPath>
    <clipPath id="clip44">
      <path d="M 470 -580 M 470.5 -580.0 L 470.5 -580 M 470.5 -580 A 0.5 0.5 0 1 0 469.5 -580 A 0.5 0.5 0 1 0 470.5 -580 Z"/>
    </clipPath>
    <clipPath id="clip45">
      <path d="M 465 -547 L 509.66800000000001 -547 L 509.668 -547 L 509.66800000000001 -576 L 509.668 -576 L 465 -576 L 465 -576 L 465 -547 L 465 -547 Z"/>
    </clipPath>
    <clipPath id="clip46">
      <path d="M 540 -581 M 541.5 -581.0 L 541.5 -581 M 541.5 -581 A 1.5 1.5 0 1 0 538.5 -581 A 1.5 1.5 0 1 0 541.5 -581 Z"/>
    </clipPath>
    <clipPath id="clip47">
      <path d="M 535 -547 L 579.66800000000001 -547 L 579.668 -547 L 579.66800000000001 -576 L 579.668 -576 L 535 -576 L 535 -576 L 535 -547 L 535 -547 Z"/>
    </clipPath>
    <clipPath id="clip48">
      <path d="M 607.5 -579.5 L 607.5 -584.5 L 612.5 -584.5 L 612.5 -579.5 Z"/>
    </clipPath>
    <clipPath id="clip49">
      <path d="M 605 -547 L 655.68000000000006 -547 L 655.68 -547 L 655.68000000000006 -576 L 655.68 -576 L 605 -576 L 605 -576 L 605 -547 L 605 -547 Z"/>
    </clipPath>
    <clipPath id="clip50">
      <path d="M 678.5 -579.5 L 678.5 -582.5 L 681.5 -582.5 L 681.5 -579.5 Z"/>
    </clipPath>
    <clipPath id="clip51">
      <path d="M 675 -547 L 728.35599999999999 -547 L 728.356 -547 L 728.35599999999999 -576 L 728.356 -576 L 675 -576 L 675 -576 L 675 -547 L 675 -547 Z"/>
    </clipPath>
    <clipPath id="clip52">
      <path d="M 746.42857142857144 -582 L 750 -585.57142857142856 L 753.57142857142856 -582 L 750 -578.42857142857144 Z"/>
    </clipPath>
    <clipPath id="clip53">
      <path d="M 745 -556 L 807.69200000000001 -556 L 807.692 -556 L 807.69200000000001 -573 L 807.692 -573 L 745 -573 L 745 -573 L 745 -556 L 745 -556 Z"/>
    </clipPath>
    <clipPath id="clip54">
      <path d="M 397.85714285714289 -626 L 400 -628.14285714285711 L 402.14285714285711 -626 L 400 -623.85714285714289 Z"/>
    </clipPath>
    <clipPath id="clip55">
      <path d="M 395 -592 L 445.68000000000001 -592 L 445.68 -592 L 445.68000000000001 -621 L 445.68 -621 L 395 -621 L 395 -621 L 395 -592 L 395 -592 Z"/>
    </clipPath>
    <clipPath id="clip56">
      <path d="M 466.875 -624.5 L 473.125 -624.5 L 470 -629.5 Z"/>
    </clipPath>
    <clipPath id="clip57">
      <path d="M 465 -601 L 521.68000000000006 -601 L 521.68 -601 L 521.68000000000006 -618 L 521.68 -618 L 465 -618 L 465 -618 L 465 -601 L 465 -601 Z"/>
    </clipPath>
    <clipPath id="clip58">
      <path d="M 538.125 -624.5 L 541.875 -624.5 L 540 -627.5 Z"/>
    </clipPath>
    <clipPath id="clip59">
      <path d="M 535 -592 L 585.68000000000006 -592 L 585.68 -592 L 585.68000000000006 -621 L 585.68 -621 L 535 -621 L 535 -621 L 535 -592 L 535 -592 Z"/>
    </clipPath>
    <clipPath id="clip60">
      <path d="M 610 -624.5 L 606.875 -629.5 L 613.125 -629.5 Z"/>
    </clipPath>
    <clipPath id="clip61">
      <path d="M 605 -592 L 655.68000000000006 -592 L 655.68 -592 L 655.68000000000006 -621 L 655.68 -621 L 605 -621 L 605 -621 L 605 -592 L 605 -592 Z"/>
    </clipPath>
    <clipPath id="clip62">
      <path d="M 680 -624.5 L 678.125 -627.5 L 681.875 -627.5 Z"/>
    </clipPath>
    <clipPath id="clip63">
      <path d="M 675 -592 L 725.68000000000006 -592 L 725.68 -592 L 725.68000000000006 -621 L 725.68 -621 L 675 -621 L 675 -621 L 675 -592 L 675 -592 Z"/>
    </clipPath>
    <clipPath id="clip64">
      <path d="M 750 -625 M 750.5 -625.0 L 750.5 -625 M 750.5 -625 A 0.5 0.5 0 1 0 749.5 -625 A 0.5 0.5 0 1 0 750.5 -625 Z"/>
    </clipPath>
    <clipPath id="clip65">
      <path d="M 745 -592 L 795.68000000000006 -592 L 795.68 -592 L 795.68000000000006 -621 L 795.68 -621 L 745 -621 L 745 -621 L 745 -592 L 745 -592 Z"/>
    </clipPath>
    <clipPath id="clip66">
      <path d="M 400 -671 M 401.5 -671.0 L 401.5 -671 M 401.5 -671 A 1.5 1.5 0 1 0 398.5 -671 A 1.5 1.5 0 1 0 401.5 -671 Z"/>
    </clipPath>
    <clipPath id="clip67">
      <path d="M 395 -637 L 445.68000000000001 -637 L 445.68 -637 L 445.68000000000001 -666 L 445.68 -666 L 395 -666 L 395 -666 L 395 -637 L 395 -637 Z"/>
    </clipPath>
    <clipPath id="clip68">
      <path d="M 465 -646 L 511.024 -646 L 511.024 -646 L 511.024 -663 L 511.024 -663 L 465 -663 L 465 -663 L 465 -646 L 465 -646 Z"/>
    </clipPath>
  </defs>
  <g style="stroke-linejoin:miter;font-size:9;font-family:Helvetica;fill:none;stroke-linecap:butt;stroke:rgb(0,0,0);font-stretch:normal;stroke-dasharray:none;font-weight:normal;font-style:normal;stroke-width:0.4;">
    <g style="fill:rgb(255,255,255);clip-path:url(#clip0);">
      <path d="M 397.5 -399.5 L 397.5 -404.5 L 402.5 -404.5 L 402.5 -399.5 Z" style="stroke:none;"/>
    </g>
    <g>
      <path d="M 397.5 -399.5 L 397.5 -404.5 L 402.5 -404.5 L 402.5 -399.5 Z"/>
      <g style="fill:rgb(255,255,255);clip-path:url(#clip1);">
        <path d="M 395 -376 L 395 -393 L 441.68399999999997 -393 L 441.68399999999997 -376 Z" style="stroke:none;"/>
      </g>
      <text style="font-size:12;stroke:none;fill:rgb(0,0,0);" x="400.0" y="-381.0">
        square
      </text>
      <g style="fill:rgb(255,255,255);clip-path:url(#clip2);">
        <path d="M 468.5 -399.5 L 468.5 -402.5 L 471.5 -402.5 L 471.5 -399.5 Z" style="stroke:none;"/>
      </g>
      <g>
        <path d="M 468.5 -399.5 L 468.5 -402.5 L 471.5 -402.5 L 471.5 -399.5 Z"/>
        <g style="fill:rgb(255,255,255);clip-path:url(#clip3);">
          <path d="M 465 -376 L 465 -393 L 518.35599999999999 -393 L 518.35599999999999 -376 Z" style="stroke:none;"/>
        </g>
        <text style="font-size:12;stroke:none;fill:rgb(0,0,0);" x="470.0" y="-381.0">
          square3
        </text>
        <path d="M 537.5 -399.5 L 542.5 -404.5" style="stroke-width:0.7;"/>
        <path d="M 542.5 -399.5 L 537.5 -404.5" style="stroke-width:0.7;"/>
        <g style="fill:rgb(255,255,255);clip-path:url(#clip4);">
          <path d="M 535 -376 L 535 -393 L 557.67200000000003 -393 L 557.67200000000003 -376 Z" style="stroke:none;"/>
        </g>
        <text style="font-size:12;stroke:none;fill:rgb(0,0,0);" x="540.0" y="-381.0">
          x5
        </text>
        <path d="M 608.5 -399.5 L 611.5 -402.5" style="stroke-width:0.7;"/>
        <path d="M 611.5 -399.5 L 608.5 -402.5" style="stroke-width:0.7;"/>
        <g style="fill:rgb(255,255,255);clip-path:url(#clip5);">
          <path d="M 605 -376 L 605 -393 L 627.67200000000003 -393 L 627.67200000000003 -376 Z" style="stroke:none;"/>
        </g>
        <text style="font-size:12;stroke:none;fill:rgb(0,0,0);" x="610.0" y="-381.0">
          x3
        </text>
        <path d="M 677.5 -399.5 L 682.5 -404.5" style="stroke-width:1;"/>
        <path d="M 682.5 -399.5 L 677.5 -404.5" style="stroke-width:1;"/>
        <path d="M 680 -398.46500000000003 L 680 -405.53499999999997" style="stroke-width:1;"/>
        <path d="M 676.46499999999992 -402 L 683.53500000000008 -402" style="stroke-width:1;"/>
        <g style="fill:rgb(255,255,255);clip-path:url(#clip6);">
          <path d="M 675 -376 L 675 -393 L 705.00400000000002 -393 L 705.00400000000002 -376 Z" style="stroke:none;"/>
        </g>
        <text style="font-size:12;stroke:none;fill:rgb(0,0,0);" x="680.0" y="-381.0">
          star
        </text>
        <path d="M 748.5 -399.5 L 751.5 -402.5" style="stroke-width:1;"/>
        <path d="M 751.5 -399.5 L 748.5 -402.5" style="stroke-width:1;"/>
        <path d="M 750 -398.87900000000002 L 750 -403.12099999999998" style="stroke-width:1;"/>
        <path d="M 747.87900000000002 -401 L 752.12099999999998 -401" style="stroke-width:1;"/>
        <g style="fill:rgb(255,255,255);clip-path:url(#clip7);">
          <path d="M 745 -376 L 745 -393 L 781.67599999999993 -393 L 781.67599999999993 -376 Z" style="stroke:none;"/>
        </g>
        <text style="font-size:12;stroke:none;fill:rgb(0,0,0);" x="750.0" y="-381.0">
          star3
        </text>
        <path d="M 396.42857142857144 -447 L 403.57142857142856 -447" style="stroke-width:1;"/>
        <path d="M 400 -443.42857142857144 L 400 -450.57142857142856" style="stroke-width:1;"/>
        <g style="fill:rgb(255,255,255);clip-path:url(#clip8);">
          <path d="M 395 -421 L 395 -438 L 433.68000000000001 -438 L 433.68000000000001 -421 Z" style="stroke:none;"/>
        </g>
        <text style="font-size:12;stroke:none;fill:rgb(0,0,0);" x="400.0" y="-426.0">
          plus5
        </text>
        <path d="M 467.85714285714289 -446 L 472.14285714285711 -446" style="stroke-width:1;"/>
        <path d="M 470 -443.85714285714289 L 470 -448.14285714285711" style="stroke-width:1;"/>
        <g style="fill:rgb(255,255,255);clip-path:url(#clip9);">
          <path d="M 465 -421 L 465 -438 L 503.68000000000001 -438 L 503.68000000000001 -421 Z" style="stroke:none;"/>
        </g>
        <text style="font-size:12;stroke:none;fill:rgb(0,0,0);" x="470.0" y="-426.0">
          plus3
        </text>
        <g style="fill:rgb(255,255,255);clip-path:url(#clip10);">
          <path d="M 536.42857142857144 -443.42857142857144 L 536.42857142857144 -450.57142857142856 L 543.57142857142856 -450.57142857142856 L 543.57142857142856 -443.42857142857144 Z" style="stroke:none;"/>
        </g>
        <g>
          <path d="M 536.42857142857144 -447 L 540 -450.57142857142856 L 543.57142857142856 -447 L 540 -443.42857142857144 Z"/>
          <g style="fill:rgb(255,255,255);clip-path:url(#clip11);">
            <path d="M 535 -421 L 535 -438 L 561.00800000000004 -438 L 561.00800000000004 -421 Z" style="stroke:none;"/>
          </g>
          <text style="font-size:12;stroke:none;fill:rgb(0,0,0);" x="540.0" y="-426.0">
            dia
          </text>
          <g style="fill:rgb(255,255,255);clip-path:url(#clip12);">
            <path d="M 607.85714285714289 -443.85714285714289 L 607.85714285714289 -448.14285714285711 L 612.14285714285711 -448.14285714285711 L 612.14285714285711 -443.85714285714289 Z" style="stroke:none;"/>
          </g>
          <g>
            <path d="M 607.85714285714289 -446 L 610 -448.14285714285711 L 612.14285714285711 -446 L 610 -443.85714285714289 Z"/>
            <g style="fill:rgb(255,255,255);clip-path:url(#clip13);">
              <path d="M 605 -421 L 605 -438 L 637.68000000000006 -438 L 637.68000000000006 -421 Z" style="stroke:none;"/>
            </g>
            <text style="font-size:12;stroke:none;fill:rgb(0,0,0);" x="610.0" y="-426.0">
              dia3
            </text>
            <g style="fill:rgb(255,255,255);clip-path:url(#clip14);">
              <path d="M 676.875 -444.5 L 676.875 -449.5 L 683.125 -449.5 L 683.125 -444.5 Z" style="stroke:none;"/>
            </g>
            <g>
              <path d="M 676.875 -444.5 L 683.125 -444.5 L 680 -449.5 Z"/>
              <g style="fill:rgb(255,255,255);clip-path:url(#clip15);">
                <path d="M 675 -421 L 675 -438 L 694.99599999999998 -438 L 694.99599999999998 -421 Z" style="stroke:none;"/>
              </g>
              <text style="font-size:12;stroke:none;fill:rgb(0,0,0);" x="680.0" y="-426.0">
                tri
              </text>
              <g style="fill:rgb(255,255,255);clip-path:url(#clip16);">
                <path d="M 748.125 -444.5 L 748.125 -447.5 L 751.875 -447.5 L 751.875 -444.5 Z" style="stroke:none;"/>
              </g>
              <g>
                <path d="M 748.125 -444.5 L 751.875 -444.5 L 750 -447.5 Z"/>
                <g style="fill:rgb(255,255,255);clip-path:url(#clip17);">
                  <path d="M 745 -421 L 745 -438 L 771.66800000000001 -438 L 771.66800000000001 -421 Z" style="stroke:none;"/>
                </g>
                <text style="font-size:12;stroke:none;fill:rgb(0,0,0);" x="750.0" y="-426.0">
                  tri3
                </text>
                <g style="fill:rgb(255,255,255);clip-path:url(#clip18);">
                  <path d="M 396.875 -489.5 L 396.875 -494.5 L 403.125 -494.5 L 403.125 -489.5 Z" style="stroke:none;"/>
                </g>
                <g>
                  <path d="M 400 -489.5 L 396.875 -494.5 L 403.125 -494.5 Z"/>
                  <g style="fill:rgb(255,255,255);clip-path:url(#clip19);">
                    <path d="M 395 -466 L 395 -483 L 421.66800000000001 -483 L 421.66800000000001 -466 Z" style="stroke:none;"/>
                  </g>
                  <text style="font-size:12;stroke:none;fill:rgb(0,0,0);" x="400.0" y="-471.0">
                    dtri
                  </text>
                  <g style="fill:rgb(255,255,255);clip-path:url(#clip20);">
                    <path d="M 468.125 -489.5 L 468.125 -492.5 L 471.875 -492.5 L 471.875 -489.5 Z" style="stroke:none;"/>
                  </g>
                  <g>
                    <path d="M 470 -489.5 L 468.125 -492.5 L 471.875 -492.5 Z"/>
                    <g style="fill:rgb(255,255,255);clip-path:url(#clip21);">
                      <path d="M 465 -466 L 465 -483 L 498.34000000000003 -483 L 498.34000000000003 -466 Z" style="stroke:none;"/>
                    </g>
                    <text style="font-size:12;stroke:none;fill:rgb(0,0,0);" x="470.0" y="-471.0">
                      dtri3
                    </text>
                    <g style="fill:rgb(255,255,255);clip-path:url(#clip22);">
                      <path d="M 539.0 -489.0 L 539.0 -491.0 L 541.0 -491.0 L 541.0 -489.0 Z" style="stroke:none;"/>
                    </g>
                    <g>
                      <path d="M 540 -490 M 540.5 -490.0 L 540.5 -490 M 540.5 -490 A 0.5 0.5 0 1 0 539.5 -490 A 0.5 0.5 0 1 0 540.5 -490 Z"/>
                      <g style="fill:rgb(255,255,255);clip-path:url(#clip23);">
                        <path d="M 535 -466 L 535 -483 L 579.66800000000001 -483 L 579.66800000000001 -466 Z" style="stroke:none;"/>
                      </g>
                      <text style="font-size:12;stroke:none;fill:rgb(0,0,0);" x="540.0" y="-471.0">
                        circle1
                      </text>
                      <g style="fill:rgb(255,255,255);clip-path:url(#clip24);">
                        <path d="M 607.0 -488.0 L 607.0 -494.0 L 613.0 -494.0 L 613.0 -488.0 Z" style="stroke:none;"/>
                      </g>
                      <g>
                        <path d="M 610 -491 M 611.5 -491.0 L 611.5 -491 M 611.5 -491 A 1.5 1.5 0 1 0 608.5 -491 A 1.5 1.5 0 1 0 611.5 -491 Z"/>
                        <g style="fill:rgb(255,255,255);clip-path:url(#clip25);">
                          <path d="M 605 -466 L 605 -483 L 649.66800000000001 -483 L 649.66800000000001 -466 Z" style="stroke:none;"/>
                        </g>
                        <text style="font-size:12;stroke:none;fill:rgb(0,0,0);" x="610.0" y="-471.0">
                          circle2
                        </text>
                        <g style="fill:rgb(255,255,255);clip-path:url(#clip26);">
                          <path d="M 675.0 -487.0 L 675.0 -497.0 L 685.0 -497.0 L 685.0 -487.0 Z" style="stroke:none;"/>
                        </g>
                        <g>
                          <path d="M 680 -492 M 682.5 -492.0 L 682.5 -492 M 682.5 -492 A 2.5 2.5 0 1 0 677.5 -492 A 2.5 2.5 0 1 0 682.5 -492 Z"/>
                          <g style="fill:rgb(255,255,255);clip-path:url(#clip27);">
                            <path d="M 675 -466 L 675 -483 L 719.66800000000001 -483 L 719.66800000000001 -466 Z" style="stroke:none;"/>
                          </g>
                          <text style="font-size:12;stroke:none;fill:rgb(0,0,0);" x="680.0" y="-471.0">
                            circle3
                          </text>
                          <g style="fill:rgb(0,0,0);clip-path:url(#clip28);">
                            <path d="M 747.5 -489.5 L 747.5 -494.5 L 752.5 -494.5 L 752.5 -489.5 Z" style="stroke:none;"/>
                          </g>
                          <g>
                            <path d="M 747.5 -489.5 L 747.5 -494.5 L 752.5 -494.5 L 752.5 -489.5 Z"/>
                            <g style="fill:rgb(255,255,255);clip-path:url(#clip29);">
                              <path d="M 745 -457 L 745 -486 L 791.68399999999997 -486 L 791.68399999999997 -457 Z" style="stroke:none;"/>
                            </g>
                            <text style="font-size:12;stroke:none;fill:rgb(0,0,0);" x="750.0" y="-474.0">
                              black-
                            </text>
                            <text style="font-size:12;stroke:none;fill:rgb(0,0,0);" x="750.0" y="-462.0">
                              square
                            </text>
                            <g style="fill:rgb(0,0,0);clip-path:url(#clip30);">
                              <path d="M 398.5 -534.5 L 398.5 -537.5 L 401.5 -537.5 L 401.5 -534.5 Z" style="stroke:none;"/>
                            </g>
                            <g>
                              <path d="M 398.5 -534.5 L 398.5 -537.5 L 401.5 -537.5 L 401.5 -534.5 Z"/>
                              <g style="fill:rgb(255,255,255);clip-path:url(#clip31);">
                                <path d="M 395 -502 L 395 -531 L 448.35599999999999 -531 L 448.35599999999999 -502 Z" style="stroke:none;"/>
                              </g>
                              <text style="font-size:12;stroke:none;fill:rgb(0,0,0);" x="400.0" y="-519.0">
                                black-
                              </text>
                              <text style="font-size:12;stroke:none;fill:rgb(0,0,0);" x="400.0" y="-507.0">
                                square3
                              </text>
                              <g style="fill:rgb(0,0,0);clip-path:url(#clip32);">
                                <path d="M 466.42857142857144 -533.42857142857144 L 466.42857142857144 -540.57142857142856 L 473.57142857142856 -540.57142857142856 L 473.57142857142856 -533.42857142857144 Z" style="stroke:none;"/>
                              </g>
                              <g>
                                <path d="M 466.42857142857144 -537 L 470 -540.57142857142856 L 473.57142857142856 -537 L 470 -533.42857142857144 Z"/>
                                <g style="fill:rgb(255,255,255);clip-path:url(#clip33);">
                                  <path d="M 465 -511 L 465 -528 L 519.01599999999996 -528 L 519.01599999999996 -511 Z" style="stroke:none;"/>
                                </g>
                                <text style="font-size:12;stroke:none;fill:rgb(0,0,0);" x="470.0" y="-516.0">
                                  blackdia
                                </text>
                                <g style="fill:rgb(0,0,0);clip-path:url(#clip34);">
                                  <path d="M 537.85714285714289 -533.85714285714289 L 537.85714285714289 -538.14285714285711 L 542.14285714285711 -538.14285714285711 L 542.14285714285711 -533.85714285714289 Z" style="stroke:none;"/>
                                </g>
                                <g>
                                  <path d="M 537.85714285714289 -536 L 540 -538.14285714285711 L 542.14285714285711 -536 L 540 -533.85714285714289 Z"/>
                                  <g style="fill:rgb(255,255,255);clip-path:url(#clip35);">
                                    <path d="M 535 -511 L 535 -528 L 595.68799999999999 -528 L 595.68799999999999 -511 Z" style="stroke:none;"/>
                                  </g>
                                  <text style="font-size:12;stroke:none;fill:rgb(0,0,0);" x="540.0" y="-516.0">
                                    blackdia3
                                  </text>
                                  <g style="fill:rgb(0,0,0);clip-path:url(#clip36);">
                                    <path d="M 606.875 -534.5 L 606.875 -539.5 L 613.125 -539.5 L 613.125 -534.5 Z" style="stroke:none;"/>
                                  </g>
                                  <g>
                                    <path d="M 606.875 -534.5 L 613.125 -534.5 L 610 -539.5 Z"/>
                                    <g style="fill:rgb(255,255,255);clip-path:url(#clip37);">
                                      <path d="M 605 -511 L 605 -528 L 653.00400000000002 -528 L 653.00400000000002 -511 Z" style="stroke:none;"/>
                                    </g>
                                    <text style="font-size:12;stroke:none;fill:rgb(0,0,0);" x="610.0" y="-516.0">
                                      blacktri
                                    </text>
                                    <g style="fill:rgb(0,0,0);clip-path:url(#clip38);">
                                      <path d="M 678.125 -534.5 L 678.125 -537.5 L 681.875 -537.5 L 681.875 -534.5 Z" style="stroke:none;"/>
                                    </g>
                                    <g>
                                      <path d="M 678.125 -534.5 L 681.875 -534.5 L 680 -537.5 Z"/>
                                      <g style="fill:rgb(255,255,255);clip-path:url(#clip39);">
                                        <path d="M 675 -511 L 675 -528 L 729.67599999999993 -528 L 729.67599999999993 -511 Z" style="stroke:none;"/>
                                      </g>
                                      <text style="font-size:12;stroke:none;fill:rgb(0,0,0);" x="680.0" y="-516.0">
                                        blacktri3
                                      </text>
                                      <g style="fill:rgb(0,0,0);clip-path:url(#clip40);">
                                        <path d="M 746.875 -534.5 L 746.875 -539.5 L 753.125 -539.5 L 753.125 -534.5 Z" style="stroke:none;"/>
                                      </g>
                                      <g>
                                        <path d="M 750 -534.5 L 746.875 -539.5 L 753.125 -539.5 Z"/>
                                        <g style="fill:rgb(255,255,255);clip-path:url(#clip41);">
                                          <path d="M 745 -511 L 745 -528 L 799.67599999999993 -528 L 799.67599999999993 -511 Z" style="stroke:none;"/>
                                        </g>
                                        <text style="font-size:12;stroke:none;fill:rgb(0,0,0);" x="750.0" y="-516.0">
                                          blackdtri
                                        </text>
                                        <g style="fill:rgb(0,0,0);clip-path:url(#clip42);">
                                          <path d="M 398.125 -579.5 L 398.125 -582.5 L 401.875 -582.5 L 401.875 -579.5 Z" style="stroke:none;"/>
                                        </g>
                                        <g>
                                          <path d="M 400 -579.5 L 398.125 -582.5 L 401.875 -582.5 Z"/>
                                          <g style="fill:rgb(255,255,255);clip-path:url(#clip43);">
                                            <path d="M 395 -547 L 395 -576 L 437.00400000000002 -576 L 437.00400000000002 -547 Z" style="stroke:none;"/>
                                          </g>
                                          <text style="font-size:12;stroke:none;fill:rgb(0,0,0);" x="400.0" y="-564.0">
                                            black-
                                          </text>
                                          <text style="font-size:12;stroke:none;fill:rgb(0,0,0);" x="400.0" y="-552.0">
                                            dtri3
                                          </text>
                                          <g style="fill:rgb(0,0,0);clip-path:url(#clip44);">
                                            <path d="M 469.0 -579.0 L 469.0 -581.0 L 471.0 -581.0 L 471.0 -579.0 Z" style="stroke:none;"/>
                                          </g>
                                          <g>
                                            <path d="M 470 -580 M 470.5 -580.0 L 470.5 -580 M 470.5 -580 A 0.5 0.5 0 1 0 469.5 -580 A 0.5 0.5 0 1 0 470.5 -580 Z"/>
                                            <g style="fill:rgb(255,255,255);clip-path:url(#clip45);">
                                              <path d="M 465 -547 L 465 -576 L 509.66800000000001 -576 L 509.66800000000001 -547 Z" style="stroke:none;"/>
                                            </g>
                                            <text style="font-size:12;stroke:none;fill:rgb(0,0,0);" x="470.0" y="-564.0">
                                              black-
                                            </text>
                                            <text style="font-size:12;stroke:none;fill:rgb(0,0,0);" x="470.0" y="-552.0">
                                              circle1
                                            </text>
                                            <g style="fill:rgb(0,0,0);clip-path:url(#clip46);">
                                              <path d="M 537.0 -578.0 L 537.0 -584.0 L 543.0 -584.0 L 543.0 -578.0 Z" style="stroke:none;"/>
                                            </g>
                                            <g>
                                              <path d="M 540 -581 M 541.5 -581.0 L 541.5 -581 M 541.5 -581 A 1.5 1.5 0 1 0 538.5 -581 A 1.5 1.5 0 1 0 541.5 -581 Z"/>
                                              <g style="fill:rgb(255,255,255);clip-path:url(#clip47);">
                                                <path d="M 535 -547 L 535 -576 L 579.66800000000001 -576 L 579.66800000000001 -547 Z" style="stroke:none;"/>
                                              </g>
                                              <text style="font-size:12;stroke:none;fill:rgb(0,0,0);" x="540.0" y="-564.0">
                                                black-
                                              </text>
                                              <text style="font-size:12;stroke:none;fill:rgb(0,0,0);" x="540.0" y="-552.0">
                                                circle3
                                              </text>
                                              <g style="fill:rgb(179,179,179);clip-path:url(#clip48);">
                                                <path d="M 607.5 -579.5 L 607.5 -584.5 L 612.5 -584.5 L 612.5 -579.5 Z" style="stroke:none;"/>
                                              </g>
                                              <g>
                                                <path d="M 607.5 -579.5 L 607.5 -584.5 L 612.5 -584.5 L 612.5 -579.5 Z"/>
                                                <g style="fill:rgb(255,255,255);clip-path:url(#clip49);">
                                                  <path d="M 605 -547 L 605 -576 L 655.68000000000006 -576 L 655.68000000000006 -547 Z" style="stroke:none;"/>
                                                </g>
                                                <text style="font-size:12;stroke:none;fill:rgb(0,0,0);" x="610.0" y="-564.0">
                                                  gray70-
                                                </text>
                                                <text style="font-size:12;stroke:none;fill:rgb(0,0,0);" x="610.0" y="-552.0">
                                                  square
                                                </text>
                                                <g style="fill:rgb(179,179,179);clip-path:url(#clip50);">
                                                  <path d="M 678.5 -579.5 L 678.5 -582.5 L 681.5 -582.5 L 681.5 -579.5 Z" style="stroke:none;"/>
                                                </g>
                                                <g>
                                                  <path d="M 678.5 -579.5 L 678.5 -582.5 L 681.5 -582.5 L 681.5 -579.5 Z"/>
                                                  <g style="fill:rgb(255,255,255);clip-path:url(#clip51);">
                                                    <path d="M 675 -547 L 675 -576 L 728.35599999999999 -576 L 728.35599999999999 -547 Z" style="stroke:none;"/>
                                                  </g>
                                                  <text style="font-size:12;stroke:none;fill:rgb(0,0,0);" x="680.0" y="-564.0">
                                                    gray70-
                                                  </text>
                                                  <text style="font-size:12;stroke:none;fill:rgb(0,0,0);" x="680.0" y="-552.0">
                                                    square3
                                                  </text>
                                                  <g style="fill:rgb(179,179,179);clip-path:url(#clip52);">
                                                    <path d="M 746.42857142857144 -578.42857142857144 L 746.42857142857144 -585.57142857142856 L 753.57142857142856 -585.57142857142856 L 753.57142857142856 -578.42857142857144 Z" style="stroke:none;"/>
                                                  </g>
                                                  <g>
                                                    <path d="M 746.42857142857144 -582 L 750 -585.57142857142856 L 753.57142857142856 -582 L 750 -578.42857142857144 Z"/>
                                                    <g style="fill:rgb(255,255,255);clip-path:url(#clip53);">
                                                      <path d="M 745 -556 L 745 -573 L 807.69200000000001 -573 L 807.69200000000001 -556 Z" style="stroke:none;"/>
                                                    </g>
                                                    <text style="font-size:12;stroke:none;fill:rgb(0,0,0);" x="750.0" y="-561.0">
                                                      gray70dia
                                                    </text>
                                                    <g style="fill:rgb(179,179,179);clip-path:url(#clip54);">
                                                      <path d="M 397.85714285714289 -623.85714285714289 L 397.85714285714289 -628.14285714285711 L 402.14285714285711 -628.14285714285711 L 402.14285714285711 -623.85714285714289 Z" style="stroke:none;"/>
                                                    </g>
                                                    <g>
                                                      <path d="M 397.85714285714289 -626 L 400 -628.14285714285711 L 402.14285714285711 -626 L 400 -623.85714285714289 Z"/>
                                                      <g style="fill:rgb(255,255,255);clip-path:url(#clip55);">
                                                        <path d="M 395 -592 L 395 -621 L 445.68000000000001 -621 L 445.68000000000001 -592 Z" style="stroke:none;"/>
                                                      </g>
                                                      <text style="font-size:12;stroke:none;fill:rgb(0,0,0);" x="400.0" y="-609.0">
                                                        gray70-
                                                      </text>
                                                      <text style="font-size:12;stroke:none;fill:rgb(0,0,0);" x="400.0" y="-597.0">
                                                        dia3
                                                      </text>
                                                      <g style="fill:rgb(179,179,179);clip-path:url(#clip56);">
                                                        <path d="M 466.875 -624.5 L 466.875 -629.5 L 473.125 -629.5 L 473.125 -624.5 Z" style="stroke:none;"/>
                                                      </g>
                                                      <g>
                                                        <path d="M 466.875 -624.5 L 473.125 -624.5 L 470 -629.5 Z"/>
                                                        <g style="fill:rgb(255,255,255);clip-path:url(#clip57);">
                                                          <path d="M 465 -601 L 465 -618 L 521.68000000000006 -618 L 521.68000000000006 -601 Z" style="stroke:none;"/>
                                                        </g>
                                                        <text style="font-size:12;stroke:none;fill:rgb(0,0,0);" x="470.0" y="-606.0">
                                                          gray70tri
                                                        </text>
                                                        <g style="fill:rgb(179,179,179);clip-path:url(#clip58);">
                                                          <path d="M 538.125 -624.5 L 538.125 -627.5 L 541.875 -627.5 L 541.875 -624.5 Z" style="stroke:none;"/>
                                                        </g>
                                                        <g>
                                                          <path d="M 538.125 -624.5 L 541.875 -624.5 L 540 -627.5 Z"/>
                                                          <g style="fill:rgb(255,255,255);clip-path:url(#clip59);">
                                                            <path d="M 535 -592 L 535 -621 L 585.68000000000006 -621 L 585.68000000000006 -592 Z" style="stroke:none;"/>
                                                          </g>
                                                          <text style="font-size:12;stroke:none;fill:rgb(0,0,0);" x="540.0" y="-609.0">
                                                            gray70-
                                                          </text>
                                                          <text style="font-size:12;stroke:none;fill:rgb(0,0,0);" x="540.0" y="-597.0">
                                                            tri3
                                                          </text>
                                                          <g style="fill:rgb(179,179,179);clip-path:url(#clip60);">
                                                            <path d="M 606.875 -624.5 L 606.875 -629.5 L 613.125 -629.5 L 613.125 -624.5 Z" style="stroke:none;"/>
                                                          </g>
                                                          <g>
                                                            <path d="M 610 -624.5 L 606.875 -629.5 L 613.125 -629.5 Z"/>
                                                            <g style="fill:rgb(255,255,255);clip-path:url(#clip61);">
                                                              <path d="M 605 -592 L 605 -621 L 655.68000000000006 -621 L 655.68000000000006 -592 Z" style="stroke:none;"/>
                                                            </g>
                                                            <text style="font-size:12;stroke:none;fill:rgb(0,0,0);" x="610.0" y="-609.0">
                                                              gray70-
                                                            </text>
                                                            <text style="font-size:12;stroke:none;fill:rgb(0,0,0);" x="610.0" y="-597.0">
                                                              dtri
                                                            </text>
                                                            <g style="fill:rgb(179,179,179);clip-path:url(#clip62);">
                                                              <path d="M 678.125 -624.5 L 678.125 -627.5 L 681.875 -627.5 L 681.875 -624.5 Z" style="stroke:none;"/>
                                                            </g>
                                                            <g>
                                                              <path d="M 680 -624.5 L 678.125 -627.5 L 681.875 -627.5 Z"/>
                                                              <g style="fill:rgb(255,255,255);clip-path:url(#clip63);">
                                                                <path d="M 675 -592 L 675 -621 L 725.68000000000006 -621 L 725.68000000000006 -592 Z" style="stroke:none;"/>
                                                              </g>
                                                              <text style="font-size:12;stroke:none;fill:rgb(0,0,0);" x="680.0" y="-609.0">
                                                                gray70-
                                                              </text>
                                                              <text style="font-size:12;stroke:none;fill:rgb(0,0,0);" x="680.0" y="-597.0">
                                                                dtri3
                                                              </text>
                                                              <g style="fill:rgb(179,179,179);clip-path:url(#clip64);">
                                                                <path d="M 749.0 -624.0 L 749.0 -626.0 L 751.0 -626.0 L 751.0 -624.0 Z" style="stroke:none;"/>
                                                              </g>
                                                              <g>
                                                                <path d="M 750 -625 M 750.5 -625.0 L 750.5 -625 M 750.5 -625 A 0.5 0.5 0 1 0 749.5 -625 A 0.5 0.5 0 1 0 750.5 -625 Z"/>
                                                                <g style="fill:rgb(255,255,255);clip-path:url(#clip65);">
                                                                  <path d="M 745 -592 L 745 -621 L 795.68000000000006 -621 L 795.68000000000006 -592 Z" style="stroke:none;"/>
                                                                </g>
                                                                <text style="font-size:12;stroke:none;fill:rgb(0,0,0);" x="750.0" y="-609.0">
                                                                  gray70-
                                                                </text>
                                                                <text style="font-size:12;stroke:none;fill:rgb(0,0,0);" x="750.0" y="-597.0">
                                                                  circle1
                                                                </text>
                                                                <g style="fill:rgb(179,179,179);clip-path:url(#clip66);">
                                                                  <path d="M 397.0 -668.0 L 397.0 -674.0 L 403.0 -674.0 L 403.0 -668.0 Z" style="stroke:none;"/>
                                                                </g>
                                                                <g>
                                                                  <path d="M 400 -671 M 401.5 -671.0 L 401.5 -671 M 401.5 -671 A 1.5 1.5 0 1 0 398.5 -671 A 1.5 1.5 0 1 0 401.5 -671 Z"/>
                                                                  <g style="fill:rgb(255,255,255);clip-path:url(#clip67);">
                                                                    <path d="M 395 -637 L 395 -666 L 445.68000000000001 -666 L 445.68000000000001 -637 Z" style="stroke:none;"/>
                                                                  </g>
                                                                  <text style="font-size:12;stroke:none;fill:rgb(0,0,0);" x="400.0" y="-654.0">
                                                                    gray70-
                                                                  </text>
                                                                  <text style="font-size:12;stroke:none;fill:rgb(0,0,0);" x="400.0" y="-642.0">
                                                                    circle3
                                                                  </text>
                                                                  <g style="fill:rgb(255,255,255);clip-path:url(#clip68);">
                                                                    <path d="M 465 -646 L 465 -663 L 511.024 -663 L 511.024 -646 Z" style="stroke:none;"/>
                                                                  </g>
                                                                  <text style="font-size:12;stroke:none;fill:rgb(0,0,0);" x="470.0" y="-651.0">
                                                                    default
                                                                  </text>
                                                                </g>
                                                              </g>
                                                            </g>
                                                          </g>
                                                        </g>
                                                      </g>
                                                    </g>
                                                  </g>
                                                </g>
                                              </g>
                                            </g>
                                          </g>
                                        </g>
                                      </g>
                                    </g>
                                  </g>
                                </g>
                              </g>
                            </g>
                          </g>
                        </g>
                      </g>
                    </g>
                  </g>
                </g>
              </g>
            </g>
          </g>
        </g>
      </g>
    </g>
  </g>
</svg>
