<?xml version="1.0" ?>
<!--Created by PyChart 1.39 Copyright 1999-2006 Yasushi Saito-->
<svg viewBox="207.978 -395.045 339.359 127.545" xmlns="http://www.w3.org/2000/svg" xmlns:xlink="http://www.w3.org/1999/xlink">
  <defs>
    <clipPath id="clip0">
      <path d="M 297 -297 L 297 -389.39999999999998 L 454.20000000000005 -389.39999999999998 L 454.20000000000005 -297 Z"/>
    </clipPath>
    <clipPath id="clip1">
      <path d="M 297 -297 L 297 -389.39999999999998 L 454.20000000000005 -389.39999999999998 L 454.20000000000005 -297 Z"/>
    </clipPath>
    <clipPath id="clip2">
      <path d="M 290 -290 L 290 -396.39999999999998 L 461.20000000000005 -396.39999999999998 L 461.20000000000005 -290 Z"/>
    </clipPath>
    <clipPath id="clip3">
      <path d="M 306.49714285714288 -310.42919319272727 L 308.63999999999999 -312.57205033558444 L 310.78285714285715 -310.42919319272727 L 308.63999999999999 -308.2863360498701 Z"/>
    </clipPath>
    <clipPath id="clip4">
      <path d="M 315.13714285714286 -317.85482399127272 L 317.27999999999997 -319.99768113412989 L 319.42285714285714 -317.85482399127272 L 317.27999999999997 -315.71196684841556 Z"/>
    </clipPath>
    <clipPath id="clip5">
      <path d="M 332.41714285714284 -331.03946840552726 L 334.56 -333.18232554838443 L 336.70285714285717 -331.03946840552726 L 334.56 -328.89661126267015 Z"/>
    </clipPath>
    <clipPath id="clip6">
      <path d="M 366.97714285714289 -348.62735262196361 L 369.12 -350.77020976482078 L 371.26285714285711 -348.62735262196361 L 369.12 -346.4844954791065 Z"/>
    </clipPath>
    <clipPath id="clip7">
      <path d="M 427.45714285714291 -376.01111936640001 L 429.60000000000002 -378.15397650925712 L 431.74285714285713 -376.01111936640001 L 429.60000000000002 -373.86826222354284 Z"/>
    </clipPath>
    <clipPath id="clip8">
      <path d="M 297 -297 L 297 -389.39999999999998 L 454.20000000000005 -389.39999999999998 L 454.20000000000005 -297 Z"/>
    </clipPath>
    <clipPath id="clip9">
      <path d="M 290 -290 L 290 -396.39999999999998 L 461.20000000000005 -396.39999999999998 L 461.20000000000005 -290 Z"/>
    </clipPath>
    <clipPath id="clip10">
      <path d="M 461.32000000000005 -297 L 461.32000000000005 -318 L 544.33699999999999 -318 L 544.33699999999999 -297 Z"/>
    </clipPath>
    <clipPath id="clip11">
      <path d="M 468.67714285714288 -312.0 L 470.82000000000005 -314.14285714285717 L 472.96285714285716 -312.0 L 470.82000000000005 -309.85714285714283 Z"/>
    </clipPath>
  </defs>
  <g style="stroke-linejoin:miter;font-size:9;font-family:Helvetica;fill:none;stroke-linecap:butt;stroke:rgb(0,0,0);font-stretch:normal;stroke-dasharray:none;font-weight:normal;font-style:normal;stroke-width:0.4;">
    <path d="M 300 -300 L 451.20000000000005 -300"/>
    <path d="M 300 -300 L 451.20000000000005 -300"/>
    <path d="M 300.0 -300 L 300.0 -294"/>
    <text style="stroke:none;fill:rgb(0,0,0);" x="293.745" y="-285.0">
      0.0
    </text>
    <path d="M 343.19999999999999 -300 L 343.19999999999999 -294"/>
    <text style="stroke:none;fill:rgb(0,0,0);" x="334.44299999999998" y="-285.0">
      10.0
    </text>
    <path d="M 386.40000000000003 -300 L 386.40000000000003 -294"/>
    <text style="stroke:none;fill:rgb(0,0,0);" x="377.64300000000003" y="-285.0">
      20.0
    </text>
    <path d="M 429.60000000000002 -300 L 429.60000000000002 -294"/>
    <text style="stroke:none;fill:rgb(0,0,0);" x="420.84300000000002" y="-285.0">
      30.0
    </text>
    <text style="stroke:none;font-weight:bold;fill:rgb(0,0,0);" x="350.3415" y="-270.5">
      Cluster size
    </text>
    <path d="M 300 -315.70909090909089 L 451.20000000000005 -315.70909090909089" style="stroke:rgb(179,179,179);stroke-dasharray:1,1;"/>
    <path d="M 300 -331.41818181818184 L 451.20000000000005 -331.41818181818184" style="stroke:rgb(179,179,179);stroke-dasharray:1,1;"/>
    <path d="M 300 -347.12727272727273 L 451.20000000000005 -347.12727272727273" style="stroke:rgb(179,179,179);stroke-dasharray:1,1;"/>
    <path d="M 300 -362.83636363636361 L 451.20000000000005 -362.83636363636361" style="stroke:rgb(179,179,179);stroke-dasharray:1,1;"/>
    <path d="M 300 -378.5454545454545 L 451.20000000000005 -378.5454545454545" style="stroke:rgb(179,179,179);stroke-dasharray:1,1;"/>
    <path d="M 300 -300 L 300 -386.39999999999998"/>
    <path d="M 300 -300.0 L 294 -300.0"/>
    <text style="stroke:none;fill:rgb(0,0,0);" x="281.49000000000001" y="-295.5">
      0.0
    </text>
    <path d="M 300 -315.70909090909089 L 294 -315.70909090909089"/>
    <text style="stroke:none;fill:rgb(0,0,0);" x="266.47800000000001" y="-311.20909090909089">
      1000.0
    </text>
    <path d="M 300 -331.41818181818184 L 294 -331.41818181818184"/>
    <text style="stroke:none;fill:rgb(0,0,0);" x="266.47800000000001" y="-326.91818181818184">
      2000.0
    </text>
    <path d="M 300 -347.12727272727273 L 294 -347.12727272727273"/>
    <text style="stroke:none;fill:rgb(0,0,0);" x="266.47800000000001" y="-342.62727272727273">
      3000.0
    </text>
    <path d="M 300 -362.83636363636361 L 294 -362.83636363636361"/>
    <text style="stroke:none;fill:rgb(0,0,0);" x="266.47800000000001" y="-358.33636363636361">
      4000.0
    </text>
    <path d="M 300 -378.5454545454545 L 294 -378.5454545454545"/>
    <text style="stroke:none;fill:rgb(0,0,0);" x="266.47800000000001" y="-374.0454545454545">
      5000.0
    </text>
    <text style="stroke:none;font-weight:bold;fill:rgb(0,0,0);" transform="rotate(-90,219.978,-304.685)" x="219.97800000000001" y="-304.68450000000001">
      Messages/second
    </text>
    <g style="clip-path:url(#clip0);">
      <g style="clip-path:url(#clip1);">
        <path d="M 308.63999999999999 -310.42919319272727 L 317.27999999999997 -317.85482399127272 L 334.56 -331.03946840552726 L 369.12 -348.62735262196361 L 429.60000000000002 -376.01111936640001" style="stroke-width:1.2;"/>
      </g>
      <g style="clip-path:url(#clip2);">
        <g style="fill:rgb(255,255,255);clip-path:url(#clip3);">
          <path d="M 306.49714285714288 -308.2863360498701 L 306.49714285714288 -312.57205033558444 L 310.78285714285715 -312.57205033558444 L 310.78285714285715 -308.2863360498701 Z" style="stroke:none;"/>
        </g>
        <g>
          <path d="M 306.49714285714288 -310.42919319272727 L 308.63999999999999 -312.57205033558444 L 310.78285714285715 -310.42919319272727 L 308.63999999999999 -308.2863360498701 Z"/>
          <g style="fill:rgb(255,255,255);clip-path:url(#clip4);">
            <path d="M 315.13714285714286 -315.71196684841556 L 315.13714285714286 -319.99768113412989 L 319.42285714285714 -319.99768113412989 L 319.42285714285714 -315.71196684841556 Z" style="stroke:none;"/>
          </g>
          <g>
            <path d="M 315.13714285714286 -317.85482399127272 L 317.27999999999997 -319.99768113412989 L 319.42285714285714 -317.85482399127272 L 317.27999999999997 -315.71196684841556 Z"/>
            <g style="fill:rgb(255,255,255);clip-path:url(#clip5);">
              <path d="M 332.41714285714284 -328.89661126267015 L 332.41714285714284 -333.18232554838443 L 336.70285714285717 -333.18232554838443 L 336.70285714285717 -328.89661126267015 Z" style="stroke:none;"/>
            </g>
            <g>
              <path d="M 332.41714285714284 -331.03946840552726 L 334.56 -333.18232554838443 L 336.70285714285717 -331.03946840552726 L 334.56 -328.89661126267015 Z"/>
              <g style="fill:rgb(255,255,255);clip-path:url(#clip6);">
                <path d="M 366.97714285714289 -346.4844954791065 L 366.97714285714289 -350.77020976482078 L 371.26285714285711 -350.77020976482078 L 371.26285714285711 -346.4844954791065 Z" style="stroke:none;"/>
              </g>
              <g>
                <path d="M 366.97714285714289 -348.62735262196361 L 369.12 -350.77020976482078 L 371.26285714285711 -348.62735262196361 L 369.12 -346.4844954791065 Z"/>
                <g style="fill:rgb(255,255,255);clip-path:url(#clip7);">
                  <path d="M 427.45714285714291 -373.86826222354284 L 427.45714285714291 -378.15397650925712 L 431.74285714285713 -378.15397650925712 L 431.74285714285713 -373.86826222354284 Z" style="stroke:none;"/>
                </g>
                <g>
                  <path d="M 427.45714285714291 -376.01111936640001 L 429.60000000000002 -378.15397650925712 L 431.74285714285713 -376.01111936640001 L 429.60000000000002 -373.86826222354284 Z"/>
                </g>
              </g>
            </g>
          </g>
        </g>
      </g>
      <g style="clip-path:url(#clip8);">
        <path d="M 308.63999999999999 -307.32315830766544 L 317.27999999999997 -312.06040047133092 L 334.56 -324.54237022254546 L 369.12 -337.71849418298183 L 429.60000000000002 -360.26098385454543" style="stroke-width:1.2;stroke-dasharray:1.5,1.5;"/>
      </g>
      <g style="clip-path:url(#clip9);">
        <path d="M 306.83999999999997 -305.52315830766543 L 310.44 -309.12315830766545" style="stroke-width:1;"/>
        <path d="M 310.44 -305.52315830766543 L 306.83999999999997 -309.12315830766545" style="stroke-width:1;"/>
        <path d="M 315.48000000000002 -310.26040047133091 L 319.07999999999998 -313.86040047133093" style="stroke-width:1;"/>
        <path d="M 319.07999999999998 -310.26040047133091 L 315.48000000000002 -313.86040047133093" style="stroke-width:1;"/>
        <path d="M 332.75999999999999 -322.74237022254545 L 336.36000000000001 -326.34237022254547" style="stroke-width:1;"/>
        <path d="M 336.36000000000001 -322.74237022254545 L 332.75999999999999 -326.34237022254547" style="stroke-width:1;"/>
        <path d="M 367.31999999999999 -335.91849418298182 L 370.92000000000002 -339.51849418298184" style="stroke-width:1;"/>
        <path d="M 370.92000000000002 -335.91849418298182 L 367.31999999999999 -339.51849418298184" style="stroke-width:1;"/>
        <path d="M 427.80000000000001 -358.46098385454547 L 431.40000000000003 -362.06098385454544" style="stroke-width:1;"/>
        <path d="M 431.40000000000003 -358.46098385454547 L 427.80000000000001 -362.06098385454544" style="stroke-width:1;"/>
      </g>
    </g>
    <g style="fill:rgb(255,255,255);clip-path:url(#clip10);">
      <path d="M 461.32000000000005 -297 L 461.32000000000005 -318 L 544.33699999999999 -318 L 544.33699999999999 -297 Z" style="stroke:none;"/>
    </g>
    <g>
      <path d="M 461.32000000000005 -297 L 461.32000000000005 -318 L 544.33699999999999 -318 L 544.33699999999999 -297 Z"/>
      <path d="M 466.32000000000005 -312.0 L 475.32000000000005 -312.0" style="stroke-width:1.2;"/>
      <g style="fill:rgb(255,255,255);clip-path:url(#clip11);">
        <path d="M 468.67714285714288 -309.85714285714283 L 468.67714285714288 -314.14285714285717 L 472.96285714285716 -314.14285714285717 L 472.96285714285716 -309.85714285714283 Z" style="stroke:none;"/>
      </g>
      <g>
        <path d="M 468.67714285714288 -312.0 L 470.82000000000005 -314.14285714285717 L 472.96285714285716 -312.0 L 470.82000000000005 -309.85714285714283 Z"/>
        <text style="stroke:none;fill:rgb(0,0,0);" x="475.32000000000005" y="-309.0">
          No replication
        </text>
        <path d="M 466.32000000000005 -303.0 L 475.32000000000005 -303.0" style="stroke-width:1.2;stroke-dasharray:1.5,1.5;"/>
        <path d="M 469.01999999999998 -301.19999999999999 L 472.62 -304.80000000000001" style="stroke-width:1;"/>
        <path d="M 472.62 -301.19999999999999 L 469.01999999999998 -304.80000000000001" style="stroke-width:1;"/>
        <text style="stroke:none;fill:rgb(0,0,0);" x="475.32000000000005" y="-300.0">
          With replication
        </text>
      </g>
    </g>
  </g>
</svg>
