<?xml version="1.0" ?>
<!--Created by PyChart 1.38 Copyright 1999-2005 Yasushi Saito-->
<svg viewBox="217.484 -402.9 412.318 150.9" xmlns="http://www.w3.org/2000/svg" xmlns:xlink="http://www.w3.org/1999/xlink">
  <defs>
    <clipPath id="clip0">
      <path d="M 297 -297 L 297 -389.39999999999998 L 425.39999999999998 -389.39999999999998 L 425.39999999999998 -297 Z"/>
    </clipPath>
    <clipPath id="clip1">
      <path d="M 297 -297 L 297 -389.39999999999998 L 425.39999999999998 -389.39999999999998 L 425.39999999999998 -297 Z"/>
    </clipPath>
    <clipPath id="clip2">
      <path d="M 290 -290 L 290 -396.39999999999998 L 432.39999999999998 -396.39999999999998 L 432.39999999999998 -290 Z"/>
    </clipPath>
    <clipPath id="clip3">
      <path d="M 313.15714285714284 -367.22435139263996 L 315.30000000000001 -369.36720853549713 L 317.44285714285712 -367.22435139263996 L 315.30000000000001 -365.08149424978285 Z"/>
    </clipPath>
    <clipPath id="clip4">
      <path d="M 343.75714285714287 -370.15868154143999 L 345.89999999999998 -372.30153868429716 L 348.04285714285714 -370.15868154143999 L 345.89999999999998 -368.01582439858282 Z"/>
    </clipPath>
    <clipPath id="clip5">
      <path d="M 374.35714285714289 -367.75520683392 L 376.5 -369.89806397677711 L 378.64285714285711 -367.75520683392 L 376.5 -365.61234969106283 Z"/>
    </clipPath>
    <clipPath id="clip6">
      <path d="M 404.95714285714286 -367.39372800000001 L 407.10000000000002 -369.53658514285712 L 409.24285714285713 -367.39372800000001 L 407.10000000000002 -365.25087085714284 Z"/>
    </clipPath>
    <clipPath id="clip7">
      <path d="M 297 -297 L 297 -389.39999999999998 L 425.39999999999998 -389.39999999999998 L 425.39999999999998 -297 Z"/>
    </clipPath>
    <clipPath id="clip8">
      <path d="M 290 -290 L 290 -396.39999999999998 L 432.39999999999998 -396.39999999999998 L 432.39999999999998 -290 Z"/>
    </clipPath>
    <clipPath id="clip9">
      <path d="M 315.30000000000001 -366.92398215456001 L 313.42500000000001 -369.92398215456001 L 317.17500000000001 -369.92398215456001 Z"/>
    </clipPath>
    <clipPath id="clip10">
      <path d="M 345.89999999999998 -367.71294806591999 L 344.02499999999998 -370.71294806591999 L 347.77499999999998 -370.71294806591999 Z"/>
    </clipPath>
    <clipPath id="clip11">
      <path d="M 376.5 -364.98565034015996 L 374.625 -367.98565034015996 L 378.375 -367.98565034015996 Z"/>
    </clipPath>
    <clipPath id="clip12">
      <path d="M 407.10000000000002 -365.89459199999999 L 405.22500000000002 -368.89459199999999 L 408.97500000000002 -368.89459199999999 Z"/>
    </clipPath>
    <clipPath id="clip13">
      <path d="M 297 -297 L 297 -389.39999999999998 L 425.39999999999998 -389.39999999999998 L 425.39999999999998 -297 Z"/>
    </clipPath>
    <clipPath id="clip14">
      <path d="M 290 -290 L 290 -396.39999999999998 L 432.39999999999998 -396.39999999999998 L 432.39999999999998 -290 Z"/>
    </clipPath>
    <clipPath id="clip15">
      <path d="M 313.80000000000001 -358.05362711423999 L 313.80000000000001 -361.05362711423999 L 316.80000000000001 -361.05362711423999 L 316.80000000000001 -358.05362711423999 Z"/>
    </clipPath>
    <clipPath id="clip16">
      <path d="M 344.39999999999998 -358.20109000319997 L 344.39999999999998 -361.20109000319997 L 347.39999999999998 -361.20109000319997 L 347.39999999999998 -358.20109000319997 Z"/>
    </clipPath>
    <clipPath id="clip17">
      <path d="M 375.0 -357.53037928800001 L 375.0 -360.53037928800001 L 378.0 -360.53037928800001 L 378.0 -357.53037928800001 Z"/>
    </clipPath>
    <clipPath id="clip18">
      <path d="M 405.60000000000002 -358.53935999999999 L 405.60000000000002 -361.53935999999999 L 408.60000000000002 -361.53935999999999 L 408.60000000000002 -358.53935999999999 Z"/>
    </clipPath>
    <clipPath id="clip19">
      <path d="M 297 -297 L 297 -389.39999999999998 L 425.39999999999998 -389.39999999999998 L 425.39999999999998 -297 Z"/>
    </clipPath>
    <clipPath id="clip20">
      <path d="M 290 -290 L 290 -396.39999999999998 L 432.39999999999998 -396.39999999999998 L 432.39999999999998 -290 Z"/>
    </clipPath>
    <clipPath id="clip21">
      <path d="M 315.30000000000001 -359.89247999999998 M 316.80000000000001 -359.89247999999998 L 316.8 -359.892 M 316.8 -359.892 A 1.5 1.5 0 1 0 313.8 -359.892 A 1.5 1.5 0 1 0 316.8 -359.892 Z"/>
    </clipPath>
    <clipPath id="clip22">
      <path d="M 345.89999999999998 -360.93791999999996 M 347.39999999999998 -360.93791999999996 L 347.4 -360.938 M 347.4 -360.938 A 1.5 1.5 0 1 0 344.4 -360.938 A 1.5 1.5 0 1 0 347.4 -360.938 Z"/>
    </clipPath>
    <clipPath id="clip23">
      <path d="M 376.5 -361.36387200000001 M 378.0 -361.36387200000001 L 378 -361.364 M 378 -361.364 A 1.5 1.5 0 1 0 375 -361.364 A 1.5 1.5 0 1 0 378 -361.364 Z"/>
    </clipPath>
    <clipPath id="clip24">
      <path d="M 407.10000000000002 -361.86239999999998 M 408.60000000000002 -361.86239999999998 L 408.6 -361.862 M 408.6 -361.862 A 1.5 1.5 0 1 0 405.6 -361.862 A 1.5 1.5 0 1 0 408.6 -361.862 Z"/>
    </clipPath>
    <clipPath id="clip25">
      <path d="M 297 -297 L 297 -389.39999999999998 L 425.39999999999998 -389.39999999999998 L 425.39999999999998 -297 Z"/>
    </clipPath>
    <clipPath id="clip26">
      <path d="M 290 -290 L 290 -396.39999999999998 L 432.39999999999998 -396.39999999999998 L 432.39999999999998 -290 Z"/>
    </clipPath>
    <clipPath id="clip27">
      <path d="M 313.15714285714284 -365.06697600000001 L 315.30000000000001 -367.20983314285712 L 317.44285714285712 -365.06697600000001 L 315.30000000000001 -362.92411885714284 Z"/>
    </clipPath>
    <clipPath id="clip28">
      <path d="M 343.75714285714287 -340.05866887776 L 345.89999999999998 -342.20152602061717 L 348.04285714285714 -340.05866887776 L 345.89999999999998 -337.91581173490283 Z"/>
    </clipPath>
    <clipPath id="clip29">
      <path d="M 374.35714285714289 -323.74192600127998 L 376.5 -325.88478314413715 L 378.64285714285711 -323.74192600127998 L 376.5 -321.59906885842287 Z"/>
    </clipPath>
    <clipPath id="clip30">
      <path d="M 404.95714285714286 -307.76390400000003 L 407.10000000000002 -309.90676114285714 L 409.24285714285713 -307.76390400000003 L 407.10000000000002 -305.62104685714286 Z"/>
    </clipPath>
    <clipPath id="clip31">
      <path d="M 297 -297 L 297 -389.39999999999998 L 425.39999999999998 -389.39999999999998 L 425.39999999999998 -297 Z"/>
    </clipPath>
    <clipPath id="clip32">
      <path d="M 290 -290 L 290 -396.39999999999998 L 432.39999999999998 -396.39999999999998 L 432.39999999999998 -290 Z"/>
    </clipPath>
    <clipPath id="clip33">
      <path d="M 297 -297 L 297 -389.39999999999998 L 425.39999999999998 -389.39999999999998 L 425.39999999999998 -297 Z"/>
    </clipPath>
    <clipPath id="clip34">
      <path d="M 290 -290 L 290 -396.39999999999998 L 432.39999999999998 -396.39999999999998 L 432.39999999999998 -290 Z"/>
    </clipPath>
    <clipPath id="clip35">
      <path d="M 313.80000000000001 -362.00313599999998 L 313.80000000000001 -365.00313599999998 L 316.80000000000001 -365.00313599999998 L 316.80000000000001 -362.00313599999998 Z"/>
    </clipPath>
    <clipPath id="clip36">
      <path d="M 344.39999999999998 -331.63086500447997 L 344.39999999999998 -334.63086500447997 L 347.39999999999998 -334.63086500447997 L 347.39999999999998 -331.63086500447997 Z"/>
    </clipPath>
    <clipPath id="clip37">
      <path d="M 375.0 -315.00133682208002 L 375.0 -318.00133682208002 L 378.0 -318.00133682208002 L 378.0 -315.00133682208002 Z"/>
    </clipPath>
    <clipPath id="clip38">
      <path d="M 405.60000000000002 -300.778368 L 405.60000000000002 -303.778368 L 408.60000000000002 -303.778368 L 408.60000000000002 -300.778368 Z"/>
    </clipPath>
    <clipPath id="clip39">
      <path d="M 297 -297 L 297 -389.39999999999998 L 425.39999999999998 -389.39999999999998 L 425.39999999999998 -297 Z"/>
    </clipPath>
    <clipPath id="clip40">
      <path d="M 290 -290 L 290 -396.39999999999998 L 432.39999999999998 -396.39999999999998 L 432.39999999999998 -290 Z"/>
    </clipPath>
    <clipPath id="clip41">
      <path d="M 313.80000000000001 -323.54995200000002 L 313.80000000000001 -326.54995200000002 L 316.80000000000001 -326.54995200000002 L 316.80000000000001 -323.54995200000002 Z"/>
    </clipPath>
    <clipPath id="clip42">
      <path d="M 344.39999999999998 -311.309664 L 344.39999999999998 -314.309664 L 347.39999999999998 -314.309664 L 347.39999999999998 -311.309664 Z"/>
    </clipPath>
    <clipPath id="clip43">
      <path d="M 375.0 -304.99123200000002 L 375.0 -307.99123200000002 L 378.0 -307.99123200000002 L 378.0 -304.99123200000002 Z"/>
    </clipPath>
    <clipPath id="clip44">
      <path d="M 405.60000000000002 -299.54006993673602 L 405.60000000000002 -302.54006993673602 L 408.60000000000002 -302.54006993673602 L 408.60000000000002 -299.54006993673602 Z"/>
    </clipPath>
    <clipPath id="clip45">
      <path d="M 591.79999999999995 -295 L 591.79999999999995 -370 L 626.80199999999991 -370 L 626.80199999999991 -295 Z"/>
    </clipPath>
    <clipPath id="clip46">
      <path d="M 589.79999999999995 -297 L 589.79999999999995 -372 L 624.80199999999991 -372 L 624.80199999999991 -297 Z"/>
    </clipPath>
    <clipPath id="clip47">
      <path d="M 597.15714285714284 -366.0 L 599.29999999999995 -368.14285714285711 L 601.44285714285706 -366.0 L 599.29999999999995 -363.85714285714283 Z"/>
    </clipPath>
    <clipPath id="clip48">
      <path d="M 599.29999999999995 -355.5 L 597.42499999999995 -358.5 L 601.17499999999995 -358.5 Z"/>
    </clipPath>
    <clipPath id="clip49">
      <path d="M 597.79999999999995 -346.5 L 597.79999999999995 -349.5 L 600.79999999999995 -349.5 L 600.79999999999995 -346.5 Z"/>
    </clipPath>
    <clipPath id="clip50">
      <path d="M 599.29999999999995 -339.0 M 600.79999999999995 -339.0 L 600.8 -339 M 600.8 -339 A 1.5 1.5 0 1 0 597.8 -339 A 1.5 1.5 0 1 0 600.8 -339 Z"/>
    </clipPath>
    <clipPath id="clip51">
      <path d="M 597.15714285714284 -330.0 L 599.29999999999995 -332.14285714285717 L 601.44285714285706 -330.0 L 599.29999999999995 -327.85714285714283 Z"/>
    </clipPath>
    <clipPath id="clip52">
      <path d="M 597.79999999999995 -310.5 L 597.79999999999995 -313.5 L 600.79999999999995 -313.5 L 600.79999999999995 -310.5 Z"/>
    </clipPath>
    <clipPath id="clip53">
      <path d="M 597.79999999999995 -301.5 L 597.79999999999995 -304.5 L 600.79999999999995 -304.5 L 600.79999999999995 -301.5 Z"/>
    </clipPath>
    <clipPath id="clip54">
      <path d="M 356.19999999999999 -255 L 377.19799999999998 -255 L 377.198 -255 L 377.19799999999998 -269 L 377.198 -269 L 356.19999999999999 -269 L 356.2 -269 L 356.19999999999999 -255 L 356.2 -255 Z"/>
    </clipPath>
    <clipPath id="clip55">
      <path d="M 455.39999999999998 -297 L 455.39999999999998 -389.39999999999998 L 583.79999999999995 -389.39999999999998 L 583.79999999999995 -297 Z"/>
    </clipPath>
    <clipPath id="clip56">
      <path d="M 455.39999999999998 -297 L 455.39999999999998 -389.39999999999998 L 583.79999999999995 -389.39999999999998 L 583.79999999999995 -297 Z"/>
    </clipPath>
    <clipPath id="clip57">
      <path d="M 448.39999999999998 -290 L 448.39999999999998 -396.39999999999998 L 590.79999999999995 -396.39999999999998 L 590.79999999999995 -290 Z"/>
    </clipPath>
    <clipPath id="clip58">
      <path d="M 471.55714285714282 -380.64143999999999 L 473.69999999999999 -382.7842971428571 L 475.84285714285716 -380.64143999999999 L 473.69999999999999 -378.49858285714288 Z"/>
    </clipPath>
    <clipPath id="clip59">
      <path d="M 502.15714285714284 -376.27823585279998 L 504.29999999999995 -378.42109299565715 L 506.44285714285712 -376.27823585279998 L 504.29999999999995 -374.13537870994287 Z"/>
    </clipPath>
    <clipPath id="clip60">
      <path d="M 532.75714285714287 -375.96125518320002 L 534.89999999999998 -378.10411232605713 L 537.04285714285709 -375.96125518320002 L 534.89999999999998 -373.81839804034286 Z"/>
    </clipPath>
    <clipPath id="clip61">
      <path d="M 563.35714285714289 -376.31495999999999 L 565.5 -378.45781714285715 L 567.64285714285711 -376.31495999999999 L 565.5 -374.17210285714282 Z"/>
    </clipPath>
    <clipPath id="clip62">
      <path d="M 455.39999999999998 -297 L 455.39999999999998 -389.39999999999998 L 583.79999999999995 -389.39999999999998 L 583.79999999999995 -297 Z"/>
    </clipPath>
    <clipPath id="clip63">
      <path d="M 448.39999999999998 -290 L 448.39999999999998 -396.39999999999998 L 590.79999999999995 -396.39999999999998 L 590.79999999999995 -290 Z"/>
    </clipPath>
    <clipPath id="clip64">
      <path d="M 473.69999999999999 -376.80647999999997 L 471.82499999999999 -379.80647999999997 L 475.57499999999999 -379.80647999999997 Z"/>
    </clipPath>
    <clipPath id="clip65">
      <path d="M 504.29999999999995 -375.32499583200001 L 502.42499999999995 -378.32499583200001 L 506.17499999999995 -378.32499583200001 Z"/>
    </clipPath>
    <clipPath id="clip66">
      <path d="M 534.89999999999998 -373.17459050880001 L 533.02499999999998 -376.17459050880001 L 536.77499999999998 -376.17459050880001 Z"/>
    </clipPath>
    <clipPath id="clip67">
      <path d="M 565.5 -374.71127999999999 L 563.625 -377.71127999999999 L 567.375 -377.71127999999999 Z"/>
    </clipPath>
    <clipPath id="clip68">
      <path d="M 455.39999999999998 -297 L 455.39999999999998 -389.39999999999998 L 583.79999999999995 -389.39999999999998 L 583.79999999999995 -297 Z"/>
    </clipPath>
    <clipPath id="clip69">
      <path d="M 448.39999999999998 -290 L 448.39999999999998 -396.39999999999998 L 590.79999999999995 -396.39999999999998 L 590.79999999999995 -290 Z"/>
    </clipPath>
    <clipPath id="clip70">
      <path d="M 472.19999999999999 -369.32208000000003 L 472.19999999999999 -372.32208000000003 L 475.19999999999999 -372.32208000000003 L 475.19999999999999 -369.32208000000003 Z"/>
    </clipPath>
    <clipPath id="clip71">
      <path d="M 502.79999999999995 -369.82319999999999 L 502.79999999999995 -372.82319999999999 L 505.79999999999995 -372.82319999999999 L 505.79999999999995 -369.82319999999999 Z"/>
    </clipPath>
    <clipPath id="clip72">
      <path d="M 533.39999999999998 -368.89018594800001 L 533.39999999999998 -371.89018594800001 L 536.39999999999998 -371.89018594800001 L 536.39999999999998 -368.89018594800001 Z"/>
    </clipPath>
    <clipPath id="clip73">
      <path d="M 564.0 -368.27540879999998 L 564.0 -371.27540879999998 L 567.0 -371.27540879999998 L 567.0 -368.27540879999998 Z"/>
    </clipPath>
    <clipPath id="clip74">
      <path d="M 455.39999999999998 -297 L 455.39999999999998 -389.39999999999998 L 583.79999999999995 -389.39999999999998 L 583.79999999999995 -297 Z"/>
    </clipPath>
    <clipPath id="clip75">
      <path d="M 448.39999999999998 -290 L 448.39999999999998 -396.39999999999998 L 590.79999999999995 -396.39999999999998 L 590.79999999999995 -290 Z"/>
    </clipPath>
    <clipPath id="clip76">
      <path d="M 473.69999999999999 -370.20146065680001 M 475.19999999999999 -370.20146065680001 L 475.2 -370.201 M 475.2 -370.201 A 1.5 1.5 0 1 0 472.2 -370.201 A 1.5 1.5 0 1 0 475.2 -370.201 Z"/>
    </clipPath>
    <clipPath id="clip77">
      <path d="M 504.29999999999995 -368.251934124 M 505.79999999999995 -368.251934124 L 505.8 -368.252 M 505.8 -368.252 A 1.5 1.5 0 1 0 502.8 -368.252 A 1.5 1.5 0 1 0 505.8 -368.252 Z"/>
    </clipPath>
    <clipPath id="clip78">
      <path d="M 534.89999999999998 -368.76143999999999 M 536.39999999999998 -368.76143999999999 L 536.4 -368.761 M 536.4 -368.761 A 1.5 1.5 0 1 0 533.4 -368.761 A 1.5 1.5 0 1 0 536.4 -368.761 Z"/>
    </clipPath>
    <clipPath id="clip79">
      <path d="M 565.5 -369.96888000000001 M 567.0 -369.96888000000001 L 567 -369.969 M 567 -369.969 A 1.5 1.5 0 1 0 564 -369.969 A 1.5 1.5 0 1 0 567 -369.969 Z"/>
    </clipPath>
    <clipPath id="clip80">
      <path d="M 455.39999999999998 -297 L 455.39999999999998 -389.39999999999998 L 583.79999999999995 -389.39999999999998 L 583.79999999999995 -297 Z"/>
    </clipPath>
    <clipPath id="clip81">
      <path d="M 448.39999999999998 -290 L 448.39999999999998 -396.39999999999998 L 590.79999999999995 -396.39999999999998 L 590.79999999999995 -290 Z"/>
    </clipPath>
    <clipPath id="clip82">
      <path d="M 471.55714285714282 -378.45767999999998 L 473.69999999999999 -380.60053714285715 L 475.84285714285716 -378.45767999999998 L 473.69999999999999 -376.31482285714287 Z"/>
    </clipPath>
    <clipPath id="clip83">
      <path d="M 502.15714285714284 -341.55553787040003 L 504.29999999999995 -343.69839501325714 L 506.44285714285712 -341.55553787040003 L 504.29999999999995 -339.41268072754286 Z"/>
    </clipPath>
    <clipPath id="clip84">
      <path d="M 532.75714285714287 -329.86631999999997 L 534.89999999999998 -332.00917714285714 L 537.04285714285709 -329.86631999999997 L 534.89999999999998 -327.72346285714286 Z"/>
    </clipPath>
    <clipPath id="clip85">
      <path d="M 563.35714285714289 -316.72919999999999 L 565.5 -318.87205714285716 L 567.64285714285711 -316.72919999999999 L 565.5 -314.58634285714288 Z"/>
    </clipPath>
    <clipPath id="clip86">
      <path d="M 455.39999999999998 -297 L 455.39999999999998 -389.39999999999998 L 583.79999999999995 -389.39999999999998 L 583.79999999999995 -297 Z"/>
    </clipPath>
    <clipPath id="clip87">
      <path d="M 448.39999999999998 -290 L 448.39999999999998 -396.39999999999998 L 590.79999999999995 -396.39999999999998 L 590.79999999999995 -290 Z"/>
    </clipPath>
    <clipPath id="clip88">
      <path d="M 455.39999999999998 -297 L 455.39999999999998 -389.39999999999998 L 583.79999999999995 -389.39999999999998 L 583.79999999999995 -297 Z"/>
    </clipPath>
    <clipPath id="clip89">
      <path d="M 448.39999999999998 -290 L 448.39999999999998 -396.39999999999998 L 590.79999999999995 -396.39999999999998 L 590.79999999999995 -290 Z"/>
    </clipPath>
    <clipPath id="clip90">
      <path d="M 472.19999999999999 -368.24423999999999 L 472.19999999999999 -371.24423999999999 L 475.19999999999999 -371.24423999999999 L 475.19999999999999 -368.24423999999999 Z"/>
    </clipPath>
    <clipPath id="clip91">
      <path d="M 502.79999999999995 -334.14608983919999 L 502.79999999999995 -337.14608983919999 L 505.79999999999995 -337.14608983919999 L 505.79999999999995 -334.14608983919999 Z"/>
    </clipPath>
    <clipPath id="clip92">
      <path d="M 533.39999999999998 -315.52728000000002 L 533.39999999999998 -318.52728000000002 L 536.39999999999998 -318.52728000000002 L 536.39999999999998 -315.52728000000002 Z"/>
    </clipPath>
    <clipPath id="clip93">
      <path d="M 564.0 -302.89992000000001 L 564.0 -305.89992000000001 L 567.0 -305.89992000000001 L 567.0 -302.89992000000001 Z"/>
    </clipPath>
    <clipPath id="clip94">
      <path d="M 514.59999999999991 -255 L 535.59799999999996 -255 L 535.598 -255 L 535.59799999999996 -269 L 535.598 -269 L 514.59999999999991 -269 L 514.6 -269 L 514.59999999999991 -255 L 514.6 -255 Z"/>
    </clipPath>
  </defs>
  <g style="stroke-linejoin:miter;font-size:9;font-family:Helvetica;fill:none;stroke-linecap:butt;stroke:rgb(0,0,0);font-stretch:normal;stroke-dasharray:none;font-weight:normal;font-style:normal;stroke-width:0.4;">
    <path d="M 300 -300 L 422.39999999999998 -300"/>
    <path d="M 300 -300 L 422.39999999999998 -300"/>
    <path d="M 315.30000000000001 -300 L 315.30000000000001 -294"/>
    <text style="stroke:none;fill:rgb(0,0,0);" x="309.04500000000002" y="-285.0">
      0.0
    </text>
    <path d="M 345.89999999999998 -300 L 345.89999999999998 -294"/>
    <text style="stroke:none;fill:rgb(0,0,0);" x="337.14300000000003" y="-285.0">
      0.25
    </text>
    <path d="M 376.5 -300 L 376.5 -294"/>
    <text style="stroke:none;fill:rgb(0,0,0);" x="370.245" y="-285.0">
      0.5
    </text>
    <path d="M 407.10000000000002 -300 L 407.10000000000002 -294"/>
    <text style="stroke:none;fill:rgb(0,0,0);" x="400.84500000000003" y="-285.0">
      1.0
    </text>
    <text style="stroke:none;font-weight:bold;fill:rgb(0,0,0);" x="349.69349999999997" y="-270.5">
      Skew
    </text>
    <path d="M 300 -308.63999999999999 L 422.39999999999998 -308.63999999999999" style="stroke:rgb(179,179,179);stroke-dasharray:1,1;"/>
    <path d="M 300 -317.27999999999997 L 422.39999999999998 -317.27999999999997" style="stroke:rgb(179,179,179);stroke-dasharray:1,1;"/>
    <path d="M 300 -325.92000000000002 L 422.39999999999998 -325.92000000000002" style="stroke:rgb(179,179,179);stroke-dasharray:1,1;"/>
    <path d="M 300 -334.56 L 422.39999999999998 -334.56" style="stroke:rgb(179,179,179);stroke-dasharray:1,1;"/>
    <path d="M 300 -343.19999999999999 L 422.39999999999998 -343.19999999999999" style="stroke:rgb(179,179,179);stroke-dasharray:1,1;"/>
    <path d="M 300 -351.83999999999997 L 422.39999999999998 -351.83999999999997" style="stroke:rgb(179,179,179);stroke-dasharray:1,1;"/>
    <path d="M 300 -360.48000000000002 L 422.39999999999998 -360.48000000000002" style="stroke:rgb(179,179,179);stroke-dasharray:1,1;"/>
    <path d="M 300 -369.12 L 422.39999999999998 -369.12" style="stroke:rgb(179,179,179);stroke-dasharray:1,1;"/>
    <path d="M 300 -377.75999999999999 L 422.39999999999998 -377.75999999999999" style="stroke:rgb(179,179,179);stroke-dasharray:1,1;"/>
    <path d="M 300 -386.39999999999998 L 422.39999999999998 -386.39999999999998" style="stroke:rgb(179,179,179);stroke-dasharray:1,1;"/>
    <path d="M 300 -300 L 300 -386.39999999999998"/>
    <path d="M 300 -300.0 L 294 -300.0"/>
    <text style="stroke:none;fill:rgb(0,0,0);" x="288.99599999999998" y="-295.5">
      0
    </text>
    <path d="M 300 -317.27999999999997 L 294 -317.27999999999997"/>
    <text style="stroke:none;fill:rgb(0,0,0);" x="278.988" y="-312.77999999999997">
      200
    </text>
    <path d="M 300 -334.56 L 294 -334.56"/>
    <text style="stroke:none;fill:rgb(0,0,0);" x="278.988" y="-330.06">
      400
    </text>
    <path d="M 300 -351.83999999999997 L 294 -351.83999999999997"/>
    <text style="stroke:none;fill:rgb(0,0,0);" x="278.988" y="-347.33999999999997">
      600
    </text>
    <path d="M 300 -369.12 L 294 -369.12"/>
    <text style="stroke:none;fill:rgb(0,0,0);" x="278.988" y="-364.62">
      800
    </text>
    <path d="M 300 -386.39999999999998 L 294 -386.39999999999998"/>
    <text style="stroke:none;fill:rgb(0,0,0);" x="273.98399999999998" y="-381.89999999999998">
      1000
    </text>
    <text style="stroke:none;font-weight:bold;fill:rgb(0,0,0);" transform="rotate(-90,229.484,-304.685)" x="229.48400000000001" y="-304.68450000000001">
      Messages/second
    </text>
    <g style="clip-path:url(#clip0);">
      <g style="clip-path:url(#clip1);">
        <path d="M 315.30000000000001 -367.22435139263996 L 345.89999999999998 -370.15868154143999 L 376.5 -367.75520683392 L 407.10000000000002 -367.39372800000001" style="stroke-width:1.2;"/>
      </g>
      <g style="clip-path:url(#clip2);">
        <g style="fill:rgb(255,255,255);clip-path:url(#clip3);">
          <path d="M 313.15714285714284 -365.08149424978285 L 313.15714285714284 -369.36720853549713 L 317.44285714285712 -369.36720853549713 L 317.44285714285712 -365.08149424978285 Z" style="stroke:none;"/>
        </g>
        <g>
          <path d="M 313.15714285714284 -367.22435139263996 L 315.30000000000001 -369.36720853549713 L 317.44285714285712 -367.22435139263996 L 315.30000000000001 -365.08149424978285 Z"/>
          <g style="fill:rgb(255,255,255);clip-path:url(#clip4);">
            <path d="M 343.75714285714287 -368.01582439858282 L 343.75714285714287 -372.30153868429716 L 348.04285714285714 -372.30153868429716 L 348.04285714285714 -368.01582439858282 Z" style="stroke:none;"/>
          </g>
          <g>
            <path d="M 343.75714285714287 -370.15868154143999 L 345.89999999999998 -372.30153868429716 L 348.04285714285714 -370.15868154143999 L 345.89999999999998 -368.01582439858282 Z"/>
            <g style="fill:rgb(255,255,255);clip-path:url(#clip5);">
              <path d="M 374.35714285714289 -365.61234969106283 L 374.35714285714289 -369.89806397677711 L 378.64285714285711 -369.89806397677711 L 378.64285714285711 -365.61234969106283 Z" style="stroke:none;"/>
            </g>
            <g>
              <path d="M 374.35714285714289 -367.75520683392 L 376.5 -369.89806397677711 L 378.64285714285711 -367.75520683392 L 376.5 -365.61234969106283 Z"/>
              <g style="fill:rgb(255,255,255);clip-path:url(#clip6);">
                <path d="M 404.95714285714286 -365.25087085714284 L 404.95714285714286 -369.53658514285712 L 409.24285714285713 -369.53658514285712 L 409.24285714285713 -365.25087085714284 Z" style="stroke:none;"/>
              </g>
              <g>
                <path d="M 404.95714285714286 -367.39372800000001 L 407.10000000000002 -369.53658514285712 L 409.24285714285713 -367.39372800000001 L 407.10000000000002 -365.25087085714284 Z"/>
              </g>
            </g>
          </g>
        </g>
      </g>
      <g style="clip-path:url(#clip7);">
        <path d="M 315.30000000000001 -368.42398215456001 L 345.89999999999998 -369.21294806591999 L 376.5 -366.48565034015996 L 407.10000000000002 -367.39459199999999" style="stroke:rgb(179,179,179);stroke-width:1.2;stroke-dasharray:1.5,1.5;"/>
      </g>
      <g style="clip-path:url(#clip8);">
        <g style="fill:rgb(255,255,255);clip-path:url(#clip9);">
          <path d="M 313.42500000000001 -366.92398215456001 L 313.42500000000001 -369.92398215456001 L 317.17500000000001 -369.92398215456001 L 317.17500000000001 -366.92398215456001 Z" style="stroke:none;"/>
        </g>
        <g>
          <path d="M 315.30000000000001 -366.92398215456001 L 313.42500000000001 -369.92398215456001 L 317.17500000000001 -369.92398215456001 Z"/>
          <g style="fill:rgb(255,255,255);clip-path:url(#clip10);">
            <path d="M 344.02499999999998 -367.71294806591999 L 344.02499999999998 -370.71294806591999 L 347.77499999999998 -370.71294806591999 L 347.77499999999998 -367.71294806591999 Z" style="stroke:none;"/>
          </g>
          <g>
            <path d="M 345.89999999999998 -367.71294806591999 L 344.02499999999998 -370.71294806591999 L 347.77499999999998 -370.71294806591999 Z"/>
            <g style="fill:rgb(255,255,255);clip-path:url(#clip11);">
              <path d="M 374.625 -364.98565034015996 L 374.625 -367.98565034015996 L 378.375 -367.98565034015996 L 378.375 -364.98565034015996 Z" style="stroke:none;"/>
            </g>
            <g>
              <path d="M 376.5 -364.98565034015996 L 374.625 -367.98565034015996 L 378.375 -367.98565034015996 Z"/>
              <g style="fill:rgb(255,255,255);clip-path:url(#clip12);">
                <path d="M 405.22500000000002 -365.89459199999999 L 405.22500000000002 -368.89459199999999 L 408.97500000000002 -368.89459199999999 L 408.97500000000002 -365.89459199999999 Z" style="stroke:none;"/>
              </g>
              <g>
                <path d="M 407.10000000000002 -365.89459199999999 L 405.22500000000002 -368.89459199999999 L 408.97500000000002 -368.89459199999999 Z"/>
              </g>
            </g>
          </g>
        </g>
      </g>
      <g style="clip-path:url(#clip13);">
        <path d="M 315.30000000000001 -359.55362711423999 L 345.89999999999998 -359.70109000319997 L 376.5 -359.03037928800001 L 407.10000000000002 -360.03935999999999" style="stroke-width:1.2;stroke-dasharray:5,2,5,2;"/>
      </g>
      <g style="clip-path:url(#clip14);">
        <g style="fill:rgb(255,255,255);clip-path:url(#clip15);">
          <path d="M 313.80000000000001 -358.05362711423999 L 313.80000000000001 -361.05362711423999 L 316.80000000000001 -361.05362711423999 L 316.80000000000001 -358.05362711423999 Z" style="stroke:none;"/>
        </g>
        <g>
          <path d="M 313.80000000000001 -358.05362711423999 L 313.80000000000001 -361.05362711423999 L 316.80000000000001 -361.05362711423999 L 316.80000000000001 -358.05362711423999 Z"/>
          <g style="fill:rgb(255,255,255);clip-path:url(#clip16);">
            <path d="M 344.39999999999998 -358.20109000319997 L 344.39999999999998 -361.20109000319997 L 347.39999999999998 -361.20109000319997 L 347.39999999999998 -358.20109000319997 Z" style="stroke:none;"/>
          </g>
          <g>
            <path d="M 344.39999999999998 -358.20109000319997 L 344.39999999999998 -361.20109000319997 L 347.39999999999998 -361.20109000319997 L 347.39999999999998 -358.20109000319997 Z"/>
            <g style="fill:rgb(255,255,255);clip-path:url(#clip17);">
              <path d="M 375.0 -357.53037928800001 L 375.0 -360.53037928800001 L 378.0 -360.53037928800001 L 378.0 -357.53037928800001 Z" style="stroke:none;"/>
            </g>
            <g>
              <path d="M 375.0 -357.53037928800001 L 375.0 -360.53037928800001 L 378.0 -360.53037928800001 L 378.0 -357.53037928800001 Z"/>
              <g style="fill:rgb(255,255,255);clip-path:url(#clip18);">
                <path d="M 405.60000000000002 -358.53935999999999 L 405.60000000000002 -361.53935999999999 L 408.60000000000002 -361.53935999999999 L 408.60000000000002 -358.53935999999999 Z" style="stroke:none;"/>
              </g>
              <g>
                <path d="M 405.60000000000002 -358.53935999999999 L 405.60000000000002 -361.53935999999999 L 408.60000000000002 -361.53935999999999 L 408.60000000000002 -358.53935999999999 Z"/>
              </g>
            </g>
          </g>
        </g>
      </g>
      <g style="clip-path:url(#clip19);">
        <path d="M 315.30000000000001 -359.89247999999998 L 345.89999999999998 -360.93791999999996 L 376.5 -361.36387200000001 L 407.10000000000002 -361.86239999999998" style="stroke:rgb(126,126,126);stroke-width:1.2;"/>
      </g>
      <g style="clip-path:url(#clip20);">
        <g style="fill:rgb(255,255,255);clip-path:url(#clip21);">
          <path d="M 312.30000000000001 -356.89247999999998 L 312.30000000000001 -362.89247999999998 L 318.30000000000001 -362.89247999999998 L 318.30000000000001 -356.89247999999998 Z" style="stroke:none;"/>
        </g>
        <g>
          <path d="M 315.30000000000001 -359.89247999999998 M 316.80000000000001 -359.89247999999998 L 316.8 -359.892 M 316.8 -359.892 A 1.5 1.5 0 1 0 313.8 -359.892 A 1.5 1.5 0 1 0 316.8 -359.892 Z"/>
          <g style="fill:rgb(255,255,255);clip-path:url(#clip22);">
            <path d="M 342.89999999999998 -357.93791999999996 L 342.89999999999998 -363.93791999999996 L 348.89999999999998 -363.93791999999996 L 348.89999999999998 -357.93791999999996 Z" style="stroke:none;"/>
          </g>
          <g>
            <path d="M 345.89999999999998 -360.93791999999996 M 347.39999999999998 -360.93791999999996 L 347.4 -360.938 M 347.4 -360.938 A 1.5 1.5 0 1 0 344.4 -360.938 A 1.5 1.5 0 1 0 347.4 -360.938 Z"/>
            <g style="fill:rgb(255,255,255);clip-path:url(#clip23);">
              <path d="M 373.5 -358.36387200000001 L 373.5 -364.36387200000001 L 379.5 -364.36387200000001 L 379.5 -358.36387200000001 Z" style="stroke:none;"/>
            </g>
            <g>
              <path d="M 376.5 -361.36387200000001 M 378.0 -361.36387200000001 L 378 -361.364 M 378 -361.364 A 1.5 1.5 0 1 0 375 -361.364 A 1.5 1.5 0 1 0 378 -361.364 Z"/>
              <g style="fill:rgb(255,255,255);clip-path:url(#clip24);">
                <path d="M 404.10000000000002 -358.86239999999998 L 404.10000000000002 -364.86239999999998 L 410.10000000000002 -364.86239999999998 L 410.10000000000002 -358.86239999999998 Z" style="stroke:none;"/>
              </g>
              <g>
                <path d="M 407.10000000000002 -361.86239999999998 M 408.60000000000002 -361.86239999999998 L 408.6 -361.862 M 408.6 -361.862 A 1.5 1.5 0 1 0 405.6 -361.862 A 1.5 1.5 0 1 0 408.6 -361.862 Z"/>
              </g>
            </g>
          </g>
        </g>
      </g>
      <g style="clip-path:url(#clip25);">
        <path d="M 315.30000000000001 -365.06697600000001 L 345.89999999999998 -340.05866887776 L 376.5 -323.74192600127998 L 407.10000000000002 -307.76390400000003" style="stroke-width:1.2;"/>
      </g>
      <g style="clip-path:url(#clip26);">
        <g style="fill:rgb(255,255,255);clip-path:url(#clip27);">
          <path d="M 313.15714285714284 -362.92411885714284 L 313.15714285714284 -367.20983314285712 L 317.44285714285712 -367.20983314285712 L 317.44285714285712 -362.92411885714284 Z" style="stroke:none;"/>
        </g>
        <g>
          <path d="M 313.15714285714284 -365.06697600000001 L 315.30000000000001 -367.20983314285712 L 317.44285714285712 -365.06697600000001 L 315.30000000000001 -362.92411885714284 Z"/>
          <g style="fill:rgb(255,255,255);clip-path:url(#clip28);">
            <path d="M 343.75714285714287 -337.91581173490283 L 343.75714285714287 -342.20152602061717 L 348.04285714285714 -342.20152602061717 L 348.04285714285714 -337.91581173490283 Z" style="stroke:none;"/>
          </g>
          <g>
            <path d="M 343.75714285714287 -340.05866887776 L 345.89999999999998 -342.20152602061717 L 348.04285714285714 -340.05866887776 L 345.89999999999998 -337.91581173490283 Z"/>
            <g style="fill:rgb(255,255,255);clip-path:url(#clip29);">
              <path d="M 374.35714285714289 -321.59906885842287 L 374.35714285714289 -325.88478314413715 L 378.64285714285711 -325.88478314413715 L 378.64285714285711 -321.59906885842287 Z" style="stroke:none;"/>
            </g>
            <g>
              <path d="M 374.35714285714289 -323.74192600127998 L 376.5 -325.88478314413715 L 378.64285714285711 -323.74192600127998 L 376.5 -321.59906885842287 Z"/>
              <g style="fill:rgb(255,255,255);clip-path:url(#clip30);">
                <path d="M 404.95714285714286 -305.62104685714286 L 404.95714285714286 -309.90676114285714 L 409.24285714285713 -309.90676114285714 L 409.24285714285713 -305.62104685714286 Z" style="stroke:none;"/>
              </g>
              <g>
                <path d="M 404.95714285714286 -307.76390400000003 L 407.10000000000002 -309.90676114285714 L 409.24285714285713 -307.76390400000003 L 407.10000000000002 -305.62104685714286 Z"/>
              </g>
            </g>
          </g>
        </g>
      </g>
      <g style="clip-path:url(#clip31);">
        <path d="M 315.30000000000001 -366.25908622944002 L 345.89999999999998 -336.18280913183997 L 376.5 -318.77512023935998 L 407.10000000000002 -304.24483199999997" style="stroke:rgb(179,179,179);stroke-width:1.2;stroke-dasharray:1.5,1.5;"/>
      </g>
      <g style="clip-path:url(#clip32);">
        <path d="M 313.15714285714284 -366.25908622944002 L 317.44285714285712 -366.25908622944002" style="stroke-width:1;"/>
        <path d="M 315.30000000000001 -364.11622908658285 L 315.30000000000001 -368.40194337229713" style="stroke-width:1;"/>
        <path d="M 343.75714285714287 -336.18280913183997 L 348.04285714285714 -336.18280913183997" style="stroke-width:1;"/>
        <path d="M 345.89999999999998 -334.03995198898286 L 345.89999999999998 -338.32566627469714" style="stroke-width:1;"/>
        <path d="M 374.35714285714289 -318.77512023935998 L 378.64285714285711 -318.77512023935998" style="stroke-width:1;"/>
        <path d="M 376.5 -316.63226309650287 L 376.5 -320.91797738221715" style="stroke-width:1;"/>
        <path d="M 404.95714285714286 -304.24483199999997 L 409.24285714285713 -304.24483199999997" style="stroke-width:1;"/>
        <path d="M 407.10000000000002 -302.10197485714286 L 407.10000000000002 -306.38768914285714" style="stroke-width:1;"/>
      </g>
      <g style="clip-path:url(#clip33);">
        <path d="M 315.30000000000001 -363.50313599999998 L 345.89999999999998 -333.13086500447997 L 376.5 -316.50133682208002 L 407.10000000000002 -302.278368" style="stroke:rgb(179,179,179);stroke-width:1.2;stroke-dasharray:5,2,5,2;"/>
      </g>
      <g style="clip-path:url(#clip34);">
        <g style="fill:rgb(255,255,255);clip-path:url(#clip35);">
          <path d="M 313.80000000000001 -362.00313599999998 L 313.80000000000001 -365.00313599999998 L 316.80000000000001 -365.00313599999998 L 316.80000000000001 -362.00313599999998 Z" style="stroke:none;"/>
        </g>
        <g>
          <path d="M 313.80000000000001 -362.00313599999998 L 313.80000000000001 -365.00313599999998 L 316.80000000000001 -365.00313599999998 L 316.80000000000001 -362.00313599999998 Z"/>
          <g style="fill:rgb(255,255,255);clip-path:url(#clip36);">
            <path d="M 344.39999999999998 -331.63086500447997 L 344.39999999999998 -334.63086500447997 L 347.39999999999998 -334.63086500447997 L 347.39999999999998 -331.63086500447997 Z" style="stroke:none;"/>
          </g>
          <g>
            <path d="M 344.39999999999998 -331.63086500447997 L 344.39999999999998 -334.63086500447997 L 347.39999999999998 -334.63086500447997 L 347.39999999999998 -331.63086500447997 Z"/>
            <g style="fill:rgb(255,255,255);clip-path:url(#clip37);">
              <path d="M 375.0 -315.00133682208002 L 375.0 -318.00133682208002 L 378.0 -318.00133682208002 L 378.0 -315.00133682208002 Z" style="stroke:none;"/>
            </g>
            <g>
              <path d="M 375.0 -315.00133682208002 L 375.0 -318.00133682208002 L 378.0 -318.00133682208002 L 378.0 -315.00133682208002 Z"/>
              <g style="fill:rgb(255,255,255);clip-path:url(#clip38);">
                <path d="M 405.60000000000002 -300.778368 L 405.60000000000002 -303.778368 L 408.60000000000002 -303.778368 L 408.60000000000002 -300.778368 Z" style="stroke:none;"/>
              </g>
              <g>
                <path d="M 405.60000000000002 -300.778368 L 405.60000000000002 -303.778368 L 408.60000000000002 -303.778368 L 408.60000000000002 -300.778368 Z"/>
              </g>
            </g>
          </g>
        </g>
      </g>
      <g style="clip-path:url(#clip39);">
        <path d="M 315.30000000000001 -325.04995200000002 L 345.89999999999998 -312.809664 L 376.5 -306.49123200000002 L 407.10000000000002 -301.04006993673602" style="stroke-width:1.2;"/>
      </g>
      <g style="clip-path:url(#clip40);">
        <g style="fill:rgb(255,255,255);clip-path:url(#clip41);">
          <path d="M 313.80000000000001 -323.54995200000002 L 313.80000000000001 -326.54995200000002 L 316.80000000000001 -326.54995200000002 L 316.80000000000001 -323.54995200000002 Z" style="stroke:none;"/>
        </g>
        <g>
          <path d="M 313.80000000000001 -323.54995200000002 L 313.80000000000001 -326.54995200000002 L 316.80000000000001 -326.54995200000002 L 316.80000000000001 -323.54995200000002 Z"/>
          <g style="fill:rgb(255,255,255);clip-path:url(#clip42);">
            <path d="M 344.39999999999998 -311.309664 L 344.39999999999998 -314.309664 L 347.39999999999998 -314.309664 L 347.39999999999998 -311.309664 Z" style="stroke:none;"/>
          </g>
          <g>
            <path d="M 344.39999999999998 -311.309664 L 344.39999999999998 -314.309664 L 347.39999999999998 -314.309664 L 347.39999999999998 -311.309664 Z"/>
            <g style="fill:rgb(255,255,255);clip-path:url(#clip43);">
              <path d="M 375.0 -304.99123200000002 L 375.0 -307.99123200000002 L 378.0 -307.99123200000002 L 378.0 -304.99123200000002 Z" style="stroke:none;"/>
            </g>
            <g>
              <path d="M 375.0 -304.99123200000002 L 375.0 -307.99123200000002 L 378.0 -307.99123200000002 L 378.0 -304.99123200000002 Z"/>
              <g style="fill:rgb(255,255,255);clip-path:url(#clip44);">
                <path d="M 405.60000000000002 -299.54006993673602 L 405.60000000000002 -302.54006993673602 L 408.60000000000002 -302.54006993673602 L 408.60000000000002 -299.54006993673602 Z" style="stroke:none;"/>
              </g>
              <g>
                <path d="M 405.60000000000002 -299.54006993673602 L 405.60000000000002 -302.54006993673602 L 408.60000000000002 -302.54006993673602 L 408.60000000000002 -299.54006993673602 Z"/>
              </g>
            </g>
          </g>
        </g>
      </g>
    </g>
    <g style="fill:rgb(126,126,126);clip-path:url(#clip45);">
      <path d="M 591.79999999999995 -295 L 591.79999999999995 -370 L 626.80199999999991 -370 L 626.80199999999991 -295 Z" style="stroke:none;"/>
    </g>
    <g style="fill:rgb(255,255,255);clip-path:url(#clip46);">
      <path d="M 589.79999999999995 -297 L 589.79999999999995 -372 L 624.80199999999991 -372 L 624.80199999999991 -297 Z" style="stroke:none;"/>
    </g>
    <g>
      <path d="M 589.79999999999995 -297 L 589.79999999999995 -372 L 624.80199999999991 -372 L 624.80199999999991 -297 Z"/>
      <path d="M 594.79999999999995 -366.0 L 603.79999999999995 -366.0" style="stroke-width:1.2;"/>
      <g style="fill:rgb(255,255,255);clip-path:url(#clip47);">
        <path d="M 597.15714285714284 -363.85714285714283 L 597.15714285714284 -368.14285714285711 L 601.44285714285706 -368.14285714285711 L 601.44285714285706 -363.85714285714283 Z" style="stroke:none;"/>
      </g>
      <g>
        <path d="M 597.15714285714284 -366.0 L 599.29999999999995 -368.14285714285711 L 601.44285714285706 -366.0 L 599.29999999999995 -363.85714285714283 Z"/>
        <text style="stroke:none;fill:rgb(0,0,0);" x="603.79999999999995" y="-363.0">
          D4
        </text>
        <path d="M 594.79999999999995 -357.0 L 603.79999999999995 -357.0" style="stroke:rgb(179,179,179);stroke-width:1.2;stroke-dasharray:1.5,1.5;"/>
        <g style="fill:rgb(255,255,255);clip-path:url(#clip48);">
          <path d="M 597.42499999999995 -355.5 L 597.42499999999995 -358.5 L 601.17499999999995 -358.5 L 601.17499999999995 -355.5 Z" style="stroke:none;"/>
        </g>
        <g>
          <path d="M 599.29999999999995 -355.5 L 597.42499999999995 -358.5 L 601.17499999999995 -358.5 Z"/>
          <text style="stroke:none;fill:rgb(0,0,0);" x="603.79999999999995" y="-354.0">
            D2
          </text>
          <path d="M 594.79999999999995 -348.0 L 603.79999999999995 -348.0" style="stroke-width:1.2;stroke-dasharray:5,2,5,2;"/>
          <g style="fill:rgb(255,255,255);clip-path:url(#clip49);">
            <path d="M 597.79999999999995 -346.5 L 597.79999999999995 -349.5 L 600.79999999999995 -349.5 L 600.79999999999995 -346.5 Z" style="stroke:none;"/>
          </g>
          <g>
            <path d="M 597.79999999999995 -346.5 L 597.79999999999995 -349.5 L 600.79999999999995 -349.5 L 600.79999999999995 -346.5 Z"/>
            <text style="stroke:none;fill:rgb(0,0,0);" x="603.79999999999995" y="-345.0">
              D1
            </text>
            <path d="M 594.79999999999995 -339.0 L 603.79999999999995 -339.0" style="stroke:rgb(126,126,126);stroke-width:1.2;"/>
            <g style="fill:rgb(255,255,255);clip-path:url(#clip50);">
              <path d="M 596.29999999999995 -336.0 L 596.29999999999995 -342.0 L 602.29999999999995 -342.0 L 602.29999999999995 -336.0 Z" style="stroke:none;"/>
            </g>
            <g>
              <path d="M 599.29999999999995 -339.0 M 600.79999999999995 -339.0 L 600.8 -339 M 600.8 -339 A 1.5 1.5 0 1 0 597.8 -339 A 1.5 1.5 0 1 0 600.8 -339 Z"/>
              <text style="stroke:none;fill:rgb(0,0,0);" x="603.79999999999995" y="-336.0">
                R
              </text>
              <path d="M 594.79999999999995 -330.0 L 603.79999999999995 -330.0" style="stroke-width:1.2;"/>
              <g style="fill:rgb(255,255,255);clip-path:url(#clip51);">
                <path d="M 597.15714285714284 -327.85714285714283 L 597.15714285714284 -332.14285714285717 L 601.44285714285706 -332.14285714285717 L 601.44285714285706 -327.85714285714283 Z" style="stroke:none;"/>
              </g>
              <g>
                <path d="M 597.15714285714284 -330.0 L 599.29999999999995 -332.14285714285717 L 601.44285714285706 -330.0 L 599.29999999999995 -327.85714285714283 Z"/>
                <text style="stroke:none;fill:rgb(0,0,0);" x="603.79999999999995" y="-327.0">
                  S4
                </text>
                <path d="M 594.79999999999995 -321.0 L 603.79999999999995 -321.0" style="stroke:rgb(179,179,179);stroke-width:1.2;stroke-dasharray:1.5,1.5;"/>
                <path d="M 597.15714285714284 -321.0 L 601.44285714285706 -321.0" style="stroke-width:1;"/>
                <path d="M 599.29999999999995 -318.85714285714283 L 599.29999999999995 -323.14285714285717" style="stroke-width:1;"/>
                <text style="stroke:none;fill:rgb(0,0,0);" x="603.79999999999995" y="-318.0">
                  S2
                </text>
                <path d="M 594.79999999999995 -312.0 L 603.79999999999995 -312.0" style="stroke:rgb(179,179,179);stroke-width:1.2;stroke-dasharray:5,2,5,2;"/>
                <g style="fill:rgb(255,255,255);clip-path:url(#clip52);">
                  <path d="M 597.79999999999995 -310.5 L 597.79999999999995 -313.5 L 600.79999999999995 -313.5 L 600.79999999999995 -310.5 Z" style="stroke:none;"/>
                </g>
                <g>
                  <path d="M 597.79999999999995 -310.5 L 597.79999999999995 -313.5 L 600.79999999999995 -313.5 L 600.79999999999995 -310.5 Z"/>
                  <text style="stroke:none;fill:rgb(0,0,0);" x="603.79999999999995" y="-309.0">
                    S1
                  </text>
                  <path d="M 594.79999999999995 -303.0 L 603.79999999999995 -303.0" style="stroke-width:1.2;"/>
                  <g style="fill:rgb(255,255,255);clip-path:url(#clip53);">
                    <path d="M 597.79999999999995 -301.5 L 597.79999999999995 -304.5 L 600.79999999999995 -304.5 L 600.79999999999995 -301.5 Z" style="stroke:none;"/>
                  </g>
                  <g>
                    <path d="M 597.79999999999995 -301.5 L 597.79999999999995 -304.5 L 600.79999999999995 -304.5 L 600.79999999999995 -301.5 Z"/>
                    <text style="stroke:none;fill:rgb(0,0,0);" x="603.79999999999995" y="-300.0">
                      SM
                    </text>
                    <g style="fill:rgb(255,255,255);clip-path:url(#clip54);">
                      <path d="M 356.19999999999999 -255 L 356.19999999999999 -269 L 377.19799999999998 -269 L 377.19799999999998 -255 Z" style="stroke:none;"/>
                    </g>
                    <text style="stroke:none;fill:rgb(0,0,0);" x="361.19999999999999" y="-260.0">
                      (a)
                    </text>
                    <path d="M 458.39999999999998 -300 L 580.79999999999995 -300"/>
                    <path d="M 458.39999999999998 -300 L 580.79999999999995 -300"/>
                    <path d="M 473.69999999999999 -300 L 473.69999999999999 -294"/>
                    <text style="stroke:none;fill:rgb(0,0,0);" x="467.44499999999999" y="-285.0">
                      0.0
                    </text>
                    <path d="M 504.29999999999995 -300 L 504.29999999999995 -294"/>
                    <text style="stroke:none;fill:rgb(0,0,0);" x="495.54300000000001" y="-285.0">
                      0.25
                    </text>
                    <path d="M 534.89999999999998 -300 L 534.89999999999998 -294"/>
                    <text style="stroke:none;fill:rgb(0,0,0);" x="528.64499999999998" y="-285.0">
                      0.5
                    </text>
                    <path d="M 565.5 -300 L 565.5 -294"/>
                    <text style="stroke:none;fill:rgb(0,0,0);" x="559.245" y="-285.0">
                      1.0
                    </text>
                    <text style="stroke:none;font-weight:bold;fill:rgb(0,0,0);" x="508.09349999999995" y="-270.5">
                      Skew
                    </text>
                    <path d="M 458.39999999999998 -321.60000000000002 L 580.79999999999995 -321.60000000000002" style="stroke:rgb(179,179,179);stroke-dasharray:1,1;"/>
                    <path d="M 458.39999999999998 -343.19999999999999 L 580.79999999999995 -343.19999999999999" style="stroke:rgb(179,179,179);stroke-dasharray:1,1;"/>
                    <path d="M 458.39999999999998 -364.80000000000001 L 580.79999999999995 -364.80000000000001" style="stroke:rgb(179,179,179);stroke-dasharray:1,1;"/>
                    <path d="M 458.39999999999998 -386.39999999999998 L 580.79999999999995 -386.39999999999998" style="stroke:rgb(179,179,179);stroke-dasharray:1,1;"/>
                    <path d="M 458.39999999999998 -300 L 458.39999999999998 -386.39999999999998"/>
                    <path d="M 458.39999999999998 -300.0 L 452.39999999999998 -300.0"/>
                    <text style="stroke:none;fill:rgb(0,0,0);" x="447.39599999999996" y="-295.5">
                      0
                    </text>
                    <path d="M 458.39999999999998 -321.60000000000002 L 452.39999999999998 -321.60000000000002"/>
                    <text style="stroke:none;fill:rgb(0,0,0);" x="437.38799999999998" y="-317.10000000000002">
                      100
                    </text>
                    <path d="M 458.39999999999998 -343.19999999999999 L 452.39999999999998 -343.19999999999999"/>
                    <text style="stroke:none;fill:rgb(0,0,0);" x="437.38799999999998" y="-338.69999999999999">
                      200
                    </text>
                    <path d="M 458.39999999999998 -364.80000000000001 L 452.39999999999998 -364.80000000000001"/>
                    <text style="stroke:none;fill:rgb(0,0,0);" x="437.38799999999998" y="-360.30000000000001">
                      300
                    </text>
                    <path d="M 458.39999999999998 -386.39999999999998 L 452.39999999999998 -386.39999999999998"/>
                    <text style="stroke:none;fill:rgb(0,0,0);" x="437.38799999999998" y="-381.89999999999998">
                      400
                    </text>
                    <text x="392.88799999999998" y="-343.19999999999999"/>
                    <g style="clip-path:url(#clip55);">
                      <g style="clip-path:url(#clip56);">
                        <path d="M 473.69999999999999 -380.64143999999999 L 504.29999999999995 -376.27823585279998 L 534.89999999999998 -375.96125518320002 L 565.5 -376.31495999999999" style="stroke-width:1.2;"/>
                      </g>
                      <g style="clip-path:url(#clip57);">
                        <g style="fill:rgb(255,255,255);clip-path:url(#clip58);">
                          <path d="M 471.55714285714282 -378.49858285714288 L 471.55714285714282 -382.7842971428571 L 475.84285714285716 -382.7842971428571 L 475.84285714285716 -378.49858285714288 Z" style="stroke:none;"/>
                        </g>
                        <g>
                          <path d="M 471.55714285714282 -380.64143999999999 L 473.69999999999999 -382.7842971428571 L 475.84285714285716 -380.64143999999999 L 473.69999999999999 -378.49858285714288 Z"/>
                          <g style="fill:rgb(255,255,255);clip-path:url(#clip59);">
                            <path d="M 502.15714285714284 -374.13537870994287 L 502.15714285714284 -378.42109299565715 L 506.44285714285712 -378.42109299565715 L 506.44285714285712 -374.13537870994287 Z" style="stroke:none;"/>
                          </g>
                          <g>
                            <path d="M 502.15714285714284 -376.27823585279998 L 504.29999999999995 -378.42109299565715 L 506.44285714285712 -376.27823585279998 L 504.29999999999995 -374.13537870994287 Z"/>
                            <g style="fill:rgb(255,255,255);clip-path:url(#clip60);">
                              <path d="M 532.75714285714287 -373.81839804034286 L 532.75714285714287 -378.10411232605713 L 537.04285714285709 -378.10411232605713 L 537.04285714285709 -373.81839804034286 Z" style="stroke:none;"/>
                            </g>
                            <g>
                              <path d="M 532.75714285714287 -375.96125518320002 L 534.89999999999998 -378.10411232605713 L 537.04285714285709 -375.96125518320002 L 534.89999999999998 -373.81839804034286 Z"/>
                              <g style="fill:rgb(255,255,255);clip-path:url(#clip61);">
                                <path d="M 563.35714285714289 -374.17210285714282 L 563.35714285714289 -378.45781714285715 L 567.64285714285711 -378.45781714285715 L 567.64285714285711 -374.17210285714282 Z" style="stroke:none;"/>
                              </g>
                              <g>
                                <path d="M 563.35714285714289 -376.31495999999999 L 565.5 -378.45781714285715 L 567.64285714285711 -376.31495999999999 L 565.5 -374.17210285714282 Z"/>
                              </g>
                            </g>
                          </g>
                        </g>
                      </g>
                      <g style="clip-path:url(#clip62);">
                        <path d="M 473.69999999999999 -378.30647999999997 L 504.29999999999995 -376.82499583200001 L 534.89999999999998 -374.67459050880001 L 565.5 -376.21127999999999" style="stroke:rgb(179,179,179);stroke-width:1.2;stroke-dasharray:1.5,1.5;"/>
                      </g>
                      <g style="clip-path:url(#clip63);">
                        <g style="fill:rgb(255,255,255);clip-path:url(#clip64);">
                          <path d="M 471.82499999999999 -376.80647999999997 L 471.82499999999999 -379.80647999999997 L 475.57499999999999 -379.80647999999997 L 475.57499999999999 -376.80647999999997 Z" style="stroke:none;"/>
                        </g>
                        <g>
                          <path d="M 473.69999999999999 -376.80647999999997 L 471.82499999999999 -379.80647999999997 L 475.57499999999999 -379.80647999999997 Z"/>
                          <g style="fill:rgb(255,255,255);clip-path:url(#clip65);">
                            <path d="M 502.42499999999995 -375.32499583200001 L 502.42499999999995 -378.32499583200001 L 506.17499999999995 -378.32499583200001 L 506.17499999999995 -375.32499583200001 Z" style="stroke:none;"/>
                          </g>
                          <g>
                            <path d="M 504.29999999999995 -375.32499583200001 L 502.42499999999995 -378.32499583200001 L 506.17499999999995 -378.32499583200001 Z"/>
                            <g style="fill:rgb(255,255,255);clip-path:url(#clip66);">
                              <path d="M 533.02499999999998 -373.17459050880001 L 533.02499999999998 -376.17459050880001 L 536.77499999999998 -376.17459050880001 L 536.77499999999998 -373.17459050880001 Z" style="stroke:none;"/>
                            </g>
                            <g>
                              <path d="M 534.89999999999998 -373.17459050880001 L 533.02499999999998 -376.17459050880001 L 536.77499999999998 -376.17459050880001 Z"/>
                              <g style="fill:rgb(255,255,255);clip-path:url(#clip67);">
                                <path d="M 563.625 -374.71127999999999 L 563.625 -377.71127999999999 L 567.375 -377.71127999999999 L 567.375 -374.71127999999999 Z" style="stroke:none;"/>
                              </g>
                              <g>
                                <path d="M 565.5 -374.71127999999999 L 563.625 -377.71127999999999 L 567.375 -377.71127999999999 Z"/>
                              </g>
                            </g>
                          </g>
                        </g>
                      </g>
                      <g style="clip-path:url(#clip68);">
                        <path d="M 473.69999999999999 -370.82208000000003 L 504.29999999999995 -371.32319999999999 L 534.89999999999998 -370.39018594800001 L 565.5 -369.77540879999998" style="stroke-width:1.2;stroke-dasharray:5,2,5,2;"/>
                      </g>
                      <g style="clip-path:url(#clip69);">
                        <g style="fill:rgb(255,255,255);clip-path:url(#clip70);">
                          <path d="M 472.19999999999999 -369.32208000000003 L 472.19999999999999 -372.32208000000003 L 475.19999999999999 -372.32208000000003 L 475.19999999999999 -369.32208000000003 Z" style="stroke:none;"/>
                        </g>
                        <g>
                          <path d="M 472.19999999999999 -369.32208000000003 L 472.19999999999999 -372.32208000000003 L 475.19999999999999 -372.32208000000003 L 475.19999999999999 -369.32208000000003 Z"/>
                          <g style="fill:rgb(255,255,255);clip-path:url(#clip71);">
                            <path d="M 502.79999999999995 -369.82319999999999 L 502.79999999999995 -372.82319999999999 L 505.79999999999995 -372.82319999999999 L 505.79999999999995 -369.82319999999999 Z" style="stroke:none;"/>
                          </g>
                          <g>
                            <path d="M 502.79999999999995 -369.82319999999999 L 502.79999999999995 -372.82319999999999 L 505.79999999999995 -372.82319999999999 L 505.79999999999995 -369.82319999999999 Z"/>
                            <g style="fill:rgb(255,255,255);clip-path:url(#clip72);">
                              <path d="M 533.39999999999998 -368.89018594800001 L 533.39999999999998 -371.89018594800001 L 536.39999999999998 -371.89018594800001 L 536.39999999999998 -368.89018594800001 Z" style="stroke:none;"/>
                            </g>
                            <g>
                              <path d="M 533.39999999999998 -368.89018594800001 L 533.39999999999998 -371.89018594800001 L 536.39999999999998 -371.89018594800001 L 536.39999999999998 -368.89018594800001 Z"/>
                              <g style="fill:rgb(255,255,255);clip-path:url(#clip73);">
                                <path d="M 564.0 -368.27540879999998 L 564.0 -371.27540879999998 L 567.0 -371.27540879999998 L 567.0 -368.27540879999998 Z" style="stroke:none;"/>
                              </g>
                              <g>
                                <path d="M 564.0 -368.27540879999998 L 564.0 -371.27540879999998 L 567.0 -371.27540879999998 L 567.0 -368.27540879999998 Z"/>
                              </g>
                            </g>
                          </g>
                        </g>
                      </g>
                      <g style="clip-path:url(#clip74);">
                        <path d="M 473.69999999999999 -370.20146065680001 L 504.29999999999995 -368.251934124 L 534.89999999999998 -368.76143999999999 L 565.5 -369.96888000000001" style="stroke:rgb(126,126,126);stroke-width:1.2;"/>
                      </g>
                      <g style="clip-path:url(#clip75);">
                        <g style="fill:rgb(255,255,255);clip-path:url(#clip76);">
                          <path d="M 470.69999999999999 -367.20146065680001 L 470.69999999999999 -373.20146065680001 L 476.69999999999999 -373.20146065680001 L 476.69999999999999 -367.20146065680001 Z" style="stroke:none;"/>
                        </g>
                        <g>
                          <path d="M 473.69999999999999 -370.20146065680001 M 475.19999999999999 -370.20146065680001 L 475.2 -370.201 M 475.2 -370.201 A 1.5 1.5 0 1 0 472.2 -370.201 A 1.5 1.5 0 1 0 475.2 -370.201 Z"/>
                          <g style="fill:rgb(255,255,255);clip-path:url(#clip77);">
                            <path d="M 501.29999999999995 -365.251934124 L 501.29999999999995 -371.251934124 L 507.29999999999995 -371.251934124 L 507.29999999999995 -365.251934124 Z" style="stroke:none;"/>
                          </g>
                          <g>
                            <path d="M 504.29999999999995 -368.251934124 M 505.79999999999995 -368.251934124 L 505.8 -368.252 M 505.8 -368.252 A 1.5 1.5 0 1 0 502.8 -368.252 A 1.5 1.5 0 1 0 505.8 -368.252 Z"/>
                            <g style="fill:rgb(255,255,255);clip-path:url(#clip78);">
                              <path d="M 531.89999999999998 -365.76143999999999 L 531.89999999999998 -371.76143999999999 L 537.89999999999998 -371.76143999999999 L 537.89999999999998 -365.76143999999999 Z" style="stroke:none;"/>
                            </g>
                            <g>
                              <path d="M 534.89999999999998 -368.76143999999999 M 536.39999999999998 -368.76143999999999 L 536.4 -368.761 M 536.4 -368.761 A 1.5 1.5 0 1 0 533.4 -368.761 A 1.5 1.5 0 1 0 536.4 -368.761 Z"/>
                              <g style="fill:rgb(255,255,255);clip-path:url(#clip79);">
                                <path d="M 562.5 -366.96888000000001 L 562.5 -372.96888000000001 L 568.5 -372.96888000000001 L 568.5 -366.96888000000001 Z" style="stroke:none;"/>
                              </g>
                              <g>
                                <path d="M 565.5 -369.96888000000001 M 567.0 -369.96888000000001 L 567 -369.969 M 567 -369.969 A 1.5 1.5 0 1 0 564 -369.969 A 1.5 1.5 0 1 0 567 -369.969 Z"/>
                              </g>
                            </g>
                          </g>
                        </g>
                      </g>
                      <g style="clip-path:url(#clip80);">
                        <path d="M 473.69999999999999 -378.45767999999998 L 504.29999999999995 -341.55553787040003 L 534.89999999999998 -329.86631999999997 L 565.5 -316.72919999999999" style="stroke-width:1.2;"/>
                      </g>
                      <g style="clip-path:url(#clip81);">
                        <g style="fill:rgb(255,255,255);clip-path:url(#clip82);">
                          <path d="M 471.55714285714282 -376.31482285714287 L 471.55714285714282 -380.60053714285715 L 475.84285714285716 -380.60053714285715 L 475.84285714285716 -376.31482285714287 Z" style="stroke:none;"/>
                        </g>
                        <g>
                          <path d="M 471.55714285714282 -378.45767999999998 L 473.69999999999999 -380.60053714285715 L 475.84285714285716 -378.45767999999998 L 473.69999999999999 -376.31482285714287 Z"/>
                          <g style="fill:rgb(255,255,255);clip-path:url(#clip83);">
                            <path d="M 502.15714285714284 -339.41268072754286 L 502.15714285714284 -343.69839501325714 L 506.44285714285712 -343.69839501325714 L 506.44285714285712 -339.41268072754286 Z" style="stroke:none;"/>
                          </g>
                          <g>
                            <path d="M 502.15714285714284 -341.55553787040003 L 504.29999999999995 -343.69839501325714 L 506.44285714285712 -341.55553787040003 L 504.29999999999995 -339.41268072754286 Z"/>
                            <g style="fill:rgb(255,255,255);clip-path:url(#clip84);">
                              <path d="M 532.75714285714287 -327.72346285714286 L 532.75714285714287 -332.00917714285714 L 537.04285714285709 -332.00917714285714 L 537.04285714285709 -327.72346285714286 Z" style="stroke:none;"/>
                            </g>
                            <g>
                              <path d="M 532.75714285714287 -329.86631999999997 L 534.89999999999998 -332.00917714285714 L 537.04285714285709 -329.86631999999997 L 534.89999999999998 -327.72346285714286 Z"/>
                              <g style="fill:rgb(255,255,255);clip-path:url(#clip85);">
                                <path d="M 563.35714285714289 -314.58634285714288 L 563.35714285714289 -318.87205714285716 L 567.64285714285711 -318.87205714285716 L 567.64285714285711 -314.58634285714288 Z" style="stroke:none;"/>
                              </g>
                              <g>
                                <path d="M 563.35714285714289 -316.72919999999999 L 565.5 -318.87205714285716 L 567.64285714285711 -316.72919999999999 L 565.5 -314.58634285714288 Z"/>
                              </g>
                            </g>
                          </g>
                        </g>
                      </g>
                      <g style="clip-path:url(#clip86);">
                        <path d="M 473.69999999999999 -377.84640000000002 L 504.29999999999995 -338.43644214239998 L 534.89999999999998 -323.60663999999997 L 565.5 -310.44014399999998" style="stroke:rgb(179,179,179);stroke-width:1.2;stroke-dasharray:1.5,1.5;"/>
                      </g>
                      <g style="clip-path:url(#clip87);">
                        <path d="M 471.55714285714282 -377.84640000000002 L 475.84285714285716 -377.84640000000002" style="stroke-width:1;"/>
                        <path d="M 473.69999999999999 -375.70354285714285 L 473.69999999999999 -379.98925714285713" style="stroke-width:1;"/>
                        <path d="M 502.15714285714284 -338.43644214239998 L 506.44285714285712 -338.43644214239998" style="stroke-width:1;"/>
                        <path d="M 504.29999999999995 -336.29358499954287 L 504.29999999999995 -340.57929928525715" style="stroke-width:1;"/>
                        <path d="M 532.75714285714287 -323.60663999999997 L 537.04285714285709 -323.60663999999997" style="stroke-width:1;"/>
                        <path d="M 534.89999999999998 -321.46378285714286 L 534.89999999999998 -325.74949714285714" style="stroke-width:1;"/>
                        <path d="M 563.35714285714289 -310.44014399999998 L 567.64285714285711 -310.44014399999998" style="stroke-width:1;"/>
                        <path d="M 565.5 -308.29728685714286 L 565.5 -312.58300114285714" style="stroke-width:1;"/>
                      </g>
                      <g style="clip-path:url(#clip88);">
                        <path d="M 473.69999999999999 -369.74423999999999 L 504.29999999999995 -335.64608983919999 L 534.89999999999998 -317.02728000000002 L 565.5 -304.39992000000001" style="stroke:rgb(179,179,179);stroke-width:1.2;stroke-dasharray:5,2,5,2;"/>
                      </g>
                      <g style="clip-path:url(#clip89);">
                        <g style="fill:rgb(255,255,255);clip-path:url(#clip90);">
                          <path d="M 472.19999999999999 -368.24423999999999 L 472.19999999999999 -371.24423999999999 L 475.19999999999999 -371.24423999999999 L 475.19999999999999 -368.24423999999999 Z" style="stroke:none;"/>
                        </g>
                        <g>
                          <path d="M 472.19999999999999 -368.24423999999999 L 472.19999999999999 -371.24423999999999 L 475.19999999999999 -371.24423999999999 L 475.19999999999999 -368.24423999999999 Z"/>
                          <g style="fill:rgb(255,255,255);clip-path:url(#clip91);">
                            <path d="M 502.79999999999995 -334.14608983919999 L 502.79999999999995 -337.14608983919999 L 505.79999999999995 -337.14608983919999 L 505.79999999999995 -334.14608983919999 Z" style="stroke:none;"/>
                          </g>
                          <g>
                            <path d="M 502.79999999999995 -334.14608983919999 L 502.79999999999995 -337.14608983919999 L 505.79999999999995 -337.14608983919999 L 505.79999999999995 -334.14608983919999 Z"/>
                            <g style="fill:rgb(255,255,255);clip-path:url(#clip92);">
                              <path d="M 533.39999999999998 -315.52728000000002 L 533.39999999999998 -318.52728000000002 L 536.39999999999998 -318.52728000000002 L 536.39999999999998 -315.52728000000002 Z" style="stroke:none;"/>
                            </g>
                            <g>
                              <path d="M 533.39999999999998 -315.52728000000002 L 533.39999999999998 -318.52728000000002 L 536.39999999999998 -318.52728000000002 L 536.39999999999998 -315.52728000000002 Z"/>
                              <g style="fill:rgb(255,255,255);clip-path:url(#clip93);">
                                <path d="M 564.0 -302.89992000000001 L 564.0 -305.89992000000001 L 567.0 -305.89992000000001 L 567.0 -302.89992000000001 Z" style="stroke:none;"/>
                              </g>
                              <g>
                                <path d="M 564.0 -302.89992000000001 L 564.0 -305.89992000000001 L 567.0 -305.89992000000001 L 567.0 -302.89992000000001 Z"/>
                              </g>
                            </g>
                          </g>
                        </g>
                      </g>
                    </g>
                    <g style="fill:rgb(255,255,255);clip-path:url(#clip94);">
                      <path d="M 514.59999999999991 -255 L 514.59999999999991 -269 L 535.59799999999996 -269 L 535.59799999999996 -255 Z" style="stroke:none;"/>
                    </g>
                    <text style="stroke:none;fill:rgb(0,0,0);" x="519.59999999999991" y="-260.0">
                      (b)
                    </text>
                  </g>
                </g>
              </g>
            </g>
          </g>
        </g>
      </g>
    </g>
  </g>
</svg>
