<?xml version="1.0" ?>
<!--Created by PyChart 1.38 Copyright 1999-2005 Yasushi Saito-->
<svg viewBox="219.982 -397.818 368.377 130.318" xmlns="http://www.w3.org/2000/svg" xmlns:xlink="http://www.w3.org/1999/xlink">
  <defs>
    <clipPath id="clip0">
      <path d="M 297 -297 L 297 -389.39999999999998 L 454.20000000000005 -389.39999999999998 L 454.20000000000005 -297 Z"/>
    </clipPath>
    <clipPath id="clip1">
      <path d="M 297 -297 L 297 -389.39999999999998 L 454.20000000000005 -389.39999999999998 L 454.20000000000005 -297 Z"/>
    </clipPath>
    <clipPath id="clip2">
      <path d="M 290 -290 L 290 -396.39999999999998 L 461.20000000000005 -396.39999999999998 L 461.20000000000005 -290 Z"/>
    </clipPath>
    <clipPath id="clip3">
      <path d="M 306.49714285714288 -305.70359541312001 L 308.63999999999999 -307.84645255597712 L 310.78285714285715 -305.70359541312001 L 308.63999999999999 -303.56073827026285 Z"/>
    </clipPath>
    <clipPath id="clip4">
      <path d="M 315.13714285714286 -310.9820095284706 L 317.27999999999997 -313.12486667132771 L 319.42285714285714 -310.9820095284706 L 317.27999999999997 -308.83915238561343 Z"/>
    </clipPath>
    <clipPath id="clip5">
      <path d="M 332.41714285714284 -322.81301011651766 L 334.56 -324.95586725937477 L 336.70285714285717 -322.81301011651766 L 334.56 -320.67015297366049 Z"/>
    </clipPath>
    <clipPath id="clip6">
      <path d="M 366.97714285714289 -343.26624768790589 L 369.12 -345.409104830763 L 371.26285714285711 -343.26624768790589 L 369.12 -341.12339054504872 Z"/>
    </clipPath>
    <clipPath id="clip7">
      <path d="M 427.45714285714291 -380.40096807416472 L 429.60000000000002 -382.54382521702183 L 431.74285714285713 -380.40096807416472 L 429.60000000000002 -378.25811093130756 Z"/>
    </clipPath>
    <clipPath id="clip8">
      <path d="M 297 -297 L 297 -389.39999999999998 L 454.20000000000005 -389.39999999999998 L 454.20000000000005 -297 Z"/>
    </clipPath>
    <clipPath id="clip9">
      <path d="M 290 -290 L 290 -396.39999999999998 L 461.20000000000005 -396.39999999999998 L 461.20000000000005 -290 Z"/>
    </clipPath>
    <clipPath id="clip10">
      <path d="M 306.76499999999999 -301.17036059079527 L 310.51499999999999 -301.17036059079527 L 308.63999999999999 -304.17036059079527 Z"/>
    </clipPath>
    <clipPath id="clip11">
      <path d="M 315.40499999999997 -304.15055999999998 L 319.15499999999997 -304.15055999999998 L 317.27999999999997 -307.15055999999998 Z"/>
    </clipPath>
    <clipPath id="clip12">
      <path d="M 332.685 -309.70455529411765 L 336.435 -309.70455529411765 L 334.56 -312.70455529411765 Z"/>
    </clipPath>
    <clipPath id="clip13">
      <path d="M 367.245 -319.5755011764706 L 370.995 -319.5755011764706 L 369.12 -322.5755011764706 Z"/>
    </clipPath>
    <clipPath id="clip14">
      <path d="M 427.72500000000002 -337.65851294117647 L 431.47500000000002 -337.65851294117647 L 429.60000000000002 -340.65851294117647 Z"/>
    </clipPath>
    <clipPath id="clip15">
      <path d="M 297 -297 L 297 -389.39999999999998 L 454.20000000000005 -389.39999999999998 L 454.20000000000005 -297 Z"/>
    </clipPath>
    <clipPath id="clip16">
      <path d="M 290 -290 L 290 -396.39999999999998 L 461.20000000000005 -396.39999999999998 L 461.20000000000005 -290 Z"/>
    </clipPath>
    <clipPath id="clip17">
      <path d="M 297 -297 L 297 -389.39999999999998 L 454.20000000000005 -389.39999999999998 L 454.20000000000005 -297 Z"/>
    </clipPath>
    <clipPath id="clip18">
      <path d="M 290 -290 L 290 -396.39999999999998 L 461.20000000000005 -396.39999999999998 L 461.20000000000005 -290 Z"/>
    </clipPath>
    <clipPath id="clip19">
      <path d="M 307.13999999999999 -300.02368941176468 L 307.13999999999999 -303.02368941176468 L 310.13999999999999 -303.02368941176468 L 310.13999999999999 -300.02368941176468 Z"/>
    </clipPath>
    <clipPath id="clip20">
      <path d="M 315.77999999999997 -303.33451723482352 L 315.77999999999997 -306.33451723482352 L 318.77999999999997 -306.33451723482352 L 318.77999999999997 -303.33451723482352 Z"/>
    </clipPath>
    <clipPath id="clip21">
      <path d="M 333.06 -307.60960941176472 L 333.06 -310.60960941176472 L 336.06 -310.60960941176472 L 336.06 -307.60960941176472 Z"/>
    </clipPath>
    <clipPath id="clip22">
      <path d="M 367.62 -315.70274823529411 L 367.62 -318.70274823529411 L 370.62 -318.70274823529411 L 370.62 -315.70274823529411 Z"/>
    </clipPath>
    <clipPath id="clip23">
      <path d="M 428.10000000000002 -327.97053176470587 L 428.10000000000002 -330.97053176470587 L 431.10000000000002 -330.97053176470587 L 431.10000000000002 -327.97053176470587 Z"/>
    </clipPath>
    <clipPath id="clip24">
      <path d="M 461.32000000000005 -297 L 461.32000000000005 -345 L 585.35900000000004 -345 L 585.35900000000004 -297 Z"/>
    </clipPath>
    <clipPath id="clip25">
      <path d="M 468.67714285714288 -339.0 L 470.82000000000005 -341.14285714285717 L 472.96285714285716 -339.0 L 470.82000000000005 -336.85714285714283 Z"/>
    </clipPath>
    <clipPath id="clip26">
      <path d="M 468.94500000000005 -328.5 L 472.69500000000005 -328.5 L 470.82000000000005 -331.5 Z"/>
    </clipPath>
    <clipPath id="clip27">
      <path d="M 469.32000000000005 -301.5 L 469.32000000000005 -304.5 L 472.32000000000005 -304.5 L 472.32000000000005 -301.5 Z"/>
    </clipPath>
  </defs>
  <g style="stroke-linejoin:miter;font-size:9;font-family:Helvetica;fill:none;stroke-linecap:butt;stroke:rgb(0,0,0);font-stretch:normal;stroke-dasharray:none;font-weight:normal;font-style:normal;stroke-width:0.4;">
    <path d="M 300 -300 L 451.20000000000005 -300"/>
    <path d="M 300 -300 L 451.20000000000005 -300"/>
    <path d="M 300.0 -300 L 300.0 -294"/>
    <text style="stroke:none;fill:rgb(0,0,0);" x="293.745" y="-285.0">
      0.0
    </text>
    <path d="M 343.19999999999999 -300 L 343.19999999999999 -294"/>
    <text style="stroke:none;fill:rgb(0,0,0);" x="334.44299999999998" y="-285.0">
      10.0
    </text>
    <path d="M 386.40000000000003 -300 L 386.40000000000003 -294"/>
    <text style="stroke:none;fill:rgb(0,0,0);" x="377.64300000000003" y="-285.0">
      20.0
    </text>
    <path d="M 429.60000000000002 -300 L 429.60000000000002 -294"/>
    <text style="stroke:none;fill:rgb(0,0,0);" x="420.84300000000002" y="-285.0">
      30.0
    </text>
    <text style="stroke:none;font-weight:bold;fill:rgb(0,0,0);" x="350.3415" y="-270.5">
      Cluster size
    </text>
    <path d="M 300 -310.16470588235296 L 451.20000000000005 -310.16470588235296" style="stroke:rgb(179,179,179);stroke-dasharray:1,1;"/>
    <path d="M 300 -320.32941176470587 L 451.20000000000005 -320.32941176470587" style="stroke:rgb(179,179,179);stroke-dasharray:1,1;"/>
    <path d="M 300 -330.49411764705883 L 451.20000000000005 -330.49411764705883" style="stroke:rgb(179,179,179);stroke-dasharray:1,1;"/>
    <path d="M 300 -340.65882352941173 L 451.20000000000005 -340.65882352941173" style="stroke:rgb(179,179,179);stroke-dasharray:1,1;"/>
    <path d="M 300 -350.8235294117647 L 451.20000000000005 -350.8235294117647" style="stroke:rgb(179,179,179);stroke-dasharray:1,1;"/>
    <path d="M 300 -360.98823529411766 L 451.20000000000005 -360.98823529411766" style="stroke:rgb(179,179,179);stroke-dasharray:1,1;"/>
    <path d="M 300 -371.15294117647056 L 451.20000000000005 -371.15294117647056" style="stroke:rgb(179,179,179);stroke-dasharray:1,1;"/>
    <path d="M 300 -381.31764705882352 L 451.20000000000005 -381.31764705882352" style="stroke:rgb(179,179,179);stroke-dasharray:1,1;"/>
    <path d="M 300 -300 L 300 -386.39999999999998"/>
    <path d="M 300 -300.0 L 294 -300.0"/>
    <text style="stroke:none;fill:rgb(0,0,0);" x="281.49000000000001" y="-295.5">
      0.0
    </text>
    <path d="M 300 -320.32941176470587 L 294 -320.32941176470587"/>
    <text style="stroke:none;fill:rgb(0,0,0);" x="271.48199999999997" y="-315.82941176470587">
      200.0
    </text>
    <path d="M 300 -340.65882352941173 L 294 -340.65882352941173"/>
    <text style="stroke:none;fill:rgb(0,0,0);" x="271.48199999999997" y="-336.15882352941173">
      400.0
    </text>
    <path d="M 300 -360.98823529411766 L 294 -360.98823529411766"/>
    <text style="stroke:none;fill:rgb(0,0,0);" x="271.48199999999997" y="-356.48823529411766">
      600.0
    </text>
    <path d="M 300 -381.31764705882352 L 294 -381.31764705882352"/>
    <text style="stroke:none;fill:rgb(0,0,0);" x="271.48199999999997" y="-376.81764705882352">
      800.0
    </text>
    <text style="stroke:none;font-weight:bold;fill:rgb(0,0,0);" transform="rotate(-90,231.982,-304.685)" x="231.982" y="-304.68450000000001">
      Messages/second
    </text>
    <g style="clip-path:url(#clip0);">
      <g style="clip-path:url(#clip1);">
        <path d="M 308.63999999999999 -305.70359541312001 L 317.27999999999997 -310.9820095284706 L 334.56 -322.81301011651766 L 369.12 -343.26624768790589 L 429.60000000000002 -380.40096807416472" style="stroke-width:1.2;"/>
      </g>
      <g style="clip-path:url(#clip2);">
        <g style="fill:rgb(255,255,255);clip-path:url(#clip3);">
          <path d="M 306.49714285714288 -303.56073827026285 L 306.49714285714288 -307.84645255597712 L 310.78285714285715 -307.84645255597712 L 310.78285714285715 -303.56073827026285 Z" style="stroke:none;"/>
        </g>
        <g>
          <path d="M 306.49714285714288 -305.70359541312001 L 308.63999999999999 -307.84645255597712 L 310.78285714285715 -305.70359541312001 L 308.63999999999999 -303.56073827026285 Z"/>
          <g style="fill:rgb(255,255,255);clip-path:url(#clip4);">
            <path d="M 315.13714285714286 -308.83915238561343 L 315.13714285714286 -313.12486667132771 L 319.42285714285714 -313.12486667132771 L 319.42285714285714 -308.83915238561343 Z" style="stroke:none;"/>
          </g>
          <g>
            <path d="M 315.13714285714286 -310.9820095284706 L 317.27999999999997 -313.12486667132771 L 319.42285714285714 -310.9820095284706 L 317.27999999999997 -308.83915238561343 Z"/>
            <g style="fill:rgb(255,255,255);clip-path:url(#clip5);">
              <path d="M 332.41714285714284 -320.67015297366049 L 332.41714285714284 -324.95586725937477 L 336.70285714285717 -324.95586725937477 L 336.70285714285717 -320.67015297366049 Z" style="stroke:none;"/>
            </g>
            <g>
              <path d="M 332.41714285714284 -322.81301011651766 L 334.56 -324.95586725937477 L 336.70285714285717 -322.81301011651766 L 334.56 -320.67015297366049 Z"/>
              <g style="fill:rgb(255,255,255);clip-path:url(#clip6);">
                <path d="M 366.97714285714289 -341.12339054504872 L 366.97714285714289 -345.409104830763 L 371.26285714285711 -345.409104830763 L 371.26285714285711 -341.12339054504872 Z" style="stroke:none;"/>
              </g>
              <g>
                <path d="M 366.97714285714289 -343.26624768790589 L 369.12 -345.409104830763 L 371.26285714285711 -343.26624768790589 L 369.12 -341.12339054504872 Z"/>
                <g style="fill:rgb(255,255,255);clip-path:url(#clip7);">
                  <path d="M 427.45714285714291 -378.25811093130756 L 427.45714285714291 -382.54382521702183 L 431.74285714285713 -382.54382521702183 L 431.74285714285713 -378.25811093130756 Z" style="stroke:none;"/>
                </g>
                <g>
                  <path d="M 427.45714285714291 -380.40096807416472 L 429.60000000000002 -382.54382521702183 L 431.74285714285713 -380.40096807416472 L 429.60000000000002 -378.25811093130756 Z"/>
                </g>
              </g>
            </g>
          </g>
        </g>
      </g>
      <g style="clip-path:url(#clip8);">
        <path d="M 308.63999999999999 -302.67036059079527 L 317.27999999999997 -305.65055999999998 L 334.56 -311.20455529411765 L 369.12 -321.0755011764706 L 429.60000000000002 -339.15851294117647" style="stroke:rgb(126,126,126);stroke-width:1.2;"/>
      </g>
      <g style="clip-path:url(#clip9);">
        <g style="fill:rgb(255,255,255);clip-path:url(#clip10);">
          <path d="M 306.76499999999999 -301.17036059079527 L 306.76499999999999 -304.17036059079527 L 310.51499999999999 -304.17036059079527 L 310.51499999999999 -301.17036059079527 Z" style="stroke:none;"/>
        </g>
        <g>
          <path d="M 306.76499999999999 -301.17036059079527 L 310.51499999999999 -301.17036059079527 L 308.63999999999999 -304.17036059079527 Z"/>
          <g style="fill:rgb(255,255,255);clip-path:url(#clip11);">
            <path d="M 315.40499999999997 -304.15055999999998 L 315.40499999999997 -307.15055999999998 L 319.15499999999997 -307.15055999999998 L 319.15499999999997 -304.15055999999998 Z" style="stroke:none;"/>
          </g>
          <g>
            <path d="M 315.40499999999997 -304.15055999999998 L 319.15499999999997 -304.15055999999998 L 317.27999999999997 -307.15055999999998 Z"/>
            <g style="fill:rgb(255,255,255);clip-path:url(#clip12);">
              <path d="M 332.685 -309.70455529411765 L 332.685 -312.70455529411765 L 336.435 -312.70455529411765 L 336.435 -309.70455529411765 Z" style="stroke:none;"/>
            </g>
            <g>
              <path d="M 332.685 -309.70455529411765 L 336.435 -309.70455529411765 L 334.56 -312.70455529411765 Z"/>
              <g style="fill:rgb(255,255,255);clip-path:url(#clip13);">
                <path d="M 367.245 -319.5755011764706 L 367.245 -322.5755011764706 L 370.995 -322.5755011764706 L 370.995 -319.5755011764706 Z" style="stroke:none;"/>
              </g>
              <g>
                <path d="M 367.245 -319.5755011764706 L 370.995 -319.5755011764706 L 369.12 -322.5755011764706 Z"/>
                <g style="fill:rgb(255,255,255);clip-path:url(#clip14);">
                  <path d="M 427.72500000000002 -337.65851294117647 L 427.72500000000002 -340.65851294117647 L 431.47500000000002 -340.65851294117647 L 431.47500000000002 -337.65851294117647 Z" style="stroke:none;"/>
                </g>
                <g>
                  <path d="M 427.72500000000002 -337.65851294117647 L 431.47500000000002 -337.65851294117647 L 429.60000000000002 -340.65851294117647 Z"/>
                </g>
              </g>
            </g>
          </g>
        </g>
      </g>
      <g style="clip-path:url(#clip15);">
        <path d="M 308.63999999999999 -302.00545812525178 L 317.27999999999997 -304.20766296293647 L 334.56 -308.16717081600001 L 369.12 -315.1223573172706 L 429.60000000000002 -327.83325648112941" style="stroke-width:1.2;stroke-dasharray:1.5,1.5;"/>
      </g>
      <g style="clip-path:url(#clip16);">
        <path d="M 306.83999999999997 -300.20545812525177 L 310.44 -303.80545812525179" style="stroke-width:1;"/>
        <path d="M 310.44 -300.20545812525177 L 306.83999999999997 -303.80545812525179" style="stroke-width:1;"/>
        <path d="M 315.48000000000002 -302.40766296293646 L 319.07999999999998 -306.00766296293648" style="stroke-width:1;"/>
        <path d="M 319.07999999999998 -302.40766296293646 L 315.48000000000002 -306.00766296293648" style="stroke-width:1;"/>
        <path d="M 332.75999999999999 -306.367170816 L 336.36000000000001 -309.96717081600002" style="stroke-width:1;"/>
        <path d="M 336.36000000000001 -306.367170816 L 332.75999999999999 -309.96717081600002" style="stroke-width:1;"/>
        <path d="M 367.31999999999999 -313.32235731727059 L 370.92000000000002 -316.92235731727061" style="stroke-width:1;"/>
        <path d="M 370.92000000000002 -313.32235731727059 L 367.31999999999999 -316.92235731727061" style="stroke-width:1;"/>
        <path d="M 427.80000000000001 -326.0332564811294 L 431.40000000000003 -329.63325648112942" style="stroke-width:1;"/>
        <path d="M 431.40000000000003 -326.0332564811294 L 427.80000000000001 -329.63325648112942" style="stroke-width:1;"/>
      </g>
      <g style="clip-path:url(#clip17);">
        <path d="M 308.63999999999999 -301.52368941176468 L 317.27999999999997 -304.83451723482352 L 334.56 -309.10960941176472 L 369.12 -317.20274823529411 L 429.60000000000002 -329.47053176470587" style="stroke-width:1.2;"/>
      </g>
      <g style="clip-path:url(#clip18);">
        <g style="fill:rgb(255,255,255);clip-path:url(#clip19);">
          <path d="M 307.13999999999999 -300.02368941176468 L 307.13999999999999 -303.02368941176468 L 310.13999999999999 -303.02368941176468 L 310.13999999999999 -300.02368941176468 Z" style="stroke:none;"/>
        </g>
        <g>
          <path d="M 307.13999999999999 -300.02368941176468 L 307.13999999999999 -303.02368941176468 L 310.13999999999999 -303.02368941176468 L 310.13999999999999 -300.02368941176468 Z"/>
          <g style="fill:rgb(255,255,255);clip-path:url(#clip20);">
            <path d="M 315.77999999999997 -303.33451723482352 L 315.77999999999997 -306.33451723482352 L 318.77999999999997 -306.33451723482352 L 318.77999999999997 -303.33451723482352 Z" style="stroke:none;"/>
          </g>
          <g>
            <path d="M 315.77999999999997 -303.33451723482352 L 315.77999999999997 -306.33451723482352 L 318.77999999999997 -306.33451723482352 L 318.77999999999997 -303.33451723482352 Z"/>
            <g style="fill:rgb(255,255,255);clip-path:url(#clip21);">
              <path d="M 333.06 -307.60960941176472 L 333.06 -310.60960941176472 L 336.06 -310.60960941176472 L 336.06 -307.60960941176472 Z" style="stroke:none;"/>
            </g>
            <g>
              <path d="M 333.06 -307.60960941176472 L 333.06 -310.60960941176472 L 336.06 -310.60960941176472 L 336.06 -307.60960941176472 Z"/>
              <g style="fill:rgb(255,255,255);clip-path:url(#clip22);">
                <path d="M 367.62 -315.70274823529411 L 367.62 -318.70274823529411 L 370.62 -318.70274823529411 L 370.62 -315.70274823529411 Z" style="stroke:none;"/>
              </g>
              <g>
                <path d="M 367.62 -315.70274823529411 L 367.62 -318.70274823529411 L 370.62 -318.70274823529411 L 370.62 -315.70274823529411 Z"/>
                <g style="fill:rgb(255,255,255);clip-path:url(#clip23);">
                  <path d="M 428.10000000000002 -327.97053176470587 L 428.10000000000002 -330.97053176470587 L 431.10000000000002 -330.97053176470587 L 431.10000000000002 -327.97053176470587 Z" style="stroke:none;"/>
                </g>
                <g>
                  <path d="M 428.10000000000002 -327.97053176470587 L 428.10000000000002 -330.97053176470587 L 431.10000000000002 -330.97053176470587 L 431.10000000000002 -327.97053176470587 Z"/>
                </g>
              </g>
            </g>
          </g>
        </g>
      </g>
    </g>
    <g style="fill:rgb(255,255,255);clip-path:url(#clip24);">
      <path d="M 461.32000000000005 -297 L 461.32000000000005 -345 L 585.35900000000004 -345 L 585.35900000000004 -297 Z" style="stroke:none;"/>
    </g>
    <g>
      <path d="M 461.32000000000005 -297 L 461.32000000000005 -345 L 585.35900000000004 -345 L 585.35900000000004 -297 Z"/>
      <path d="M 466.32000000000005 -339.0 L 475.32000000000005 -339.0" style="stroke-width:1.2;"/>
      <g style="fill:rgb(255,255,255);clip-path:url(#clip25);">
        <path d="M 468.67714285714288 -336.85714285714283 L 468.67714285714288 -341.14285714285717 L 472.96285714285716 -341.14285714285717 L 472.96285714285716 -336.85714285714283 Z" style="stroke:none;"/>
      </g>
      <g>
        <path d="M 468.67714285714288 -339.0 L 470.82000000000005 -341.14285714285717 L 472.96285714285716 -339.0 L 470.82000000000005 -336.85714285714283 Z"/>
        <text style="stroke:none;fill:rgb(0,0,0);" x="475.32000000000005" y="-336.0">
          Porcupine no replication
        </text>
        <path d="M 466.32000000000005 -330.0 L 475.32000000000005 -330.0" style="stroke:rgb(126,126,126);stroke-width:1.2;"/>
        <g style="fill:rgb(255,255,255);clip-path:url(#clip26);">
          <path d="M 468.94500000000005 -328.5 L 468.94500000000005 -331.5 L 472.69500000000005 -331.5 L 472.69500000000005 -328.5 Z" style="stroke:none;"/>
        </g>
        <g>
          <path d="M 468.94500000000005 -328.5 L 472.69500000000005 -328.5 L 470.82000000000005 -331.5 Z"/>
          <text style="stroke:none;fill:rgb(0,0,0);" x="475.32000000000005" y="-327.0">
            Porcupine with
          </text>
          <text style="stroke:none;fill:rgb(0,0,0);" x="475.32000000000005" y="-318.0">
            replication, NVRAM
          </text>
          <path d="M 466.32000000000005 -312.0 L 475.32000000000005 -312.0" style="stroke-width:1.2;stroke-dasharray:1.5,1.5;"/>
          <path d="M 469.01999999999998 -310.19999999999999 L 472.62 -313.80000000000001" style="stroke-width:1;"/>
          <path d="M 472.62 -310.19999999999999 L 469.01999999999998 -313.80000000000001" style="stroke-width:1;"/>
          <text style="stroke:none;fill:rgb(0,0,0);" x="475.32000000000005" y="-309.0">
            Porcupine with replication
          </text>
          <path d="M 466.32000000000005 -303.0 L 475.32000000000005 -303.0" style="stroke-width:1.2;"/>
          <g style="fill:rgb(255,255,255);clip-path:url(#clip27);">
            <path d="M 469.32000000000005 -301.5 L 469.32000000000005 -304.5 L 472.32000000000005 -304.5 L 472.32000000000005 -301.5 Z" style="stroke:none;"/>
          </g>
          <g>
            <path d="M 469.32000000000005 -301.5 L 469.32000000000005 -304.5 L 472.32000000000005 -304.5 L 472.32000000000005 -301.5 Z"/>
            <text style="stroke:none;fill:rgb(0,0,0);" x="475.32000000000005" y="-300.0">
              Sendmail+popd
            </text>
          </g>
        </g>
      </g>
    </g>
  </g>
</svg>
