<?xml version="1.0" ?>
<!--Created by PyChart 1.38 Copyright 1999-2005 Yasushi Saito-->
<svg viewBox="222.484 -402.9 401.56 150.9" xmlns="http://www.w3.org/2000/svg" xmlns:xlink="http://www.w3.org/1999/xlink">
  <defs>
    <clipPath id="clip0">
      <path d="M 297 -297 L 297 -389.39999999999998 L 425.39999999999998 -389.39999999999998 L 425.39999999999998 -297 Z"/>
    </clipPath>
    <clipPath id="clip1">
      <path d="M 300 -300 L 300 -386.39999999999998 L 422.39999999999998 -386.39999999999998 L 422.39999999999998 -300 Z"/>
    </clipPath>
    <clipPath id="clip2">
      <path d="M 300 -300 L 300 -386.39999999999998 L 422.39999999999998 -386.39999999999998 L 422.39999999999998 -300 Z"/>
    </clipPath>
    <clipPath id="clip3">
      <path d="M 267.10000000000002 -338.44799999999998 L 267.10000000000002 -338.44799999999998 L 272.10000000000002 -338.44799999999998 L 272.10000000000002 -338.44799999999998 Z"/>
    </clipPath>
    <clipPath id="clip4">
      <path d="M 307.89999999999998 -338.44799999999998 L 307.89999999999998 -352.05599999999998 L 312.89999999999998 -352.05599999999998 L 312.89999999999998 -338.44799999999998 Z"/>
    </clipPath>
    <clipPath id="clip5">
      <path d="M 348.69999999999999 -338.44799999999998 L 348.69999999999999 -367.17599999999999 L 353.69999999999999 -367.17599999999999 L 353.69999999999999 -338.44799999999998 Z"/>
    </clipPath>
    <clipPath id="clip6">
      <path d="M 389.5 -338.44799999999998 L 389.5 -380.35199999999998 L 394.5 -380.35199999999998 L 394.5 -338.44799999999998 Z"/>
    </clipPath>
    <clipPath id="clip7">
      <path d="M 300 -300 L 300 -386.39999999999998 L 422.39999999999998 -386.39999999999998 L 422.39999999999998 -300 Z"/>
    </clipPath>
    <clipPath id="clip8">
      <path d="M 300 -300 L 300 -386.39999999999998 L 422.39999999999998 -386.39999999999998 L 422.39999999999998 -300 Z"/>
    </clipPath>
    <clipPath id="clip9">
      <path d="M 272.10000000000002 -341.25599999999997 L 272.10000000000002 -341.25599999999997 L 277.10000000000002 -341.25599999999997 L 277.10000000000002 -341.25599999999997 Z"/>
    </clipPath>
    <clipPath id="clip10">
      <path d="M 312.89999999999998 -341.25599999999997 L 312.89999999999998 -350.976 L 317.89999999999998 -350.976 L 317.89999999999998 -341.25599999999997 Z"/>
    </clipPath>
    <clipPath id="clip11">
      <path d="M 353.69999999999999 -341.25599999999997 L 353.69999999999999 -366.74400000000003 L 358.69999999999999 -366.74400000000003 L 358.69999999999999 -341.25599999999997 Z"/>
    </clipPath>
    <clipPath id="clip12">
      <path d="M 394.5 -341.25599999999997 L 394.5 -378.83999999999997 L 399.5 -378.83999999999997 L 399.5 -341.25599999999997 Z"/>
    </clipPath>
    <clipPath id="clip13">
      <path d="M 300 -300 L 300 -386.39999999999998 L 422.39999999999998 -386.39999999999998 L 422.39999999999998 -300 Z"/>
    </clipPath>
    <clipPath id="clip14">
      <path d="M 300 -300 L 300 -386.39999999999998 L 422.39999999999998 -386.39999999999998 L 422.39999999999998 -300 Z"/>
    </clipPath>
    <clipPath id="clip15">
      <path d="M 277.10000000000002 -333.06744000000003 L 277.10000000000002 -333.06744000000003 L 282.10000000000002 -333.06744000000003 L 282.10000000000002 -333.06744000000003 Z"/>
    </clipPath>
    <clipPath id="clip16">
      <path d="M 317.89999999999998 -333.06744000000003 L 317.89999999999998 -339.54743999999999 L 322.89999999999998 -339.54743999999999 L 322.89999999999998 -333.06744000000003 Z"/>
    </clipPath>
    <clipPath id="clip17">
      <path d="M 358.69999999999999 -333.06744000000003 L 358.69999999999999 -344.51544000000001 L 363.69999999999999 -344.51544000000001 L 363.69999999999999 -333.06744000000003 Z"/>
    </clipPath>
    <clipPath id="clip18">
      <path d="M 399.5 -333.06744000000003 L 399.5 -348.40343999999999 L 404.5 -348.40343999999999 L 404.5 -333.06744000000003 Z"/>
    </clipPath>
    <clipPath id="clip19">
      <path d="M 300 -300 L 300 -386.39999999999998 L 422.39999999999998 -386.39999999999998 L 422.39999999999998 -300 Z"/>
    </clipPath>
    <clipPath id="clip20">
      <path d="M 300 -300 L 300 -386.39999999999998 L 422.39999999999998 -386.39999999999998 L 422.39999999999998 -300 Z"/>
    </clipPath>
    <clipPath id="clip21">
      <path d="M 282.10000000000002 -336.04608000000002 L 282.10000000000002 -336.04608000000002 L 287.10000000000002 -336.04608000000002 L 287.10000000000002 -336.04608000000002 Z"/>
    </clipPath>
    <clipPath id="clip22">
      <path d="M 322.89999999999998 -336.04608000000002 L 322.89999999999998 -337.99007999999998 L 327.89999999999998 -337.99007999999998 L 327.89999999999998 -336.04608000000002 Z"/>
    </clipPath>
    <clipPath id="clip23">
      <path d="M 363.69999999999999 -336.04608000000002 L 363.69999999999999 -340.36608000000001 L 368.69999999999999 -340.36608000000001 L 368.69999999999999 -336.04608000000002 Z"/>
    </clipPath>
    <clipPath id="clip24">
      <path d="M 404.5 -336.04608000000002 L 404.5 -342.74207999999999 L 409.5 -342.74207999999999 L 409.5 -336.04608000000002 Z"/>
    </clipPath>
    <clipPath id="clip25">
      <path d="M 300 -300 L 300 -386.39999999999998 L 422.39999999999998 -386.39999999999998 L 422.39999999999998 -300 Z"/>
    </clipPath>
    <clipPath id="clip26">
      <path d="M 300 -300 L 300 -386.39999999999998 L 422.39999999999998 -386.39999999999998 L 422.39999999999998 -300 Z"/>
    </clipPath>
    <clipPath id="clip27">
      <path d="M 287.10000000000002 -320.13120000000004 L 287.10000000000002 -320.13120000000004 L 292.10000000000002 -320.13120000000004 L 292.10000000000002 -320.13120000000004 Z"/>
    </clipPath>
    <clipPath id="clip28">
      <path d="M 327.89999999999998 -320.13120000000004 L 327.89999999999998 -320.56319999999999 L 332.89999999999998 -320.56319999999999 L 332.89999999999998 -320.13120000000004 Z"/>
    </clipPath>
    <clipPath id="clip29">
      <path d="M 368.69999999999999 -320.13120000000004 L 368.69999999999999 -320.7792 L 373.69999999999999 -320.7792 L 373.69999999999999 -320.13120000000004 Z"/>
    </clipPath>
    <clipPath id="clip30">
      <path d="M 409.5 -320.13120000000004 L 409.5 -320.7792 L 414.5 -320.7792 L 414.5 -320.13120000000004 Z"/>
    </clipPath>
    <clipPath id="clip31">
      <path d="M 356.19999999999999 -255 L 377.19799999999998 -255 L 377.198 -255 L 377.19799999999998 -269 L 377.198 -269 L 356.19999999999999 -269 L 356.2 -269 L 356.19999999999999 -255 L 356.2 -255 Z"/>
    </clipPath>
    <clipPath id="clip32">
      <path d="M 455.39999999999998 -297 L 455.39999999999998 -389.39999999999998 L 583.79999999999995 -389.39999999999998 L 583.79999999999995 -297 Z"/>
    </clipPath>
    <clipPath id="clip33">
      <path d="M 458.39999999999998 -300 L 458.39999999999998 -386.39999999999998 L 580.79999999999995 -386.39999999999998 L 580.79999999999995 -300 Z"/>
    </clipPath>
    <clipPath id="clip34">
      <path d="M 458.39999999999998 -300 L 458.39999999999998 -386.39999999999998 L 580.79999999999995 -386.39999999999998 L 580.79999999999995 -300 Z"/>
    </clipPath>
    <clipPath id="clip35">
      <path d="M 425.5 -331.68288000000001 L 425.5 -331.68288000000001 L 430.5 -331.68288000000001 L 430.5 -331.68288000000001 Z"/>
    </clipPath>
    <clipPath id="clip36">
      <path d="M 466.29999999999995 -331.68288000000001 L 466.29999999999995 -343.13087999999999 L 471.29999999999995 -343.13087999999999 L 471.29999999999995 -331.68288000000001 Z"/>
    </clipPath>
    <clipPath id="clip37">
      <path d="M 507.09999999999997 -331.68288000000001 L 507.09999999999997 -354.57887999999997 L 512.09999999999991 -354.57887999999997 L 512.09999999999991 -331.68288000000001 Z"/>
    </clipPath>
    <clipPath id="clip38">
      <path d="M 547.89999999999998 -331.68288000000001 L 547.89999999999998 -365.81088 L 552.89999999999998 -365.81088 L 552.89999999999998 -331.68288000000001 Z"/>
    </clipPath>
    <clipPath id="clip39">
      <path d="M 458.39999999999998 -300 L 458.39999999999998 -386.39999999999998 L 580.79999999999995 -386.39999999999998 L 580.79999999999995 -300 Z"/>
    </clipPath>
    <clipPath id="clip40">
      <path d="M 458.39999999999998 -300 L 458.39999999999998 -386.39999999999998 L 580.79999999999995 -386.39999999999998 L 580.79999999999995 -300 Z"/>
    </clipPath>
    <clipPath id="clip41">
      <path d="M 430.5 -327.01295999999996 L 430.5 -327.01295999999996 L 435.5 -327.01295999999996 L 435.5 -327.01295999999996 Z"/>
    </clipPath>
    <clipPath id="clip42">
      <path d="M 471.29999999999995 -327.01295999999996 L 471.29999999999995 -331.33295999999996 L 476.29999999999995 -331.33295999999996 L 476.29999999999995 -327.01295999999996 Z"/>
    </clipPath>
    <clipPath id="clip43">
      <path d="M 512.09999999999991 -327.01295999999996 L 512.09999999999991 -339.54095999999998 L 517.09999999999991 -339.54095999999998 L 517.09999999999991 -327.01295999999996 Z"/>
    </clipPath>
    <clipPath id="clip44">
      <path d="M 552.89999999999998 -327.01295999999996 L 552.89999999999998 -347.74896000000001 L 557.89999999999998 -347.74896000000001 L 557.89999999999998 -327.01295999999996 Z"/>
    </clipPath>
    <clipPath id="clip45">
      <path d="M 458.39999999999998 -300 L 458.39999999999998 -386.39999999999998 L 580.79999999999995 -386.39999999999998 L 580.79999999999995 -300 Z"/>
    </clipPath>
    <clipPath id="clip46">
      <path d="M 458.39999999999998 -300 L 458.39999999999998 -386.39999999999998 L 580.79999999999995 -386.39999999999998 L 580.79999999999995 -300 Z"/>
    </clipPath>
    <clipPath id="clip47">
      <path d="M 435.5 -327.31536 L 435.5 -327.31536 L 440.5 -327.31536 L 440.5 -327.31536 Z"/>
    </clipPath>
    <clipPath id="clip48">
      <path d="M 476.29999999999995 -327.31536 L 476.29999999999995 -331.20336000000003 L 481.29999999999995 -331.20336000000003 L 481.29999999999995 -327.31536 Z"/>
    </clipPath>
    <clipPath id="clip49">
      <path d="M 517.09999999999991 -327.31536 L 517.09999999999991 -335.09136000000001 L 522.09999999999991 -335.09136000000001 L 522.09999999999991 -327.31536 Z"/>
    </clipPath>
    <clipPath id="clip50">
      <path d="M 557.89999999999998 -327.31536 L 557.89999999999998 -339.41136 L 562.89999999999998 -339.41136 L 562.89999999999998 -327.31536 Z"/>
    </clipPath>
    <clipPath id="clip51">
      <path d="M 458.39999999999998 -300 L 458.39999999999998 -386.39999999999998 L 580.79999999999995 -386.39999999999998 L 580.79999999999995 -300 Z"/>
    </clipPath>
    <clipPath id="clip52">
      <path d="M 458.39999999999998 -300 L 458.39999999999998 -386.39999999999998 L 580.79999999999995 -386.39999999999998 L 580.79999999999995 -300 Z"/>
    </clipPath>
    <clipPath id="clip53">
      <path d="M 440.5 -326.09280000000001 L 440.5 -326.09280000000001 L 445.5 -326.09280000000001 L 445.5 -326.09280000000001 Z"/>
    </clipPath>
    <clipPath id="clip54">
      <path d="M 481.29999999999995 -326.09280000000001 L 481.29999999999995 -327.82079999999996 L 486.29999999999995 -327.82079999999996 L 486.29999999999995 -326.09280000000001 Z"/>
    </clipPath>
    <clipPath id="clip55">
      <path d="M 522.09999999999991 -326.09280000000001 L 522.09999999999991 -330.4128 L 527.09999999999991 -330.4128 L 527.09999999999991 -326.09280000000001 Z"/>
    </clipPath>
    <clipPath id="clip56">
      <path d="M 562.89999999999998 -326.09280000000001 L 562.89999999999998 -333.00479999999999 L 567.89999999999998 -333.00479999999999 L 567.89999999999998 -326.09280000000001 Z"/>
    </clipPath>
    <clipPath id="clip57">
      <path d="M 458.39999999999998 -300 L 458.39999999999998 -386.39999999999998 L 580.79999999999995 -386.39999999999998 L 580.79999999999995 -300 Z"/>
    </clipPath>
    <clipPath id="clip58">
      <path d="M 458.39999999999998 -300 L 458.39999999999998 -386.39999999999998 L 580.79999999999995 -386.39999999999998 L 580.79999999999995 -300 Z"/>
    </clipPath>
    <clipPath id="clip59">
      <path d="M 445.5 -310.80000000000001 L 445.5 -310.80000000000001 L 450.5 -310.80000000000001 L 450.5 -310.80000000000001 Z"/>
    </clipPath>
    <clipPath id="clip60">
      <path d="M 486.29999999999995 -310.80000000000001 L 486.29999999999995 -311.66399999999999 L 491.29999999999995 -311.66399999999999 L 491.29999999999995 -310.80000000000001 Z"/>
    </clipPath>
    <clipPath id="clip61">
      <path d="M 527.09999999999991 -310.80000000000001 L 527.09999999999991 -312.096 L 532.09999999999991 -312.096 L 532.09999999999991 -310.80000000000001 Z"/>
    </clipPath>
    <clipPath id="clip62">
      <path d="M 567.89999999999998 -310.80000000000001 L 567.89999999999998 -312.096 L 572.89999999999998 -312.096 L 572.89999999999998 -310.80000000000001 Z"/>
    </clipPath>
    <clipPath id="clip63">
      <path d="M 588.03999999999996 -297 L 588.03999999999996 -345 L 621.04399999999998 -345 L 621.04399999999998 -297 Z"/>
    </clipPath>
    <clipPath id="clip64">
      <path d="M 593.03999999999996 -335.85000000000002 L 593.03999999999996 -342.14999999999998 L 599.33999999999992 -342.14999999999998 L 599.33999999999992 -335.85000000000002 Z"/>
    </clipPath>
    <clipPath id="clip65">
      <path d="M 593.03999999999996 -326.85000000000002 L 593.03999999999996 -333.14999999999998 L 599.33999999999992 -333.14999999999998 L 599.33999999999992 -326.85000000000002 Z"/>
    </clipPath>
    <clipPath id="clip66">
      <path d="M 593.03999999999996 -317.85000000000002 L 593.03999999999996 -324.14999999999998 L 599.33999999999992 -324.14999999999998 L 599.33999999999992 -317.85000000000002 Z"/>
    </clipPath>
    <clipPath id="clip67">
      <path d="M 593.03999999999996 -308.85000000000002 L 593.03999999999996 -315.14999999999998 L 599.33999999999992 -315.14999999999998 L 599.33999999999992 -308.85000000000002 Z"/>
    </clipPath>
    <clipPath id="clip68">
      <path d="M 593.03999999999996 -299.85000000000002 L 593.03999999999996 -306.14999999999998 L 599.33999999999992 -306.14999999999998 L 599.33999999999992 -299.85000000000002 Z"/>
    </clipPath>
    <clipPath id="clip69">
      <path d="M 514.59999999999991 -255 L 535.59799999999996 -255 L 535.598 -255 L 535.59799999999996 -269 L 535.598 -269 L 514.59999999999991 -269 L 514.6 -269 L 514.59999999999991 -255 L 514.6 -255 Z"/>
    </clipPath>
  </defs>
  <g style="stroke-linejoin:miter;font-size:9;font-family:Helvetica;fill:none;stroke-linecap:butt;stroke:rgb(0,0,0);font-stretch:normal;stroke-dasharray:none;font-weight:normal;font-style:normal;stroke-width:0.4;">
    <path d="M 300 -300 L 422.39999999999998 -300"/>
    <path d="M 300 -300 L 422.39999999999998 -300"/>
    <path d="M 320.39999999999998 -300 L 320.39999999999998 -294"/>
    <text style="stroke:none;fill:rgb(0,0,0);" x="317.89800000000002" y="-285.0">
      1
    </text>
    <path d="M 361.19999999999999 -300 L 361.19999999999999 -294"/>
    <text style="stroke:none;fill:rgb(0,0,0);" x="358.69799999999998" y="-285.0">
      2
    </text>
    <text style="stroke:none;font-weight:bold;fill:rgb(0,0,0);" x="291.93599999999998" y="-270.5">
      Number of nodes with fast disks
    </text>
    <path d="M 300 -321.60000000000002 L 422.39999999999998 -321.60000000000002" style="stroke:rgb(179,179,179);stroke-dasharray:1,1;"/>
    <path d="M 300 -343.19999999999999 L 422.39999999999998 -343.19999999999999" style="stroke:rgb(179,179,179);stroke-dasharray:1,1;"/>
    <path d="M 300 -364.80000000000001 L 422.39999999999998 -364.80000000000001" style="stroke:rgb(179,179,179);stroke-dasharray:1,1;"/>
    <path d="M 300 -386.39999999999998 L 422.39999999999998 -386.39999999999998" style="stroke:rgb(179,179,179);stroke-dasharray:1,1;"/>
    <path d="M 300 -300 L 300 -386.39999999999998"/>
    <path d="M 300 -300.0 L 294 -300.0"/>
    <text style="stroke:none;fill:rgb(0,0,0);" x="278.988" y="-295.5">
      600
    </text>
    <path d="M 300 -310.80000000000001 L 294 -310.80000000000001"/>
    <text style="stroke:none;fill:rgb(0,0,0);" x="278.988" y="-306.30000000000001">
      650
    </text>
    <path d="M 300 -321.60000000000002 L 294 -321.60000000000002"/>
    <text style="stroke:none;fill:rgb(0,0,0);" x="278.988" y="-317.10000000000002">
      700
    </text>
    <path d="M 300 -332.39999999999998 L 294 -332.39999999999998"/>
    <text style="stroke:none;fill:rgb(0,0,0);" x="278.988" y="-327.89999999999998">
      750
    </text>
    <path d="M 300 -343.19999999999999 L 294 -343.19999999999999"/>
    <text style="stroke:none;fill:rgb(0,0,0);" x="278.988" y="-338.69999999999999">
      800
    </text>
    <path d="M 300 -354.0 L 294 -354.0"/>
    <text style="stroke:none;fill:rgb(0,0,0);" x="278.988" y="-349.5">
      850
    </text>
    <path d="M 300 -364.80000000000001 L 294 -364.80000000000001"/>
    <text style="stroke:none;fill:rgb(0,0,0);" x="278.988" y="-360.30000000000001">
      900
    </text>
    <path d="M 300 -375.60000000000002 L 294 -375.60000000000002"/>
    <text style="stroke:none;fill:rgb(0,0,0);" x="278.988" y="-371.10000000000002">
      950
    </text>
    <path d="M 300 -386.39999999999998 L 294 -386.39999999999998"/>
    <text style="stroke:none;fill:rgb(0,0,0);" x="273.98399999999998" y="-381.89999999999998">
      1000
    </text>
    <text style="stroke:none;font-weight:bold;fill:rgb(0,0,0);" transform="rotate(-90,234.484,-304.685)" x="234.48400000000001" y="-304.68450000000001">
      Messages/second
    </text>
    <g style="clip-path:url(#clip0);">
      <g style="clip-path:url(#clip1);"/>
      <g style="clip-path:url(#clip2);">
        <g style="fill:rgb(255,255,255);clip-path:url(#clip3);">
          <path d="M 267.10000000000002 -338.44799999999998 L 267.10000000000002 -338.44799999999998 L 272.10000000000002 -338.44799999999998 L 272.10000000000002 -338.44799999999998 Z" style="stroke:none;"/>
          <path d="M 260.89999999999998 -338.048 L 266.69999999999999 -343.84800000000001" style="stroke-linecap:square;fill:none;"/>
          <path d="M 265.142 -338.048 L 270.94200000000001 -343.84800000000001" style="stroke-linecap:square;fill:none;"/>
          <path d="M 269.38400000000001 -338.048 L 275.18400000000003 -343.84800000000001" style="stroke-linecap:square;fill:none;"/>
        </g>
        <g>
          <path d="M 267.10000000000002 -338.44799999999998 L 267.10000000000002 -338.44799999999998 L 272.10000000000002 -338.44799999999998 L 272.10000000000002 -338.44799999999998 Z"/>
          <g style="fill:rgb(255,255,255);clip-path:url(#clip4);">
            <path d="M 307.89999999999998 -338.44799999999998 L 307.89999999999998 -352.05599999999998 L 312.89999999999998 -352.05599999999998 L 312.89999999999998 -338.44799999999998 Z" style="stroke:none;"/>
            <path d="M 293.09199999999998 -338.048 L 307.5 -352.45600000000002" style="stroke-linecap:square;fill:none;"/>
            <path d="M 297.334 -338.048 L 311.74200000000002 -352.45600000000002" style="stroke-linecap:square;fill:none;"/>
            <path d="M 301.57600000000002 -338.048 L 315.98399999999998 -352.45600000000002" style="stroke-linecap:square;fill:none;"/>
            <path d="M 305.81799999999998 -338.048 L 320.226 -352.45600000000002" style="stroke-linecap:square;fill:none;"/>
            <path d="M 310.06 -338.048 L 324.46800000000002 -352.45600000000002" style="stroke-linecap:square;fill:none;"/>
          </g>
          <g>
            <path d="M 307.89999999999998 -338.44799999999998 L 307.89999999999998 -352.05599999999998 L 312.89999999999998 -352.05599999999998 L 312.89999999999998 -338.44799999999998 Z"/>
            <g style="fill:rgb(255,255,255);clip-path:url(#clip5);">
              <path d="M 348.69999999999999 -338.44799999999998 L 348.69999999999999 -367.17599999999999 L 353.69999999999999 -367.17599999999999 L 353.69999999999999 -338.44799999999998 Z" style="stroke:none;"/>
              <path d="M 318.77199999999999 -338.048 L 348.30000000000001 -367.57600000000002" style="stroke-linecap:square;fill:none;"/>
              <path d="M 323.01400000000001 -338.048 L 352.54200000000003 -367.57600000000002" style="stroke-linecap:square;fill:none;"/>
              <path d="M 327.25600000000003 -338.048 L 356.78399999999999 -367.57600000000002" style="stroke-linecap:square;fill:none;"/>
              <path d="M 331.49799999999999 -338.048 L 361.02600000000001 -367.57600000000002" style="stroke-linecap:square;fill:none;"/>
              <path d="M 335.74000000000001 -338.048 L 365.26800000000003 -367.57600000000002" style="stroke-linecap:square;fill:none;"/>
              <path d="M 339.98200000000003 -338.048 L 369.50999999999999 -367.57600000000002" style="stroke-linecap:square;fill:none;"/>
              <path d="M 344.22399999999999 -338.048 L 373.75200000000001 -367.57600000000002" style="stroke-linecap:square;fill:none;"/>
              <path d="M 348.46600000000001 -338.048 L 377.99400000000003 -367.57600000000002" style="stroke-linecap:square;fill:none;"/>
              <path d="M 352.70799999999997 -338.048 L 382.23599999999999 -367.57600000000002" style="stroke-linecap:square;fill:none;"/>
            </g>
            <g>
              <path d="M 348.69999999999999 -338.44799999999998 L 348.69999999999999 -367.17599999999999 L 353.69999999999999 -367.17599999999999 L 353.69999999999999 -338.44799999999998 Z"/>
              <g style="fill:rgb(255,255,255);clip-path:url(#clip6);">
                <path d="M 389.5 -338.44799999999998 L 389.5 -380.35199999999998 L 394.5 -380.35199999999998 L 394.5 -338.44799999999998 Z" style="stroke:none;"/>
                <path d="M 346.39600000000002 -338.048 L 389.10000000000002 -380.75200000000001" style="stroke-linecap:square;fill:none;"/>
                <path d="M 350.63799999999998 -338.048 L 393.34199999999998 -380.75200000000001" style="stroke-linecap:square;fill:none;"/>
                <path d="M 354.88 -338.048 L 397.584 -380.75200000000001" style="stroke-linecap:square;fill:none;"/>
                <path d="M 359.12200000000001 -338.048 L 401.82600000000002 -380.75200000000001" style="stroke-linecap:square;fill:none;"/>
                <path d="M 363.36399999999998 -338.048 L 406.06799999999998 -380.75200000000001" style="stroke-linecap:square;fill:none;"/>
                <path d="M 367.60599999999999 -338.048 L 410.31 -380.75200000000001" style="stroke-linecap:square;fill:none;"/>
                <path d="M 371.84800000000001 -338.048 L 414.55200000000002 -380.75200000000001" style="stroke-linecap:square;fill:none;"/>
                <path d="M 376.09000000000003 -338.048 L 418.79399999999998 -380.75200000000001" style="stroke-linecap:square;fill:none;"/>
                <path d="M 380.33199999999999 -338.048 L 423.036 -380.75200000000001" style="stroke-linecap:square;fill:none;"/>
                <path d="M 384.57400000000001 -338.048 L 427.27800000000002 -380.75200000000001" style="stroke-linecap:square;fill:none;"/>
                <path d="M 388.81600000000003 -338.048 L 431.51999999999998 -380.75200000000001" style="stroke-linecap:square;fill:none;"/>
                <path d="M 393.05799999999999 -338.048 L 435.762 -380.75200000000001" style="stroke-linecap:square;fill:none;"/>
              </g>
              <g>
                <path d="M 389.5 -338.44799999999998 L 389.5 -380.35199999999998 L 394.5 -380.35199999999998 L 394.5 -338.44799999999998 Z"/>
              </g>
            </g>
          </g>
        </g>
      </g>
      <g style="clip-path:url(#clip7);"/>
      <g style="clip-path:url(#clip8);">
        <g style="fill:rgb(179,179,179);clip-path:url(#clip9);">
          <path d="M 272.10000000000002 -341.25599999999997 L 272.10000000000002 -341.25599999999997 L 277.10000000000002 -341.25599999999997 L 277.10000000000002 -341.25599999999997 Z" style="stroke:none;"/>
        </g>
        <g>
          <path d="M 272.10000000000002 -341.25599999999997 L 272.10000000000002 -341.25599999999997 L 277.10000000000002 -341.25599999999997 L 277.10000000000002 -341.25599999999997 Z"/>
          <g style="fill:rgb(179,179,179);clip-path:url(#clip10);">
            <path d="M 312.89999999999998 -341.25599999999997 L 312.89999999999998 -350.976 L 317.89999999999998 -350.976 L 317.89999999999998 -341.25599999999997 Z" style="stroke:none;"/>
          </g>
          <g>
            <path d="M 312.89999999999998 -341.25599999999997 L 312.89999999999998 -350.976 L 317.89999999999998 -350.976 L 317.89999999999998 -341.25599999999997 Z"/>
            <g style="fill:rgb(179,179,179);clip-path:url(#clip11);">
              <path d="M 353.69999999999999 -341.25599999999997 L 353.69999999999999 -366.74400000000003 L 358.69999999999999 -366.74400000000003 L 358.69999999999999 -341.25599999999997 Z" style="stroke:none;"/>
            </g>
            <g>
              <path d="M 353.69999999999999 -341.25599999999997 L 353.69999999999999 -366.74400000000003 L 358.69999999999999 -366.74400000000003 L 358.69999999999999 -341.25599999999997 Z"/>
              <g style="fill:rgb(179,179,179);clip-path:url(#clip12);">
                <path d="M 394.5 -341.25599999999997 L 394.5 -378.83999999999997 L 399.5 -378.83999999999997 L 399.5 -341.25599999999997 Z" style="stroke:none;"/>
              </g>
              <g>
                <path d="M 394.5 -341.25599999999997 L 394.5 -378.83999999999997 L 399.5 -378.83999999999997 L 399.5 -341.25599999999997 Z"/>
              </g>
            </g>
          </g>
        </g>
      </g>
      <g style="clip-path:url(#clip13);"/>
      <g style="clip-path:url(#clip14);">
        <g style="fill:rgb(255,255,255);clip-path:url(#clip15);">
          <path d="M 277.10000000000002 -333.06744000000003 L 277.10000000000002 -333.06744000000003 L 282.10000000000002 -333.06744000000003 L 282.10000000000002 -333.06744000000003 Z" style="stroke:none;"/>
          <path d="M 276.69999999999999 -332.66744 L 270.89999999999998 -338.46744000000001" style="stroke-linecap:square;fill:none;"/>
          <path d="M 280.94200000000001 -332.66744 L 275.142 -338.46744000000001" style="stroke-linecap:square;fill:none;"/>
          <path d="M 285.18400000000003 -332.66744 L 279.38400000000001 -338.46744000000001" style="stroke-linecap:square;fill:none;"/>
        </g>
        <g>
          <path d="M 277.10000000000002 -333.06744000000003 L 277.10000000000002 -333.06744000000003 L 282.10000000000002 -333.06744000000003 L 282.10000000000002 -333.06744000000003 Z"/>
          <g style="fill:rgb(255,255,255);clip-path:url(#clip16);">
            <path d="M 317.89999999999998 -333.06744000000003 L 317.89999999999998 -339.54743999999999 L 322.89999999999998 -339.54743999999999 L 322.89999999999998 -333.06744000000003 Z" style="stroke:none;"/>
            <path d="M 317.5 -332.66744 L 310.22000000000003 -339.94744000000003" style="stroke-linecap:square;fill:none;"/>
            <path d="M 321.74200000000002 -332.66744 L 314.46199999999999 -339.94744000000003" style="stroke-linecap:square;fill:none;"/>
            <path d="M 325.98399999999998 -332.66744 L 318.70400000000001 -339.94744000000003" style="stroke-linecap:square;fill:none;"/>
            <path d="M 330.226 -332.66744 L 322.94600000000003 -339.94744000000003" style="stroke-linecap:square;fill:none;"/>
          </g>
          <g>
            <path d="M 317.89999999999998 -333.06744000000003 L 317.89999999999998 -339.54743999999999 L 322.89999999999998 -339.54743999999999 L 322.89999999999998 -333.06744000000003 Z"/>
            <g style="fill:rgb(255,255,255);clip-path:url(#clip17);">
              <path d="M 358.69999999999999 -333.06744000000003 L 358.69999999999999 -344.51544000000001 L 363.69999999999999 -344.51544000000001 L 363.69999999999999 -333.06744000000003 Z" style="stroke:none;"/>
              <path d="M 358.30000000000001 -332.66744 L 346.05200000000002 -344.91543999999999" style="stroke-linecap:square;fill:none;"/>
              <path d="M 362.54199999999997 -332.66744 L 350.29399999999998 -344.91543999999999" style="stroke-linecap:square;fill:none;"/>
              <path d="M 366.78399999999999 -332.66744 L 354.536 -344.91543999999999" style="stroke-linecap:square;fill:none;"/>
              <path d="M 371.02600000000001 -332.66744 L 358.77800000000002 -344.91543999999999" style="stroke-linecap:square;fill:none;"/>
              <path d="M 375.26800000000003 -332.66744 L 363.01999999999998 -344.91543999999999" style="stroke-linecap:square;fill:none;"/>
            </g>
            <g>
              <path d="M 358.69999999999999 -333.06744000000003 L 358.69999999999999 -344.51544000000001 L 363.69999999999999 -344.51544000000001 L 363.69999999999999 -333.06744000000003 Z"/>
              <g style="fill:rgb(255,255,255);clip-path:url(#clip18);">
                <path d="M 399.5 -333.06744000000003 L 399.5 -348.40343999999999 L 404.5 -348.40343999999999 L 404.5 -333.06744000000003 Z" style="stroke:none;"/>
                <path d="M 399.10000000000002 -332.66744 L 382.964 -348.80344000000002" style="stroke-linecap:square;fill:none;"/>
                <path d="M 403.34199999999998 -332.66744 L 387.20600000000002 -348.80344000000002" style="stroke-linecap:square;fill:none;"/>
                <path d="M 407.584 -332.66744 L 391.44799999999998 -348.80344000000002" style="stroke-linecap:square;fill:none;"/>
                <path d="M 411.82600000000002 -332.66744 L 395.69 -348.80344000000002" style="stroke-linecap:square;fill:none;"/>
                <path d="M 416.06799999999998 -332.66744 L 399.93200000000002 -348.80344000000002" style="stroke-linecap:square;fill:none;"/>
                <path d="M 420.31 -332.66744 L 404.17400000000004 -348.80344000000002" style="stroke-linecap:square;fill:none;"/>
              </g>
              <g>
                <path d="M 399.5 -333.06744000000003 L 399.5 -348.40343999999999 L 404.5 -348.40343999999999 L 404.5 -333.06744000000003 Z"/>
              </g>
            </g>
          </g>
        </g>
      </g>
      <g style="clip-path:url(#clip19);"/>
      <g style="clip-path:url(#clip20);">
        <g style="fill:rgb(255,255,255);clip-path:url(#clip21);">
          <path d="M 282.10000000000002 -336.04608000000002 L 282.10000000000002 -336.04608000000002 L 287.10000000000002 -336.04608000000002 L 287.10000000000002 -336.04608000000002 Z" style="stroke:none;"/>
        </g>
        <g>
          <path d="M 282.10000000000002 -336.04608000000002 L 282.10000000000002 -336.04608000000002 L 287.10000000000002 -336.04608000000002 L 287.10000000000002 -336.04608000000002 Z"/>
          <g style="fill:rgb(255,255,255);clip-path:url(#clip22);">
            <path d="M 322.89999999999998 -336.04608000000002 L 322.89999999999998 -337.99007999999998 L 327.89999999999998 -337.99007999999998 L 327.89999999999998 -336.04608000000002 Z" style="stroke:none;"/>
          </g>
          <g>
            <path d="M 322.89999999999998 -336.04608000000002 L 322.89999999999998 -337.99007999999998 L 327.89999999999998 -337.99007999999998 L 327.89999999999998 -336.04608000000002 Z"/>
            <g style="fill:rgb(255,255,255);clip-path:url(#clip23);">
              <path d="M 363.69999999999999 -336.04608000000002 L 363.69999999999999 -340.36608000000001 L 368.69999999999999 -340.36608000000001 L 368.69999999999999 -336.04608000000002 Z" style="stroke:none;"/>
            </g>
            <g>
              <path d="M 363.69999999999999 -336.04608000000002 L 363.69999999999999 -340.36608000000001 L 368.69999999999999 -340.36608000000001 L 368.69999999999999 -336.04608000000002 Z"/>
              <g style="fill:rgb(255,255,255);clip-path:url(#clip24);">
                <path d="M 404.5 -336.04608000000002 L 404.5 -342.74207999999999 L 409.5 -342.74207999999999 L 409.5 -336.04608000000002 Z" style="stroke:none;"/>
              </g>
              <g>
                <path d="M 404.5 -336.04608000000002 L 404.5 -342.74207999999999 L 409.5 -342.74207999999999 L 409.5 -336.04608000000002 Z"/>
              </g>
            </g>
          </g>
        </g>
      </g>
      <g style="clip-path:url(#clip25);"/>
      <g style="clip-path:url(#clip26);">
        <g style="fill:rgb(126,126,126);clip-path:url(#clip27);">
          <path d="M 287.10000000000002 -320.13120000000004 L 287.10000000000002 -320.13120000000004 L 292.10000000000002 -320.13120000000004 L 292.10000000000002 -320.13120000000004 Z" style="stroke:none;"/>
        </g>
        <g>
          <path d="M 287.10000000000002 -320.13120000000004 L 287.10000000000002 -320.13120000000004 L 292.10000000000002 -320.13120000000004 L 292.10000000000002 -320.13120000000004 Z"/>
          <g style="fill:rgb(126,126,126);clip-path:url(#clip28);">
            <path d="M 327.89999999999998 -320.13120000000004 L 327.89999999999998 -320.56319999999999 L 332.89999999999998 -320.56319999999999 L 332.89999999999998 -320.13120000000004 Z" style="stroke:none;"/>
          </g>
          <g>
            <path d="M 327.89999999999998 -320.13120000000004 L 327.89999999999998 -320.56319999999999 L 332.89999999999998 -320.56319999999999 L 332.89999999999998 -320.13120000000004 Z"/>
            <g style="fill:rgb(126,126,126);clip-path:url(#clip29);">
              <path d="M 368.69999999999999 -320.13120000000004 L 368.69999999999999 -320.7792 L 373.69999999999999 -320.7792 L 373.69999999999999 -320.13120000000004 Z" style="stroke:none;"/>
            </g>
            <g>
              <path d="M 368.69999999999999 -320.13120000000004 L 368.69999999999999 -320.7792 L 373.69999999999999 -320.7792 L 373.69999999999999 -320.13120000000004 Z"/>
              <g style="fill:rgb(126,126,126);clip-path:url(#clip30);">
                <path d="M 409.5 -320.13120000000004 L 409.5 -320.7792 L 414.5 -320.7792 L 414.5 -320.13120000000004 Z" style="stroke:none;"/>
              </g>
              <g>
                <path d="M 409.5 -320.13120000000004 L 409.5 -320.7792 L 414.5 -320.7792 L 414.5 -320.13120000000004 Z"/>
              </g>
            </g>
          </g>
        </g>
      </g>
    </g>
    <g style="fill:rgb(255,255,255);clip-path:url(#clip31);">
      <path d="M 356.19999999999999 -255 L 356.19999999999999 -269 L 377.19799999999998 -269 L 377.19799999999998 -255 Z" style="stroke:none;"/>
    </g>
    <text style="stroke:none;fill:rgb(0,0,0);" x="361.19999999999999" y="-260.0">
      (a)
    </text>
    <path d="M 458.39999999999998 -300 L 580.79999999999995 -300"/>
    <path d="M 458.39999999999998 -300 L 580.79999999999995 -300"/>
    <path d="M 478.79999999999995 -300 L 478.79999999999995 -294"/>
    <text style="stroke:none;fill:rgb(0,0,0);" x="476.298" y="-285.0">
      1
    </text>
    <path d="M 519.59999999999991 -300 L 519.59999999999991 -294"/>
    <text style="stroke:none;fill:rgb(0,0,0);" x="517.09799999999996" y="-285.0">
      2
    </text>
    <text style="stroke:none;font-weight:bold;fill:rgb(0,0,0);" x="450.33599999999996" y="-270.5">
      Number of nodes with fast disks
    </text>
    <path d="M 458.39999999999998 -343.19999999999999 L 580.79999999999995 -343.19999999999999" style="stroke:rgb(179,179,179);stroke-dasharray:1,1;"/>
    <path d="M 458.39999999999998 -386.39999999999998 L 580.79999999999995 -386.39999999999998" style="stroke:rgb(179,179,179);stroke-dasharray:1,1;"/>
    <path d="M 458.39999999999998 -300 L 458.39999999999998 -386.39999999999998"/>
    <path d="M 458.39999999999998 -300.0 L 452.39999999999998 -300.0"/>
    <text style="stroke:none;fill:rgb(0,0,0);" x="437.38799999999998" y="-295.5">
      300
    </text>
    <path d="M 458.39999999999998 -310.80000000000001 L 452.39999999999998 -310.80000000000001"/>
    <text style="stroke:none;fill:rgb(0,0,0);" x="437.38799999999998" y="-306.30000000000001">
      325
    </text>
    <path d="M 458.39999999999998 -321.60000000000002 L 452.39999999999998 -321.60000000000002"/>
    <text style="stroke:none;fill:rgb(0,0,0);" x="437.38799999999998" y="-317.10000000000002">
      350
    </text>
    <path d="M 458.39999999999998 -332.39999999999998 L 452.39999999999998 -332.39999999999998"/>
    <text style="stroke:none;fill:rgb(0,0,0);" x="437.38799999999998" y="-327.89999999999998">
      375
    </text>
    <path d="M 458.39999999999998 -343.19999999999999 L 452.39999999999998 -343.19999999999999"/>
    <text style="stroke:none;fill:rgb(0,0,0);" x="437.38799999999998" y="-338.69999999999999">
      400
    </text>
    <path d="M 458.39999999999998 -354.0 L 452.39999999999998 -354.0"/>
    <text style="stroke:none;fill:rgb(0,0,0);" x="437.38799999999998" y="-349.5">
      425
    </text>
    <path d="M 458.39999999999998 -364.80000000000001 L 452.39999999999998 -364.80000000000001"/>
    <text style="stroke:none;fill:rgb(0,0,0);" x="437.38799999999998" y="-360.30000000000001">
      450
    </text>
    <path d="M 458.39999999999998 -375.60000000000002 L 452.39999999999998 -375.60000000000002"/>
    <text style="stroke:none;fill:rgb(0,0,0);" x="437.38799999999998" y="-371.10000000000002">
      475
    </text>
    <path d="M 458.39999999999998 -386.39999999999998 L 452.39999999999998 -386.39999999999998"/>
    <text style="stroke:none;fill:rgb(0,0,0);" x="437.38799999999998" y="-381.89999999999998">
      500
    </text>
    <g style="clip-path:url(#clip32);">
      <g style="clip-path:url(#clip33);"/>
      <g style="clip-path:url(#clip34);">
        <g style="fill:rgb(255,255,255);clip-path:url(#clip35);">
          <path d="M 425.5 -331.68288000000001 L 425.5 -331.68288000000001 L 430.5 -331.68288000000001 L 430.5 -331.68288000000001 Z" style="stroke:none;"/>
          <path d="M 419.29999999999995 -331.28287999999998 L 425.09999999999997 -337.08287999999999" style="stroke-linecap:square;fill:none;"/>
          <path d="M 423.54199999999997 -331.28287999999998 L 429.34199999999998 -337.08287999999999" style="stroke-linecap:square;fill:none;"/>
          <path d="M 427.78399999999999 -331.28287999999998 L 433.58399999999995 -337.08287999999999" style="stroke-linecap:square;fill:none;"/>
        </g>
        <g>
          <path d="M 425.5 -331.68288000000001 L 425.5 -331.68288000000001 L 430.5 -331.68288000000001 L 430.5 -331.68288000000001 Z"/>
          <g style="fill:rgb(255,255,255);clip-path:url(#clip36);">
            <path d="M 466.29999999999995 -331.68288000000001 L 466.29999999999995 -343.13087999999999 L 471.29999999999995 -343.13087999999999 L 471.29999999999995 -331.68288000000001 Z" style="stroke:none;"/>
            <path d="M 453.65199999999999 -331.28287999999998 L 465.89999999999998 -343.53087999999997" style="stroke-linecap:square;fill:none;"/>
            <path d="M 457.89400000000001 -331.28287999999998 L 470.14199999999994 -343.53087999999997" style="stroke-linecap:square;fill:none;"/>
            <path d="M 462.13599999999997 -331.28287999999998 L 474.38399999999996 -343.53087999999997" style="stroke-linecap:square;fill:none;"/>
            <path d="M 466.37799999999993 -331.28287999999998 L 478.62599999999998 -343.53087999999997" style="stroke-linecap:square;fill:none;"/>
            <path d="M 470.61999999999995 -331.28287999999998 L 482.86799999999994 -343.53087999999997" style="stroke-linecap:square;fill:none;"/>
          </g>
          <g>
            <path d="M 466.29999999999995 -331.68288000000001 L 466.29999999999995 -343.13087999999999 L 471.29999999999995 -343.13087999999999 L 471.29999999999995 -331.68288000000001 Z"/>
            <g style="fill:rgb(255,255,255);clip-path:url(#clip37);">
              <path d="M 507.09999999999997 -331.68288000000001 L 507.09999999999997 -354.57887999999997 L 512.09999999999991 -354.57887999999997 L 512.09999999999991 -331.68288000000001 Z" style="stroke:none;"/>
              <path d="M 483.00399999999996 -331.28287999999998 L 506.69999999999993 -354.97888" style="stroke-linecap:square;fill:none;"/>
              <path d="M 487.24599999999998 -331.28287999999998 L 510.94199999999995 -354.97888" style="stroke-linecap:square;fill:none;"/>
              <path d="M 491.48799999999994 -331.28287999999998 L 515.18399999999997 -354.97888" style="stroke-linecap:square;fill:none;"/>
              <path d="M 495.7299999999999 -331.28287999999998 L 519.42599999999993 -354.97888" style="stroke-linecap:square;fill:none;"/>
              <path d="M 499.97199999999992 -331.28287999999998 L 523.66799999999989 -354.97888" style="stroke-linecap:square;fill:none;"/>
              <path d="M 504.21399999999994 -331.28287999999998 L 527.90999999999985 -354.97888" style="stroke-linecap:square;fill:none;"/>
              <path d="M 508.4559999999999 -331.28287999999998 L 532.15199999999993 -354.97888" style="stroke-linecap:square;fill:none;"/>
            </g>
            <g>
              <path d="M 507.09999999999997 -331.68288000000001 L 507.09999999999997 -354.57887999999997 L 512.09999999999991 -354.57887999999997 L 512.09999999999991 -331.68288000000001 Z"/>
              <g style="fill:rgb(255,255,255);clip-path:url(#clip38);">
                <path d="M 547.89999999999998 -331.68288000000001 L 547.89999999999998 -365.81088 L 552.89999999999998 -365.81088 L 552.89999999999998 -331.68288000000001 Z" style="stroke:none;"/>
                <path d="M 512.572 -331.28287999999998 L 547.5 -366.21087999999997" style="stroke-linecap:square;fill:none;"/>
                <path d="M 516.81399999999996 -331.28287999999998 L 551.74199999999996 -366.21087999999997" style="stroke-linecap:square;fill:none;"/>
                <path d="M 521.05599999999993 -331.28287999999998 L 555.98399999999992 -366.21087999999997" style="stroke-linecap:square;fill:none;"/>
                <path d="M 525.298 -331.28287999999998 L 560.22599999999989 -366.21087999999997" style="stroke-linecap:square;fill:none;"/>
                <path d="M 529.53999999999996 -331.28287999999998 L 564.46799999999996 -366.21087999999997" style="stroke-linecap:square;fill:none;"/>
                <path d="M 533.78199999999993 -331.28287999999998 L 568.70999999999992 -366.21087999999997" style="stroke-linecap:square;fill:none;"/>
                <path d="M 538.02399999999989 -331.28287999999998 L 572.95199999999988 -366.21087999999997" style="stroke-linecap:square;fill:none;"/>
                <path d="M 542.26599999999985 -331.28287999999998 L 577.19399999999996 -366.21087999999997" style="stroke-linecap:square;fill:none;"/>
                <path d="M 546.50799999999992 -331.28287999999998 L 581.43599999999992 -366.21087999999997" style="stroke-linecap:square;fill:none;"/>
                <path d="M 550.74999999999989 -331.28287999999998 L 585.67799999999988 -366.21087999999997" style="stroke-linecap:square;fill:none;"/>
              </g>
              <g>
                <path d="M 547.89999999999998 -331.68288000000001 L 547.89999999999998 -365.81088 L 552.89999999999998 -365.81088 L 552.89999999999998 -331.68288000000001 Z"/>
              </g>
            </g>
          </g>
        </g>
      </g>
      <g style="clip-path:url(#clip39);"/>
      <g style="clip-path:url(#clip40);">
        <g style="fill:rgb(179,179,179);clip-path:url(#clip41);">
          <path d="M 430.5 -327.01295999999996 L 430.5 -327.01295999999996 L 435.5 -327.01295999999996 L 435.5 -327.01295999999996 Z" style="stroke:none;"/>
        </g>
        <g>
          <path d="M 430.5 -327.01295999999996 L 430.5 -327.01295999999996 L 435.5 -327.01295999999996 L 435.5 -327.01295999999996 Z"/>
          <g style="fill:rgb(179,179,179);clip-path:url(#clip42);">
            <path d="M 471.29999999999995 -327.01295999999996 L 471.29999999999995 -331.33295999999996 L 476.29999999999995 -331.33295999999996 L 476.29999999999995 -327.01295999999996 Z" style="stroke:none;"/>
          </g>
          <g>
            <path d="M 471.29999999999995 -327.01295999999996 L 471.29999999999995 -331.33295999999996 L 476.29999999999995 -331.33295999999996 L 476.29999999999995 -327.01295999999996 Z"/>
            <g style="fill:rgb(179,179,179);clip-path:url(#clip43);">
              <path d="M 512.09999999999991 -327.01295999999996 L 512.09999999999991 -339.54095999999998 L 517.09999999999991 -339.54095999999998 L 517.09999999999991 -327.01295999999996 Z" style="stroke:none;"/>
            </g>
            <g>
              <path d="M 512.09999999999991 -327.01295999999996 L 512.09999999999991 -339.54095999999998 L 517.09999999999991 -339.54095999999998 L 517.09999999999991 -327.01295999999996 Z"/>
              <g style="fill:rgb(179,179,179);clip-path:url(#clip44);">
                <path d="M 552.89999999999998 -327.01295999999996 L 552.89999999999998 -347.74896000000001 L 557.89999999999998 -347.74896000000001 L 557.89999999999998 -327.01295999999996 Z" style="stroke:none;"/>
              </g>
              <g>
                <path d="M 552.89999999999998 -327.01295999999996 L 552.89999999999998 -347.74896000000001 L 557.89999999999998 -347.74896000000001 L 557.89999999999998 -327.01295999999996 Z"/>
              </g>
            </g>
          </g>
        </g>
      </g>
      <g style="clip-path:url(#clip45);"/>
      <g style="clip-path:url(#clip46);">
        <g style="fill:rgb(255,255,255);clip-path:url(#clip47);">
          <path d="M 435.5 -327.31536 L 435.5 -327.31536 L 440.5 -327.31536 L 440.5 -327.31536 Z" style="stroke:none;"/>
          <path d="M 435.09999999999997 -326.91536000000002 L 429.29999999999995 -332.71536000000003" style="stroke-linecap:square;fill:none;"/>
          <path d="M 439.34199999999998 -326.91536000000002 L 433.54199999999992 -332.71536000000003" style="stroke-linecap:square;fill:none;"/>
          <path d="M 443.58399999999995 -326.91536000000002 L 437.78399999999993 -332.71536000000003" style="stroke-linecap:square;fill:none;"/>
        </g>
        <g>
          <path d="M 435.5 -327.31536 L 435.5 -327.31536 L 440.5 -327.31536 L 440.5 -327.31536 Z"/>
          <g style="fill:rgb(255,255,255);clip-path:url(#clip48);">
            <path d="M 476.29999999999995 -327.31536 L 476.29999999999995 -331.20336000000003 L 481.29999999999995 -331.20336000000003 L 481.29999999999995 -327.31536 Z" style="stroke:none;"/>
            <path d="M 475.89999999999998 -326.91536000000002 L 470.09999999999997 -332.71536000000003" style="stroke-linecap:square;fill:none;"/>
            <path d="M 480.14199999999994 -326.91536000000002 L 474.34199999999998 -332.71536000000003" style="stroke-linecap:square;fill:none;"/>
            <path d="M 484.38399999999996 -326.91536000000002 L 478.58399999999995 -332.71536000000003" style="stroke-linecap:square;fill:none;"/>
          </g>
          <g>
            <path d="M 476.29999999999995 -327.31536 L 476.29999999999995 -331.20336000000003 L 481.29999999999995 -331.20336000000003 L 481.29999999999995 -327.31536 Z"/>
            <g style="fill:rgb(255,255,255);clip-path:url(#clip49);">
              <path d="M 517.09999999999991 -327.31536 L 517.09999999999991 -335.09136000000001 L 522.09999999999991 -335.09136000000001 L 522.09999999999991 -327.31536 Z" style="stroke:none;"/>
              <path d="M 516.69999999999993 -326.91536000000002 L 508.12399999999997 -335.49135999999999" style="stroke-linecap:square;fill:none;"/>
              <path d="M 520.94200000000001 -326.91536000000002 L 512.36599999999999 -335.49135999999999" style="stroke-linecap:square;fill:none;"/>
              <path d="M 525.18399999999997 -326.91536000000002 L 516.60799999999995 -335.49135999999999" style="stroke-linecap:square;fill:none;"/>
              <path d="M 529.42599999999993 -326.91536000000002 L 520.84999999999991 -335.49135999999999" style="stroke-linecap:square;fill:none;"/>
            </g>
            <g>
              <path d="M 517.09999999999991 -327.31536 L 517.09999999999991 -335.09136000000001 L 522.09999999999991 -335.09136000000001 L 522.09999999999991 -327.31536 Z"/>
              <g style="fill:rgb(255,255,255);clip-path:url(#clip50);">
                <path d="M 557.89999999999998 -327.31536 L 557.89999999999998 -339.41136 L 562.89999999999998 -339.41136 L 562.89999999999998 -327.31536 Z" style="stroke:none;"/>
                <path d="M 557.5 -326.91536000000002 L 544.60400000000004 -339.81135999999998" style="stroke-linecap:square;fill:none;"/>
                <path d="M 561.74199999999996 -326.91536000000002 L 548.846 -339.81135999999998" style="stroke-linecap:square;fill:none;"/>
                <path d="M 565.98400000000004 -326.91536000000002 L 553.08800000000008 -339.81135999999998" style="stroke-linecap:square;fill:none;"/>
                <path d="M 570.22600000000011 -326.91536000000002 L 557.33000000000004 -339.81135999999998" style="stroke-linecap:square;fill:none;"/>
                <path d="M 574.46800000000007 -326.91536000000002 L 561.57200000000012 -339.81135999999998" style="stroke-linecap:square;fill:none;"/>
              </g>
              <g>
                <path d="M 557.89999999999998 -327.31536 L 557.89999999999998 -339.41136 L 562.89999999999998 -339.41136 L 562.89999999999998 -327.31536 Z"/>
              </g>
            </g>
          </g>
        </g>
      </g>
      <g style="clip-path:url(#clip51);"/>
      <g style="clip-path:url(#clip52);">
        <g style="fill:rgb(255,255,255);clip-path:url(#clip53);">
          <path d="M 440.5 -326.09280000000001 L 440.5 -326.09280000000001 L 445.5 -326.09280000000001 L 445.5 -326.09280000000001 Z" style="stroke:none;"/>
        </g>
        <g>
          <path d="M 440.5 -326.09280000000001 L 440.5 -326.09280000000001 L 445.5 -326.09280000000001 L 445.5 -326.09280000000001 Z"/>
          <g style="fill:rgb(255,255,255);clip-path:url(#clip54);">
            <path d="M 481.29999999999995 -326.09280000000001 L 481.29999999999995 -327.82079999999996 L 486.29999999999995 -327.82079999999996 L 486.29999999999995 -326.09280000000001 Z" style="stroke:none;"/>
          </g>
          <g>
            <path d="M 481.29999999999995 -326.09280000000001 L 481.29999999999995 -327.82079999999996 L 486.29999999999995 -327.82079999999996 L 486.29999999999995 -326.09280000000001 Z"/>
            <g style="fill:rgb(255,255,255);clip-path:url(#clip55);">
              <path d="M 522.09999999999991 -326.09280000000001 L 522.09999999999991 -330.4128 L 527.09999999999991 -330.4128 L 527.09999999999991 -326.09280000000001 Z" style="stroke:none;"/>
            </g>
            <g>
              <path d="M 522.09999999999991 -326.09280000000001 L 522.09999999999991 -330.4128 L 527.09999999999991 -330.4128 L 527.09999999999991 -326.09280000000001 Z"/>
              <g style="fill:rgb(255,255,255);clip-path:url(#clip56);">
                <path d="M 562.89999999999998 -326.09280000000001 L 562.89999999999998 -333.00479999999999 L 567.89999999999998 -333.00479999999999 L 567.89999999999998 -326.09280000000001 Z" style="stroke:none;"/>
              </g>
              <g>
                <path d="M 562.89999999999998 -326.09280000000001 L 562.89999999999998 -333.00479999999999 L 567.89999999999998 -333.00479999999999 L 567.89999999999998 -326.09280000000001 Z"/>
              </g>
            </g>
          </g>
        </g>
      </g>
      <g style="clip-path:url(#clip57);"/>
      <g style="clip-path:url(#clip58);">
        <g style="fill:rgb(126,126,126);clip-path:url(#clip59);">
          <path d="M 445.5 -310.80000000000001 L 445.5 -310.80000000000001 L 450.5 -310.80000000000001 L 450.5 -310.80000000000001 Z" style="stroke:none;"/>
        </g>
        <g>
          <path d="M 445.5 -310.80000000000001 L 445.5 -310.80000000000001 L 450.5 -310.80000000000001 L 450.5 -310.80000000000001 Z"/>
          <g style="fill:rgb(126,126,126);clip-path:url(#clip60);">
            <path d="M 486.29999999999995 -310.80000000000001 L 486.29999999999995 -311.66399999999999 L 491.29999999999995 -311.66399999999999 L 491.29999999999995 -310.80000000000001 Z" style="stroke:none;"/>
          </g>
          <g>
            <path d="M 486.29999999999995 -310.80000000000001 L 486.29999999999995 -311.66399999999999 L 491.29999999999995 -311.66399999999999 L 491.29999999999995 -310.80000000000001 Z"/>
            <g style="fill:rgb(126,126,126);clip-path:url(#clip61);">
              <path d="M 527.09999999999991 -310.80000000000001 L 527.09999999999991 -312.096 L 532.09999999999991 -312.096 L 532.09999999999991 -310.80000000000001 Z" style="stroke:none;"/>
            </g>
            <g>
              <path d="M 527.09999999999991 -310.80000000000001 L 527.09999999999991 -312.096 L 532.09999999999991 -312.096 L 532.09999999999991 -310.80000000000001 Z"/>
              <g style="fill:rgb(126,126,126);clip-path:url(#clip62);">
                <path d="M 567.89999999999998 -310.80000000000001 L 567.89999999999998 -312.096 L 572.89999999999998 -312.096 L 572.89999999999998 -310.80000000000001 Z" style="stroke:none;"/>
              </g>
              <g>
                <path d="M 567.89999999999998 -310.80000000000001 L 567.89999999999998 -312.096 L 572.89999999999998 -312.096 L 572.89999999999998 -310.80000000000001 Z"/>
              </g>
            </g>
          </g>
        </g>
      </g>
    </g>
    <g style="fill:rgb(255,255,255);clip-path:url(#clip63);">
      <path d="M 588.03999999999996 -297 L 588.03999999999996 -345 L 621.04399999999998 -345 L 621.04399999999998 -297 Z" style="stroke:none;"/>
    </g>
    <g>
      <path d="M 588.03999999999996 -297 L 588.03999999999996 -345 L 621.04399999999998 -345 L 621.04399999999998 -297 Z"/>
      <g style="fill:rgb(255,255,255);clip-path:url(#clip64);">
        <path d="M 593.03999999999996 -335.85000000000002 L 593.03999999999996 -342.14999999999998 L 599.33999999999992 -342.14999999999998 L 599.33999999999992 -335.85000000000002 Z" style="stroke:none;"/>
        <path d="M 585.53999999999996 -335.44999999999999 L 592.63999999999999 -342.55000000000001" style="stroke-linecap:square;fill:none;"/>
        <path d="M 589.78199999999993 -335.44999999999999 L 596.88199999999995 -342.55000000000001" style="stroke-linecap:square;fill:none;"/>
        <path d="M 594.024 -335.44999999999999 L 601.12400000000002 -342.55000000000001" style="stroke-linecap:square;fill:none;"/>
        <path d="M 598.26600000000008 -335.44999999999999 L 605.36599999999999 -342.55000000000001" style="stroke-linecap:square;fill:none;"/>
      </g>
      <g>
        <path d="M 593.03999999999996 -335.85000000000002 L 593.03999999999996 -342.14999999999998 L 599.33999999999992 -342.14999999999998 L 599.33999999999992 -335.85000000000002 Z"/>
        <text style="stroke:none;fill:rgb(0,0,0);" x="602.03999999999996" y="-336.0">
          D4
        </text>
        <g style="fill:rgb(179,179,179);clip-path:url(#clip65);">
          <path d="M 593.03999999999996 -326.85000000000002 L 593.03999999999996 -333.14999999999998 L 599.33999999999992 -333.14999999999998 L 599.33999999999992 -326.85000000000002 Z" style="stroke:none;"/>
        </g>
        <g>
          <path d="M 593.03999999999996 -326.85000000000002 L 593.03999999999996 -333.14999999999998 L 599.33999999999992 -333.14999999999998 L 599.33999999999992 -326.85000000000002 Z"/>
          <text style="stroke:none;fill:rgb(0,0,0);" x="602.03999999999996" y="-327.0">
            D2
          </text>
          <g style="fill:rgb(255,255,255);clip-path:url(#clip66);">
            <path d="M 593.03999999999996 -317.85000000000002 L 593.03999999999996 -324.14999999999998 L 599.33999999999992 -324.14999999999998 L 599.33999999999992 -317.85000000000002 Z" style="stroke:none;"/>
            <path d="M 592.63999999999999 -317.44999999999999 L 585.53999999999996 -324.55000000000001" style="stroke-linecap:square;fill:none;"/>
            <path d="M 596.88200000000006 -317.44999999999999 L 589.78200000000004 -324.55000000000001" style="stroke-linecap:square;fill:none;"/>
            <path d="M 601.12400000000002 -317.44999999999999 L 594.024 -324.55000000000001" style="stroke-linecap:square;fill:none;"/>
            <path d="M 605.36599999999999 -317.44999999999999 L 598.26600000000008 -324.55000000000001" style="stroke-linecap:square;fill:none;"/>
          </g>
          <g>
            <path d="M 593.03999999999996 -317.85000000000002 L 593.03999999999996 -324.14999999999998 L 599.33999999999992 -324.14999999999998 L 599.33999999999992 -317.85000000000002 Z"/>
            <text style="stroke:none;fill:rgb(0,0,0);" x="602.03999999999996" y="-318.0">
              S4
            </text>
            <g style="fill:rgb(255,255,255);clip-path:url(#clip67);">
              <path d="M 593.03999999999996 -308.85000000000002 L 593.03999999999996 -315.14999999999998 L 599.33999999999992 -315.14999999999998 L 599.33999999999992 -308.85000000000002 Z" style="stroke:none;"/>
            </g>
            <g>
              <path d="M 593.03999999999996 -308.85000000000002 L 593.03999999999996 -315.14999999999998 L 599.33999999999992 -315.14999999999998 L 599.33999999999992 -308.85000000000002 Z"/>
              <text style="stroke:none;fill:rgb(0,0,0);" x="602.03999999999996" y="-309.0">
                S2
              </text>
              <g style="fill:rgb(126,126,126);clip-path:url(#clip68);">
                <path d="M 593.03999999999996 -299.85000000000002 L 593.03999999999996 -306.14999999999998 L 599.33999999999992 -306.14999999999998 L 599.33999999999992 -299.85000000000002 Z" style="stroke:none;"/>
              </g>
              <g>
                <path d="M 593.03999999999996 -299.85000000000002 L 593.03999999999996 -306.14999999999998 L 599.33999999999992 -306.14999999999998 L 599.33999999999992 -299.85000000000002 Z"/>
                <text style="stroke:none;fill:rgb(0,0,0);" x="602.03999999999996" y="-300.0">
                  R
                </text>
                <g style="fill:rgb(255,255,255);clip-path:url(#clip69);">
                  <path d="M 514.59999999999991 -255 L 514.59999999999991 -269 L 535.59799999999996 -269 L 535.59799999999996 -255 Z" style="stroke:none;"/>
                </g>
                <text style="stroke:none;fill:rgb(0,0,0);" x="519.59999999999991" y="-260.0">
                  (b)
                </text>
              </g>
            </g>
          </g>
        </g>
      </g>
    </g>
  </g>
</svg>
