<?xml version="1.0" ?>
<!--Created by PyChart 1.38 Copyright 1999-2005 Yasushi Saito-->
<svg viewBox="262.488 -402.9 213.549 127.9" xmlns="http://www.w3.org/2000/svg" xmlns:xlink="http://www.w3.org/1999/xlink">
  <defs>
    <clipPath id="clip0">
      <path d="M 297 -297 L 297 -389.39999999999998 L 462.12 -389.39999999999998 L 462.12 -297 Z"/>
    </clipPath>
    <clipPath id="clip1">
      <path d="M 300 -300 L 300 -386.39999999999998 L 459.12 -386.39999999999998 L 459.12 -300 Z"/>
    </clipPath>
    <clipPath id="clip2">
      <path d="M 311.51999999999998 -300.0 L 311.51999999999998 -313.24799999999999 L 326.51999999999998 -313.24799999999999 L 326.51999999999998 -300.0 Z"/>
    </clipPath>
    <clipPath id="clip3">
      <path d="M 364.56 -300.0 L 364.56 -305.18400000000003 L 379.56 -305.18400000000003 L 379.56 -300.0 Z"/>
    </clipPath>
    <clipPath id="clip4">
      <path d="M 417.60000000000002 -300.0 L 417.60000000000002 -307.488 L 432.60000000000002 -307.488 L 432.60000000000002 -300.0 Z"/>
    </clipPath>
    <clipPath id="clip5">
      <path d="M 300 -300 L 300 -386.39999999999998 L 459.12 -386.39999999999998 L 459.12 -300 Z"/>
    </clipPath>
    <clipPath id="clip6">
      <path d="M 326.51999999999998 -300.0 L 326.51999999999998 -360.48000000000002 L 341.51999999999998 -360.48000000000002 L 341.51999999999998 -300.0 Z"/>
    </clipPath>
    <clipPath id="clip7">
      <path d="M 379.56 -300.0 L 379.56 -321.88799999999998 L 394.56 -321.88799999999998 L 394.56 -300.0 Z"/>
    </clipPath>
    <clipPath id="clip8">
      <path d="M 432.60000000000002 -300.0 L 432.60000000000002 -327.64800000000002 L 447.60000000000002 -327.64800000000002 L 447.60000000000002 -300.0 Z"/>
    </clipPath>
    <clipPath id="clip9">
      <path d="M 365 -347 L 365 -368 L 473.03700000000003 -368 L 473.03700000000003 -347 Z"/>
    </clipPath>
    <clipPath id="clip10">
      <path d="M 370 -358.85000000000002 L 370 -365.14999999999998 L 376.30000000000001 -365.14999999999998 L 376.30000000000001 -358.85000000000002 Z"/>
    </clipPath>
    <clipPath id="clip11">
      <path d="M 370 -349.85000000000002 L 370 -356.14999999999998 L 376.30000000000001 -356.14999999999998 L 376.30000000000001 -349.85000000000002 Z"/>
    </clipPath>
  </defs>
  <g style="stroke-linejoin:miter;font-size:9;font-family:Helvetica;fill:none;stroke-linecap:butt;stroke:rgb(0,0,0);font-stretch:normal;stroke-dasharray:none;font-weight:normal;font-style:normal;stroke-width:0.4;">
    <path d="M 300 -300 L 459.12 -300"/>
    <path d="M 300 -300 L 459.12 -300"/>
    <path d="M 326.51999999999998 -300 L 326.51999999999998 -294"/>
    <text style="font-size:8;stroke:none;fill:rgb(0,0,0);" x="321.40800000000002" y="-286.0">
      No
    </text>
    <text style="font-size:8;stroke:none;fill:rgb(0,0,0);" x="306.73599999999999" y="-278.0">
      Replication
    </text>
    <path d="M 379.56 -300 L 379.56 -294"/>
    <text style="font-size:8;stroke:none;fill:rgb(0,0,0);" x="359.77600000000001" y="-286.0">
      Replication
    </text>
    <path d="M 432.60000000000002 -300 L 432.60000000000002 -294"/>
    <text style="font-size:8;stroke:none;fill:rgb(0,0,0);" x="412.81600000000003" y="-286.0">
      Replication
    </text>
    <text style="font-size:8;stroke:none;fill:rgb(0,0,0);" x="409.93200000000002" y="-278.0">
      with NVRAM
    </text>
    <path d="M 300 -305.75999999999999 L 459.12 -305.75999999999999" style="stroke:rgb(179,179,179);stroke-dasharray:1,1;"/>
    <path d="M 300 -311.51999999999998 L 459.12 -311.51999999999998" style="stroke:rgb(179,179,179);stroke-dasharray:1,1;"/>
    <path d="M 300 -317.27999999999997 L 459.12 -317.27999999999997" style="stroke:rgb(179,179,179);stroke-dasharray:1,1;"/>
    <path d="M 300 -323.04000000000002 L 459.12 -323.04000000000002" style="stroke:rgb(179,179,179);stroke-dasharray:1,1;"/>
    <path d="M 300 -328.80000000000001 L 459.12 -328.80000000000001" style="stroke:rgb(179,179,179);stroke-dasharray:1,1;"/>
    <path d="M 300 -334.56 L 459.12 -334.56" style="stroke:rgb(179,179,179);stroke-dasharray:1,1;"/>
    <path d="M 300 -340.31999999999999 L 459.12 -340.31999999999999" style="stroke:rgb(179,179,179);stroke-dasharray:1,1;"/>
    <path d="M 300 -346.07999999999998 L 459.12 -346.07999999999998" style="stroke:rgb(179,179,179);stroke-dasharray:1,1;"/>
    <path d="M 300 -351.83999999999997 L 459.12 -351.83999999999997" style="stroke:rgb(179,179,179);stroke-dasharray:1,1;"/>
    <path d="M 300 -357.60000000000002 L 459.12 -357.60000000000002" style="stroke:rgb(179,179,179);stroke-dasharray:1,1;"/>
    <path d="M 300 -363.36000000000001 L 459.12 -363.36000000000001" style="stroke:rgb(179,179,179);stroke-dasharray:1,1;"/>
    <path d="M 300 -369.12 L 459.12 -369.12" style="stroke:rgb(179,179,179);stroke-dasharray:1,1;"/>
    <path d="M 300 -374.88 L 459.12 -374.88" style="stroke:rgb(179,179,179);stroke-dasharray:1,1;"/>
    <path d="M 300 -380.63999999999999 L 459.12 -380.63999999999999" style="stroke:rgb(179,179,179);stroke-dasharray:1,1;"/>
    <path d="M 300 -386.39999999999998 L 459.12 -386.39999999999998" style="stroke:rgb(179,179,179);stroke-dasharray:1,1;"/>
    <path d="M 300 -300 L 300 -386.39999999999998"/>
    <path d="M 300 -300.0 L 294 -300.0"/>
    <text style="stroke:none;fill:rgb(0,0,0);" x="288.99599999999998" y="-295.5">
      0
    </text>
    <path d="M 300 -328.80000000000001 L 294 -328.80000000000001"/>
    <text style="stroke:none;fill:rgb(0,0,0);" x="283.99200000000002" y="-324.30000000000001">
      50
    </text>
    <path d="M 300 -357.60000000000002 L 294 -357.60000000000002"/>
    <text style="stroke:none;fill:rgb(0,0,0);" x="278.988" y="-353.10000000000002">
      100
    </text>
    <path d="M 300 -386.39999999999998 L 294 -386.39999999999998"/>
    <text style="stroke:none;fill:rgb(0,0,0);" x="278.988" y="-381.89999999999998">
      150
    </text>
    <text style="stroke:none;font-weight:bold;fill:rgb(0,0,0);" transform="rotate(-90,274.488,-304.685)" x="274.488" y="-304.68450000000001">
      Messages/second
    </text>
    <g style="clip-path:url(#clip0);">
      <g style="clip-path:url(#clip1);">
        <g style="fill:rgb(255,255,255);clip-path:url(#clip2);">
          <path d="M 311.51999999999998 -300.0 L 311.51999999999998 -313.24799999999999 L 326.51999999999998 -313.24799999999999 L 326.51999999999998 -300.0 Z" style="stroke:none;"/>
        </g>
        <g>
          <path d="M 311.51999999999998 -300.0 L 311.51999999999998 -313.24799999999999 L 326.51999999999998 -313.24799999999999 L 326.51999999999998 -300.0 Z"/>
          <g style="fill:rgb(255,255,255);clip-path:url(#clip3);">
            <path d="M 364.56 -300.0 L 364.56 -305.18400000000003 L 379.56 -305.18400000000003 L 379.56 -300.0 Z" style="stroke:none;"/>
          </g>
          <g>
            <path d="M 364.56 -300.0 L 364.56 -305.18400000000003 L 379.56 -305.18400000000003 L 379.56 -300.0 Z"/>
            <g style="fill:rgb(255,255,255);clip-path:url(#clip4);">
              <path d="M 417.60000000000002 -300.0 L 417.60000000000002 -307.488 L 432.60000000000002 -307.488 L 432.60000000000002 -300.0 Z" style="stroke:none;"/>
            </g>
            <g>
              <path d="M 417.60000000000002 -300.0 L 417.60000000000002 -307.488 L 432.60000000000002 -307.488 L 432.60000000000002 -300.0 Z"/>
            </g>
          </g>
        </g>
      </g>
      <g style="clip-path:url(#clip5);">
        <g style="fill:rgb(179,179,179);clip-path:url(#clip6);">
          <path d="M 326.51999999999998 -300.0 L 326.51999999999998 -360.48000000000002 L 341.51999999999998 -360.48000000000002 L 341.51999999999998 -300.0 Z" style="stroke:none;"/>
        </g>
        <g>
          <path d="M 326.51999999999998 -300.0 L 326.51999999999998 -360.48000000000002 L 341.51999999999998 -360.48000000000002 L 341.51999999999998 -300.0 Z"/>
          <g style="fill:rgb(179,179,179);clip-path:url(#clip7);">
            <path d="M 379.56 -300.0 L 379.56 -321.88799999999998 L 394.56 -321.88799999999998 L 394.56 -300.0 Z" style="stroke:none;"/>
          </g>
          <g>
            <path d="M 379.56 -300.0 L 379.56 -321.88799999999998 L 394.56 -321.88799999999998 L 394.56 -300.0 Z"/>
            <g style="fill:rgb(179,179,179);clip-path:url(#clip8);">
              <path d="M 432.60000000000002 -300.0 L 432.60000000000002 -327.64800000000002 L 447.60000000000002 -327.64800000000002 L 447.60000000000002 -300.0 Z" style="stroke:none;"/>
            </g>
            <g>
              <path d="M 432.60000000000002 -300.0 L 432.60000000000002 -327.64800000000002 L 447.60000000000002 -327.64800000000002 L 447.60000000000002 -300.0 Z"/>
            </g>
          </g>
        </g>
      </g>
    </g>
    <g style="fill:rgb(255,255,255);clip-path:url(#clip9);">
      <path d="M 365 -347 L 365 -368 L 473.03700000000003 -368 L 473.03700000000003 -347 Z" style="stroke:none;"/>
    </g>
    <g>
      <path d="M 365 -347 L 365 -368 L 473.03700000000003 -368 L 473.03700000000003 -347 Z"/>
      <g style="fill:rgb(255,255,255);clip-path:url(#clip10);">
        <path d="M 370 -358.85000000000002 L 370 -365.14999999999998 L 376.30000000000001 -365.14999999999998 L 376.30000000000001 -358.85000000000002 Z" style="stroke:none;"/>
      </g>
      <g>
        <path d="M 370 -358.85000000000002 L 370 -365.14999999999998 L 376.30000000000001 -365.14999999999998 L 376.30000000000001 -358.85000000000002 Z"/>
        <text style="stroke:none;fill:rgb(0,0,0);" x="379.0" y="-359.0">
          With one disk/node
        </text>
        <g style="fill:rgb(179,179,179);clip-path:url(#clip11);">
          <path d="M 370 -349.85000000000002 L 370 -356.14999999999998 L 376.30000000000001 -356.14999999999998 L 376.30000000000001 -349.85000000000002 Z" style="stroke:none;"/>
        </g>
        <g>
          <path d="M 370 -349.85000000000002 L 370 -356.14999999999998 L 376.30000000000001 -356.14999999999998 L 376.30000000000001 -349.85000000000002 Z"/>
          <text style="stroke:none;fill:rgb(0,0,0);" x="379.0" y="-350.0">
            With three disks/node
          </text>
        </g>
      </g>
    </g>
  </g>
</svg>
