<?xml version="1.0" ?>
<!--Created by PyChart 1.38 Copyright 1999-2005 Yasushi Saito-->
<svg viewBox="218.488 -402.9 405.556 150.9" xmlns="http://www.w3.org/2000/svg" xmlns:xlink="http://www.w3.org/1999/xlink">
  <defs>
    <clipPath id="clip0">
      <path d="M 297 -297 L 297 -389.39999999999998 L 425.39999999999998 -389.39999999999998 L 425.39999999999998 -297 Z"/>
    </clipPath>
    <clipPath id="clip1">
      <path d="M 297 -297 L 297 -389.39999999999998 L 425.39999999999998 -389.39999999999998 L 425.39999999999998 -297 Z"/>
    </clipPath>
    <clipPath id="clip2">
      <path d="M 290 -290 L 290 -396.39999999999998 L 432.39999999999998 -396.39999999999998 L 432.39999999999998 -290 Z"/>
    </clipPath>
    <clipPath id="clip3">
      <path d="M 236.65714285714284 -300.0 L 238.80000000000001 -302.14285714285717 L 240.94285714285715 -300.0 L 238.80000000000001 -297.85714285714283 Z"/>
    </clipPath>
    <clipPath id="clip4">
      <path d="M 297.85714285714283 -327.21600000000001 L 300.0 -329.35885714285712 L 302.14285714285717 -327.21600000000001 L 300.0 -325.07314285714284 Z"/>
    </clipPath>
    <clipPath id="clip5">
      <path d="M 359.05714285714282 -357.45600000000002 L 361.19999999999999 -359.59885714285713 L 363.34285714285716 -357.45600000000002 L 361.19999999999999 -355.31314285714285 Z"/>
    </clipPath>
    <clipPath id="clip6">
      <path d="M 420.25714285714287 -383.80799999999999 L 422.39999999999998 -385.9508571428571 L 424.54285714285714 -383.80799999999999 L 422.39999999999998 -381.66514285714288 Z"/>
    </clipPath>
    <clipPath id="clip7">
      <path d="M 297 -297 L 297 -389.39999999999998 L 425.39999999999998 -389.39999999999998 L 425.39999999999998 -297 Z"/>
    </clipPath>
    <clipPath id="clip8">
      <path d="M 290 -290 L 290 -396.39999999999998 L 432.39999999999998 -396.39999999999998 L 432.39999999999998 -290 Z"/>
    </clipPath>
    <clipPath id="clip9">
      <path d="M 238.80000000000001 -298.5 L 236.92500000000001 -301.5 L 240.67500000000001 -301.5 Z"/>
    </clipPath>
    <clipPath id="clip10">
      <path d="M 300.0 -317.94 L 298.125 -320.94 L 301.875 -320.94 Z"/>
    </clipPath>
    <clipPath id="clip11">
      <path d="M 361.19999999999999 -349.476 L 359.32499999999999 -352.476 L 363.07499999999999 -352.476 Z"/>
    </clipPath>
    <clipPath id="clip12">
      <path d="M 422.39999999999998 -373.66800000000001 L 420.52499999999998 -376.66800000000001 L 424.27499999999998 -376.66800000000001 Z"/>
    </clipPath>
    <clipPath id="clip13">
      <path d="M 297 -297 L 297 -389.39999999999998 L 425.39999999999998 -389.39999999999998 L 425.39999999999998 -297 Z"/>
    </clipPath>
    <clipPath id="clip14">
      <path d="M 290 -290 L 290 -396.39999999999998 L 432.39999999999998 -396.39999999999998 L 432.39999999999998 -290 Z"/>
    </clipPath>
    <clipPath id="clip15">
      <path d="M 236.65714285714284 -300.0 L 238.80000000000001 -302.14285714285717 L 240.94285714285715 -300.0 L 238.80000000000001 -297.85714285714283 Z"/>
    </clipPath>
    <clipPath id="clip16">
      <path d="M 297.85714285714283 -312.95999999999998 L 300.0 -315.10285714285715 L 302.14285714285717 -312.95999999999998 L 300.0 -310.81714285714287 Z"/>
    </clipPath>
    <clipPath id="clip17">
      <path d="M 359.05714285714282 -322.89600000000002 L 361.19999999999999 -325.03885714285713 L 363.34285714285716 -322.89600000000002 L 361.19999999999999 -320.75314285714285 Z"/>
    </clipPath>
    <clipPath id="clip18">
      <path d="M 420.25714285714287 -330.67200000000003 L 422.39999999999998 -332.81485714285714 L 424.54285714285714 -330.67200000000003 L 422.39999999999998 -328.52914285714286 Z"/>
    </clipPath>
    <clipPath id="clip19">
      <path d="M 297 -297 L 297 -389.39999999999998 L 425.39999999999998 -389.39999999999998 L 425.39999999999998 -297 Z"/>
    </clipPath>
    <clipPath id="clip20">
      <path d="M 290 -290 L 290 -396.39999999999998 L 432.39999999999998 -396.39999999999998 L 432.39999999999998 -290 Z"/>
    </clipPath>
    <clipPath id="clip21">
      <path d="M 297 -297 L 297 -389.39999999999998 L 425.39999999999998 -389.39999999999998 L 425.39999999999998 -297 Z"/>
    </clipPath>
    <clipPath id="clip22">
      <path d="M 290 -290 L 290 -396.39999999999998 L 432.39999999999998 -396.39999999999998 L 432.39999999999998 -290 Z"/>
    </clipPath>
    <clipPath id="clip23">
      <path d="M 238.80000000000001 -300.0 M 240.30000000000001 -300.0 L 240.3 -300 M 240.3 -300 A 1.5 1.5 0 1 0 237.3 -300 A 1.5 1.5 0 1 0 240.3 -300 Z"/>
    </clipPath>
    <clipPath id="clip24">
      <path d="M 300.0 -300.86399999999998 M 301.5 -300.86399999999998 L 301.5 -300.864 M 301.5 -300.864 A 1.5 1.5 0 1 0 298.5 -300.864 A 1.5 1.5 0 1 0 301.5 -300.864 Z"/>
    </clipPath>
    <clipPath id="clip25">
      <path d="M 361.19999999999999 -301.29599999999999 M 362.69999999999999 -301.29599999999999 L 362.7 -301.296 M 362.7 -301.296 A 1.5 1.5 0 1 0 359.7 -301.296 A 1.5 1.5 0 1 0 362.7 -301.296 Z"/>
    </clipPath>
    <clipPath id="clip26">
      <path d="M 422.39999999999998 -301.29599999999999 M 423.89999999999998 -301.29599999999999 L 423.9 -301.296 M 423.9 -301.296 A 1.5 1.5 0 1 0 420.9 -301.296 A 1.5 1.5 0 1 0 423.9 -301.296 Z"/>
    </clipPath>
    <clipPath id="clip27">
      <path d="M 356.19999999999999 -255 L 377.19799999999998 -255 L 377.198 -255 L 377.19799999999998 -269 L 377.198 -269 L 356.19999999999999 -269 L 356.2 -269 L 356.19999999999999 -255 L 356.2 -255 Z"/>
    </clipPath>
    <clipPath id="clip28">
      <path d="M 455.39999999999998 -297 L 455.39999999999998 -389.39999999999998 L 583.79999999999995 -389.39999999999998 L 583.79999999999995 -297 Z"/>
    </clipPath>
    <clipPath id="clip29">
      <path d="M 455.39999999999998 -297 L 455.39999999999998 -389.39999999999998 L 583.79999999999995 -389.39999999999998 L 583.79999999999995 -297 Z"/>
    </clipPath>
    <clipPath id="clip30">
      <path d="M 448.39999999999998 -290 L 448.39999999999998 -396.39999999999998 L 590.79999999999995 -396.39999999999998 L 590.79999999999995 -290 Z"/>
    </clipPath>
    <clipPath id="clip31">
      <path d="M 395.05714285714282 -300.0 L 397.19999999999999 -302.14285714285717 L 399.34285714285716 -300.0 L 397.19999999999999 -297.85714285714283 Z"/>
    </clipPath>
    <clipPath id="clip32">
      <path d="M 456.25714285714287 -322.89600000000002 L 458.39999999999998 -325.03885714285713 L 460.54285714285709 -322.89600000000002 L 458.39999999999998 -320.75314285714285 Z"/>
    </clipPath>
    <clipPath id="clip33">
      <path d="M 517.4571428571428 -345.79200000000003 L 519.59999999999991 -347.93485714285714 L 521.74285714285713 -345.79200000000003 L 519.59999999999991 -343.64914285714286 Z"/>
    </clipPath>
    <clipPath id="clip34">
      <path d="M 578.65714285714284 -368.25599999999997 L 580.79999999999995 -370.39885714285714 L 582.94285714285706 -368.25599999999997 L 580.79999999999995 -366.11314285714286 Z"/>
    </clipPath>
    <clipPath id="clip35">
      <path d="M 455.39999999999998 -297 L 455.39999999999998 -389.39999999999998 L 583.79999999999995 -389.39999999999998 L 583.79999999999995 -297 Z"/>
    </clipPath>
    <clipPath id="clip36">
      <path d="M 448.39999999999998 -290 L 448.39999999999998 -396.39999999999998 L 590.79999999999995 -396.39999999999998 L 590.79999999999995 -290 Z"/>
    </clipPath>
    <clipPath id="clip37">
      <path d="M 397.19999999999999 -298.5 L 395.32499999999999 -301.5 L 399.07499999999999 -301.5 Z"/>
    </clipPath>
    <clipPath id="clip38">
      <path d="M 458.39999999999998 -307.13999999999999 L 456.52499999999998 -310.13999999999999 L 460.27499999999998 -310.13999999999999 Z"/>
    </clipPath>
    <clipPath id="clip39">
      <path d="M 519.59999999999991 -323.55599999999998 L 517.72499999999991 -326.55599999999998 L 521.47499999999991 -326.55599999999998 Z"/>
    </clipPath>
    <clipPath id="clip40">
      <path d="M 580.79999999999995 -339.97199999999998 L 578.92499999999995 -342.97199999999998 L 582.67499999999995 -342.97199999999998 Z"/>
    </clipPath>
    <clipPath id="clip41">
      <path d="M 455.39999999999998 -297 L 455.39999999999998 -389.39999999999998 L 583.79999999999995 -389.39999999999998 L 583.79999999999995 -297 Z"/>
    </clipPath>
    <clipPath id="clip42">
      <path d="M 448.39999999999998 -290 L 448.39999999999998 -396.39999999999998 L 590.79999999999995 -396.39999999999998 L 590.79999999999995 -290 Z"/>
    </clipPath>
    <clipPath id="clip43">
      <path d="M 395.05714285714282 -300.0 L 397.19999999999999 -302.14285714285717 L 399.34285714285716 -300.0 L 397.19999999999999 -297.85714285714283 Z"/>
    </clipPath>
    <clipPath id="clip44">
      <path d="M 456.25714285714287 -307.77600000000001 L 458.39999999999998 -309.91885714285712 L 460.54285714285709 -307.77600000000001 L 458.39999999999998 -305.63314285714284 Z"/>
    </clipPath>
    <clipPath id="clip45">
      <path d="M 517.4571428571428 -315.55200000000002 L 519.59999999999991 -317.69485714285713 L 521.74285714285713 -315.55200000000002 L 519.59999999999991 -313.40914285714285 Z"/>
    </clipPath>
    <clipPath id="clip46">
      <path d="M 578.65714285714284 -324.19200000000001 L 580.79999999999995 -326.33485714285712 L 582.94285714285706 -324.19200000000001 L 580.79999999999995 -322.04914285714284 Z"/>
    </clipPath>
    <clipPath id="clip47">
      <path d="M 455.39999999999998 -297 L 455.39999999999998 -389.39999999999998 L 583.79999999999995 -389.39999999999998 L 583.79999999999995 -297 Z"/>
    </clipPath>
    <clipPath id="clip48">
      <path d="M 448.39999999999998 -290 L 448.39999999999998 -396.39999999999998 L 590.79999999999995 -396.39999999999998 L 590.79999999999995 -290 Z"/>
    </clipPath>
    <clipPath id="clip49">
      <path d="M 455.39999999999998 -297 L 455.39999999999998 -389.39999999999998 L 583.79999999999995 -389.39999999999998 L 583.79999999999995 -297 Z"/>
    </clipPath>
    <clipPath id="clip50">
      <path d="M 448.39999999999998 -290 L 448.39999999999998 -396.39999999999998 L 590.79999999999995 -396.39999999999998 L 590.79999999999995 -290 Z"/>
    </clipPath>
    <clipPath id="clip51">
      <path d="M 397.19999999999999 -300.0 M 398.69999999999999 -300.0 L 398.7 -300 M 398.7 -300 A 1.5 1.5 0 1 0 395.7 -300 A 1.5 1.5 0 1 0 398.7 -300 Z"/>
    </clipPath>
    <clipPath id="clip52">
      <path d="M 458.39999999999998 -301.72800000000001 M 459.89999999999998 -301.72800000000001 L 459.9 -301.728 M 459.9 -301.728 A 1.5 1.5 0 1 0 456.9 -301.728 A 1.5 1.5 0 1 0 459.9 -301.728 Z"/>
    </clipPath>
    <clipPath id="clip53">
      <path d="M 519.59999999999991 -302.59199999999998 M 521.09999999999991 -302.59199999999998 L 521.1 -302.592 M 521.1 -302.592 A 1.5 1.5 0 1 0 518.1 -302.592 A 1.5 1.5 0 1 0 521.1 -302.592 Z"/>
    </clipPath>
    <clipPath id="clip54">
      <path d="M 580.79999999999995 -302.59199999999998 M 582.29999999999995 -302.59199999999998 L 582.3 -302.592 M 582.3 -302.592 A 1.5 1.5 0 1 0 579.3 -302.592 A 1.5 1.5 0 1 0 582.3 -302.592 Z"/>
    </clipPath>
    <clipPath id="clip55">
      <path d="M 588.03999999999996 -297 L 588.03999999999996 -345 L 621.04399999999998 -345 L 621.04399999999998 -297 Z"/>
    </clipPath>
    <clipPath id="clip56">
      <path d="M 595.39714285714285 -339.0 L 597.53999999999996 -341.14285714285717 L 599.68285714285707 -339.0 L 597.53999999999996 -336.85714285714283 Z"/>
    </clipPath>
    <clipPath id="clip57">
      <path d="M 597.53999999999996 -328.5 L 595.66499999999996 -331.5 L 599.41499999999996 -331.5 Z"/>
    </clipPath>
    <clipPath id="clip58">
      <path d="M 595.39714285714285 -321.0 L 597.53999999999996 -323.14285714285717 L 599.68285714285707 -321.0 L 597.53999999999996 -318.85714285714283 Z"/>
    </clipPath>
    <clipPath id="clip59">
      <path d="M 597.53999999999996 -303.0 M 599.03999999999996 -303.0 L 599.04 -303 M 599.04 -303 A 1.5 1.5 0 1 0 596.04 -303 A 1.5 1.5 0 1 0 599.04 -303 Z"/>
    </clipPath>
    <clipPath id="clip60">
      <path d="M 514.59999999999991 -255 L 535.59799999999996 -255 L 535.598 -255 L 535.59799999999996 -269 L 535.598 -269 L 514.59999999999991 -269 L 514.6 -269 L 514.59999999999991 -255 L 514.6 -255 Z"/>
    </clipPath>
  </defs>
  <g style="stroke-linejoin:miter;font-size:9;font-family:Helvetica;fill:none;stroke-linecap:butt;stroke:rgb(0,0,0);font-stretch:normal;stroke-dasharray:none;font-weight:normal;font-style:normal;stroke-width:0.4;">
    <path d="M 300 -300 L 422.39999999999998 -300"/>
    <path d="M 300 -300 L 422.39999999999998 -300"/>
    <path d="M 300.0 -300 L 300.0 -294"/>
    <text style="stroke:none;fill:rgb(0,0,0);" x="297.49799999999999" y="-285.0">
      1
    </text>
    <path d="M 361.19999999999999 -300 L 361.19999999999999 -294"/>
    <text style="stroke:none;fill:rgb(0,0,0);" x="354.94499999999999" y="-285.0">
      2.0
    </text>
    <path d="M 422.39999999999998 -300 L 422.39999999999998 -294"/>
    <text style="stroke:none;fill:rgb(0,0,0);" x="416.14499999999998" y="-285.0">
      3.0
    </text>
    <text style="stroke:none;font-weight:bold;fill:rgb(0,0,0);" x="291.93599999999998" y="-270.5">
      Number of nodes with fast disks
    </text>
    <path d="M 300 -343.19999999999999 L 422.39999999999998 -343.19999999999999" style="stroke:rgb(179,179,179);stroke-dasharray:1,1;"/>
    <path d="M 300 -386.39999999999998 L 422.39999999999998 -386.39999999999998" style="stroke:rgb(179,179,179);stroke-dasharray:1,1;"/>
    <path d="M 300 -300 L 300 -386.39999999999998"/>
    <path d="M 300 -300.0 L 294 -300.0"/>
    <text style="stroke:none;fill:rgb(0,0,0);" x="288.99599999999998" y="-295.5">
      0
    </text>
    <path d="M 300 -321.60000000000002 L 294 -321.60000000000002"/>
    <text style="stroke:none;fill:rgb(0,0,0);" x="283.99200000000002" y="-317.10000000000002">
      50
    </text>
    <path d="M 300 -343.19999999999999 L 294 -343.19999999999999"/>
    <text style="stroke:none;fill:rgb(0,0,0);" x="278.988" y="-338.69999999999999">
      100
    </text>
    <path d="M 300 -364.80000000000001 L 294 -364.80000000000001"/>
    <text style="stroke:none;fill:rgb(0,0,0);" x="278.988" y="-360.30000000000001">
      150
    </text>
    <path d="M 300 -386.39999999999998 L 294 -386.39999999999998"/>
    <text style="stroke:none;fill:rgb(0,0,0);" x="278.988" y="-381.89999999999998">
      200
    </text>
    <text style="stroke:none;font-weight:bold;fill:rgb(0,0,0);" transform="rotate(-90,230.488,-319.688)" x="230.488" y="-319.6875">
      Increase in
    </text>
    <text style="stroke:none;font-weight:bold;fill:rgb(0,0,0);" transform="rotate(-90,239.488,-304.685)" x="239.488" y="-304.68450000000001">
      Messages/second
    </text>
    <g style="clip-path:url(#clip0);">
      <g style="clip-path:url(#clip1);">
        <path d="M 238.80000000000001 -300.0 L 300.0 -327.21600000000001 L 361.19999999999999 -357.45600000000002 L 422.39999999999998 -383.80799999999999" style="stroke-width:1.2;"/>
      </g>
      <g style="clip-path:url(#clip2);">
        <g style="fill:rgb(255,255,255);clip-path:url(#clip3);">
          <path d="M 236.65714285714284 -297.85714285714283 L 236.65714285714284 -302.14285714285717 L 240.94285714285715 -302.14285714285717 L 240.94285714285715 -297.85714285714283 Z" style="stroke:none;"/>
        </g>
        <g>
          <path d="M 236.65714285714284 -300.0 L 238.80000000000001 -302.14285714285717 L 240.94285714285715 -300.0 L 238.80000000000001 -297.85714285714283 Z"/>
          <g style="fill:rgb(255,255,255);clip-path:url(#clip4);">
            <path d="M 297.85714285714283 -325.07314285714284 L 297.85714285714283 -329.35885714285712 L 302.14285714285717 -329.35885714285712 L 302.14285714285717 -325.07314285714284 Z" style="stroke:none;"/>
          </g>
          <g>
            <path d="M 297.85714285714283 -327.21600000000001 L 300.0 -329.35885714285712 L 302.14285714285717 -327.21600000000001 L 300.0 -325.07314285714284 Z"/>
            <g style="fill:rgb(255,255,255);clip-path:url(#clip5);">
              <path d="M 359.05714285714282 -355.31314285714285 L 359.05714285714282 -359.59885714285713 L 363.34285714285716 -359.59885714285713 L 363.34285714285716 -355.31314285714285 Z" style="stroke:none;"/>
            </g>
            <g>
              <path d="M 359.05714285714282 -357.45600000000002 L 361.19999999999999 -359.59885714285713 L 363.34285714285716 -357.45600000000002 L 361.19999999999999 -355.31314285714285 Z"/>
              <g style="fill:rgb(255,255,255);clip-path:url(#clip6);">
                <path d="M 420.25714285714287 -381.66514285714288 L 420.25714285714287 -385.9508571428571 L 424.54285714285714 -385.9508571428571 L 424.54285714285714 -381.66514285714288 Z" style="stroke:none;"/>
              </g>
              <g>
                <path d="M 420.25714285714287 -383.80799999999999 L 422.39999999999998 -385.9508571428571 L 424.54285714285714 -383.80799999999999 L 422.39999999999998 -381.66514285714288 Z"/>
              </g>
            </g>
          </g>
        </g>
      </g>
      <g style="clip-path:url(#clip7);">
        <path d="M 238.80000000000001 -300.0 L 300.0 -319.44 L 361.19999999999999 -350.976 L 422.39999999999998 -375.16800000000001" style="stroke:rgb(179,179,179);stroke-width:1.2;stroke-dasharray:1.5,1.5;"/>
      </g>
      <g style="clip-path:url(#clip8);">
        <g style="fill:rgb(255,255,255);clip-path:url(#clip9);">
          <path d="M 236.92500000000001 -298.5 L 236.92500000000001 -301.5 L 240.67500000000001 -301.5 L 240.67500000000001 -298.5 Z" style="stroke:none;"/>
        </g>
        <g>
          <path d="M 238.80000000000001 -298.5 L 236.92500000000001 -301.5 L 240.67500000000001 -301.5 Z"/>
          <g style="fill:rgb(255,255,255);clip-path:url(#clip10);">
            <path d="M 298.125 -317.94 L 298.125 -320.94 L 301.875 -320.94 L 301.875 -317.94 Z" style="stroke:none;"/>
          </g>
          <g>
            <path d="M 300.0 -317.94 L 298.125 -320.94 L 301.875 -320.94 Z"/>
            <g style="fill:rgb(255,255,255);clip-path:url(#clip11);">
              <path d="M 359.32499999999999 -349.476 L 359.32499999999999 -352.476 L 363.07499999999999 -352.476 L 363.07499999999999 -349.476 Z" style="stroke:none;"/>
            </g>
            <g>
              <path d="M 361.19999999999999 -349.476 L 359.32499999999999 -352.476 L 363.07499999999999 -352.476 Z"/>
              <g style="fill:rgb(255,255,255);clip-path:url(#clip12);">
                <path d="M 420.52499999999998 -373.66800000000001 L 420.52499999999998 -376.66800000000001 L 424.27499999999998 -376.66800000000001 L 424.27499999999998 -373.66800000000001 Z" style="stroke:none;"/>
              </g>
              <g>
                <path d="M 422.39999999999998 -373.66800000000001 L 420.52499999999998 -376.66800000000001 L 424.27499999999998 -376.66800000000001 Z"/>
              </g>
            </g>
          </g>
        </g>
      </g>
      <g style="clip-path:url(#clip13);">
        <path d="M 238.80000000000001 -300.0 L 300.0 -312.95999999999998 L 361.19999999999999 -322.89600000000002 L 422.39999999999998 -330.67200000000003" style="stroke-width:1.2;"/>
      </g>
      <g style="clip-path:url(#clip14);">
        <g style="fill:rgb(255,255,255);clip-path:url(#clip15);">
          <path d="M 236.65714285714284 -297.85714285714283 L 236.65714285714284 -302.14285714285717 L 240.94285714285715 -302.14285714285717 L 240.94285714285715 -297.85714285714283 Z" style="stroke:none;"/>
        </g>
        <g>
          <path d="M 236.65714285714284 -300.0 L 238.80000000000001 -302.14285714285717 L 240.94285714285715 -300.0 L 238.80000000000001 -297.85714285714283 Z"/>
          <g style="fill:rgb(255,255,255);clip-path:url(#clip16);">
            <path d="M 297.85714285714283 -310.81714285714287 L 297.85714285714283 -315.10285714285715 L 302.14285714285717 -315.10285714285715 L 302.14285714285717 -310.81714285714287 Z" style="stroke:none;"/>
          </g>
          <g>
            <path d="M 297.85714285714283 -312.95999999999998 L 300.0 -315.10285714285715 L 302.14285714285717 -312.95999999999998 L 300.0 -310.81714285714287 Z"/>
            <g style="fill:rgb(255,255,255);clip-path:url(#clip17);">
              <path d="M 359.05714285714282 -320.75314285714285 L 359.05714285714282 -325.03885714285713 L 363.34285714285716 -325.03885714285713 L 363.34285714285716 -320.75314285714285 Z" style="stroke:none;"/>
            </g>
            <g>
              <path d="M 359.05714285714282 -322.89600000000002 L 361.19999999999999 -325.03885714285713 L 363.34285714285716 -322.89600000000002 L 361.19999999999999 -320.75314285714285 Z"/>
              <g style="fill:rgb(255,255,255);clip-path:url(#clip18);">
                <path d="M 420.25714285714287 -328.52914285714286 L 420.25714285714287 -332.81485714285714 L 424.54285714285714 -332.81485714285714 L 424.54285714285714 -328.52914285714286 Z" style="stroke:none;"/>
              </g>
              <g>
                <path d="M 420.25714285714287 -330.67200000000003 L 422.39999999999998 -332.81485714285714 L 424.54285714285714 -330.67200000000003 L 422.39999999999998 -328.52914285714286 Z"/>
              </g>
            </g>
          </g>
        </g>
      </g>
      <g style="clip-path:url(#clip19);">
        <path d="M 238.80000000000001 -300.0 L 300.0 -303.88799999999998 L 361.19999999999999 -308.63999999999999 L 422.39999999999998 -313.392" style="stroke:rgb(179,179,179);stroke-width:1.2;stroke-dasharray:1.5,1.5;"/>
      </g>
      <g style="clip-path:url(#clip20);">
        <path d="M 236.65714285714284 -300.0 L 240.94285714285715 -300.0" style="stroke-width:1;"/>
        <path d="M 238.80000000000001 -297.85714285714283 L 238.80000000000001 -302.14285714285717" style="stroke-width:1;"/>
        <path d="M 297.85714285714283 -303.88799999999998 L 302.14285714285717 -303.88799999999998" style="stroke-width:1;"/>
        <path d="M 300.0 -301.74514285714287 L 300.0 -306.03085714285714" style="stroke-width:1;"/>
        <path d="M 359.05714285714282 -308.63999999999999 L 363.34285714285716 -308.63999999999999" style="stroke-width:1;"/>
        <path d="M 361.19999999999999 -306.49714285714288 L 361.19999999999999 -310.78285714285715" style="stroke-width:1;"/>
        <path d="M 420.25714285714287 -313.392 L 424.54285714285714 -313.392" style="stroke-width:1;"/>
        <path d="M 422.39999999999998 -311.24914285714283 L 422.39999999999998 -315.53485714285716" style="stroke-width:1;"/>
      </g>
      <g style="clip-path:url(#clip21);">
        <path d="M 238.80000000000001 -300.0 L 300.0 -300.86399999999998 L 361.19999999999999 -301.29599999999999 L 422.39999999999998 -301.29599999999999" style="stroke:rgb(126,126,126);stroke-width:1.2;"/>
      </g>
      <g style="clip-path:url(#clip22);">
        <g style="fill:rgb(255,255,255);clip-path:url(#clip23);">
          <path d="M 235.80000000000001 -297.0 L 235.80000000000001 -303.0 L 241.80000000000001 -303.0 L 241.80000000000001 -297.0 Z" style="stroke:none;"/>
        </g>
        <g>
          <path d="M 238.80000000000001 -300.0 M 240.30000000000001 -300.0 L 240.3 -300 M 240.3 -300 A 1.5 1.5 0 1 0 237.3 -300 A 1.5 1.5 0 1 0 240.3 -300 Z"/>
          <g style="fill:rgb(255,255,255);clip-path:url(#clip24);">
            <path d="M 297.0 -297.86399999999998 L 297.0 -303.86399999999998 L 303.0 -303.86399999999998 L 303.0 -297.86399999999998 Z" style="stroke:none;"/>
          </g>
          <g>
            <path d="M 300.0 -300.86399999999998 M 301.5 -300.86399999999998 L 301.5 -300.864 M 301.5 -300.864 A 1.5 1.5 0 1 0 298.5 -300.864 A 1.5 1.5 0 1 0 301.5 -300.864 Z"/>
            <g style="fill:rgb(255,255,255);clip-path:url(#clip25);">
              <path d="M 358.19999999999999 -298.29599999999999 L 358.19999999999999 -304.29599999999999 L 364.19999999999999 -304.29599999999999 L 364.19999999999999 -298.29599999999999 Z" style="stroke:none;"/>
            </g>
            <g>
              <path d="M 361.19999999999999 -301.29599999999999 M 362.69999999999999 -301.29599999999999 L 362.7 -301.296 M 362.7 -301.296 A 1.5 1.5 0 1 0 359.7 -301.296 A 1.5 1.5 0 1 0 362.7 -301.296 Z"/>
              <g style="fill:rgb(255,255,255);clip-path:url(#clip26);">
                <path d="M 419.39999999999998 -298.29599999999999 L 419.39999999999998 -304.29599999999999 L 425.39999999999998 -304.29599999999999 L 425.39999999999998 -298.29599999999999 Z" style="stroke:none;"/>
              </g>
              <g>
                <path d="M 422.39999999999998 -301.29599999999999 M 423.89999999999998 -301.29599999999999 L 423.9 -301.296 M 423.9 -301.296 A 1.5 1.5 0 1 0 420.9 -301.296 A 1.5 1.5 0 1 0 423.9 -301.296 Z"/>
              </g>
            </g>
          </g>
        </g>
      </g>
    </g>
    <g style="fill:rgb(255,255,255);clip-path:url(#clip27);">
      <path d="M 356.19999999999999 -255 L 356.19999999999999 -269 L 377.19799999999998 -269 L 377.19799999999998 -255 Z" style="stroke:none;"/>
    </g>
    <text style="stroke:none;fill:rgb(0,0,0);" x="361.19999999999999" y="-260.0">
      (a)
    </text>
    <path d="M 458.39999999999998 -300 L 580.79999999999995 -300"/>
    <path d="M 458.39999999999998 -300 L 580.79999999999995 -300"/>
    <path d="M 458.39999999999998 -300 L 458.39999999999998 -294"/>
    <text style="stroke:none;fill:rgb(0,0,0);" x="455.89799999999997" y="-285.0">
      1
    </text>
    <path d="M 519.59999999999991 -300 L 519.59999999999991 -294"/>
    <text style="stroke:none;fill:rgb(0,0,0);" x="513.34500000000003" y="-285.0">
      2.0
    </text>
    <path d="M 580.79999999999995 -300 L 580.79999999999995 -294"/>
    <text style="stroke:none;fill:rgb(0,0,0);" x="574.54499999999996" y="-285.0">
      3.0
    </text>
    <text style="stroke:none;font-weight:bold;fill:rgb(0,0,0);" x="450.33599999999996" y="-270.5">
      Number of nodes with fast disks
    </text>
    <path d="M 458.39999999999998 -308.63999999999999 L 580.79999999999995 -308.63999999999999" style="stroke:rgb(179,179,179);stroke-dasharray:1,1;"/>
    <path d="M 458.39999999999998 -317.27999999999997 L 580.79999999999995 -317.27999999999997" style="stroke:rgb(179,179,179);stroke-dasharray:1,1;"/>
    <path d="M 458.39999999999998 -325.92000000000002 L 580.79999999999995 -325.92000000000002" style="stroke:rgb(179,179,179);stroke-dasharray:1,1;"/>
    <path d="M 458.39999999999998 -334.56 L 580.79999999999995 -334.56" style="stroke:rgb(179,179,179);stroke-dasharray:1,1;"/>
    <path d="M 458.39999999999998 -343.19999999999999 L 580.79999999999995 -343.19999999999999" style="stroke:rgb(179,179,179);stroke-dasharray:1,1;"/>
    <path d="M 458.39999999999998 -351.83999999999997 L 580.79999999999995 -351.83999999999997" style="stroke:rgb(179,179,179);stroke-dasharray:1,1;"/>
    <path d="M 458.39999999999998 -360.48000000000002 L 580.79999999999995 -360.48000000000002" style="stroke:rgb(179,179,179);stroke-dasharray:1,1;"/>
    <path d="M 458.39999999999998 -369.12 L 580.79999999999995 -369.12" style="stroke:rgb(179,179,179);stroke-dasharray:1,1;"/>
    <path d="M 458.39999999999998 -377.75999999999999 L 580.79999999999995 -377.75999999999999" style="stroke:rgb(179,179,179);stroke-dasharray:1,1;"/>
    <path d="M 458.39999999999998 -386.39999999999998 L 580.79999999999995 -386.39999999999998" style="stroke:rgb(179,179,179);stroke-dasharray:1,1;"/>
    <path d="M 458.39999999999998 -300 L 458.39999999999998 -386.39999999999998"/>
    <path d="M 458.39999999999998 -300.0 L 452.39999999999998 -300.0"/>
    <text style="stroke:none;fill:rgb(0,0,0);" x="447.39599999999996" y="-295.5">
      0
    </text>
    <path d="M 458.39999999999998 -321.60000000000002 L 452.39999999999998 -321.60000000000002"/>
    <text style="stroke:none;fill:rgb(0,0,0);" x="442.39199999999994" y="-317.10000000000002">
      25
    </text>
    <path d="M 458.39999999999998 -343.19999999999999 L 452.39999999999998 -343.19999999999999"/>
    <text style="stroke:none;fill:rgb(0,0,0);" x="442.39199999999994" y="-338.69999999999999">
      50
    </text>
    <path d="M 458.39999999999998 -364.80000000000001 L 452.39999999999998 -364.80000000000001"/>
    <text style="stroke:none;fill:rgb(0,0,0);" x="442.39199999999994" y="-360.30000000000001">
      75
    </text>
    <path d="M 458.39999999999998 -386.39999999999998 L 452.39999999999998 -386.39999999999998"/>
    <text style="stroke:none;fill:rgb(0,0,0);" x="437.38799999999998" y="-381.89999999999998">
      100
    </text>
    <g style="clip-path:url(#clip28);">
      <g style="clip-path:url(#clip29);">
        <path d="M 397.19999999999999 -300.0 L 458.39999999999998 -322.89600000000002 L 519.59999999999991 -345.79200000000003 L 580.79999999999995 -368.25599999999997" style="stroke-width:1.2;"/>
      </g>
      <g style="clip-path:url(#clip30);">
        <g style="fill:rgb(255,255,255);clip-path:url(#clip31);">
          <path d="M 395.05714285714282 -297.85714285714283 L 395.05714285714282 -302.14285714285717 L 399.34285714285716 -302.14285714285717 L 399.34285714285716 -297.85714285714283 Z" style="stroke:none;"/>
        </g>
        <g>
          <path d="M 395.05714285714282 -300.0 L 397.19999999999999 -302.14285714285717 L 399.34285714285716 -300.0 L 397.19999999999999 -297.85714285714283 Z"/>
          <g style="fill:rgb(255,255,255);clip-path:url(#clip32);">
            <path d="M 456.25714285714287 -320.75314285714285 L 456.25714285714287 -325.03885714285713 L 460.54285714285709 -325.03885714285713 L 460.54285714285709 -320.75314285714285 Z" style="stroke:none;"/>
          </g>
          <g>
            <path d="M 456.25714285714287 -322.89600000000002 L 458.39999999999998 -325.03885714285713 L 460.54285714285709 -322.89600000000002 L 458.39999999999998 -320.75314285714285 Z"/>
            <g style="fill:rgb(255,255,255);clip-path:url(#clip33);">
              <path d="M 517.4571428571428 -343.64914285714286 L 517.4571428571428 -347.93485714285714 L 521.74285714285713 -347.93485714285714 L 521.74285714285713 -343.64914285714286 Z" style="stroke:none;"/>
            </g>
            <g>
              <path d="M 517.4571428571428 -345.79200000000003 L 519.59999999999991 -347.93485714285714 L 521.74285714285713 -345.79200000000003 L 519.59999999999991 -343.64914285714286 Z"/>
              <g style="fill:rgb(255,255,255);clip-path:url(#clip34);">
                <path d="M 578.65714285714284 -366.11314285714286 L 578.65714285714284 -370.39885714285714 L 582.94285714285706 -370.39885714285714 L 582.94285714285706 -366.11314285714286 Z" style="stroke:none;"/>
              </g>
              <g>
                <path d="M 578.65714285714284 -368.25599999999997 L 580.79999999999995 -370.39885714285714 L 582.94285714285706 -368.25599999999997 L 580.79999999999995 -366.11314285714286 Z"/>
              </g>
            </g>
          </g>
        </g>
      </g>
      <g style="clip-path:url(#clip35);">
        <path d="M 397.19999999999999 -300.0 L 458.39999999999998 -308.63999999999999 L 519.59999999999991 -325.05599999999998 L 580.79999999999995 -341.47199999999998" style="stroke:rgb(179,179,179);stroke-width:1.2;stroke-dasharray:1.5,1.5;"/>
      </g>
      <g style="clip-path:url(#clip36);">
        <g style="fill:rgb(255,255,255);clip-path:url(#clip37);">
          <path d="M 395.32499999999999 -298.5 L 395.32499999999999 -301.5 L 399.07499999999999 -301.5 L 399.07499999999999 -298.5 Z" style="stroke:none;"/>
        </g>
        <g>
          <path d="M 397.19999999999999 -298.5 L 395.32499999999999 -301.5 L 399.07499999999999 -301.5 Z"/>
          <g style="fill:rgb(255,255,255);clip-path:url(#clip38);">
            <path d="M 456.52499999999998 -307.13999999999999 L 456.52499999999998 -310.13999999999999 L 460.27499999999998 -310.13999999999999 L 460.27499999999998 -307.13999999999999 Z" style="stroke:none;"/>
          </g>
          <g>
            <path d="M 458.39999999999998 -307.13999999999999 L 456.52499999999998 -310.13999999999999 L 460.27499999999998 -310.13999999999999 Z"/>
            <g style="fill:rgb(255,255,255);clip-path:url(#clip39);">
              <path d="M 517.72499999999991 -323.55599999999998 L 517.72499999999991 -326.55599999999998 L 521.47499999999991 -326.55599999999998 L 521.47499999999991 -323.55599999999998 Z" style="stroke:none;"/>
            </g>
            <g>
              <path d="M 519.59999999999991 -323.55599999999998 L 517.72499999999991 -326.55599999999998 L 521.47499999999991 -326.55599999999998 Z"/>
              <g style="fill:rgb(255,255,255);clip-path:url(#clip40);">
                <path d="M 578.92499999999995 -339.97199999999998 L 578.92499999999995 -342.97199999999998 L 582.67499999999995 -342.97199999999998 L 582.67499999999995 -339.97199999999998 Z" style="stroke:none;"/>
              </g>
              <g>
                <path d="M 580.79999999999995 -339.97199999999998 L 578.92499999999995 -342.97199999999998 L 582.67499999999995 -342.97199999999998 Z"/>
              </g>
            </g>
          </g>
        </g>
      </g>
      <g style="clip-path:url(#clip41);">
        <path d="M 397.19999999999999 -300.0 L 458.39999999999998 -307.77600000000001 L 519.59999999999991 -315.55200000000002 L 580.79999999999995 -324.19200000000001" style="stroke-width:1.2;"/>
      </g>
      <g style="clip-path:url(#clip42);">
        <g style="fill:rgb(255,255,255);clip-path:url(#clip43);">
          <path d="M 395.05714285714282 -297.85714285714283 L 395.05714285714282 -302.14285714285717 L 399.34285714285716 -302.14285714285717 L 399.34285714285716 -297.85714285714283 Z" style="stroke:none;"/>
        </g>
        <g>
          <path d="M 395.05714285714282 -300.0 L 397.19999999999999 -302.14285714285717 L 399.34285714285716 -300.0 L 397.19999999999999 -297.85714285714283 Z"/>
          <g style="fill:rgb(255,255,255);clip-path:url(#clip44);">
            <path d="M 456.25714285714287 -305.63314285714284 L 456.25714285714287 -309.91885714285712 L 460.54285714285709 -309.91885714285712 L 460.54285714285709 -305.63314285714284 Z" style="stroke:none;"/>
          </g>
          <g>
            <path d="M 456.25714285714287 -307.77600000000001 L 458.39999999999998 -309.91885714285712 L 460.54285714285709 -307.77600000000001 L 458.39999999999998 -305.63314285714284 Z"/>
            <g style="fill:rgb(255,255,255);clip-path:url(#clip45);">
              <path d="M 517.4571428571428 -313.40914285714285 L 517.4571428571428 -317.69485714285713 L 521.74285714285713 -317.69485714285713 L 521.74285714285713 -313.40914285714285 Z" style="stroke:none;"/>
            </g>
            <g>
              <path d="M 517.4571428571428 -315.55200000000002 L 519.59999999999991 -317.69485714285713 L 521.74285714285713 -315.55200000000002 L 519.59999999999991 -313.40914285714285 Z"/>
              <g style="fill:rgb(255,255,255);clip-path:url(#clip46);">
                <path d="M 578.65714285714284 -322.04914285714284 L 578.65714285714284 -326.33485714285712 L 582.94285714285706 -326.33485714285712 L 582.94285714285706 -322.04914285714284 Z" style="stroke:none;"/>
              </g>
              <g>
                <path d="M 578.65714285714284 -324.19200000000001 L 580.79999999999995 -326.33485714285712 L 582.94285714285706 -324.19200000000001 L 580.79999999999995 -322.04914285714284 Z"/>
              </g>
            </g>
          </g>
        </g>
      </g>
      <g style="clip-path:url(#clip47);">
        <path d="M 397.19999999999999 -300.0 L 458.39999999999998 -303.45600000000002 L 519.59999999999991 -308.63999999999999 L 580.79999999999995 -313.82400000000001" style="stroke:rgb(179,179,179);stroke-width:1.2;stroke-dasharray:1.5,1.5;"/>
      </g>
      <g style="clip-path:url(#clip48);">
        <path d="M 395.05714285714282 -300.0 L 399.34285714285716 -300.0" style="stroke-width:1;"/>
        <path d="M 397.19999999999999 -297.85714285714283 L 397.19999999999999 -302.14285714285717" style="stroke-width:1;"/>
        <path d="M 456.25714285714287 -303.45600000000002 L 460.54285714285709 -303.45600000000002" style="stroke-width:1;"/>
        <path d="M 458.39999999999998 -301.31314285714285 L 458.39999999999998 -305.59885714285713" style="stroke-width:1;"/>
        <path d="M 517.4571428571428 -308.63999999999999 L 521.74285714285713 -308.63999999999999" style="stroke-width:1;"/>
        <path d="M 519.59999999999991 -306.49714285714288 L 519.59999999999991 -310.78285714285715" style="stroke-width:1;"/>
        <path d="M 578.65714285714284 -313.82400000000001 L 582.94285714285706 -313.82400000000001" style="stroke-width:1;"/>
        <path d="M 580.79999999999995 -311.68114285714285 L 580.79999999999995 -315.96685714285712" style="stroke-width:1;"/>
      </g>
      <g style="clip-path:url(#clip49);">
        <path d="M 397.19999999999999 -300.0 L 458.39999999999998 -301.72800000000001 L 519.59999999999991 -302.59199999999998 L 580.79999999999995 -302.59199999999998" style="stroke:rgb(126,126,126);stroke-width:1.2;"/>
      </g>
      <g style="clip-path:url(#clip50);">
        <g style="fill:rgb(255,255,255);clip-path:url(#clip51);">
          <path d="M 394.19999999999999 -297.0 L 394.19999999999999 -303.0 L 400.19999999999999 -303.0 L 400.19999999999999 -297.0 Z" style="stroke:none;"/>
        </g>
        <g>
          <path d="M 397.19999999999999 -300.0 M 398.69999999999999 -300.0 L 398.7 -300 M 398.7 -300 A 1.5 1.5 0 1 0 395.7 -300 A 1.5 1.5 0 1 0 398.7 -300 Z"/>
          <g style="fill:rgb(255,255,255);clip-path:url(#clip52);">
            <path d="M 455.39999999999998 -298.72800000000001 L 455.39999999999998 -304.72800000000001 L 461.39999999999998 -304.72800000000001 L 461.39999999999998 -298.72800000000001 Z" style="stroke:none;"/>
          </g>
          <g>
            <path d="M 458.39999999999998 -301.72800000000001 M 459.89999999999998 -301.72800000000001 L 459.9 -301.728 M 459.9 -301.728 A 1.5 1.5 0 1 0 456.9 -301.728 A 1.5 1.5 0 1 0 459.9 -301.728 Z"/>
            <g style="fill:rgb(255,255,255);clip-path:url(#clip53);">
              <path d="M 516.59999999999991 -299.59199999999998 L 516.59999999999991 -305.59199999999998 L 522.59999999999991 -305.59199999999998 L 522.59999999999991 -299.59199999999998 Z" style="stroke:none;"/>
            </g>
            <g>
              <path d="M 519.59999999999991 -302.59199999999998 M 521.09999999999991 -302.59199999999998 L 521.1 -302.592 M 521.1 -302.592 A 1.5 1.5 0 1 0 518.1 -302.592 A 1.5 1.5 0 1 0 521.1 -302.592 Z"/>
              <g style="fill:rgb(255,255,255);clip-path:url(#clip54);">
                <path d="M 577.79999999999995 -299.59199999999998 L 577.79999999999995 -305.59199999999998 L 583.79999999999995 -305.59199999999998 L 583.79999999999995 -299.59199999999998 Z" style="stroke:none;"/>
              </g>
              <g>
                <path d="M 580.79999999999995 -302.59199999999998 M 582.29999999999995 -302.59199999999998 L 582.3 -302.592 M 582.3 -302.592 A 1.5 1.5 0 1 0 579.3 -302.592 A 1.5 1.5 0 1 0 582.3 -302.592 Z"/>
              </g>
            </g>
          </g>
        </g>
      </g>
    </g>
    <g style="fill:rgb(255,255,255);clip-path:url(#clip55);">
      <path d="M 588.03999999999996 -297 L 588.03999999999996 -345 L 621.04399999999998 -345 L 621.04399999999998 -297 Z" style="stroke:none;"/>
    </g>
    <g>
      <path d="M 588.03999999999996 -297 L 588.03999999999996 -345 L 621.04399999999998 -345 L 621.04399999999998 -297 Z"/>
      <path d="M 593.03999999999996 -339.0 L 602.03999999999996 -339.0" style="stroke-width:1.2;"/>
      <g style="fill:rgb(255,255,255);clip-path:url(#clip56);">
        <path d="M 595.39714285714285 -336.85714285714283 L 595.39714285714285 -341.14285714285717 L 599.68285714285707 -341.14285714285717 L 599.68285714285707 -336.85714285714283 Z" style="stroke:none;"/>
      </g>
      <g>
        <path d="M 595.39714285714285 -339.0 L 597.53999999999996 -341.14285714285717 L 599.68285714285707 -339.0 L 597.53999999999996 -336.85714285714283 Z"/>
        <text style="stroke:none;fill:rgb(0,0,0);" x="602.03999999999996" y="-336.0">
          D4
        </text>
        <path d="M 593.03999999999996 -330.0 L 602.03999999999996 -330.0" style="stroke:rgb(179,179,179);stroke-width:1.2;stroke-dasharray:1.5,1.5;"/>
        <g style="fill:rgb(255,255,255);clip-path:url(#clip57);">
          <path d="M 595.66499999999996 -328.5 L 595.66499999999996 -331.5 L 599.41499999999996 -331.5 L 599.41499999999996 -328.5 Z" style="stroke:none;"/>
        </g>
        <g>
          <path d="M 597.53999999999996 -328.5 L 595.66499999999996 -331.5 L 599.41499999999996 -331.5 Z"/>
          <text style="stroke:none;fill:rgb(0,0,0);" x="602.03999999999996" y="-327.0">
            D2
          </text>
          <path d="M 593.03999999999996 -321.0 L 602.03999999999996 -321.0" style="stroke-width:1.2;"/>
          <g style="fill:rgb(255,255,255);clip-path:url(#clip58);">
            <path d="M 595.39714285714285 -318.85714285714283 L 595.39714285714285 -323.14285714285717 L 599.68285714285707 -323.14285714285717 L 599.68285714285707 -318.85714285714283 Z" style="stroke:none;"/>
          </g>
          <g>
            <path d="M 595.39714285714285 -321.0 L 597.53999999999996 -323.14285714285717 L 599.68285714285707 -321.0 L 597.53999999999996 -318.85714285714283 Z"/>
            <text style="stroke:none;fill:rgb(0,0,0);" x="602.03999999999996" y="-318.0">
              S4
            </text>
            <path d="M 593.03999999999996 -312.0 L 602.03999999999996 -312.0" style="stroke:rgb(179,179,179);stroke-width:1.2;stroke-dasharray:1.5,1.5;"/>
            <path d="M 595.39714285714285 -312.0 L 599.68285714285707 -312.0" style="stroke-width:1;"/>
            <path d="M 597.53999999999996 -309.85714285714283 L 597.53999999999996 -314.14285714285717" style="stroke-width:1;"/>
            <text style="stroke:none;fill:rgb(0,0,0);" x="602.03999999999996" y="-309.0">
              S2
            </text>
            <path d="M 593.03999999999996 -303.0 L 602.03999999999996 -303.0" style="stroke:rgb(126,126,126);stroke-width:1.2;"/>
            <g style="fill:rgb(255,255,255);clip-path:url(#clip59);">
              <path d="M 594.53999999999996 -300.0 L 594.53999999999996 -306.0 L 600.53999999999996 -306.0 L 600.53999999999996 -300.0 Z" style="stroke:none;"/>
            </g>
            <g>
              <path d="M 597.53999999999996 -303.0 M 599.03999999999996 -303.0 L 599.04 -303 M 599.04 -303 A 1.5 1.5 0 1 0 596.04 -303 A 1.5 1.5 0 1 0 599.04 -303 Z"/>
              <text style="stroke:none;fill:rgb(0,0,0);" x="602.03999999999996" y="-300.0">
                R
              </text>
              <g style="fill:rgb(255,255,255);clip-path:url(#clip60);">
                <path d="M 514.59999999999991 -255 L 514.59999999999991 -269 L 535.59799999999996 -269 L 535.59799999999996 -255 Z" style="stroke:none;"/>
              </g>
              <text style="stroke:none;fill:rgb(0,0,0);" x="519.59999999999991" y="-260.0">
                (b)
              </text>
            </g>
          </g>
        </g>
      </g>
    </g>
  </g>
</svg>
