<?xml version="1.0" ?>
<!--Created by PyChart 1.39 Copyright 1999-2006 Yasushi Saito-->
<svg viewBox="267.492 -423 232.022 155.5" xmlns="http://www.w3.org/2000/svg" xmlns:xlink="http://www.w3.org/1999/xlink">
  <defs>
    <clipPath id="clip0">
      <path d="M 297 -297 L 297 -423 L 453 -423 L 453 -297 Z"/>
    </clipPath>
    <clipPath id="clip1">
      <path d="M 297 -297 L 297 -423 L 453 -423 L 453 -297 Z"/>
    </clipPath>
    <clipPath id="clip2">
      <path d="M 290 -290 L 290 -430 L 460 -430 L 460 -290 Z"/>
    </clipPath>
    <clipPath id="clip3">
      <path d="M 300 -300 L 300 -420 L 450 -420 L 450 -300 Z"/>
    </clipPath>
    <clipPath id="clip4">
      <path d="M 297.5 -300.0 L 297.5 -306.85714285714283 L 302.5 -306.85714285714283 L 302.5 -300.0 Z"/>
    </clipPath>
    <clipPath id="clip5">
      <path d="M 304.64285714285717 -300.0 L 304.64285714285717 -310.28571428571428 L 309.64285714285717 -310.28571428571428 L 309.64285714285717 -300.0 Z"/>
    </clipPath>
    <clipPath id="clip6">
      <path d="M 311.78571428571428 -300.0 L 311.78571428571428 -313.71428571428572 L 316.78571428571428 -313.71428571428572 L 316.78571428571428 -300.0 Z"/>
    </clipPath>
    <clipPath id="clip7">
      <path d="M 318.92857142857144 -300.0 L 318.92857142857144 -320.57142857142856 L 323.92857142857144 -320.57142857142856 L 323.92857142857144 -300.0 Z"/>
    </clipPath>
    <clipPath id="clip8">
      <path d="M 326.07142857142856 -300.0 L 326.07142857142856 -324.0 L 331.07142857142856 -324.0 L 331.07142857142856 -300.0 Z"/>
    </clipPath>
    <clipPath id="clip9">
      <path d="M 333.21428571428572 -300.0 L 333.21428571428572 -330.85714285714283 L 338.21428571428572 -330.85714285714283 L 338.21428571428572 -300.0 Z"/>
    </clipPath>
    <clipPath id="clip10">
      <path d="M 340.35714285714283 -300.0 L 340.35714285714283 -330.85714285714283 L 345.35714285714283 -330.85714285714283 L 345.35714285714283 -300.0 Z"/>
    </clipPath>
    <clipPath id="clip11">
      <path d="M 347.5 -300.0 L 347.5 -334.28571428571428 L 352.5 -334.28571428571428 L 352.5 -300.0 Z"/>
    </clipPath>
    <clipPath id="clip12">
      <path d="M 354.64285714285717 -300.0 L 354.64285714285717 -341.14285714285717 L 359.64285714285717 -341.14285714285717 L 359.64285714285717 -300.0 Z"/>
    </clipPath>
    <clipPath id="clip13">
      <path d="M 361.78571428571428 -300.0 L 361.78571428571428 -348.0 L 366.78571428571428 -348.0 L 366.78571428571428 -300.0 Z"/>
    </clipPath>
    <clipPath id="clip14">
      <path d="M 368.92857142857144 -300.0 L 368.92857142857144 -348.0 L 373.92857142857144 -348.0 L 373.92857142857144 -300.0 Z"/>
    </clipPath>
    <clipPath id="clip15">
      <path d="M 376.07142857142856 -300.0 L 376.07142857142856 -354.85714285714283 L 381.07142857142856 -354.85714285714283 L 381.07142857142856 -300.0 Z"/>
    </clipPath>
    <clipPath id="clip16">
      <path d="M 383.21428571428572 -300.0 L 383.21428571428572 -358.28571428571428 L 388.21428571428572 -358.28571428571428 L 388.21428571428572 -300.0 Z"/>
    </clipPath>
    <clipPath id="clip17">
      <path d="M 390.35714285714289 -300.0 L 390.35714285714289 -361.71428571428572 L 395.35714285714289 -361.71428571428572 L 395.35714285714289 -300.0 Z"/>
    </clipPath>
    <clipPath id="clip18">
      <path d="M 397.5 -300.0 L 397.5 -368.57142857142856 L 402.5 -368.57142857142856 L 402.5 -300.0 Z"/>
    </clipPath>
    <clipPath id="clip19">
      <path d="M 404.64285714285711 -300.0 L 404.64285714285711 -372.0 L 409.64285714285711 -372.0 L 409.64285714285711 -300.0 Z"/>
    </clipPath>
    <clipPath id="clip20">
      <path d="M 411.78571428571428 -300.0 L 411.78571428571428 -372.0 L 416.78571428571428 -372.0 L 416.78571428571428 -300.0 Z"/>
    </clipPath>
    <clipPath id="clip21">
      <path d="M 418.92857142857144 -300.0 L 418.92857142857144 -375.42857142857144 L 423.92857142857144 -375.42857142857144 L 423.92857142857144 -300.0 Z"/>
    </clipPath>
    <clipPath id="clip22">
      <path d="M 426.07142857142856 -300.0 L 426.07142857142856 -382.28571428571428 L 431.07142857142856 -382.28571428571428 L 431.07142857142856 -300.0 Z"/>
    </clipPath>
    <clipPath id="clip23">
      <path d="M 433.21428571428572 -300.0 L 433.21428571428572 -389.14285714285711 L 438.21428571428572 -389.14285714285711 L 438.21428571428572 -300.0 Z"/>
    </clipPath>
    <clipPath id="clip24">
      <path d="M 460.0 -297 L 460.0 -318 L 496.51400000000001 -318 L 496.51400000000001 -297 Z"/>
    </clipPath>
    <clipPath id="clip25">
      <path d="M 465.0 -299.85000000000002 L 465.0 -306.14999999999998 L 471.30000000000001 -306.14999999999998 L 471.30000000000001 -299.85000000000002 Z"/>
    </clipPath>
  </defs>
  <g style="stroke-linejoin:miter;font-size:9;font-family:Helvetica;fill:none;stroke-linecap:butt;stroke:rgb(0,0,0);font-stretch:normal;stroke-dasharray:none;font-weight:normal;font-style:normal;stroke-width:0.4;">
    <path d="M 300 -300 L 450 -300"/>
    <path d="M 300 -300 L 450 -300"/>
    <path d="M 300.0 -300 L 300.0 -294"/>
    <text style="stroke:none;fill:rgb(0,0,0);" x="297.49799999999999" y="-285.0">
      0
    </text>
    <path d="M 314.28571428571428 -300 L 314.28571428571428 -294"/>
    <text style="stroke:none;fill:rgb(0,0,0);" x="309.28171428571432" y="-285.0">
      10
    </text>
    <path d="M 328.57142857142856 -300 L 328.57142857142856 -294"/>
    <text style="stroke:none;fill:rgb(0,0,0);" x="323.56742857142859" y="-285.0">
      20
    </text>
    <path d="M 342.85714285714283 -300 L 342.85714285714283 -294"/>
    <text style="stroke:none;fill:rgb(0,0,0);" x="337.85314285714287" y="-285.0">
      30
    </text>
    <path d="M 357.14285714285717 -300 L 357.14285714285717 -294"/>
    <text style="stroke:none;fill:rgb(0,0,0);" x="352.13885714285715" y="-285.0">
      40
    </text>
    <path d="M 371.42857142857144 -300 L 371.42857142857144 -294"/>
    <text style="stroke:none;fill:rgb(0,0,0);" x="366.42457142857143" y="-285.0">
      50
    </text>
    <path d="M 385.71428571428572 -300 L 385.71428571428572 -294"/>
    <text style="stroke:none;fill:rgb(0,0,0);" x="380.7102857142857" y="-285.0">
      60
    </text>
    <path d="M 400.0 -300 L 400.0 -294"/>
    <text style="stroke:none;fill:rgb(0,0,0);" x="394.99599999999998" y="-285.0">
      70
    </text>
    <path d="M 414.28571428571428 -300 L 414.28571428571428 -294"/>
    <text style="stroke:none;fill:rgb(0,0,0);" x="409.28171428571432" y="-285.0">
      80
    </text>
    <path d="M 428.57142857142856 -300 L 428.57142857142856 -294"/>
    <text style="stroke:none;fill:rgb(0,0,0);" x="423.56742857142859" y="-285.0">
      90
    </text>
    <path d="M 442.85714285714289 -300 L 442.85714285714289 -294"/>
    <text style="stroke:none;fill:rgb(0,0,0);" x="435.35114285714286" y="-285.0">
      100
    </text>
    <text style="stroke:none;fill:rgb(0,0,0);" x="356.24400000000003" y="-270.5">
      axis label
    </text>
    <path d="M 300 -334.28571428571428 L 450 -334.28571428571428" style="stroke:rgb(179,179,179);stroke-dasharray:1,1;"/>
    <path d="M 300 -368.57142857142856 L 450 -368.57142857142856" style="stroke:rgb(179,179,179);stroke-dasharray:1,1;"/>
    <path d="M 300 -402.85714285714289 L 450 -402.85714285714289" style="stroke:rgb(179,179,179);stroke-dasharray:1,1;"/>
    <path d="M 300 -300 L 300 -420"/>
    <path d="M 300 -300.0 L 294 -300.0"/>
    <text style="stroke:none;fill:rgb(0,0,0);" x="288.99599999999998" y="-295.5">
      0
    </text>
    <path d="M 300 -334.28571428571428 L 294 -334.28571428571428"/>
    <text style="stroke:none;fill:rgb(0,0,0);" x="283.99200000000002" y="-329.78571428571428">
      10
    </text>
    <path d="M 300 -368.57142857142856 L 294 -368.57142857142856"/>
    <text style="stroke:none;fill:rgb(0,0,0);" x="283.99200000000002" y="-364.07142857142856">
      20
    </text>
    <path d="M 300 -402.85714285714289 L 294 -402.85714285714289"/>
    <text style="stroke:none;fill:rgb(0,0,0);" x="283.99200000000002" y="-398.35714285714289">
      30
    </text>
    <text style="stroke:none;fill:rgb(0,0,0);" transform="rotate(-90,279.492,-341.244)" x="279.49200000000002" y="-341.24400000000003">
      axis label
    </text>
    <path d="M 450 -300 L 450 -420"/>
    <path d="M 450 -300.0 L 456 -300.0"/>
    <text style="stroke:none;fill:rgb(0,0,0);" x="456.0" y="-295.5">
      0
    </text>
    <path d="M 450 -334.28571428571428 L 456 -334.28571428571428"/>
    <text style="stroke:none;fill:rgb(0,0,0);" x="456.0" y="-329.78571428571428">
      10
    </text>
    <path d="M 450 -368.57142857142856 L 456 -368.57142857142856"/>
    <text style="stroke:none;fill:rgb(0,0,0);" x="456.0" y="-364.07142857142856">
      20
    </text>
    <path d="M 450 -402.85714285714289 L 456 -402.85714285714289"/>
    <text style="stroke:none;fill:rgb(0,0,0);" x="456.0" y="-398.35714285714289">
      30
    </text>
    <text style="stroke:none;fill:rgb(0,0,0);" transform="rotate(-90,475.008,-341.244)" x="475.00800000000004" y="-341.24400000000003">
      axis label
    </text>
    <g style="clip-path:url(#clip0);">
      <g style="clip-path:url(#clip1);">
        <path d="M 300.0 -306.85714285714283 L 307.14285714285717 -306.85714285714283 L 314.28571428571428 -310.28571428571428 L 321.42857142857144 -310.28571428571428 L 328.57142857142856 -313.71428571428572 L 335.71428571428572 -317.14285714285717 L 342.85714285714283 -324.0 L 350.0 -324.0 L 357.14285714285717 -330.85714285714283 L 364.28571428571428 -337.71428571428572 L 371.42857142857144 -344.57142857142856 L 378.57142857142856 -351.42857142857144 L 385.71428571428572 -351.42857142857144 L 392.85714285714289 -354.85714285714283 L 400.0 -361.71428571428572 L 407.14285714285711 -368.57142857142856 L 414.28571428571428 -375.42857142857144 L 421.42857142857144 -375.42857142857144 L 428.57142857142856 -378.85714285714289 L 435.71428571428572 -385.71428571428572" style="stroke-width:1.2;"/>
      </g>
      <g style="clip-path:url(#clip2);"/>
      <g style="clip-path:url(#clip3);">
        <g style="fill:rgb(0,0,0);clip-path:url(#clip4);">
          <path d="M 297.5 -300.0 L 297.5 -306.85714285714283 L 302.5 -306.85714285714283 L 302.5 -300.0 Z" style="stroke:none;"/>
        </g>
        <g>
          <path d="M 297.5 -300.0 L 297.5 -306.85714285714283 L 302.5 -306.85714285714283 L 302.5 -300.0 Z"/>
          <g style="fill:rgb(0,0,0);clip-path:url(#clip5);">
            <path d="M 304.64285714285717 -300.0 L 304.64285714285717 -310.28571428571428 L 309.64285714285717 -310.28571428571428 L 309.64285714285717 -300.0 Z" style="stroke:none;"/>
          </g>
          <g>
            <path d="M 304.64285714285717 -300.0 L 304.64285714285717 -310.28571428571428 L 309.64285714285717 -310.28571428571428 L 309.64285714285717 -300.0 Z"/>
            <g style="fill:rgb(0,0,0);clip-path:url(#clip6);">
              <path d="M 311.78571428571428 -300.0 L 311.78571428571428 -313.71428571428572 L 316.78571428571428 -313.71428571428572 L 316.78571428571428 -300.0 Z" style="stroke:none;"/>
            </g>
            <g>
              <path d="M 311.78571428571428 -300.0 L 311.78571428571428 -313.71428571428572 L 316.78571428571428 -313.71428571428572 L 316.78571428571428 -300.0 Z"/>
              <g style="fill:rgb(0,0,0);clip-path:url(#clip7);">
                <path d="M 318.92857142857144 -300.0 L 318.92857142857144 -320.57142857142856 L 323.92857142857144 -320.57142857142856 L 323.92857142857144 -300.0 Z" style="stroke:none;"/>
              </g>
              <g>
                <path d="M 318.92857142857144 -300.0 L 318.92857142857144 -320.57142857142856 L 323.92857142857144 -320.57142857142856 L 323.92857142857144 -300.0 Z"/>
                <g style="fill:rgb(0,0,0);clip-path:url(#clip8);">
                  <path d="M 326.07142857142856 -300.0 L 326.07142857142856 -324.0 L 331.07142857142856 -324.0 L 331.07142857142856 -300.0 Z" style="stroke:none;"/>
                </g>
                <g>
                  <path d="M 326.07142857142856 -300.0 L 326.07142857142856 -324.0 L 331.07142857142856 -324.0 L 331.07142857142856 -300.0 Z"/>
                  <g style="fill:rgb(0,0,0);clip-path:url(#clip9);">
                    <path d="M 333.21428571428572 -300.0 L 333.21428571428572 -330.85714285714283 L 338.21428571428572 -330.85714285714283 L 338.21428571428572 -300.0 Z" style="stroke:none;"/>
                  </g>
                  <g>
                    <path d="M 333.21428571428572 -300.0 L 333.21428571428572 -330.85714285714283 L 338.21428571428572 -330.85714285714283 L 338.21428571428572 -300.0 Z"/>
                    <g style="fill:rgb(0,0,0);clip-path:url(#clip10);">
                      <path d="M 340.35714285714283 -300.0 L 340.35714285714283 -330.85714285714283 L 345.35714285714283 -330.85714285714283 L 345.35714285714283 -300.0 Z" style="stroke:none;"/>
                    </g>
                    <g>
                      <path d="M 340.35714285714283 -300.0 L 340.35714285714283 -330.85714285714283 L 345.35714285714283 -330.85714285714283 L 345.35714285714283 -300.0 Z"/>
                      <g style="fill:rgb(0,0,0);clip-path:url(#clip11);">
                        <path d="M 347.5 -300.0 L 347.5 -334.28571428571428 L 352.5 -334.28571428571428 L 352.5 -300.0 Z" style="stroke:none;"/>
                      </g>
                      <g>
                        <path d="M 347.5 -300.0 L 347.5 -334.28571428571428 L 352.5 -334.28571428571428 L 352.5 -300.0 Z"/>
                        <g style="fill:rgb(0,0,0);clip-path:url(#clip12);">
                          <path d="M 354.64285714285717 -300.0 L 354.64285714285717 -341.14285714285717 L 359.64285714285717 -341.14285714285717 L 359.64285714285717 -300.0 Z" style="stroke:none;"/>
                        </g>
                        <g>
                          <path d="M 354.64285714285717 -300.0 L 354.64285714285717 -341.14285714285717 L 359.64285714285717 -341.14285714285717 L 359.64285714285717 -300.0 Z"/>
                          <g style="fill:rgb(0,0,0);clip-path:url(#clip13);">
                            <path d="M 361.78571428571428 -300.0 L 361.78571428571428 -348.0 L 366.78571428571428 -348.0 L 366.78571428571428 -300.0 Z" style="stroke:none;"/>
                          </g>
                          <g>
                            <path d="M 361.78571428571428 -300.0 L 361.78571428571428 -348.0 L 366.78571428571428 -348.0 L 366.78571428571428 -300.0 Z"/>
                            <g style="fill:rgb(0,0,0);clip-path:url(#clip14);">
                              <path d="M 368.92857142857144 -300.0 L 368.92857142857144 -348.0 L 373.92857142857144 -348.0 L 373.92857142857144 -300.0 Z" style="stroke:none;"/>
                            </g>
                            <g>
                              <path d="M 368.92857142857144 -300.0 L 368.92857142857144 -348.0 L 373.92857142857144 -348.0 L 373.92857142857144 -300.0 Z"/>
                              <g style="fill:rgb(0,0,0);clip-path:url(#clip15);">
                                <path d="M 376.07142857142856 -300.0 L 376.07142857142856 -354.85714285714283 L 381.07142857142856 -354.85714285714283 L 381.07142857142856 -300.0 Z" style="stroke:none;"/>
                              </g>
                              <g>
                                <path d="M 376.07142857142856 -300.0 L 376.07142857142856 -354.85714285714283 L 381.07142857142856 -354.85714285714283 L 381.07142857142856 -300.0 Z"/>
                                <g style="fill:rgb(0,0,0);clip-path:url(#clip16);">
                                  <path d="M 383.21428571428572 -300.0 L 383.21428571428572 -358.28571428571428 L 388.21428571428572 -358.28571428571428 L 388.21428571428572 -300.0 Z" style="stroke:none;"/>
                                </g>
                                <g>
                                  <path d="M 383.21428571428572 -300.0 L 383.21428571428572 -358.28571428571428 L 388.21428571428572 -358.28571428571428 L 388.21428571428572 -300.0 Z"/>
                                  <g style="fill:rgb(0,0,0);clip-path:url(#clip17);">
                                    <path d="M 390.35714285714289 -300.0 L 390.35714285714289 -361.71428571428572 L 395.35714285714289 -361.71428571428572 L 395.35714285714289 -300.0 Z" style="stroke:none;"/>
                                  </g>
                                  <g>
                                    <path d="M 390.35714285714289 -300.0 L 390.35714285714289 -361.71428571428572 L 395.35714285714289 -361.71428571428572 L 395.35714285714289 -300.0 Z"/>
                                    <g style="fill:rgb(0,0,0);clip-path:url(#clip18);">
                                      <path d="M 397.5 -300.0 L 397.5 -368.57142857142856 L 402.5 -368.57142857142856 L 402.5 -300.0 Z" style="stroke:none;"/>
                                    </g>
                                    <g>
                                      <path d="M 397.5 -300.0 L 397.5 -368.57142857142856 L 402.5 -368.57142857142856 L 402.5 -300.0 Z"/>
                                      <g style="fill:rgb(0,0,0);clip-path:url(#clip19);">
                                        <path d="M 404.64285714285711 -300.0 L 404.64285714285711 -372.0 L 409.64285714285711 -372.0 L 409.64285714285711 -300.0 Z" style="stroke:none;"/>
                                      </g>
                                      <g>
                                        <path d="M 404.64285714285711 -300.0 L 404.64285714285711 -372.0 L 409.64285714285711 -372.0 L 409.64285714285711 -300.0 Z"/>
                                        <g style="fill:rgb(0,0,0);clip-path:url(#clip20);">
                                          <path d="M 411.78571428571428 -300.0 L 411.78571428571428 -372.0 L 416.78571428571428 -372.0 L 416.78571428571428 -300.0 Z" style="stroke:none;"/>
                                        </g>
                                        <g>
                                          <path d="M 411.78571428571428 -300.0 L 411.78571428571428 -372.0 L 416.78571428571428 -372.0 L 416.78571428571428 -300.0 Z"/>
                                          <g style="fill:rgb(0,0,0);clip-path:url(#clip21);">
                                            <path d="M 418.92857142857144 -300.0 L 418.92857142857144 -375.42857142857144 L 423.92857142857144 -375.42857142857144 L 423.92857142857144 -300.0 Z" style="stroke:none;"/>
                                          </g>
                                          <g>
                                            <path d="M 418.92857142857144 -300.0 L 418.92857142857144 -375.42857142857144 L 423.92857142857144 -375.42857142857144 L 423.92857142857144 -300.0 Z"/>
                                            <g style="fill:rgb(0,0,0);clip-path:url(#clip22);">
                                              <path d="M 426.07142857142856 -300.0 L 426.07142857142856 -382.28571428571428 L 431.07142857142856 -382.28571428571428 L 431.07142857142856 -300.0 Z" style="stroke:none;"/>
                                            </g>
                                            <g>
                                              <path d="M 426.07142857142856 -300.0 L 426.07142857142856 -382.28571428571428 L 431.07142857142856 -382.28571428571428 L 431.07142857142856 -300.0 Z"/>
                                              <g style="fill:rgb(0,0,0);clip-path:url(#clip23);">
                                                <path d="M 433.21428571428572 -300.0 L 433.21428571428572 -389.14285714285711 L 438.21428571428572 -389.14285714285711 L 438.21428571428572 -300.0 Z" style="stroke:none;"/>
                                              </g>
                                              <g>
                                                <path d="M 433.21428571428572 -300.0 L 433.21428571428572 -389.14285714285711 L 438.21428571428572 -389.14285714285711 L 438.21428571428572 -300.0 Z"/>
                                              </g>
                                            </g>
                                          </g>
                                        </g>
                                      </g>
                                    </g>
                                  </g>
                                </g>
                              </g>
                            </g>
                          </g>
                        </g>
                      </g>
                    </g>
                  </g>
                </g>
              </g>
            </g>
          </g>
        </g>
      </g>
    </g>
    <g style="fill:rgb(255,255,255);clip-path:url(#clip24);">
      <path d="M 460.0 -297 L 460.0 -318 L 496.51400000000001 -318 L 496.51400000000001 -297 Z" style="stroke:none;"/>
    </g>
    <g>
      <path d="M 460.0 -297 L 460.0 -318 L 496.51400000000001 -318 L 496.51400000000001 -297 Z"/>
      <path d="M 465.0 -312.0 L 474.0 -312.0" style="stroke-width:1.2;"/>
      <text style="stroke:none;fill:rgb(0,0,0);" x="474.0" y="-309.0">
        ???
      </text>
      <g style="fill:rgb(0,0,0);clip-path:url(#clip25);">
        <path d="M 465.0 -299.85000000000002 L 465.0 -306.14999999999998 L 471.30000000000001 -306.14999999999998 L 471.30000000000001 -299.85000000000002 Z" style="stroke:none;"/>
      </g>
      <g>
        <path d="M 465.0 -299.85000000000002 L 465.0 -306.14999999999998 L 471.30000000000001 -306.14999999999998 L 471.30000000000001 -299.85000000000002 Z"/>
        <text style="stroke:none;fill:rgb(0,0,0);" x="474.0" y="-300.0">
          ???
        </text>
      </g>
    </g>
  </g>
</svg>
