<?xml version="1.0" ?>
<!--Created by PyChart 1.39 Copyright 1999-2006 Yasushi Saito-->
<svg viewBox="297 -436.5 452.01 172.798" xmlns="http://www.w3.org/2000/svg" xmlns:xlink="http://www.w3.org/1999/xlink">
  <defs>
    <clipPath id="clip0">
      <path d="M 547 -297 L 547 -423 L 703 -423 L 703 -297 Z"/>
    </clipPath>
    <clipPath id="clip1">
      <path d="M 550 -300 L 550 -420 L 700 -420 L 700 -300 Z"/>
    </clipPath>
    <clipPath id="clip2">
      <path d="M 557.5 -300.0 L 557.5 -321.81818181818181 L 562.5 -321.81818181818181 L 562.5 -300.0 Z"/>
    </clipPath>
    <clipPath id="clip3">
      <path d="M 587.5 -300.0 L 587.5 -403.63636363636363 L 592.5 -403.63636363636363 L 592.5 -300.0 Z"/>
    </clipPath>
    <clipPath id="clip4">
      <path d="M 617.5 -300.0 L 617.5 -392.72727272727275 L 622.5 -392.72727272727275 L 622.5 -300.0 Z"/>
    </clipPath>
    <clipPath id="clip5">
      <path d="M 647.5 -300.0 L 647.5 -349.09090909090912 L 652.5 -349.09090909090912 L 652.5 -300.0 Z"/>
    </clipPath>
    <clipPath id="clip6">
      <path d="M 677.5 -300.0 L 677.5 -327.27272727272725 L 682.5 -327.27272727272725 L 682.5 -300.0 Z"/>
    </clipPath>
    <clipPath id="clip7">
      <path d="M 550 -300 L 550 -420 L 700 -420 L 700 -300 Z"/>
    </clipPath>
    <clipPath id="clip8">
      <path d="M 562.5 -300.0 L 562.5 -332.72727272727275 L 567.5 -332.72727272727275 L 567.5 -300.0 Z"/>
    </clipPath>
    <clipPath id="clip9">
      <path d="M 592.5 -300.0 L 592.5 -336.0 L 597.5 -336.0 L 597.5 -300.0 Z"/>
    </clipPath>
    <clipPath id="clip10">
      <path d="M 622.5 -300.0 L 622.5 -332.72727272727275 L 627.5 -332.72727272727275 L 627.5 -300.0 Z"/>
    </clipPath>
    <clipPath id="clip11">
      <path d="M 652.5 -300.0 L 652.5 -355.63636363636363 L 657.5 -355.63636363636363 L 657.5 -300.0 Z"/>
    </clipPath>
    <clipPath id="clip12">
      <path d="M 682.5 -300.0 L 682.5 -329.45454545454544 L 687.5 -329.45454545454544 L 687.5 -300.0 Z"/>
    </clipPath>
    <clipPath id="clip13">
      <path d="M 550 -300 L 550 -420 L 700 -420 L 700 -300 Z"/>
    </clipPath>
    <clipPath id="clip14">
      <path d="M 567.5 -300.0 L 567.5 -305.45454545454544 L 572.5 -305.45454545454544 L 572.5 -300.0 Z"/>
    </clipPath>
    <clipPath id="clip15">
      <path d="M 597.5 -300.0 L 597.5 -305.45454545454544 L 602.5 -305.45454545454544 L 602.5 -300.0 Z"/>
    </clipPath>
    <clipPath id="clip16">
      <path d="M 627.5 -300.0 L 627.5 -305.45454545454544 L 632.5 -305.45454545454544 L 632.5 -300.0 Z"/>
    </clipPath>
    <clipPath id="clip17">
      <path d="M 657.5 -300.0 L 657.5 -307.63636363636363 L 662.5 -307.63636363636363 L 662.5 -300.0 Z"/>
    </clipPath>
    <clipPath id="clip18">
      <path d="M 687.5 -300.0 L 687.5 -303.27272727272725 L 692.5 -303.27272727272725 L 692.5 -300.0 Z"/>
    </clipPath>
    <clipPath id="clip19">
      <path d="M 710.0 -297 L 710.0 -327 L 746.00999999999999 -327 L 746.00999999999999 -297 Z"/>
    </clipPath>
    <clipPath id="clip20">
      <path d="M 715.0 -317.85000000000002 L 715.0 -324.14999999999998 L 721.29999999999995 -324.14999999999998 L 721.29999999999995 -317.85000000000002 Z"/>
    </clipPath>
    <clipPath id="clip21">
      <path d="M 715.0 -308.85000000000002 L 715.0 -315.14999999999998 L 721.29999999999995 -315.14999999999998 L 721.29999999999995 -308.85000000000002 Z"/>
    </clipPath>
    <clipPath id="clip22">
      <path d="M 715.0 -299.85000000000002 L 715.0 -306.14999999999998 L 721.29999999999995 -306.14999999999998 L 721.29999999999995 -299.85000000000002 Z"/>
    </clipPath>
    <clipPath id="clip23">
      <path d="M 545.0 -370.90909090909088 L 549.0 -374.90909090909088 L 553.0 -370.90909090909088 L 557.0 -374.90909090909088 L 557.0 -378.90909090909088 L 553.0 -374.90909090909088 L 549.0 -378.90909090909088 L 545.0 -374.90909090909088 Z"/>
    </clipPath>
    <clipPath id="clip24">
      <path d="M 585.0 -370.90909090909088 L 589.0 -374.90909090909088 L 593.0 -370.90909090909088 L 597.0 -374.90909090909088 L 597.0 -378.90909090909088 L 593.0 -374.90909090909088 L 589.0 -378.90909090909088 L 585.0 -374.90909090909088 Z"/>
    </clipPath>
    <clipPath id="clip25">
      <path d="M 615.0 -370.90909090909088 L 619.0 -374.90909090909088 L 623.0 -370.90909090909088 L 627.0 -374.90909090909088 L 627.0 -378.90909090909088 L 623.0 -374.90909090909088 L 619.0 -378.90909090909088 L 615.0 -374.90909090909088 Z"/>
    </clipPath>
  </defs>
  <g style="stroke-linejoin:miter;font-size:9;font-family:Helvetica;fill:none;stroke-linecap:butt;stroke:rgb(0,0,0);font-stretch:normal;stroke-dasharray:none;font-weight:normal;font-style:normal;stroke-width:0.4;">
    <path d="M 550 -300 L 700 -300"/>
    <path d="M 550 -300 L 700 -300"/>
    <path d="M 565.0 -300 L 565.0 -294"/>
    <text style="stroke:none;fill:rgb(0,0,0);" transform="rotate(30,560.666,-286.206)" x="560.66640887946267" y="-286.20577136594005">
      10
    </text>
    <path d="M 595.0 -300 L 595.0 -294"/>
    <text style="stroke:none;fill:rgb(0,0,0);" transform="rotate(30,590.666,-286.206)" x="590.66640887946267" y="-286.20577136594005">
      20
    </text>
    <path d="M 625.0 -300 L 625.0 -294"/>
    <text style="stroke:none;fill:rgb(0,0,0);" transform="rotate(30,620.666,-286.206)" x="620.66640887946267" y="-286.20577136594005">
      30
    </text>
    <path d="M 655.0 -300 L 655.0 -294"/>
    <text style="stroke:none;fill:rgb(0,0,0);" transform="rotate(30,650.666,-286.206)" x="650.66640887946267" y="-286.20577136594005">
      40
    </text>
    <path d="M 685.0 -300 L 685.0 -294"/>
    <text style="stroke:none;fill:rgb(0,0,0);" transform="rotate(30,680.666,-286.206)" x="680.66640887946267" y="-286.20577136594005">
      50
    </text>
    <text style="stroke:none;fill:rgb(0,0,0);" x="611.24350000000004" y="-266.70177136594003">
      X label
    </text>
    <path d="M 550 -300 L 550 -420"/>
    <path d="M 550 -300.0 L 544 -300.0"/>
    <text style="stroke:none;fill:rgb(0,0,0);" x="538.99599999999998" y="-295.5">
      0
    </text>
    <path d="M 550 -310.90909090909093 L 544 -310.90909090909093"/>
    <text style="stroke:none;fill:rgb(0,0,0);" x="533.99199999999996" y="-306.40909090909093">
      10
    </text>
    <path d="M 550 -321.81818181818181 L 544 -321.81818181818181"/>
    <text style="stroke:none;fill:rgb(0,0,0);" x="533.99199999999996" y="-317.31818181818181">
      20
    </text>
    <path d="M 550 -332.72727272727275 L 544 -332.72727272727275"/>
    <text style="stroke:none;fill:rgb(0,0,0);" x="533.99199999999996" y="-328.22727272727275">
      30
    </text>
    <path d="M 550 -343.63636363636363 L 544 -343.63636363636363"/>
    <text style="stroke:none;fill:rgb(0,0,0);" x="533.99199999999996" y="-339.13636363636363">
      40
    </text>
    <path d="M 550 -354.54545454545456 L 544 -354.54545454545456"/>
    <text style="stroke:none;fill:rgb(0,0,0);" x="533.99199999999996" y="-350.04545454545456">
      50
    </text>
    <path d="M 550 -365.45454545454544 L 544 -365.45454545454544"/>
    <text style="stroke:none;fill:rgb(0,0,0);" x="533.99199999999996" y="-360.95454545454544">
      60
    </text>
    <path d="M 550 -398.18181818181819 L 544 -398.18181818181819"/>
    <text style="stroke:none;fill:rgb(0,0,0);" x="528.98800000000006" y="-393.68181818181819">
      260
    </text>
    <path d="M 550 -409.09090909090912 L 544 -409.09090909090912"/>
    <text style="stroke:none;fill:rgb(0,0,0);" x="528.98800000000006" y="-404.59090909090912">
      270
    </text>
    <path d="M 550 -420.0 L 544 -420.0"/>
    <text style="stroke:none;fill:rgb(0,0,0);" x="528.98800000000006" y="-415.5">
      280
    </text>
    <text style="stroke:none;fill:rgb(0,0,0);" transform="rotate(-90,524.488,-346.243)" x="524.48800000000006" y="-346.24349999999998">
      Y label
    </text>
    <g style="clip-path:url(#clip0);">
      <g style="clip-path:url(#clip1);">
        <g style="fill:rgb(0,0,0);clip-path:url(#clip2);">
          <path d="M 557.5 -300.0 L 557.5 -321.81818181818181 L 562.5 -321.81818181818181 L 562.5 -300.0 Z" style="stroke:none;"/>
        </g>
        <g>
          <path d="M 557.5 -300.0 L 557.5 -321.81818181818181 L 562.5 -321.81818181818181 L 562.5 -300.0 Z"/>
          <g style="fill:rgb(0,0,0);clip-path:url(#clip3);">
            <path d="M 587.5 -300.0 L 587.5 -403.63636363636363 L 592.5 -403.63636363636363 L 592.5 -300.0 Z" style="stroke:none;"/>
          </g>
          <g>
            <path d="M 587.5 -300.0 L 587.5 -403.63636363636363 L 592.5 -403.63636363636363 L 592.5 -300.0 Z"/>
            <g style="fill:rgb(0,0,0);clip-path:url(#clip4);">
              <path d="M 617.5 -300.0 L 617.5 -392.72727272727275 L 622.5 -392.72727272727275 L 622.5 -300.0 Z" style="stroke:none;"/>
            </g>
            <g>
              <path d="M 617.5 -300.0 L 617.5 -392.72727272727275 L 622.5 -392.72727272727275 L 622.5 -300.0 Z"/>
              <g style="fill:rgb(0,0,0);clip-path:url(#clip5);">
                <path d="M 647.5 -300.0 L 647.5 -349.09090909090912 L 652.5 -349.09090909090912 L 652.5 -300.0 Z" style="stroke:none;"/>
              </g>
              <g>
                <path d="M 647.5 -300.0 L 647.5 -349.09090909090912 L 652.5 -349.09090909090912 L 652.5 -300.0 Z"/>
                <g style="fill:rgb(0,0,0);clip-path:url(#clip6);">
                  <path d="M 677.5 -300.0 L 677.5 -327.27272727272725 L 682.5 -327.27272727272725 L 682.5 -300.0 Z" style="stroke:none;"/>
                </g>
                <g>
                  <path d="M 677.5 -300.0 L 677.5 -327.27272727272725 L 682.5 -327.27272727272725 L 682.5 -300.0 Z"/>
                </g>
              </g>
            </g>
          </g>
        </g>
      </g>
      <g style="clip-path:url(#clip7);">
        <g style="fill:rgb(179,179,179);clip-path:url(#clip8);">
          <path d="M 562.5 -300.0 L 562.5 -332.72727272727275 L 567.5 -332.72727272727275 L 567.5 -300.0 Z" style="stroke:none;"/>
        </g>
        <g>
          <path d="M 562.5 -300.0 L 562.5 -332.72727272727275 L 567.5 -332.72727272727275 L 567.5 -300.0 Z"/>
          <g style="fill:rgb(179,179,179);clip-path:url(#clip9);">
            <path d="M 592.5 -300.0 L 592.5 -336.0 L 597.5 -336.0 L 597.5 -300.0 Z" style="stroke:none;"/>
          </g>
          <g>
            <path d="M 592.5 -300.0 L 592.5 -336.0 L 597.5 -336.0 L 597.5 -300.0 Z"/>
            <g style="fill:rgb(179,179,179);clip-path:url(#clip10);">
              <path d="M 622.5 -300.0 L 622.5 -332.72727272727275 L 627.5 -332.72727272727275 L 627.5 -300.0 Z" style="stroke:none;"/>
            </g>
            <g>
              <path d="M 622.5 -300.0 L 622.5 -332.72727272727275 L 627.5 -332.72727272727275 L 627.5 -300.0 Z"/>
              <g style="fill:rgb(179,179,179);clip-path:url(#clip11);">
                <path d="M 652.5 -300.0 L 652.5 -355.63636363636363 L 657.5 -355.63636363636363 L 657.5 -300.0 Z" style="stroke:none;"/>
              </g>
              <g>
                <path d="M 652.5 -300.0 L 652.5 -355.63636363636363 L 657.5 -355.63636363636363 L 657.5 -300.0 Z"/>
                <g style="fill:rgb(179,179,179);clip-path:url(#clip12);">
                  <path d="M 682.5 -300.0 L 682.5 -329.45454545454544 L 687.5 -329.45454545454544 L 687.5 -300.0 Z" style="stroke:none;"/>
                </g>
                <g>
                  <path d="M 682.5 -300.0 L 682.5 -329.45454545454544 L 687.5 -329.45454545454544 L 687.5 -300.0 Z"/>
                </g>
              </g>
            </g>
          </g>
        </g>
      </g>
      <g style="clip-path:url(#clip13);">
        <g style="fill:rgb(255,255,255);clip-path:url(#clip14);">
          <path d="M 567.5 -300.0 L 567.5 -305.45454545454544 L 572.5 -305.45454545454544 L 572.5 -300.0 Z" style="stroke:none;"/>
          <path d="M 560.84545454545457 -299.60000000000002 L 567.10000000000002 -305.85454545454547" style="stroke-linecap:square;fill:none;"/>
          <path d="M 565.08745454545465 -299.60000000000002 L 571.3420000000001 -305.85454545454547" style="stroke-linecap:square;fill:none;"/>
          <path d="M 569.32945454545461 -299.60000000000002 L 575.58400000000006 -305.85454545454547" style="stroke-linecap:square;fill:none;"/>
        </g>
        <g>
          <path d="M 567.5 -300.0 L 567.5 -305.45454545454544 L 572.5 -305.45454545454544 L 572.5 -300.0 Z"/>
          <g style="fill:rgb(255,255,255);clip-path:url(#clip15);">
            <path d="M 597.5 -300.0 L 597.5 -305.45454545454544 L 602.5 -305.45454545454544 L 602.5 -300.0 Z" style="stroke:none;"/>
            <path d="M 590.84545454545457 -299.60000000000002 L 597.10000000000002 -305.85454545454547" style="stroke-linecap:square;fill:none;"/>
            <path d="M 595.08745454545465 -299.60000000000002 L 601.3420000000001 -305.85454545454547" style="stroke-linecap:square;fill:none;"/>
            <path d="M 599.32945454545461 -299.60000000000002 L 605.58400000000006 -305.85454545454547" style="stroke-linecap:square;fill:none;"/>
          </g>
          <g>
            <path d="M 597.5 -300.0 L 597.5 -305.45454545454544 L 602.5 -305.45454545454544 L 602.5 -300.0 Z"/>
            <g style="fill:rgb(255,255,255);clip-path:url(#clip16);">
              <path d="M 627.5 -300.0 L 627.5 -305.45454545454544 L 632.5 -305.45454545454544 L 632.5 -300.0 Z" style="stroke:none;"/>
              <path d="M 620.84545454545457 -299.60000000000002 L 627.10000000000002 -305.85454545454547" style="stroke-linecap:square;fill:none;"/>
              <path d="M 625.08745454545465 -299.60000000000002 L 631.3420000000001 -305.85454545454547" style="stroke-linecap:square;fill:none;"/>
              <path d="M 629.32945454545461 -299.60000000000002 L 635.58400000000006 -305.85454545454547" style="stroke-linecap:square;fill:none;"/>
            </g>
            <g>
              <path d="M 627.5 -300.0 L 627.5 -305.45454545454544 L 632.5 -305.45454545454544 L 632.5 -300.0 Z"/>
              <g style="fill:rgb(255,255,255);clip-path:url(#clip17);">
                <path d="M 657.5 -300.0 L 657.5 -307.63636363636363 L 662.5 -307.63636363636363 L 662.5 -300.0 Z" style="stroke:none;"/>
                <path d="M 648.66363636363644 -299.60000000000002 L 657.10000000000002 -308.03636363636366" style="stroke-linecap:square;fill:none;"/>
                <path d="M 652.9056363636364 -299.60000000000002 L 661.3420000000001 -308.03636363636366" style="stroke-linecap:square;fill:none;"/>
                <path d="M 657.14763636363637 -299.60000000000002 L 665.58400000000006 -308.03636363636366" style="stroke-linecap:square;fill:none;"/>
                <path d="M 661.38963636363644 -299.60000000000002 L 669.82600000000002 -308.03636363636366" style="stroke-linecap:square;fill:none;"/>
              </g>
              <g>
                <path d="M 657.5 -300.0 L 657.5 -307.63636363636363 L 662.5 -307.63636363636363 L 662.5 -300.0 Z"/>
                <g style="fill:rgb(255,255,255);clip-path:url(#clip18);">
                  <path d="M 687.5 -300.0 L 687.5 -303.27272727272725 L 692.5 -303.27272727272725 L 692.5 -300.0 Z" style="stroke:none;"/>
                  <path d="M 681.30000000000007 -299.60000000000002 L 687.10000000000002 -305.39999999999998" style="stroke-linecap:square;fill:none;"/>
                  <path d="M 685.54200000000014 -299.60000000000002 L 691.3420000000001 -305.39999999999998" style="stroke-linecap:square;fill:none;"/>
                  <path d="M 689.78400000000011 -299.60000000000002 L 695.58400000000006 -305.39999999999998" style="stroke-linecap:square;fill:none;"/>
                </g>
                <g>
                  <path d="M 687.5 -300.0 L 687.5 -303.27272727272725 L 692.5 -303.27272727272725 L 692.5 -300.0 Z"/>
                </g>
              </g>
            </g>
          </g>
        </g>
      </g>
    </g>
    <g style="fill:rgb(255,255,255);clip-path:url(#clip19);">
      <path d="M 710.0 -297 L 710.0 -327 L 746.00999999999999 -327 L 746.00999999999999 -297 Z" style="stroke:none;"/>
    </g>
    <g>
      <path d="M 710.0 -297 L 710.0 -327 L 746.00999999999999 -327 L 746.00999999999999 -297 Z"/>
      <g style="fill:rgb(0,0,0);clip-path:url(#clip20);">
        <path d="M 715.0 -317.85000000000002 L 715.0 -324.14999999999998 L 721.29999999999995 -324.14999999999998 L 721.29999999999995 -317.85000000000002 Z" style="stroke:none;"/>
      </g>
      <g>
        <path d="M 715.0 -317.85000000000002 L 715.0 -324.14999999999998 L 721.29999999999995 -324.14999999999998 L 721.29999999999995 -317.85000000000002 Z"/>
        <text style="stroke:none;fill:rgb(0,0,0);" x="724.0" y="-318.0">
          foo
        </text>
        <g style="fill:rgb(179,179,179);clip-path:url(#clip21);">
          <path d="M 715.0 -308.85000000000002 L 715.0 -315.14999999999998 L 721.29999999999995 -315.14999999999998 L 721.29999999999995 -308.85000000000002 Z" style="stroke:none;"/>
        </g>
        <g>
          <path d="M 715.0 -308.85000000000002 L 715.0 -315.14999999999998 L 721.29999999999995 -315.14999999999998 L 721.29999999999995 -308.85000000000002 Z"/>
          <text style="stroke:none;fill:rgb(0,0,0);" x="724.0" y="-309.0">
            bar
          </text>
          <g style="fill:rgb(255,255,255);clip-path:url(#clip22);">
            <path d="M 715.0 -299.85000000000002 L 715.0 -306.14999999999998 L 721.29999999999995 -306.14999999999998 L 721.29999999999995 -299.85000000000002 Z" style="stroke:none;"/>
            <path d="M 707.5 -299.44999999999999 L 714.60000000000002 -306.55000000000001" style="stroke-linecap:square;fill:none;"/>
            <path d="M 711.74199999999996 -299.44999999999999 L 718.8420000000001 -306.55000000000001" style="stroke-linecap:square;fill:none;"/>
            <path d="M 715.98400000000004 -299.44999999999999 L 723.08400000000006 -306.55000000000001" style="stroke-linecap:square;fill:none;"/>
            <path d="M 720.22600000000011 -299.44999999999999 L 727.32600000000002 -306.55000000000001" style="stroke-linecap:square;fill:none;"/>
          </g>
          <g>
            <path d="M 715.0 -299.85000000000002 L 715.0 -306.14999999999998 L 721.29999999999995 -306.14999999999998 L 721.29999999999995 -299.85000000000002 Z"/>
            <text style="stroke:none;fill:rgb(0,0,0);" x="724.0" y="-300.0">
              baz
            </text>
            <g style="fill:rgb(255,255,255);clip-path:url(#clip23);">
              <path d="M 545.0 -370.90909090909088 L 545.0 -378.90909090909088 L 557.0 -378.90909090909088 L 557.0 -370.90909090909088 Z" style="stroke:none;"/>
            </g>
            <path d="M 545.0 -370.90909090909088 L 549.0 -374.90909090909088 L 553.0 -370.90909090909088 L 557.0 -374.90909090909088"/>
            <path d="M 557.0 -378.90909090909088 L 553.0 -374.90909090909088 L 549.0 -378.90909090909088 L 545.0 -374.90909090909088"/>
            <g style="fill:rgb(255,255,255);clip-path:url(#clip24);">
              <path d="M 585.0 -370.90909090909088 L 585.0 -378.90909090909088 L 597.0 -378.90909090909088 L 597.0 -370.90909090909088 Z" style="stroke:none;"/>
            </g>
            <path d="M 585.0 -370.90909090909088 L 589.0 -374.90909090909088 L 593.0 -370.90909090909088 L 597.0 -374.90909090909088"/>
            <path d="M 597.0 -378.90909090909088 L 593.0 -374.90909090909088 L 589.0 -378.90909090909088 L 585.0 -374.90909090909088"/>
            <g style="fill:rgb(255,255,255);clip-path:url(#clip25);">
              <path d="M 615.0 -370.90909090909088 L 615.0 -378.90909090909088 L 627.0 -378.90909090909088 L 627.0 -370.90909090909088 Z" style="stroke:none;"/>
            </g>
            <path d="M 615.0 -370.90909090909088 L 619.0 -374.90909090909088 L 623.0 -370.90909090909088 L 627.0 -374.90909090909088"/>
            <path d="M 627.0 -378.90909090909088 L 623.0 -374.90909090909088 L 619.0 -378.90909090909088 L 615.0 -374.90909090909088"/>
          </g>
        </g>
      </g>
    </g>
  </g>
</svg>
