<?xml version="1.0" ?>
<!--Created by PyChart 1.39 Copyright 1999-2006 Yasushi Saito-->
<svg viewBox="254.982 -413 209.525 145.5" xmlns="http://www.w3.org/2000/svg" xmlns:xlink="http://www.w3.org/1999/xlink">
  <defs>
    <clipPath id="clip0">
      <path d="M 297 -297 L 297 -413 L 423 -413 L 423 -297 Z"/>
    </clipPath>
    <clipPath id="clip1">
      <path d="M 297 -297 L 297 -413 L 423 -413 L 423 -297 Z"/>
    </clipPath>
    <clipPath id="clip2">
      <path d="M 290 -290 L 290 -420 L 430 -420 L 430 -290 Z"/>
    </clipPath>
    <clipPath id="clip3">
      <path d="M 297 -297 L 297 -413 L 423 -413 L 423 -297 Z"/>
    </clipPath>
    <clipPath id="clip4">
      <path d="M 290 -290 L 290 -420 L 430 -420 L 430 -290 Z"/>
    </clipPath>
    <clipPath id="clip5">
      <path d="M 427.0 -297 L 427.0 -318 L 461.50700000000001 -318 L 461.50700000000001 -297 Z"/>
    </clipPath>
    <clipPath id="clip6">
      <path d="M 356.0 -300.0 L 360.0 -306.0 L 356.0 -312.0 L 360.0 -318.0 L 356.0 -324.0 L 360.0 -330.0 L 356.0 -336.0 L 360.0 -342.0 L 356.0 -348.0 L 360.0 -354.0 L 356.0 -360.0 L 360.0 -366.0 L 356.0 -372.0 L 360.0 -378.0 L 356.0 -384.0 L 362.0 -384.0 L 366.0 -378.0 L 362.0 -372.0 L 366.0 -366.0 L 362.0 -360.0 L 366.0 -354.0 L 362.0 -348.0 L 366.0 -342.0 L 362.0 -336.0 L 366.0 -330.0 L 362.0 -324.0 L 366.0 -318.0 L 362.0 -312.0 L 366.0 -306.0 L 362.0 -300.0 Z"/>
    </clipPath>
  </defs>
  <g style="stroke-linejoin:miter;font-size:9;font-family:Helvetica;fill:none;stroke-linecap:butt;stroke:rgb(0,0,0);font-stretch:normal;stroke-dasharray:none;font-weight:normal;font-style:normal;stroke-width:0.4;">
    <path d="M 300 -300 L 420 -300"/>
    <path d="M 300 -300 L 420 -300"/>
    <path d="M 300.0 -300 L 300.0 -294"/>
    <text style="stroke:none;fill:rgb(0,0,0);" x="293.745" y="-285.0">
      0.0
    </text>
    <path d="M 340.0 -300 L 340.0 -294"/>
    <text style="stroke:none;fill:rgb(0,0,0);" x="331.24299999999999" y="-285.0">
      10.0
    </text>
    <path d="M 380.0 -300 L 380.0 -294"/>
    <text style="stroke:none;fill:rgb(0,0,0);" x="371.24299999999999" y="-285.0">
      40.0
    </text>
    <path d="M 420.0 -300 L 420.0 -294"/>
    <text style="stroke:none;fill:rgb(0,0,0);" x="411.24299999999999" y="-285.0">
      50.0
    </text>
    <text style="stroke:none;fill:rgb(0,0,0);" x="356.99849999999998" y="-270.5">
      X
    </text>
    <path d="M 300 -344.0 L 420 -344.0" style="stroke:rgb(179,179,179);stroke-dasharray:1,1;"/>
    <path d="M 300 -388.0 L 420 -388.0" style="stroke:rgb(179,179,179);stroke-dasharray:1,1;"/>
    <path d="M 300 -300 L 300 -410"/>
    <path d="M 300 -300.0 L 294 -300.0"/>
    <text style="stroke:none;fill:rgb(0,0,0);" x="281.49000000000001" y="-295.5">
      0.0
    </text>
    <path d="M 300 -344.0 L 294 -344.0"/>
    <text style="stroke:none;fill:rgb(0,0,0);" x="271.48199999999997" y="-339.5">
      100.0
    </text>
    <path d="M 300 -388.0 L 294 -388.0"/>
    <text style="stroke:none;fill:rgb(0,0,0);" x="271.48199999999997" y="-383.5">
      200.0
    </text>
    <text style="stroke:none;fill:rgb(0,0,0);" transform="rotate(-90,266.982,-351.998)" x="266.98199999999997" y="-351.99849999999998">
      Y
    </text>
    <g style="clip-path:url(#clip0);">
      <g style="clip-path:url(#clip1);">
        <path d="M 304.0 -300.74309122934204 L 308.0 -300.7402059822623 L 312.0 -301.34976526441312 L 316.0 -302.75897103340242 L 320.0 -302.09702659827036 L 324.0 -304.79483603383136 L 328.0 -301.73612112150215 L 332.0 -304.35331773659436 L 336.0 -307.20519034726846 L 340.0 -307.12991167677001 L 344.0 -303.00222847101116 L 348.0 -309.49173232094199 L 352.0 -305.40131266477903 L 356.0 -305.34899701279062 L 360.0 -312.05174590274027 L 360.0 -306.71629765386228 L 360.0 -303.89696496346369 L 360.0 -308.69139697275574 L 360.0 -312.03346235667414 L 360.0 -314.51727159780887 L 360.0 -300.02111930093065 L 360.0 -316.79678973354021 L 360.0 -306.5821363020072 L 360.0 -304.0353369725305 L 360.0 -305.24955042953485 L 360.0 -318.37674625712344 L 360.0 -301.91139264880826 L 360.0 -312.51565743170693 L 360.0 -302.78315622816177 L 360.0 -318.65322122048588 L 360.0 -322.21865603058762 L 360.0 -327.14169345462221 L 360.0 -317.06439954365464 L 360.0 -317.84090289856653 L 360.0 -317.73005123627854 L 364.0 -305.99991728860198 L 368.0 -319.95189473652181 L 372.0 -315.93519637279371 L 376.0 -326.00096660188808 L 380.0 -332.5030117613091 L 384.0 -332.40608621859229 L 388.0 -319.98057322608008 L 392.0 -326.68792385049073 L 396.0 -331.42626359342506 L 400.0 -335.44354311009636 L 404.0 -338.44648206843624 L 408.0 -318.63529009026456 L 412.0 -342.0819311342949 L 416.0 -334.20817762769525" style="stroke-width:1.2;"/>
      </g>
      <g style="clip-path:url(#clip2);"/>
      <g style="clip-path:url(#clip3);">
        <path d="M 304.0 -301.33399974917495 L 308.0 -300.91138696103121 L 312.0 -302.13805224573821 L 316.0 -302.13532159159564 L 320.0 -305.13376194720428 L 324.0 -305.32949319743165 L 328.0 -309.31150779521698 L 332.0 -303.52712928638317 L 336.0 -315.56732194043644 L 340.0 -315.87812072773664 L 344.0 -314.12954264631611 L 348.0 -314.44574064205415 L 352.0 -302.30404364060422 L 356.0 -315.05225502565526 L 360.0 -325.51840810914803 L 360.0 -324.36712756604936 L 360.0 -324.08643258422961 L 360.0 -300.44484106119614 L 360.0 -313.33665925197954 L 360.0 -323.51899268336115 L 360.0 -318.2426379445584 L 360.0 -309.44422915306973 L 360.0 -335.23667547575832 L 360.0 -323.97165368381718 L 360.0 -342.57177101276631 L 360.0 -320.49908758889171 L 360.0 -315.20899481403939 L 360.0 -345.97005085790198 L 360.0 -328.13668024046171 L 360.0 -328.9048801181408 L 360.0 -329.47787359630087 L 360.0 -333.97141456678509 L 360.0 -325.84496264608197 L 360.0 -323.03248457500399 L 360.0 -317.88429734800991 L 364.0 -311.83118291027199 L 368.0 -342.76165941100464 L 372.0 -306.00745327676128 L 376.0 -360.18151825327527 L 380.0 -359.30919970906882 L 384.0 -366.60962885742396 L 388.0 -328.92460403334348 L 392.0 -320.85999030090181 L 396.0 -365.78419314403226 L 400.0 -346.71225373566784 L 404.0 -346.93210806996427 L 408.0 -354.615497719644 L 412.0 -377.46319409220109 L 416.0 -307.10384650207885" style="stroke-width:1.2;stroke-dasharray:1.5,1.5;"/>
      </g>
      <g style="clip-path:url(#clip4);"/>
    </g>
    <g style="fill:rgb(255,255,255);clip-path:url(#clip5);">
      <path d="M 427.0 -297 L 427.0 -318 L 461.50700000000001 -318 L 461.50700000000001 -297 Z" style="stroke:none;"/>
    </g>
    <g>
      <path d="M 427.0 -297 L 427.0 -318 L 461.50700000000001 -318 L 461.50700000000001 -297 Z"/>
      <path d="M 432.0 -312.0 L 441.0 -312.0" style="stroke-width:1.2;"/>
      <text style="stroke:none;fill:rgb(0,0,0);" x="441.0" y="-309.0">
        foo
      </text>
      <path d="M 432.0 -303.0 L 441.0 -303.0" style="stroke-width:1.2;stroke-dasharray:1.5,1.5;"/>
      <text style="stroke:none;fill:rgb(0,0,0);" x="441.0" y="-300.0">
        bar
      </text>
      <g style="fill:rgb(255,255,255);clip-path:url(#clip6);">
        <path d="M 356.0 -300.0 L 356.0 -384.0 L 366.0 -384.0 L 366.0 -300.0 Z" style="stroke:none;"/>
      </g>
      <path d="M 356.0 -300.0 L 360.0 -306.0 L 356.0 -312.0 L 360.0 -318.0 L 356.0 -324.0 L 360.0 -330.0 L 356.0 -336.0 L 360.0 -342.0 L 356.0 -348.0 L 360.0 -354.0 L 356.0 -360.0 L 360.0 -366.0 L 356.0 -372.0 L 360.0 -378.0 L 356.0 -384.0"/>
      <path d="M 362.0 -384.0 L 366.0 -378.0 L 362.0 -372.0 L 366.0 -366.0 L 362.0 -360.0 L 366.0 -354.0 L 362.0 -348.0 L 366.0 -342.0 L 362.0 -336.0 L 366.0 -330.0 L 362.0 -324.0 L 366.0 -318.0 L 362.0 -312.0 L 366.0 -306.0 L 362.0 -300.0"/>
    </g>
  </g>
</svg>
